solid micro_metal_housing
facet normal -0.2588190451025028 -0.9659258262890731 0.0
  outer loop
    vertex -48.300712337553236 31.573266153122653 26.000000000000004
    vertex -48.55953138265575 31.60734032683358 16.000000000000004
    vertex -48.300712337553236 31.573266153122653 16.000000000000004
  endloop
endfacet
facet normal -2.8159107270244142e-15 -1.0 0.0
  outer loop
    vertex -48.55953138265575 31.60734032683358 16.000000000000004
    vertex -48.300712337553236 31.573266153122653 26.000000000000004
    vertex -48.55953138265575 31.60734032683358 26.000000000000004
  endloop
endfacet
facet normal 0.5000000000000038 -0.8660254037844365 0.0
  outer loop
    vertex -49.05953138265575 31.473365730618013 26.000000000000004
    vertex -49.2666381638423 31.31444710802013 16.000000000000004
    vertex -49.05953138265575 31.473365730618013 16.000000000000004
  endloop
endfacet
facet normal 0.7071067811865476 -0.7071067811865476 0.0
  outer loop
    vertex -49.2666381638423 31.31444710802013 16.000000000000004
    vertex -49.05953138265575 31.473365730618013 26.000000000000004
    vertex -49.2666381638423 31.31444710802013 26.000000000000004
  endloop
endfacet
facet normal -0.9659258262890662 0.2588190451025286 0.0
  outer loop
    vertex -47.59360555636669 30.348521281731056 26.000000000000004
    vertex -47.693505978871315 30.107340326833583 16.000000000000004
    vertex -47.693505978871315 30.107340326833583 26.000000000000004
  endloop
endfacet
facet normal -0.8660254037844378 0.5000000000000013 0.0
  outer loop
    vertex -47.693505978871315 30.107340326833583 16.000000000000004
    vertex -47.59360555636669 30.348521281731056 26.000000000000004
    vertex -47.59360555636669 30.348521281731056 16.000000000000004
  endloop
endfacet
facet normal 0.9659258262890662 -0.2588190451025286 0.0
  outer loop
    vertex -77.27545720894481 30.866159371936114 16.000000000000004
    vertex -77.30953138265575 30.60734032683359 26.000000000000004
    vertex -77.30953138265575 30.60734032683359 16.000000000000004
  endloop
endfacet
facet normal 1.0 0.0 0.0
  outer loop
    vertex -77.30953138265575 30.60734032683359 26.000000000000004
    vertex -77.27545720894481 30.866159371936114 16.000000000000004
    vertex -77.27545720894481 30.866159371936114 26.000000000000004
  endloop
endfacet
facet normal 0.25881904510252207 0.965925826289068 0.0
  outer loop
    vertex -76.56835042775826 29.64141450054452 26.000000000000004
    vertex -76.30953138265575 29.607340326833594 16.000000000000004
    vertex -76.56835042775826 29.64141450054452 16.000000000000004
  endloop
endfacet
facet normal 2.8159107270244142e-15 1.0 0.0
  outer loop
    vertex -76.30953138265575 29.607340326833594 16.000000000000004
    vertex -76.56835042775826 29.64141450054452 26.000000000000004
    vertex -76.30953138265575 29.607340326833594 26.000000000000004
  endloop
endfacet
facet normal 0.7071067811865568 -0.7071067811865384 0.0
  outer loop
    vertex -77.01663816384229 31.31444710802014 16.000000000000004
    vertex -77.17555678644018 31.10734032683359 26.000000000000004
    vertex -77.17555678644018 31.10734032683359 16.000000000000004
  endloop
endfacet
facet normal 0.8660254037844378 -0.5000000000000013 0.0
  outer loop
    vertex -77.17555678644018 31.10734032683359 26.000000000000004
    vertex -77.01663816384229 31.31444710802014 16.000000000000004
    vertex -77.01663816384229 31.31444710802014 26.000000000000004
  endloop
endfacet
facet normal -1.0 0.0 0.0
  outer loop
    vertex -50.55953138265575 37.107340326833594 26.000000000000004
    vertex -50.55953138265575 24.10734032683359 3.0
    vertex -50.55953138265575 24.10734032683359 26.000000000000004
  endloop
endfacet
facet normal -1.0 0.0 0.0
  outer loop
    vertex -50.55953138265575 24.10734032683359 3.0
    vertex -50.55953138265575 37.107340326833594 26.000000000000004
    vertex -50.55953138265575 37.107340326833594 3.0
  endloop
endfacet
facet normal -1.0 0.0 0.0
  outer loop
    vertex -47.55953138265575 30.60734032683358 26.000000000000004
    vertex -47.59360555636669 30.348521281731056 16.000000000000004
    vertex -47.59360555636669 30.348521281731056 26.000000000000004
  endloop
endfacet
facet normal -0.9659258262890662 0.2588190451025286 0.0
  outer loop
    vertex -47.59360555636669 30.348521281731056 16.000000000000004
    vertex -47.55953138265575 30.60734032683358 26.000000000000004
    vertex -47.55953138265575 30.60734032683358 16.000000000000004
  endloop
endfacet
facet normal 0.7071067811865447 0.7071067811865502 0.0
  outer loop
    vertex -77.01663816384229 29.900233545647044 26.000000000000004
    vertex -76.80953138265575 29.74131492304916 16.000000000000004
    vertex -77.01663816384229 29.900233545647044 16.000000000000004
  endloop
endfacet
facet normal 0.5000000000000082 0.8660254037844342 0.0
  outer loop
    vertex -76.80953138265575 29.74131492304916 16.000000000000004
    vertex -77.01663816384229 29.900233545647044 26.000000000000004
    vertex -76.80953138265575 29.74131492304916 26.000000000000004
  endloop
endfacet
facet normal 0.7071067811865476 0.7071067811865476 0.0
  outer loop
    vertex -49.2666381638423 29.90023354564703 26.000000000000004
    vertex -49.05953138265575 29.741314923049146 16.000000000000004
    vertex -49.2666381638423 29.90023354564703 16.000000000000004
  endloop
endfacet
facet normal 0.4999999999999865 0.8660254037844465 0.0
  outer loop
    vertex -49.05953138265575 29.741314923049146 16.000000000000004
    vertex -49.2666381638423 29.90023354564703 26.000000000000004
    vertex -49.05953138265575 29.741314923049146 26.000000000000004
  endloop
endfacet
facet normal -0.0 -0.0 1.0
  outer loop
    vertex -49.52545720894482 30.348521281731056 16.000000000000004
    vertex -49.52545720894482 30.866159371936103 16.000000000000004
    vertex -49.55953138265575 30.60734032683358 16.000000000000004
  endloop
endfacet
facet normal -0.0 -0.0 1.0
  outer loop
    vertex -49.52545720894482 30.866159371936103 16.000000000000004
    vertex -49.52545720894482 30.348521281731056 16.000000000000004
    vertex -49.42555678644018 30.107340326833583 16.000000000000004
  endloop
endfacet
facet normal -0.0 -0.0 1.0
  outer loop
    vertex -49.52545720894482 30.866159371936103 16.000000000000004
    vertex -49.42555678644018 30.107340326833583 16.000000000000004
    vertex -49.42555678644018 31.10734032683358 16.000000000000004
  endloop
endfacet
facet normal -0.0 -0.0 1.0
  outer loop
    vertex -49.42555678644018 31.10734032683358 16.000000000000004
    vertex -49.42555678644018 30.107340326833583 16.000000000000004
    vertex -49.2666381638423 29.90023354564703 16.000000000000004
  endloop
endfacet
facet normal -0.0 -0.0 1.0
  outer loop
    vertex -49.42555678644018 31.10734032683358 16.000000000000004
    vertex -49.2666381638423 29.90023354564703 16.000000000000004
    vertex -49.2666381638423 31.31444710802013 16.000000000000004
  endloop
endfacet
facet normal -0.0 -0.0 1.0
  outer loop
    vertex -49.2666381638423 31.31444710802013 16.000000000000004
    vertex -49.2666381638423 29.90023354564703 16.000000000000004
    vertex -49.05953138265575 29.741314923049146 16.000000000000004
  endloop
endfacet
facet normal -0.0 -0.0 1.0
  outer loop
    vertex -49.2666381638423 31.31444710802013 16.000000000000004
    vertex -49.05953138265575 29.741314923049146 16.000000000000004
    vertex -49.05953138265575 31.473365730618013 16.000000000000004
  endloop
endfacet
facet normal -0.0 -0.0 1.0
  outer loop
    vertex -49.05953138265575 31.473365730618013 16.000000000000004
    vertex -49.05953138265575 29.741314923049146 16.000000000000004
    vertex -48.818350427758276 29.64141450054452 16.000000000000004
  endloop
endfacet
facet normal -0.0 -0.0 1.0
  outer loop
    vertex -49.05953138265575 31.473365730618013 16.000000000000004
    vertex -48.818350427758276 29.64141450054452 16.000000000000004
    vertex -48.818350427758276 31.573266153122653 16.000000000000004
  endloop
endfacet
facet normal -0.0 -0.0 1.0
  outer loop
    vertex -48.818350427758276 31.573266153122653 16.000000000000004
    vertex -48.818350427758276 29.64141450054452 16.000000000000004
    vertex -48.55953138265575 29.607340326833583 16.000000000000004
  endloop
endfacet
facet normal -0.0 -0.0 1.0
  outer loop
    vertex -48.818350427758276 31.573266153122653 16.000000000000004
    vertex -48.55953138265575 29.607340326833583 16.000000000000004
    vertex -48.55953138265575 31.60734032683358 16.000000000000004
  endloop
endfacet
facet normal -0.0 -0.0 1.0
  outer loop
    vertex -48.55953138265575 31.60734032683358 16.000000000000004
    vertex -48.55953138265575 29.607340326833583 16.000000000000004
    vertex -48.30071233755323 29.64141450054452 16.000000000000004
  endloop
endfacet
facet normal -0.0 -0.0 1.0
  outer loop
    vertex -48.55953138265575 31.60734032683358 16.000000000000004
    vertex -48.30071233755323 29.64141450054452 16.000000000000004
    vertex -48.300712337553236 31.573266153122653 16.000000000000004
  endloop
endfacet
facet normal -0.0 -0.0 1.0
  outer loop
    vertex -48.300712337553236 31.573266153122653 16.000000000000004
    vertex -48.30071233755323 29.64141450054452 16.000000000000004
    vertex -48.05953138265575 31.473365730618024 16.000000000000004
  endloop
endfacet
facet normal -0.0 -0.0 1.0
  outer loop
    vertex -48.05953138265575 31.473365730618024 16.000000000000004
    vertex -48.30071233755323 29.64141450054452 16.000000000000004
    vertex -48.05953138265575 29.741314923049146 16.000000000000004
  endloop
endfacet
facet normal -0.0 -0.0 1.0
  outer loop
    vertex -48.05953138265575 31.473365730618024 16.000000000000004
    vertex -48.05953138265575 29.741314923049146 16.000000000000004
    vertex -47.85242460146921 29.90023354564703 16.000000000000004
  endloop
endfacet
facet normal -0.0 -0.0 1.0
  outer loop
    vertex -48.05953138265575 31.473365730618024 16.000000000000004
    vertex -47.85242460146921 29.90023354564703 16.000000000000004
    vertex -47.85242460146921 31.31444710802013 16.000000000000004
  endloop
endfacet
facet normal -0.0 -0.0 1.0
  outer loop
    vertex -47.85242460146921 31.31444710802013 16.000000000000004
    vertex -47.85242460146921 29.90023354564703 16.000000000000004
    vertex -47.693505978871315 30.107340326833583 16.000000000000004
  endloop
endfacet
facet normal -0.0 -0.0 1.0
  outer loop
    vertex -47.85242460146921 31.31444710802013 16.000000000000004
    vertex -47.693505978871315 30.107340326833583 16.000000000000004
    vertex -47.693505978871315 31.10734032683358 16.000000000000004
  endloop
endfacet
facet normal -0.0 -0.0 1.0
  outer loop
    vertex -47.693505978871315 31.10734032683358 16.000000000000004
    vertex -47.693505978871315 30.107340326833583 16.000000000000004
    vertex -47.59360555636669 30.348521281731056 16.000000000000004
  endloop
endfacet
facet normal -0.0 -0.0 1.0
  outer loop
    vertex -47.693505978871315 31.10734032683358 16.000000000000004
    vertex -47.59360555636669 30.348521281731056 16.000000000000004
    vertex -47.59360555636669 30.866159371936103 16.000000000000004
  endloop
endfacet
facet normal -0.0 -0.0 1.0
  outer loop
    vertex -47.59360555636669 30.866159371936103 16.000000000000004
    vertex -47.59360555636669 30.348521281731056 16.000000000000004
    vertex -47.55953138265575 30.60734032683358 16.000000000000004
  endloop
endfacet
facet normal -0.49999999999999767 0.8660254037844398 0.0
  outer loop
    vertex -48.05953138265575 29.741314923049146 26.000000000000004
    vertex -47.85242460146921 29.90023354564703 16.000000000000004
    vertex -48.05953138265575 29.741314923049146 16.000000000000004
  endloop
endfacet
facet normal -0.7071067811865447 0.7071067811865505 0.0
  outer loop
    vertex -47.85242460146921 29.90023354564703 16.000000000000004
    vertex -48.05953138265575 29.741314923049146 26.000000000000004
    vertex -47.85242460146921 29.90023354564703 26.000000000000004
  endloop
endfacet
facet normal -0.8660254037844379 -0.5000000000000012 0.0
  outer loop
    vertex -47.693505978871315 31.10734032683358 26.000000000000004
    vertex -47.59360555636669 30.866159371936103 16.000000000000004
    vertex -47.59360555636669 30.866159371936103 26.000000000000004
  endloop
endfacet
facet normal -0.9659258262890662 -0.2588190451025286 0.0
  outer loop
    vertex -47.59360555636669 30.866159371936103 16.000000000000004
    vertex -47.693505978871315 31.10734032683358 26.000000000000004
    vertex -47.693505978871315 31.10734032683358 16.000000000000004
  endloop
endfacet
facet normal -0.7071067811865569 -0.7071067811865381 0.0
  outer loop
    vertex -47.85242460146921 31.31444710802013 26.000000000000004
    vertex -48.05953138265575 31.473365730618024 16.000000000000004
    vertex -47.85242460146921 31.31444710802013 16.000000000000004
  endloop
endfacet
facet normal -0.5000000000000054 -0.8660254037844354 0.0
  outer loop
    vertex -48.05953138265575 31.473365730618024 16.000000000000004
    vertex -47.85242460146921 31.31444710802013 26.000000000000004
    vertex -48.05953138265575 31.473365730618024 26.000000000000004
  endloop
endfacet
facet normal 0.0 0.0 -1.0
  outer loop
    vertex -79.30953138265575 40.107340326833594 0.0
    vertex -74.30953138265575 37.107340326833594 -3.524958103184872e-16
    vertex -79.30953138265575 21.107340326833594 0.0
  endloop
endfacet
facet normal 0.0 0.0 -1.0
  outer loop
    vertex -74.30953138265575 37.107340326833594 -3.524958103184872e-16
    vertex -79.30953138265575 40.107340326833594 0.0
    vertex -45.559531382655756 40.107340326833594 0.0
  endloop
endfacet
facet normal 0.0 0.0 -1.0
  outer loop
    vertex -74.30953138265575 37.107340326833594 -3.524958103184872e-16
    vertex -45.559531382655756 40.107340326833594 0.0
    vertex -70.30953138265575 37.107340326833594 -3.524958103184872e-16
  endloop
endfacet
facet normal 0.0 0.0 -1.0
  outer loop
    vertex -70.30953138265575 37.107340326833594 -3.524958103184872e-16
    vertex -45.559531382655756 40.107340326833594 0.0
    vertex -70.30953138265575 24.107340326833594 -3.524958103184872e-16
  endloop
endfacet
facet normal 0.0 0.0 -1.0
  outer loop
    vertex -79.30953138265575 21.107340326833594 0.0
    vertex -74.30953138265575 24.10734032683359 -3.524958103184872e-16
    vertex -45.559531382655756 21.107340326833594 0.0
  endloop
endfacet
facet normal 0.0 0.0 -1.0
  outer loop
    vertex -74.30953138265575 24.10734032683359 -3.524958103184872e-16
    vertex -79.30953138265575 21.107340326833594 0.0
    vertex -74.30953138265575 37.107340326833594 -3.524958103184872e-16
  endloop
endfacet
facet normal 0.0 0.0 -1.0
  outer loop
    vertex -45.559531382655756 21.107340326833594 0.0
    vertex -74.30953138265575 24.10734032683359 -3.524958103184872e-16
    vertex -70.30953138265575 24.107340326833594 -3.524958103184872e-16
  endloop
endfacet
facet normal 0.0 0.0 -1.0
  outer loop
    vertex -45.559531382655756 21.107340326833594 0.0
    vertex -70.30953138265575 24.107340326833594 -3.524958103184872e-16
    vertex -45.559531382655756 40.107340326833594 0.0
  endloop
endfacet
facet normal 0.5000000000000082 0.8660254037844342 0.0
  outer loop
    vertex -76.80953138265575 29.74131492304916 26.000000000000004
    vertex -76.56835042775826 29.64141450054452 16.000000000000004
    vertex -76.80953138265575 29.74131492304916 16.000000000000004
  endloop
endfacet
facet normal 0.25881904510252207 0.965925826289068 0.0
  outer loop
    vertex -76.56835042775826 29.64141450054452 16.000000000000004
    vertex -76.80953138265575 29.74131492304916 26.000000000000004
    vertex -76.56835042775826 29.64141450054452 26.000000000000004
  endloop
endfacet
facet normal -0.7071067811865569 -0.7071067811865381 0.0
  outer loop
    vertex -47.85242460146921 31.31444710802013 26.000000000000004
    vertex -47.693505978871315 31.10734032683358 16.000000000000004
    vertex -47.693505978871315 31.10734032683358 26.000000000000004
  endloop
endfacet
facet normal -0.8660254037844379 -0.5000000000000012 0.0
  outer loop
    vertex -47.693505978871315 31.10734032683358 16.000000000000004
    vertex -47.85242460146921 31.31444710802013 26.000000000000004
    vertex -47.85242460146921 31.31444710802013 16.000000000000004
  endloop
endfacet
facet normal 0.5000000000000054 -0.8660254037844354 0.0
  outer loop
    vertex -76.80953138265575 31.473365730618035 26.000000000000004
    vertex -77.01663816384229 31.31444710802014 16.000000000000004
    vertex -76.80953138265575 31.473365730618035 16.000000000000004
  endloop
endfacet
facet normal 0.7071067811865568 -0.7071067811865384 0.0
  outer loop
    vertex -77.01663816384229 31.31444710802014 16.000000000000004
    vertex -76.80953138265575 31.473365730618035 26.000000000000004
    vertex -77.01663816384229 31.31444710802014 26.000000000000004
  endloop
endfacet
facet normal -0.5000000000000038 0.8660254037844365 0.0
  outer loop
    vertex -75.80953138265576 29.74131492304916 26.000000000000004
    vertex -75.60242460146921 29.900233545647044 16.000000000000004
    vertex -75.80953138265576 29.74131492304916 16.000000000000004
  endloop
endfacet
facet normal -0.7071067811865355 0.7071067811865598 0.0
  outer loop
    vertex -75.60242460146921 29.900233545647044 16.000000000000004
    vertex -75.80953138265576 29.74131492304916 26.000000000000004
    vertex -75.60242460146921 29.900233545647044 26.000000000000004
  endloop
endfacet
facet normal -0.0 1.0 -0.0
  outer loop
    vertex -74.30953138265575 24.10734032683359 26.000000000000004
    vertex -70.30953138265575 24.107340326833594 -3.524958103184872e-16
    vertex -74.30953138265575 24.10734032683359 -3.524958103184872e-16
  endloop
endfacet
facet normal -0.0 1.0 -0.0
  outer loop
    vertex -70.30953138265575 24.107340326833594 -3.524958103184872e-16
    vertex -74.30953138265575 24.10734032683359 26.000000000000004
    vertex -70.30953138265575 24.107340326833594 3.0
  endloop
endfacet
facet normal -0.0 1.0 -0.0
  outer loop
    vertex -70.30953138265575 24.107340326833594 3.0
    vertex -74.30953138265575 24.10734032683359 26.000000000000004
    vertex -50.55953138265575 24.10734032683359 3.0
  endloop
endfacet
facet normal -0.0 1.0 -0.0
  outer loop
    vertex -50.55953138265575 24.10734032683359 3.0
    vertex -74.30953138265575 24.10734032683359 26.000000000000004
    vertex -50.55953138265575 24.10734032683359 26.000000000000004
  endloop
endfacet
facet normal -0.9659258262890662 -0.2588190451025286 0.0
  outer loop
    vertex -47.59360555636669 30.866159371936103 26.000000000000004
    vertex -47.55953138265575 30.60734032683358 16.000000000000004
    vertex -47.55953138265575 30.60734032683358 26.000000000000004
  endloop
endfacet
facet normal -1.0 0.0 0.0
  outer loop
    vertex -47.55953138265575 30.60734032683358 16.000000000000004
    vertex -47.59360555636669 30.866159371936103 26.000000000000004
    vertex -47.59360555636669 30.866159371936103 16.000000000000004
  endloop
endfacet
facet normal 0.0 1.0 0.0
  outer loop
    vertex -48.55953138265575 29.607340326833583 26.000000000000004
    vertex -48.30071233755323 29.64141450054452 16.000000000000004
    vertex -48.55953138265575 29.607340326833583 16.000000000000004
  endloop
endfacet
facet normal -0.2588190451025286 0.9659258262890662 0.0
  outer loop
    vertex -48.30071233755323 29.64141450054452 16.000000000000004
    vertex -48.55953138265575 29.607340326833583 26.000000000000004
    vertex -48.30071233755323 29.64141450054452 26.000000000000004
  endloop
endfacet
facet normal -0.25881904510252207 -0.965925826289068 0.0
  outer loop
    vertex -76.05071233755324 31.573266153122663 26.000000000000004
    vertex -76.30953138265575 31.60734032683359 16.000000000000004
    vertex -76.05071233755324 31.573266153122663 16.000000000000004
  endloop
endfacet
facet normal -2.8159107270244142e-15 -1.0 0.0
  outer loop
    vertex -76.30953138265575 31.60734032683359 16.000000000000004
    vertex -76.05071233755324 31.573266153122663 26.000000000000004
    vertex -76.30953138265575 31.60734032683359 26.000000000000004
  endloop
endfacet
facet normal -1.0 0.0 -0.0
  outer loop
    vertex -70.30953138265575 37.107340326833594 3.0
    vertex -70.30953138265575 24.107340326833594 -3.524958103184872e-16
    vertex -70.30953138265575 24.107340326833594 3.0
  endloop
endfacet
facet normal -1.0 0.0 -0.0
  outer loop
    vertex -70.30953138265575 24.107340326833594 -3.524958103184872e-16
    vertex -70.30953138265575 37.107340326833594 3.0
    vertex -70.30953138265575 37.107340326833594 -3.524958103184872e-16
  endloop
endfacet
facet normal 2.8159107270244142e-15 1.0 0.0
  outer loop
    vertex -76.30953138265575 29.607340326833594 26.000000000000004
    vertex -76.05071233755324 29.64141450054452 16.000000000000004
    vertex -76.30953138265575 29.607340326833594 16.000000000000004
  endloop
endfacet
facet normal -0.25881904510252735 0.9659258262890665 0.0
  outer loop
    vertex -76.05071233755324 29.64141450054452 16.000000000000004
    vertex -76.30953138265575 29.607340326833594 26.000000000000004
    vertex -76.05071233755324 29.64141450054452 26.000000000000004
  endloop
endfacet
facet normal -2.8159107270244142e-15 -1.0 0.0
  outer loop
    vertex -76.30953138265575 31.60734032683359 26.000000000000004
    vertex -76.56835042775826 31.573266153122663 16.000000000000004
    vertex -76.30953138265575 31.60734032683359 16.000000000000004
  endloop
endfacet
facet normal 0.25881904510250003 -0.9659258262890739 0.0
  outer loop
    vertex -76.56835042775826 31.573266153122663 16.000000000000004
    vertex -76.30953138265575 31.60734032683359 26.000000000000004
    vertex -76.56835042775826 31.573266153122663 26.000000000000004
  endloop
endfacet
facet normal 0.8660254037844378 0.5000000000000013 0.0
  outer loop
    vertex -77.17555678644018 30.107340326833594 16.000000000000004
    vertex -77.01663816384229 29.900233545647044 26.000000000000004
    vertex -77.01663816384229 29.900233545647044 16.000000000000004
  endloop
endfacet
facet normal 0.7071067811865447 0.7071067811865502 0.0
  outer loop
    vertex -77.01663816384229 29.900233545647044 26.000000000000004
    vertex -77.17555678644018 30.107340326833594 16.000000000000004
    vertex -77.17555678644018 30.107340326833594 26.000000000000004
  endloop
endfacet
facet normal 0.8660254037844378 -0.5000000000000013 0.0
  outer loop
    vertex -77.17555678644018 31.10734032683359 16.000000000000004
    vertex -77.27545720894481 30.866159371936114 26.000000000000004
    vertex -77.27545720894481 30.866159371936114 16.000000000000004
  endloop
endfacet
facet normal 0.9659258262890662 -0.2588190451025286 0.0
  outer loop
    vertex -77.27545720894481 30.866159371936114 26.000000000000004
    vertex -77.17555678644018 31.10734032683359 16.000000000000004
    vertex -77.17555678644018 31.10734032683359 26.000000000000004
  endloop
endfacet
facet normal -0.25881904510252735 0.9659258262890665 0.0
  outer loop
    vertex -76.05071233755324 29.64141450054452 26.000000000000004
    vertex -75.80953138265576 29.74131492304916 16.000000000000004
    vertex -76.05071233755324 29.64141450054452 16.000000000000004
  endloop
endfacet
facet normal -0.5000000000000038 0.8660254037844365 0.0
  outer loop
    vertex -75.80953138265576 29.74131492304916 16.000000000000004
    vertex -76.05071233755324 29.64141450054452 26.000000000000004
    vertex -75.80953138265576 29.74131492304916 26.000000000000004
  endloop
endfacet
facet normal 0.8660254037844365 -0.5000000000000038 0.0
  outer loop
    vertex -49.42555678644018 31.10734032683358 16.000000000000004
    vertex -49.52545720894482 30.866159371936103 26.000000000000004
    vertex -49.52545720894482 30.866159371936103 16.000000000000004
  endloop
endfacet
facet normal 0.9659258262890665 -0.25881904510252735 0.0
  outer loop
    vertex -49.52545720894482 30.866159371936103 26.000000000000004
    vertex -49.42555678644018 31.10734032683358 16.000000000000004
    vertex -49.42555678644018 31.10734032683358 26.000000000000004
  endloop
endfacet
facet normal 0.9659258262890665 0.25881904510252735 0.0
  outer loop
    vertex -49.52545720894482 30.348521281731056 16.000000000000004
    vertex -49.42555678644018 30.107340326833583 26.000000000000004
    vertex -49.42555678644018 30.107340326833583 16.000000000000004
  endloop
endfacet
facet normal 0.8660254037844365 0.5000000000000038 0.0
  outer loop
    vertex -49.42555678644018 30.107340326833583 26.000000000000004
    vertex -49.52545720894482 30.348521281731056 16.000000000000004
    vertex -49.52545720894482 30.348521281731056 26.000000000000004
  endloop
endfacet
facet normal -0.5000000000000054 -0.8660254037844354 0.0
  outer loop
    vertex -48.05953138265575 31.473365730618024 26.000000000000004
    vertex -48.300712337553236 31.573266153122653 16.000000000000004
    vertex -48.05953138265575 31.473365730618024 16.000000000000004
  endloop
endfacet
facet normal -0.2588190451025028 -0.9659258262890731 0.0
  outer loop
    vertex -48.300712337553236 31.573266153122653 16.000000000000004
    vertex -48.05953138265575 31.473365730618024 26.000000000000004
    vertex -48.300712337553236 31.573266153122653 26.000000000000004
  endloop
endfacet
facet normal -0.8660254037844378 0.5000000000000013 0.0
  outer loop
    vertex -75.44350597887131 30.107340326833594 26.000000000000004
    vertex -75.60242460146921 29.900233545647044 16.000000000000004
    vertex -75.60242460146921 29.900233545647044 26.000000000000004
  endloop
endfacet
facet normal -0.7071067811865355 0.7071067811865598 0.0
  outer loop
    vertex -75.60242460146921 29.900233545647044 16.000000000000004
    vertex -75.44350597887131 30.107340326833594 26.000000000000004
    vertex -75.44350597887131 30.107340326833594 16.000000000000004
  endloop
endfacet
facet normal 0.25881904510250003 -0.9659258262890739 0.0
  outer loop
    vertex -76.56835042775826 31.573266153122663 26.000000000000004
    vertex -76.80953138265575 31.473365730618035 16.000000000000004
    vertex -76.56835042775826 31.573266153122663 16.000000000000004
  endloop
endfacet
facet normal 0.5000000000000054 -0.8660254037844354 0.0
  outer loop
    vertex -76.80953138265575 31.473365730618035 16.000000000000004
    vertex -76.56835042775826 31.573266153122663 26.000000000000004
    vertex -76.80953138265575 31.473365730618035 26.000000000000004
  endloop
endfacet
facet normal 0.9659258262890665 -0.25881904510252735 0.0
  outer loop
    vertex -49.52545720894482 30.866159371936103 16.000000000000004
    vertex -49.55953138265575 30.60734032683358 26.000000000000004
    vertex -49.55953138265575 30.60734032683358 16.000000000000004
  endloop
endfacet
facet normal 1.0 0.0 0.0
  outer loop
    vertex -49.55953138265575 30.60734032683358 26.000000000000004
    vertex -49.52545720894482 30.866159371936103 16.000000000000004
    vertex -49.52545720894482 30.866159371936103 26.000000000000004
  endloop
endfacet
facet normal 0.7071067811865476 -0.7071067811865476 0.0
  outer loop
    vertex -49.2666381638423 31.31444710802013 16.000000000000004
    vertex -49.42555678644018 31.10734032683358 26.000000000000004
    vertex -49.42555678644018 31.10734032683358 16.000000000000004
  endloop
endfacet
facet normal 0.8660254037844365 -0.5000000000000038 0.0
  outer loop
    vertex -49.42555678644018 31.10734032683358 26.000000000000004
    vertex -49.2666381638423 31.31444710802013 16.000000000000004
    vertex -49.2666381638423 31.31444710802013 26.000000000000004
  endloop
endfacet
facet normal -0.5000000000000082 -0.8660254037844342 0.0
  outer loop
    vertex -75.80953138265575 31.473365730618024 26.000000000000004
    vertex -76.05071233755324 31.573266153122663 16.000000000000004
    vertex -75.80953138265575 31.473365730618024 16.000000000000004
  endloop
endfacet
facet normal -0.25881904510252207 -0.965925826289068 0.0
  outer loop
    vertex -76.05071233755324 31.573266153122663 16.000000000000004
    vertex -75.80953138265575 31.473365730618024 26.000000000000004
    vertex -76.05071233755324 31.573266153122663 26.000000000000004
  endloop
endfacet
facet normal -0.7071067811865447 -0.7071067811865502 0.0
  outer loop
    vertex -75.60242460146921 31.31444710802014 26.000000000000004
    vertex -75.80953138265575 31.473365730618024 16.000000000000004
    vertex -75.60242460146921 31.31444710802014 16.000000000000004
  endloop
endfacet
facet normal -0.5000000000000082 -0.8660254037844342 0.0
  outer loop
    vertex -75.80953138265575 31.473365730618024 16.000000000000004
    vertex -75.60242460146921 31.31444710802014 26.000000000000004
    vertex -75.80953138265575 31.473365730618024 26.000000000000004
  endloop
endfacet
facet normal -0.7071067811865447 -0.7071067811865502 0.0
  outer loop
    vertex -75.60242460146921 31.31444710802014 26.000000000000004
    vertex -75.44350597887131 31.10734032683359 16.000000000000004
    vertex -75.44350597887131 31.10734032683359 26.000000000000004
  endloop
endfacet
facet normal -0.8660254037844378 -0.5000000000000013 0.0
  outer loop
    vertex -75.44350597887131 31.10734032683359 16.000000000000004
    vertex -75.60242460146921 31.31444710802014 26.000000000000004
    vertex -75.60242460146921 31.31444710802014 16.000000000000004
  endloop
endfacet
facet normal -0.8660254037844378 -0.5000000000000013 0.0
  outer loop
    vertex -75.44350597887131 31.10734032683359 26.000000000000004
    vertex -75.34360555636668 30.866159371936114 16.000000000000004
    vertex -75.34360555636668 30.866159371936114 26.000000000000004
  endloop
endfacet
facet normal -0.9659258262890662 -0.2588190451025286 0.0
  outer loop
    vertex -75.34360555636668 30.866159371936114 16.000000000000004
    vertex -75.44350597887131 31.10734032683359 26.000000000000004
    vertex -75.44350597887131 31.10734032683359 16.000000000000004
  endloop
endfacet
facet normal -1.0 0.0 0.0
  outer loop
    vertex -75.30953138265575 30.60734032683359 26.000000000000004
    vertex -75.34360555636668 30.34852128173107 16.000000000000004
    vertex -75.34360555636668 30.34852128173107 26.000000000000004
  endloop
endfacet
facet normal -0.9659258262890662 0.2588190451025286 0.0
  outer loop
    vertex -75.34360555636668 30.34852128173107 16.000000000000004
    vertex -75.30953138265575 30.60734032683359 26.000000000000004
    vertex -75.30953138265575 30.60734032683359 16.000000000000004
  endloop
endfacet
facet normal -0.9659258262890662 -0.2588190451025286 0.0
  outer loop
    vertex -75.34360555636668 30.866159371936114 26.000000000000004
    vertex -75.30953138265575 30.60734032683359 16.000000000000004
    vertex -75.30953138265575 30.60734032683359 26.000000000000004
  endloop
endfacet
facet normal -1.0 0.0 0.0
  outer loop
    vertex -75.30953138265575 30.60734032683359 16.000000000000004
    vertex -75.34360555636668 30.866159371936114 26.000000000000004
    vertex -75.34360555636668 30.866159371936114 16.000000000000004
  endloop
endfacet
facet normal -0.0 -0.0 1.0
  outer loop
    vertex -77.27545720894481 30.34852128173107 16.000000000000004
    vertex -77.27545720894481 30.866159371936114 16.000000000000004
    vertex -77.30953138265575 30.60734032683359 16.000000000000004
  endloop
endfacet
facet normal -0.0 -0.0 1.0
  outer loop
    vertex -77.27545720894481 30.866159371936114 16.000000000000004
    vertex -77.27545720894481 30.34852128173107 16.000000000000004
    vertex -77.17555678644018 30.107340326833594 16.000000000000004
  endloop
endfacet
facet normal -0.0 -0.0 1.0
  outer loop
    vertex -77.27545720894481 30.866159371936114 16.000000000000004
    vertex -77.17555678644018 30.107340326833594 16.000000000000004
    vertex -77.17555678644018 31.10734032683359 16.000000000000004
  endloop
endfacet
facet normal -0.0 -0.0 1.0
  outer loop
    vertex -77.17555678644018 31.10734032683359 16.000000000000004
    vertex -77.17555678644018 30.107340326833594 16.000000000000004
    vertex -77.01663816384229 29.900233545647044 16.000000000000004
  endloop
endfacet
facet normal -0.0 -0.0 1.0
  outer loop
    vertex -77.17555678644018 31.10734032683359 16.000000000000004
    vertex -77.01663816384229 29.900233545647044 16.000000000000004
    vertex -77.01663816384229 31.31444710802014 16.000000000000004
  endloop
endfacet
facet normal -0.0 -0.0 1.0
  outer loop
    vertex -77.01663816384229 31.31444710802014 16.000000000000004
    vertex -77.01663816384229 29.900233545647044 16.000000000000004
    vertex -76.80953138265575 29.74131492304916 16.000000000000004
  endloop
endfacet
facet normal -0.0 -0.0 1.0
  outer loop
    vertex -77.01663816384229 31.31444710802014 16.000000000000004
    vertex -76.80953138265575 29.74131492304916 16.000000000000004
    vertex -76.80953138265575 31.473365730618035 16.000000000000004
  endloop
endfacet
facet normal -0.0 -0.0 1.0
  outer loop
    vertex -76.80953138265575 31.473365730618035 16.000000000000004
    vertex -76.80953138265575 29.74131492304916 16.000000000000004
    vertex -76.56835042775826 29.64141450054452 16.000000000000004
  endloop
endfacet
facet normal -0.0 -0.0 1.0
  outer loop
    vertex -76.80953138265575 31.473365730618035 16.000000000000004
    vertex -76.56835042775826 29.64141450054452 16.000000000000004
    vertex -76.56835042775826 31.573266153122663 16.000000000000004
  endloop
endfacet
facet normal -0.0 -0.0 1.0
  outer loop
    vertex -76.56835042775826 31.573266153122663 16.000000000000004
    vertex -76.56835042775826 29.64141450054452 16.000000000000004
    vertex -76.30953138265575 29.607340326833594 16.000000000000004
  endloop
endfacet
facet normal -0.0 -0.0 1.0
  outer loop
    vertex -76.56835042775826 31.573266153122663 16.000000000000004
    vertex -76.30953138265575 29.607340326833594 16.000000000000004
    vertex -76.30953138265575 31.60734032683359 16.000000000000004
  endloop
endfacet
facet normal -0.0 -0.0 1.0
  outer loop
    vertex -76.30953138265575 31.60734032683359 16.000000000000004
    vertex -76.30953138265575 29.607340326833594 16.000000000000004
    vertex -76.05071233755324 29.64141450054452 16.000000000000004
  endloop
endfacet
facet normal -0.0 -0.0 1.0
  outer loop
    vertex -76.30953138265575 31.60734032683359 16.000000000000004
    vertex -76.05071233755324 29.64141450054452 16.000000000000004
    vertex -76.05071233755324 31.573266153122663 16.000000000000004
  endloop
endfacet
facet normal -0.0 -0.0 1.0
  outer loop
    vertex -76.05071233755324 31.573266153122663 16.000000000000004
    vertex -76.05071233755324 29.64141450054452 16.000000000000004
    vertex -75.80953138265576 29.74131492304916 16.000000000000004
  endloop
endfacet
facet normal -0.0 -0.0 1.0
  outer loop
    vertex -76.05071233755324 31.573266153122663 16.000000000000004
    vertex -75.80953138265576 29.74131492304916 16.000000000000004
    vertex -75.80953138265575 31.473365730618024 16.000000000000004
  endloop
endfacet
facet normal -0.0 -0.0 1.0
  outer loop
    vertex -75.80953138265575 31.473365730618024 16.000000000000004
    vertex -75.80953138265576 29.74131492304916 16.000000000000004
    vertex -75.60242460146921 29.900233545647044 16.000000000000004
  endloop
endfacet
facet normal -0.0 -0.0 1.0
  outer loop
    vertex -75.80953138265575 31.473365730618024 16.000000000000004
    vertex -75.60242460146921 29.900233545647044 16.000000000000004
    vertex -75.60242460146921 31.31444710802014 16.000000000000004
  endloop
endfacet
facet normal -0.0 -0.0 1.0
  outer loop
    vertex -75.60242460146921 31.31444710802014 16.000000000000004
    vertex -75.60242460146921 29.900233545647044 16.000000000000004
    vertex -75.44350597887131 30.107340326833594 16.000000000000004
  endloop
endfacet
facet normal -0.0 -0.0 1.0
  outer loop
    vertex -75.60242460146921 31.31444710802014 16.000000000000004
    vertex -75.44350597887131 30.107340326833594 16.000000000000004
    vertex -75.44350597887131 31.10734032683359 16.000000000000004
  endloop
endfacet
facet normal -0.0 -0.0 1.0
  outer loop
    vertex -75.44350597887131 31.10734032683359 16.000000000000004
    vertex -75.44350597887131 30.107340326833594 16.000000000000004
    vertex -75.34360555636668 30.34852128173107 16.000000000000004
  endloop
endfacet
facet normal -0.0 -0.0 1.0
  outer loop
    vertex -75.44350597887131 31.10734032683359 16.000000000000004
    vertex -75.34360555636668 30.34852128173107 16.000000000000004
    vertex -75.34360555636668 30.866159371936114 16.000000000000004
  endloop
endfacet
facet normal -0.0 -0.0 1.0
  outer loop
    vertex -75.34360555636668 30.866159371936114 16.000000000000004
    vertex -75.34360555636668 30.34852128173107 16.000000000000004
    vertex -75.30953138265575 30.60734032683359 16.000000000000004
  endloop
endfacet
facet normal 1.0 0.0 0.0
  outer loop
    vertex -77.30953138265575 30.60734032683359 16.000000000000004
    vertex -77.27545720894481 30.34852128173107 26.000000000000004
    vertex -77.27545720894481 30.34852128173107 16.000000000000004
  endloop
endfacet
facet normal 0.9659258262890662 0.2588190451025286 0.0
  outer loop
    vertex -77.27545720894481 30.34852128173107 26.000000000000004
    vertex -77.30953138265575 30.60734032683359 16.000000000000004
    vertex -77.30953138265575 30.60734032683359 26.000000000000004
  endloop
endfacet
facet normal 0.9659258262890662 0.2588190451025286 0.0
  outer loop
    vertex -77.27545720894481 30.34852128173107 16.000000000000004
    vertex -77.17555678644018 30.107340326833594 26.000000000000004
    vertex -77.17555678644018 30.107340326833594 16.000000000000004
  endloop
endfacet
facet normal 0.8660254037844378 0.5000000000000013 0.0
  outer loop
    vertex -77.17555678644018 30.107340326833594 26.000000000000004
    vertex -77.27545720894481 30.34852128173107 16.000000000000004
    vertex -77.27545720894481 30.34852128173107 26.000000000000004
  endloop
endfacet
facet normal -0.9659258262890662 0.2588190451025286 0.0
  outer loop
    vertex -75.34360555636668 30.34852128173107 26.000000000000004
    vertex -75.44350597887131 30.107340326833594 16.000000000000004
    vertex -75.44350597887131 30.107340326833594 26.000000000000004
  endloop
endfacet
facet normal -0.8660254037844378 0.5000000000000013 0.0
  outer loop
    vertex -75.44350597887131 30.107340326833594 16.000000000000004
    vertex -75.34360555636668 30.34852128173107 26.000000000000004
    vertex -75.34360555636668 30.34852128173107 16.000000000000004
  endloop
endfacet
facet normal 1.0 -0.0 -0.0
  outer loop
    vertex -45.559531382655756 40.107340326833594 0.0
    vertex -45.559531382655756 21.107340326833594 26.000000000000004
    vertex -45.559531382655756 21.107340326833594 0.0
  endloop
endfacet
facet normal 1.0 -0.0 -0.0
  outer loop
    vertex -45.559531382655756 21.107340326833594 26.000000000000004
    vertex -45.559531382655756 40.107340326833594 0.0
    vertex -45.559531382655756 40.107340326833594 26.000000000000004
  endloop
endfacet
facet normal -2.8159107270244142e-15 -1.0 0.0
  outer loop
    vertex -48.55953138265575 31.60734032683358 26.000000000000004
    vertex -48.818350427758276 31.573266153122653 16.000000000000004
    vertex -48.55953138265575 31.60734032683358 16.000000000000004
  endloop
endfacet
facet normal 0.25881904510252735 -0.9659258262890665 0.0
  outer loop
    vertex -48.818350427758276 31.573266153122653 16.000000000000004
    vertex -48.55953138265575 31.60734032683358 26.000000000000004
    vertex -48.818350427758276 31.573266153122653 26.000000000000004
  endloop
endfacet
facet normal -0.0 -0.0 1.0
  outer loop
    vertex -50.55953138265575 24.10734032683359 3.0
    vertex -70.30953138265575 37.107340326833594 3.0
    vertex -70.30953138265575 24.107340326833594 3.0
  endloop
endfacet
facet normal -0.0 -0.0 1.0
  outer loop
    vertex -70.30953138265575 37.107340326833594 3.0
    vertex -50.55953138265575 24.10734032683359 3.0
    vertex -50.55953138265575 37.107340326833594 3.0
  endloop
endfacet
facet normal 0.2588190451025286 0.9659258262890662 0.0
  outer loop
    vertex -48.818350427758276 29.64141450054452 26.000000000000004
    vertex -48.55953138265575 29.607340326833583 16.000000000000004
    vertex -48.818350427758276 29.64141450054452 16.000000000000004
  endloop
endfacet
facet normal 0.0 1.0 0.0
  outer loop
    vertex -48.55953138265575 29.607340326833583 16.000000000000004
    vertex -48.818350427758276 29.64141450054452 26.000000000000004
    vertex -48.55953138265575 29.607340326833583 26.000000000000004
  endloop
endfacet
facet normal -1.0 0.0 0.0
  outer loop
    vertex -79.30953138265575 40.107340326833594 26.000000000000004
    vertex -79.30953138265575 21.107340326833594 0.0
    vertex -79.30953138265575 21.107340326833594 26.000000000000004
  endloop
endfacet
facet normal -1.0 0.0 0.0
  outer loop
    vertex -79.30953138265575 21.107340326833594 0.0
    vertex -79.30953138265575 40.107340326833594 26.000000000000004
    vertex -79.30953138265575 40.107340326833594 0.0
  endloop
endfacet
facet normal 0.4999999999999865 0.8660254037844465 0.0
  outer loop
    vertex -49.05953138265575 29.741314923049146 26.000000000000004
    vertex -48.818350427758276 29.64141450054452 16.000000000000004
    vertex -49.05953138265575 29.741314923049146 16.000000000000004
  endloop
endfacet
facet normal 0.2588190451025286 0.9659258262890662 0.0
  outer loop
    vertex -48.818350427758276 29.64141450054452 16.000000000000004
    vertex -49.05953138265575 29.741314923049146 26.000000000000004
    vertex -48.818350427758276 29.64141450054452 26.000000000000004
  endloop
endfacet
facet normal -0.8660254037844378 0.5000000000000013 0.0
  outer loop
    vertex -47.693505978871315 30.107340326833583 26.000000000000004
    vertex -47.85242460146921 29.90023354564703 16.000000000000004
    vertex -47.85242460146921 29.90023354564703 26.000000000000004
  endloop
endfacet
facet normal -0.7071067811865447 0.7071067811865505 0.0
  outer loop
    vertex -47.85242460146921 29.90023354564703 16.000000000000004
    vertex -47.693505978871315 30.107340326833583 26.000000000000004
    vertex -47.693505978871315 30.107340326833583 16.000000000000004
  endloop
endfacet
facet normal 0.25881904510252735 -0.9659258262890665 0.0
  outer loop
    vertex -48.818350427758276 31.573266153122653 26.000000000000004
    vertex -49.05953138265575 31.473365730618013 16.000000000000004
    vertex -48.818350427758276 31.573266153122653 16.000000000000004
  endloop
endfacet
facet normal 0.5000000000000038 -0.8660254037844365 0.0
  outer loop
    vertex -49.05953138265575 31.473365730618013 16.000000000000004
    vertex -48.818350427758276 31.573266153122653 26.000000000000004
    vertex -49.05953138265575 31.473365730618013 26.000000000000004
  endloop
endfacet
facet normal 0.8660254037844365 0.5000000000000038 0.0
  outer loop
    vertex -49.42555678644018 30.107340326833583 16.000000000000004
    vertex -49.2666381638423 29.90023354564703 26.000000000000004
    vertex -49.2666381638423 29.90023354564703 16.000000000000004
  endloop
endfacet
facet normal 0.7071067811865476 0.7071067811865476 0.0
  outer loop
    vertex -49.2666381638423 29.90023354564703 26.000000000000004
    vertex -49.42555678644018 30.107340326833583 16.000000000000004
    vertex -49.42555678644018 30.107340326833583 26.000000000000004
  endloop
endfacet
facet normal -0.2588190451025286 0.9659258262890662 0.0
  outer loop
    vertex -48.30071233755323 29.64141450054452 26.000000000000004
    vertex -48.05953138265575 29.741314923049146 16.000000000000004
    vertex -48.30071233755323 29.64141450054452 16.000000000000004
  endloop
endfacet
facet normal -0.49999999999999767 0.8660254037844398 0.0
  outer loop
    vertex -48.05953138265575 29.741314923049146 16.000000000000004
    vertex -48.30071233755323 29.64141450054452 26.000000000000004
    vertex -48.05953138265575 29.741314923049146 26.000000000000004
  endloop
endfacet
facet normal 1.0 0.0 0.0
  outer loop
    vertex -49.55953138265575 30.60734032683358 16.000000000000004
    vertex -49.52545720894482 30.348521281731056 26.000000000000004
    vertex -49.52545720894482 30.348521281731056 16.000000000000004
  endloop
endfacet
facet normal 0.9659258262890665 0.25881904510252735 0.0
  outer loop
    vertex -49.52545720894482 30.348521281731056 26.000000000000004
    vertex -49.55953138265575 30.60734032683358 16.000000000000004
    vertex -49.55953138265575 30.60734032683358 26.000000000000004
  endloop
endfacet
facet normal -0.0 1.0 -0.0
  outer loop
    vertex -79.30953138265575 40.107340326833594 26.000000000000004
    vertex -45.559531382655756 40.107340326833594 0.0
    vertex -79.30953138265575 40.107340326833594 0.0
  endloop
endfacet
facet normal -0.0 1.0 -0.0
  outer loop
    vertex -45.559531382655756 40.107340326833594 0.0
    vertex -79.30953138265575 40.107340326833594 26.000000000000004
    vertex -45.559531382655756 40.107340326833594 26.000000000000004
  endloop
endfacet
facet normal 1.0 -0.0 -0.0
  outer loop
    vertex -74.30953138265575 37.107340326833594 -3.524958103184872e-16
    vertex -74.30953138265575 24.10734032683359 26.000000000000004
    vertex -74.30953138265575 24.10734032683359 -3.524958103184872e-16
  endloop
endfacet
facet normal 1.0 -0.0 -0.0
  outer loop
    vertex -74.30953138265575 24.10734032683359 26.000000000000004
    vertex -74.30953138265575 37.107340326833594 -3.524958103184872e-16
    vertex -74.30953138265575 37.107340326833594 26.000000000000004
  endloop
endfacet
facet normal 0.0 -1.0 0.0
  outer loop
    vertex -50.55953138265575 37.107340326833594 26.000000000000004
    vertex -70.30953138265575 37.107340326833594 3.0
    vertex -50.55953138265575 37.107340326833594 3.0
  endloop
endfacet
facet normal 0.0 -1.0 0.0
  outer loop
    vertex -70.30953138265575 37.107340326833594 3.0
    vertex -74.30953138265575 37.107340326833594 -3.524958103184872e-16
    vertex -70.30953138265575 37.107340326833594 -3.524958103184872e-16
  endloop
endfacet
facet normal 0.0 -1.0 0.0
  outer loop
    vertex -74.30953138265575 37.107340326833594 -3.524958103184872e-16
    vertex -70.30953138265575 37.107340326833594 3.0
    vertex -74.30953138265575 37.107340326833594 26.000000000000004
  endloop
endfacet
facet normal 0.0 -1.0 0.0
  outer loop
    vertex -74.30953138265575 37.107340326833594 26.000000000000004
    vertex -70.30953138265575 37.107340326833594 3.0
    vertex -50.55953138265575 37.107340326833594 26.000000000000004
  endloop
endfacet
facet normal 0.0 -1.0 0.0
  outer loop
    vertex -45.559531382655756 21.107340326833594 26.000000000000004
    vertex -79.30953138265575 21.107340326833594 0.0
    vertex -45.559531382655756 21.107340326833594 0.0
  endloop
endfacet
facet normal 0.0 -1.0 0.0
  outer loop
    vertex -79.30953138265575 21.107340326833594 0.0
    vertex -45.559531382655756 21.107340326833594 26.000000000000004
    vertex -79.30953138265575 21.107340326833594 26.000000000000004
  endloop
endfacet
facet normal -0.0 -0.0 1.0
  outer loop
    vertex -79.30953138265575 21.107340326833594 26.000000000000004
    vertex -77.27545720894481 30.34852128173107 26.000000000000004
    vertex -79.30953138265575 40.107340326833594 26.000000000000004
  endloop
endfacet
facet normal -0.0 -0.0 1.0
  outer loop
    vertex -77.27545720894481 30.34852128173107 26.000000000000004
    vertex -79.30953138265575 21.107340326833594 26.000000000000004
    vertex -77.17555678644018 30.107340326833594 26.000000000000004
  endloop
endfacet
facet normal -0.0 -0.0 1.0
  outer loop
    vertex -77.17555678644018 30.107340326833594 26.000000000000004
    vertex -79.30953138265575 21.107340326833594 26.000000000000004
    vertex -74.30953138265575 24.10734032683359 26.000000000000004
  endloop
endfacet
facet normal -0.0 -0.0 1.0
  outer loop
    vertex -74.30953138265575 24.10734032683359 26.000000000000004
    vertex -79.30953138265575 21.107340326833594 26.000000000000004
    vertex -45.559531382655756 21.107340326833594 26.000000000000004
  endloop
endfacet
facet normal -0.0 -0.0 1.0
  outer loop
    vertex -79.30953138265575 40.107340326833594 26.000000000000004
    vertex -77.27545720894481 30.34852128173107 26.000000000000004
    vertex -77.30953138265575 30.60734032683359 26.000000000000004
  endloop
endfacet
facet normal -0.0 -0.0 1.0
  outer loop
    vertex -77.17555678644018 30.107340326833594 26.000000000000004
    vertex -74.30953138265575 24.10734032683359 26.000000000000004
    vertex -77.01663816384229 29.900233545647044 26.000000000000004
  endloop
endfacet
facet normal -0.0 -0.0 1.0
  outer loop
    vertex -77.01663816384229 29.900233545647044 26.000000000000004
    vertex -74.30953138265575 24.10734032683359 26.000000000000004
    vertex -76.80953138265575 29.74131492304916 26.000000000000004
  endloop
endfacet
facet normal -0.0 -0.0 1.0
  outer loop
    vertex -76.80953138265575 29.74131492304916 26.000000000000004
    vertex -74.30953138265575 24.10734032683359 26.000000000000004
    vertex -76.56835042775826 29.64141450054452 26.000000000000004
  endloop
endfacet
facet normal -0.0 -0.0 1.0
  outer loop
    vertex -76.56835042775826 29.64141450054452 26.000000000000004
    vertex -74.30953138265575 24.10734032683359 26.000000000000004
    vertex -76.30953138265575 29.607340326833594 26.000000000000004
  endloop
endfacet
facet normal -0.0 -0.0 1.0
  outer loop
    vertex -76.30953138265575 29.607340326833594 26.000000000000004
    vertex -74.30953138265575 24.10734032683359 26.000000000000004
    vertex -76.05071233755324 29.64141450054452 26.000000000000004
  endloop
endfacet
facet normal -0.0 -0.0 1.0
  outer loop
    vertex -76.05071233755324 29.64141450054452 26.000000000000004
    vertex -74.30953138265575 24.10734032683359 26.000000000000004
    vertex -75.80953138265576 29.74131492304916 26.000000000000004
  endloop
endfacet
facet normal -0.0 -0.0 1.0
  outer loop
    vertex -75.80953138265576 29.74131492304916 26.000000000000004
    vertex -74.30953138265575 24.10734032683359 26.000000000000004
    vertex -75.60242460146921 29.900233545647044 26.000000000000004
  endloop
endfacet
facet normal -0.0 -0.0 1.0
  outer loop
    vertex -75.60242460146921 29.900233545647044 26.000000000000004
    vertex -74.30953138265575 24.10734032683359 26.000000000000004
    vertex -75.44350597887131 30.107340326833594 26.000000000000004
  endloop
endfacet
facet normal -0.0 -0.0 1.0
  outer loop
    vertex -75.44350597887131 30.107340326833594 26.000000000000004
    vertex -74.30953138265575 24.10734032683359 26.000000000000004
    vertex -75.34360555636668 30.34852128173107 26.000000000000004
  endloop
endfacet
facet normal -0.0 -0.0 1.0
  outer loop
    vertex -75.34360555636668 30.34852128173107 26.000000000000004
    vertex -74.30953138265575 24.10734032683359 26.000000000000004
    vertex -75.30953138265575 30.60734032683359 26.000000000000004
  endloop
endfacet
facet normal -0.0 -0.0 1.0
  outer loop
    vertex -74.30953138265575 24.10734032683359 26.000000000000004
    vertex -45.559531382655756 21.107340326833594 26.000000000000004
    vertex -50.55953138265575 24.10734032683359 26.000000000000004
  endloop
endfacet
facet normal -0.0 -0.0 1.0
  outer loop
    vertex -50.55953138265575 24.10734032683359 26.000000000000004
    vertex -45.559531382655756 21.107340326833594 26.000000000000004
    vertex -49.42555678644018 30.107340326833583 26.000000000000004
  endloop
endfacet
facet normal -0.0 -0.0 1.0
  outer loop
    vertex -50.55953138265575 24.10734032683359 26.000000000000004
    vertex -49.42555678644018 30.107340326833583 26.000000000000004
    vertex -49.52545720894482 30.348521281731056 26.000000000000004
  endloop
endfacet
facet normal -0.0 -0.0 1.0
  outer loop
    vertex -50.55953138265575 24.10734032683359 26.000000000000004
    vertex -49.52545720894482 30.348521281731056 26.000000000000004
    vertex -50.55953138265575 37.107340326833594 26.000000000000004
  endloop
endfacet
facet normal -0.0 -0.0 1.0
  outer loop
    vertex -50.55953138265575 37.107340326833594 26.000000000000004
    vertex -49.52545720894482 30.348521281731056 26.000000000000004
    vertex -49.55953138265575 30.60734032683358 26.000000000000004
  endloop
endfacet
facet normal -0.0 -0.0 1.0
  outer loop
    vertex -49.42555678644018 30.107340326833583 26.000000000000004
    vertex -45.559531382655756 21.107340326833594 26.000000000000004
    vertex -49.2666381638423 29.90023354564703 26.000000000000004
  endloop
endfacet
facet normal -0.0 -0.0 1.0
  outer loop
    vertex -49.2666381638423 29.90023354564703 26.000000000000004
    vertex -45.559531382655756 21.107340326833594 26.000000000000004
    vertex -49.05953138265575 29.741314923049146 26.000000000000004
  endloop
endfacet
facet normal -0.0 -0.0 1.0
  outer loop
    vertex -49.05953138265575 29.741314923049146 26.000000000000004
    vertex -45.559531382655756 21.107340326833594 26.000000000000004
    vertex -48.818350427758276 29.64141450054452 26.000000000000004
  endloop
endfacet
facet normal -0.0 -0.0 1.0
  outer loop
    vertex -48.818350427758276 29.64141450054452 26.000000000000004
    vertex -45.559531382655756 21.107340326833594 26.000000000000004
    vertex -48.55953138265575 29.607340326833583 26.000000000000004
  endloop
endfacet
facet normal -0.0 -0.0 1.0
  outer loop
    vertex -48.55953138265575 29.607340326833583 26.000000000000004
    vertex -45.559531382655756 21.107340326833594 26.000000000000004
    vertex -48.30071233755323 29.64141450054452 26.000000000000004
  endloop
endfacet
facet normal -0.0 -0.0 1.0
  outer loop
    vertex -48.30071233755323 29.64141450054452 26.000000000000004
    vertex -45.559531382655756 21.107340326833594 26.000000000000004
    vertex -48.05953138265575 29.741314923049146 26.000000000000004
  endloop
endfacet
facet normal -0.0 -0.0 1.0
  outer loop
    vertex -48.05953138265575 29.741314923049146 26.000000000000004
    vertex -45.559531382655756 21.107340326833594 26.000000000000004
    vertex -47.85242460146921 29.90023354564703 26.000000000000004
  endloop
endfacet
facet normal -0.0 -0.0 1.0
  outer loop
    vertex -47.85242460146921 29.90023354564703 26.000000000000004
    vertex -45.559531382655756 21.107340326833594 26.000000000000004
    vertex -47.693505978871315 30.107340326833583 26.000000000000004
  endloop
endfacet
facet normal -0.0 -0.0 1.0
  outer loop
    vertex -47.693505978871315 30.107340326833583 26.000000000000004
    vertex -45.559531382655756 21.107340326833594 26.000000000000004
    vertex -47.59360555636669 30.348521281731056 26.000000000000004
  endloop
endfacet
facet normal -0.0 -0.0 1.0
  outer loop
    vertex -47.59360555636669 30.348521281731056 26.000000000000004
    vertex -45.559531382655756 21.107340326833594 26.000000000000004
    vertex -47.55953138265575 30.60734032683358 26.000000000000004
  endloop
endfacet
facet normal -0.0 -0.0 1.0
  outer loop
    vertex -79.30953138265575 40.107340326833594 26.000000000000004
    vertex -74.30953138265575 37.107340326833594 26.000000000000004
    vertex -45.559531382655756 40.107340326833594 26.000000000000004
  endloop
endfacet
facet normal -0.0 -0.0 1.0
  outer loop
    vertex -74.30953138265575 37.107340326833594 26.000000000000004
    vertex -79.30953138265575 40.107340326833594 26.000000000000004
    vertex -77.17555678644018 31.10734032683359 26.000000000000004
  endloop
endfacet
facet normal -0.0 -0.0 1.0
  outer loop
    vertex -77.17555678644018 31.10734032683359 26.000000000000004
    vertex -79.30953138265575 40.107340326833594 26.000000000000004
    vertex -77.27545720894481 30.866159371936114 26.000000000000004
  endloop
endfacet
facet normal -0.0 -0.0 1.0
  outer loop
    vertex -77.27545720894481 30.866159371936114 26.000000000000004
    vertex -79.30953138265575 40.107340326833594 26.000000000000004
    vertex -77.30953138265575 30.60734032683359 26.000000000000004
  endloop
endfacet
facet normal -0.0 -0.0 1.0
  outer loop
    vertex -74.30953138265575 37.107340326833594 26.000000000000004
    vertex -77.17555678644018 31.10734032683359 26.000000000000004
    vertex -77.01663816384229 31.31444710802014 26.000000000000004
  endloop
endfacet
facet normal -0.0 -0.0 1.0
  outer loop
    vertex -74.30953138265575 37.107340326833594 26.000000000000004
    vertex -77.01663816384229 31.31444710802014 26.000000000000004
    vertex -76.80953138265575 31.473365730618035 26.000000000000004
  endloop
endfacet
facet normal -0.0 -0.0 1.0
  outer loop
    vertex -74.30953138265575 37.107340326833594 26.000000000000004
    vertex -76.80953138265575 31.473365730618035 26.000000000000004
    vertex -76.56835042775826 31.573266153122663 26.000000000000004
  endloop
endfacet
facet normal -0.0 -0.0 1.0
  outer loop
    vertex -74.30953138265575 37.107340326833594 26.000000000000004
    vertex -76.56835042775826 31.573266153122663 26.000000000000004
    vertex -76.30953138265575 31.60734032683359 26.000000000000004
  endloop
endfacet
facet normal -0.0 -0.0 1.0
  outer loop
    vertex -74.30953138265575 37.107340326833594 26.000000000000004
    vertex -76.30953138265575 31.60734032683359 26.000000000000004
    vertex -76.05071233755324 31.573266153122663 26.000000000000004
  endloop
endfacet
facet normal -0.0 -0.0 1.0
  outer loop
    vertex -74.30953138265575 37.107340326833594 26.000000000000004
    vertex -76.05071233755324 31.573266153122663 26.000000000000004
    vertex -75.80953138265575 31.473365730618024 26.000000000000004
  endloop
endfacet
facet normal -0.0 -0.0 1.0
  outer loop
    vertex -74.30953138265575 37.107340326833594 26.000000000000004
    vertex -75.80953138265575 31.473365730618024 26.000000000000004
    vertex -75.60242460146921 31.31444710802014 26.000000000000004
  endloop
endfacet
facet normal -0.0 -0.0 1.0
  outer loop
    vertex -74.30953138265575 37.107340326833594 26.000000000000004
    vertex -75.60242460146921 31.31444710802014 26.000000000000004
    vertex -75.44350597887131 31.10734032683359 26.000000000000004
  endloop
endfacet
facet normal -0.0 -0.0 1.0
  outer loop
    vertex -74.30953138265575 37.107340326833594 26.000000000000004
    vertex -75.44350597887131 31.10734032683359 26.000000000000004
    vertex -75.34360555636668 30.866159371936114 26.000000000000004
  endloop
endfacet
facet normal -0.0 -0.0 1.0
  outer loop
    vertex -74.30953138265575 37.107340326833594 26.000000000000004
    vertex -75.34360555636668 30.866159371936114 26.000000000000004
    vertex -75.30953138265575 30.60734032683359 26.000000000000004
  endloop
endfacet
facet normal -0.0 -0.0 1.0
  outer loop
    vertex -74.30953138265575 37.107340326833594 26.000000000000004
    vertex -75.30953138265575 30.60734032683359 26.000000000000004
    vertex -74.30953138265575 24.10734032683359 26.000000000000004
  endloop
endfacet
facet normal -0.0 -0.0 1.0
  outer loop
    vertex -45.559531382655756 40.107340326833594 26.000000000000004
    vertex -74.30953138265575 37.107340326833594 26.000000000000004
    vertex -50.55953138265575 37.107340326833594 26.000000000000004
  endloop
endfacet
facet normal -0.0 -0.0 1.0
  outer loop
    vertex -45.559531382655756 40.107340326833594 26.000000000000004
    vertex -50.55953138265575 37.107340326833594 26.000000000000004
    vertex -49.42555678644018 31.10734032683358 26.000000000000004
  endloop
endfacet
facet normal -0.0 -0.0 1.0
  outer loop
    vertex -49.42555678644018 31.10734032683358 26.000000000000004
    vertex -50.55953138265575 37.107340326833594 26.000000000000004
    vertex -49.52545720894482 30.866159371936103 26.000000000000004
  endloop
endfacet
facet normal -0.0 -0.0 1.0
  outer loop
    vertex -49.52545720894482 30.866159371936103 26.000000000000004
    vertex -50.55953138265575 37.107340326833594 26.000000000000004
    vertex -49.55953138265575 30.60734032683358 26.000000000000004
  endloop
endfacet
facet normal -0.0 -0.0 1.0
  outer loop
    vertex -45.559531382655756 40.107340326833594 26.000000000000004
    vertex -49.42555678644018 31.10734032683358 26.000000000000004
    vertex -49.2666381638423 31.31444710802013 26.000000000000004
  endloop
endfacet
facet normal -0.0 -0.0 1.0
  outer loop
    vertex -45.559531382655756 40.107340326833594 26.000000000000004
    vertex -49.2666381638423 31.31444710802013 26.000000000000004
    vertex -49.05953138265575 31.473365730618013 26.000000000000004
  endloop
endfacet
facet normal -0.0 -0.0 1.0
  outer loop
    vertex -45.559531382655756 40.107340326833594 26.000000000000004
    vertex -49.05953138265575 31.473365730618013 26.000000000000004
    vertex -48.818350427758276 31.573266153122653 26.000000000000004
  endloop
endfacet
facet normal -0.0 -0.0 1.0
  outer loop
    vertex -45.559531382655756 40.107340326833594 26.000000000000004
    vertex -48.818350427758276 31.573266153122653 26.000000000000004
    vertex -48.55953138265575 31.60734032683358 26.000000000000004
  endloop
endfacet
facet normal -0.0 -0.0 1.0
  outer loop
    vertex -45.559531382655756 40.107340326833594 26.000000000000004
    vertex -48.55953138265575 31.60734032683358 26.000000000000004
    vertex -48.300712337553236 31.573266153122653 26.000000000000004
  endloop
endfacet
facet normal -0.0 -0.0 1.0
  outer loop
    vertex -45.559531382655756 40.107340326833594 26.000000000000004
    vertex -48.300712337553236 31.573266153122653 26.000000000000004
    vertex -48.05953138265575 31.473365730618024 26.000000000000004
  endloop
endfacet
facet normal -0.0 -0.0 1.0
  outer loop
    vertex -45.559531382655756 40.107340326833594 26.000000000000004
    vertex -48.05953138265575 31.473365730618024 26.000000000000004
    vertex -47.85242460146921 31.31444710802013 26.000000000000004
  endloop
endfacet
facet normal -0.0 -0.0 1.0
  outer loop
    vertex -45.559531382655756 40.107340326833594 26.000000000000004
    vertex -47.85242460146921 31.31444710802013 26.000000000000004
    vertex -47.693505978871315 31.10734032683358 26.000000000000004
  endloop
endfacet
facet normal -0.0 -0.0 1.0
  outer loop
    vertex -45.559531382655756 40.107340326833594 26.000000000000004
    vertex -47.693505978871315 31.10734032683358 26.000000000000004
    vertex -47.59360555636669 30.866159371936103 26.000000000000004
  endloop
endfacet
facet normal -0.0 -0.0 1.0
  outer loop
    vertex -45.559531382655756 40.107340326833594 26.000000000000004
    vertex -47.59360555636669 30.866159371936103 26.000000000000004
    vertex -47.55953138265575 30.60734032683358 26.000000000000004
  endloop
endfacet
facet normal -0.0 -0.0 1.0
  outer loop
    vertex -45.559531382655756 40.107340326833594 26.000000000000004
    vertex -47.55953138265575 30.60734032683358 26.000000000000004
    vertex -45.559531382655756 21.107340326833594 26.000000000000004
  endloop
endfacet
endsolid micro_metal_housing
