solid puffin_hips_2
facet normal 0.8862217398419813 0.46326129541701616 0.0
  outer loop
    vertex 52.10177608944693 41.62141453395961 0.0
    vertex 52.41573859355746 40.76336744787956 7.0
    vertex 52.41573859355746 40.76336744787956 0.0
  endloop
endfacet
facet normal 0.9759253124449896 0.21810498510843304 0.0
  outer loop
    vertex 52.41573859355746 40.76336744787956 7.0
    vertex 52.10177608944693 41.62141453395961 0.0
    vertex 52.10177608944693 41.62141453395961 7.0
  endloop
endfacet
facet normal 0.9759253124449896 0.21810498510843304 0.0
  outer loop
    vertex 52.41573859355746 40.76336744787956 0.0
    vertex 52.49692415729198 39.85329813175087 7.0
    vertex 52.49692415729198 39.85329813175087 0.0
  endloop
endfacet
facet normal 0.9991211877977076 -0.04191481949976342 0.0
  outer loop
    vertex 52.49692415729198 39.85329813175087 7.0
    vertex 52.41573859355746 40.76336744787956 0.0
    vertex 52.41573859355746 40.76336744787956 7.0
  endloop
endfacet
facet normal -1.0 0.0 0.0
  outer loop
    vertex -12.999999999999998 48.000000000000014 0.0
    vertex -12.999999999999998 31.999999999999996 -6.0
    vertex -12.999999999999998 31.999999999999996 0.0
  endloop
endfacet
facet normal -1.0 0.0 0.0
  outer loop
    vertex -12.999999999999998 31.999999999999996 -6.0
    vertex -12.999999999999998 48.000000000000014 0.0
    vertex -12.999999999999998 48.000000000000014 -6.0
  endloop
endfacet
facet normal -0.0 -0.0 1.0
  outer loop
    vertex -12.999999999999998 31.999999999999996 0.0
    vertex -9.384334782234346 39.10765585015714 0.0
    vertex -12.999999999999998 48.000000000000014 0.0
  endloop
endfacet
facet normal -0.0 -0.0 1.0
  outer loop
    vertex -9.384334782234346 39.10765585015714 0.0
    vertex -12.999999999999998 31.999999999999996 0.0
    vertex -9.038060710203391 38.26213144308368 0.0
  endloop
endfacet
facet normal -0.0 -0.0 1.0
  outer loop
    vertex -9.038060710203391 38.26213144308368 0.0
    vertex -12.999999999999998 31.999999999999996 0.0
    vertex -8.484747821404781 37.53503990620049 0.0
  endloop
endfacet
facet normal -0.0 -0.0 1.0
  outer loop
    vertex -8.484747821404781 37.53503990620049 0.0
    vertex -12.999999999999998 31.999999999999996 0.0
    vertex -7.76210347481736 36.975931326170574 0.0
  endloop
endfacet
facet normal -0.0 -0.0 1.0
  outer loop
    vertex -7.76210347481736 36.975931326170574 0.0
    vertex -12.999999999999998 31.999999999999996 0.0
    vertex 3.499999999999999 31.999999999999996 0.0
  endloop
endfacet
facet normal -0.0 -0.0 1.0
  outer loop
    vertex -12.999999999999998 48.000000000000014 0.0
    vertex -9.384334782234346 39.10765585015714 0.0
    vertex -9.499972031733698 40.01399203637396 0.0
  endloop
endfacet
facet normal -0.0 -0.0 1.0
  outer loop
    vertex -7.76210347481736 36.975931326170574 0.0
    vertex 3.499999999999999 31.999999999999996 0.0
    vertex -6.919374688434814 36.622908028752356 0.0
  endloop
endfacet
facet normal -0.0 -0.0 1.0
  outer loop
    vertex -6.919374688434814 36.622908028752356 0.0
    vertex 3.499999999999999 31.999999999999996 0.0
    vertex -6.013992036373944 36.500027968266316 0.0
  endloop
endfacet
facet normal -0.0 -0.0 1.0
  outer loop
    vertex -6.013992036373944 36.500027968266316 0.0
    vertex 3.499999999999999 31.999999999999996 0.0
    vertex -5.107655850157123 36.615665217765674 0.0
  endloop
endfacet
facet normal -0.0 -0.0 1.0
  outer loop
    vertex -5.107655850157123 36.615665217765674 0.0
    vertex 3.499999999999999 31.999999999999996 0.0
    vertex -4.262131443083662 36.961939289796625 0.0
  endloop
endfacet
facet normal -0.0 -0.0 1.0
  outer loop
    vertex -4.262131443083662 36.961939289796625 0.0
    vertex 3.499999999999999 31.999999999999996 0.0
    vertex -3.5350399062004683 37.51525217859523 0.0
  endloop
endfacet
facet normal -0.0 -0.0 1.0
  outer loop
    vertex -3.5350399062004683 37.51525217859523 0.0
    vertex 3.499999999999999 31.999999999999996 0.0
    vertex -2.975931326170552 38.237896525182656 0.0
  endloop
endfacet
facet normal -0.0 -0.0 1.0
  outer loop
    vertex -2.975931326170552 38.237896525182656 0.0
    vertex 3.499999999999999 31.999999999999996 0.0
    vertex -2.622908028752341 39.0806253115652 0.0
  endloop
endfacet
facet normal -0.0 -0.0 1.0
  outer loop
    vertex -2.622908028752341 39.0806253115652 0.0
    vertex 3.499999999999999 31.999999999999996 0.0
    vertex -2.5000279682663 39.98600796362607 0.0
  endloop
endfacet
facet normal -0.0 -0.0 1.0
  outer loop
    vertex -12.999999999999998 48.000000000000014 0.0
    vertex -7.737868556916338 43.03806071020341 0.0
    vertex 3.499999999999999 48.0 0.0
  endloop
endfacet
facet normal -0.0 -0.0 1.0
  outer loop
    vertex -7.737868556916338 43.03806071020341 0.0
    vertex -12.999999999999998 48.000000000000014 0.0
    vertex -8.464960093799531 42.484747821404795 0.0
  endloop
endfacet
facet normal -0.0 -0.0 1.0
  outer loop
    vertex -8.464960093799531 42.484747821404795 0.0
    vertex -12.999999999999998 48.000000000000014 0.0
    vertex -9.024068673829445 41.76210347481737 0.0
  endloop
endfacet
facet normal -0.0 -0.0 1.0
  outer loop
    vertex -9.024068673829445 41.76210347481737 0.0
    vertex -12.999999999999998 48.000000000000014 0.0
    vertex -9.377091971247657 40.91937468843483 0.0
  endloop
endfacet
facet normal -0.0 -0.0 1.0
  outer loop
    vertex -9.377091971247657 40.91937468843483 0.0
    vertex -12.999999999999998 48.000000000000014 0.0
    vertex -9.499972031733698 40.01399203637396 0.0
  endloop
endfacet
facet normal -0.0 -0.0 1.0
  outer loop
    vertex 3.499999999999999 48.0 0.0
    vertex -7.737868556916338 43.03806071020341 0.0
    vertex -6.892344149842875 43.38433478223436 0.0
  endloop
endfacet
facet normal -0.0 -0.0 1.0
  outer loop
    vertex 3.499999999999999 48.0 0.0
    vertex -6.892344149842875 43.38433478223436 0.0
    vertex -5.986007963626056 43.49997203173372 0.0
  endloop
endfacet
facet normal -0.0 -0.0 1.0
  outer loop
    vertex 3.499999999999999 48.0 0.0
    vertex -5.986007963626056 43.49997203173372 0.0
    vertex -5.080625311565185 43.37709197124768 0.0
  endloop
endfacet
facet normal -0.0 -0.0 1.0
  outer loop
    vertex 3.499999999999999 48.0 0.0
    vertex -5.080625311565185 43.37709197124768 0.0
    vertex -4.23789652518264 43.02406867382947 0.0
  endloop
endfacet
facet normal -0.0 -0.0 1.0
  outer loop
    vertex 3.499999999999999 48.0 0.0
    vertex -4.23789652518264 43.02406867382947 0.0
    vertex -3.515252178595217 42.46496009379955 0.0
  endloop
endfacet
facet normal -0.0 -0.0 1.0
  outer loop
    vertex 3.499999999999999 48.0 0.0
    vertex -3.515252178595217 42.46496009379955 0.0
    vertex -2.9619392897966086 41.73786855691636 0.0
  endloop
endfacet
facet normal -0.0 -0.0 1.0
  outer loop
    vertex 3.499999999999999 48.0 0.0
    vertex -2.9619392897966086 41.73786855691636 0.0
    vertex -2.6156652177656534 40.89234414984289 0.0
  endloop
endfacet
facet normal -0.0 -0.0 1.0
  outer loop
    vertex 3.499999999999999 48.0 0.0
    vertex -2.6156652177656534 40.89234414984289 0.0
    vertex -2.5000279682663 39.98600796362607 0.0
  endloop
endfacet
facet normal -0.0 -0.0 1.0
  outer loop
    vertex 3.499999999999999 48.0 0.0
    vertex -2.5000279682663 39.98600796362607 0.0
    vertex 3.499999999999999 31.999999999999996 0.0
  endloop
endfacet
facet normal -0.0 -1.0 -0.0
  outer loop
    vertex 39.499999999999986 31.999999999999996 3.9999999999999996
    vertex 3.499999999999999 31.999999999999996 0.0
    vertex 39.499999999999986 31.999999999999996 0.0
  endloop
endfacet
facet normal -0.0 -1.0 -0.0
  outer loop
    vertex 3.499999999999999 31.999999999999996 0.0
    vertex 39.499999999999986 31.999999999999996 3.9999999999999996
    vertex 3.499999999999999 31.999999999999996 3.9999999999999996
  endloop
endfacet
facet normal -0.0 -1.0 -0.0
  outer loop
    vertex 56.0 31.999999999999996 0.0
    vertex -12.999999999999998 31.999999999999996 -6.0
    vertex 56.0 31.999999999999996 -6.0
  endloop
endfacet
facet normal -0.0 -1.0 -0.0
  outer loop
    vertex -12.999999999999998 31.999999999999996 -6.0
    vertex 56.0 31.999999999999996 0.0
    vertex -12.999999999999998 31.999999999999996 0.0
  endloop
endfacet
facet normal -0.0 -1.0 -0.0
  outer loop
    vertex -12.999999999999998 31.999999999999996 0.0
    vertex 56.0 31.999999999999996 0.0
    vertex 39.499999999999986 31.999999999999996 0.0
  endloop
endfacet
facet normal -0.0 -1.0 -0.0
  outer loop
    vertex -12.999999999999998 31.999999999999996 0.0
    vertex 39.499999999999986 31.999999999999996 0.0
    vertex 3.499999999999999 31.999999999999996 0.0
  endloop
endfacet
facet normal 1.0 0.0 0.0
  outer loop
    vertex 56.0 48.000000000000014 -6.0
    vertex 56.0 31.999999999999996 0.0
    vertex 56.0 31.999999999999996 -6.0
  endloop
endfacet
facet normal 1.0 0.0 0.0
  outer loop
    vertex 56.0 31.999999999999996 0.0
    vertex 56.0 48.000000000000014 -6.0
    vertex 56.0 48.000000000000014 0.0
  endloop
endfacet
facet normal 0.0 1.0 0.0
  outer loop
    vertex 3.499999999999999 48.0 3.9999999999999996
    vertex 39.499999999999986 48.00000000000001 0.0
    vertex 3.499999999999999 48.0 0.0
  endloop
endfacet
facet normal 0.0 1.0 0.0
  outer loop
    vertex 39.499999999999986 48.00000000000001 0.0
    vertex 3.499999999999999 48.0 3.9999999999999996
    vertex 39.499999999999986 48.00000000000001 3.9999999999999996
  endloop
endfacet
facet normal 0.0 1.0 0.0
  outer loop
    vertex -12.999999999999998 48.000000000000014 0.0
    vertex 56.0 48.000000000000014 -6.0
    vertex -12.999999999999998 48.000000000000014 -6.0
  endloop
endfacet
facet normal 0.0 1.0 0.0
  outer loop
    vertex 56.0 48.000000000000014 -6.0
    vertex -12.999999999999998 48.000000000000014 0.0
    vertex 56.0 48.000000000000014 0.0
  endloop
endfacet
facet normal 0.0 1.0 0.0
  outer loop
    vertex 56.0 48.000000000000014 0.0
    vertex -12.999999999999998 48.000000000000014 0.0
    vertex 3.499999999999999 48.0 0.0
  endloop
endfacet
facet normal 0.0 1.0 0.0
  outer loop
    vertex 56.0 48.000000000000014 0.0
    vertex 3.499999999999999 48.0 0.0
    vertex 39.499999999999986 48.00000000000001 0.0
  endloop
endfacet
facet normal 0.0 0.0 -1.0
  outer loop
    vertex 56.0 48.000000000000014 -6.0
    vertex -12.999999999999998 31.999999999999996 -6.0
    vertex -12.999999999999998 48.000000000000014 -6.0
  endloop
endfacet
facet normal 0.0 0.0 -1.0
  outer loop
    vertex -12.999999999999998 31.999999999999996 -6.0
    vertex 56.0 48.000000000000014 -6.0
    vertex 56.0 31.999999999999996 -6.0
  endloop
endfacet
facet normal -1.0 -0.0 -0.0
  outer loop
    vertex 3.499999999999999 48.0 3.9999999999999996
    vertex 3.499999999999999 31.999999999999996 0.0
    vertex 3.499999999999999 31.999999999999996 3.9999999999999996
  endloop
endfacet
facet normal -1.0 -0.0 -0.0
  outer loop
    vertex 3.499999999999999 31.999999999999996 0.0
    vertex 3.499999999999999 48.0 3.9999999999999996
    vertex 3.499999999999999 48.0 0.0
  endloop
endfacet
facet normal -1.0 0.0 0.0
  outer loop
    vertex 37.499999999999986 42.14290411013254 3.9999999999999996
    vertex 37.499999999999986 37.74999999999999 0.9999999999999996
    vertex 37.499999999999986 37.74999999999999 3.9999999999999996
  endloop
endfacet
facet normal -1.0 0.0 0.0
  outer loop
    vertex 37.499999999999986 37.74999999999999 0.9999999999999996
    vertex 37.499999999999986 42.14290411013254 3.9999999999999996
    vertex 37.499999999999986 42.14290411013254 0.9999999999999996
  endloop
endfacet
facet normal -0.0 -0.0 1.0
  outer loop
    vertex 39.499999999999986 31.999999999999996 0.0
    vertex 45.89822391055307 38.378585466040484 0.0
    vertex 39.499999999999986 48.00000000000001 0.0
  endloop
endfacet
facet normal -0.0 -0.0 1.0
  outer loop
    vertex 45.89822391055307 38.378585466040484 0.0
    vertex 39.499999999999986 31.999999999999996 0.0
    vertex 46.423567329232064 37.63103510093556 0.0
  endloop
endfacet
facet normal -0.0 -0.0 1.0
  outer loop
    vertex 46.423567329232064 37.63103510093556 0.0
    vertex 39.499999999999986 31.999999999999996 0.0
    vertex 47.12449037666759 37.044925778802295 0.0
  endloop
endfacet
facet normal -0.0 -0.0 1.0
  outer loop
    vertex 47.12449037666759 37.044925778802295 0.0
    vertex 39.499999999999986 31.999999999999996 0.0
    vertex 56.0 31.999999999999996 0.0
  endloop
endfacet
facet normal -0.0 -0.0 1.0
  outer loop
    vertex 39.499999999999986 48.00000000000001 0.0
    vertex 45.89822391055307 38.378585466040484 0.0
    vertex 45.584261406442536 39.23663255212053 0.0
  endloop
endfacet
facet normal -0.0 -0.0 1.0
  outer loop
    vertex 39.499999999999986 48.00000000000001 0.0
    vertex 45.584261406442536 39.23663255212053 0.0
    vertex 45.50307584270802 40.146701868249224 0.0
  endloop
endfacet
facet normal -0.0 -0.0 1.0
  outer loop
    vertex 47.12449037666759 37.044925778802295 0.0
    vertex 56.0 31.999999999999996 0.0
    vertex 47.953226305507016 36.6601998813526 0.0
  endloop
endfacet
facet normal -0.0 -0.0 1.0
  outer loop
    vertex 47.953226305507016 36.6601998813526 0.0
    vertex 56.0 31.999999999999996 0.0
    vertex 48.853298131750826 36.50307584270807 0.0
  endloop
endfacet
facet normal -0.0 -0.0 1.0
  outer loop
    vertex 48.853298131750826 36.50307584270807 0.0
    vertex 56.0 31.999999999999996 0.0
    vertex 49.76336744787951 36.584261406442586 0.0
  endloop
endfacet
facet normal -0.0 -0.0 1.0
  outer loop
    vertex 49.76336744787951 36.584261406442586 0.0
    vertex 56.0 31.999999999999996 0.0
    vertex 50.621414533959566 36.898223910553114 0.0
  endloop
endfacet
facet normal -0.0 -0.0 1.0
  outer loop
    vertex 50.621414533959566 36.898223910553114 0.0
    vertex 56.0 31.999999999999996 0.0
    vertex 51.36896489906448 37.42356732923211 0.0
  endloop
endfacet
facet normal -0.0 -0.0 1.0
  outer loop
    vertex 51.36896489906448 37.42356732923211 0.0
    vertex 56.0 31.999999999999996 0.0
    vertex 51.955074221197755 38.12449037666764 0.0
  endloop
endfacet
facet normal -0.0 -0.0 1.0
  outer loop
    vertex 51.955074221197755 38.12449037666764 0.0
    vertex 56.0 31.999999999999996 0.0
    vertex 52.339800118647446 38.953226305507066 0.0
  endloop
endfacet
facet normal -0.0 -0.0 1.0
  outer loop
    vertex 52.339800118647446 38.953226305507066 0.0
    vertex 56.0 31.999999999999996 0.0
    vertex 52.49692415729198 39.85329813175087 0.0
  endloop
endfacet
facet normal -0.0 -0.0 1.0
  outer loop
    vertex 39.499999999999986 48.00000000000001 0.0
    vertex 47.378585466040434 43.10177608944697 0.0
    vertex 56.0 48.000000000000014 0.0
  endloop
endfacet
facet normal -0.0 -0.0 1.0
  outer loop
    vertex 47.378585466040434 43.10177608944697 0.0
    vertex 39.499999999999986 48.00000000000001 0.0
    vertex 46.63103510093552 42.57643267076798 0.0
  endloop
endfacet
facet normal -0.0 -0.0 1.0
  outer loop
    vertex 46.63103510093552 42.57643267076798 0.0
    vertex 39.499999999999986 48.00000000000001 0.0
    vertex 46.04492577880225 41.875509623332455 0.0
  endloop
endfacet
facet normal -0.0 -0.0 1.0
  outer loop
    vertex 46.04492577880225 41.875509623332455 0.0
    vertex 39.499999999999986 48.00000000000001 0.0
    vertex 45.660199881352554 41.04677369449303 0.0
  endloop
endfacet
facet normal -0.0 -0.0 1.0
  outer loop
    vertex 45.660199881352554 41.04677369449303 0.0
    vertex 39.499999999999986 48.00000000000001 0.0
    vertex 45.50307584270802 40.146701868249224 0.0
  endloop
endfacet
facet normal -0.0 -0.0 1.0
  outer loop
    vertex 56.0 48.000000000000014 0.0
    vertex 47.378585466040434 43.10177608944697 0.0
    vertex 48.23663255212049 43.415738593557506 0.0
  endloop
endfacet
facet normal -0.0 -0.0 1.0
  outer loop
    vertex 56.0 48.000000000000014 0.0
    vertex 48.23663255212049 43.415738593557506 0.0
    vertex 49.146701868249174 43.49692415729202 0.0
  endloop
endfacet
facet normal -0.0 -0.0 1.0
  outer loop
    vertex 56.0 48.000000000000014 0.0
    vertex 49.146701868249174 43.49692415729202 0.0
    vertex 50.046773694492984 43.339800118647496 0.0
  endloop
endfacet
facet normal -0.0 -0.0 1.0
  outer loop
    vertex 56.0 48.000000000000014 0.0
    vertex 50.046773694492984 43.339800118647496 0.0
    vertex 50.87550962333241 42.9550742211978 0.0
  endloop
endfacet
facet normal -0.0 -0.0 1.0
  outer loop
    vertex 56.0 48.000000000000014 0.0
    vertex 50.87550962333241 42.9550742211978 0.0
    vertex 51.576432670767936 42.36896489906452 0.0
  endloop
endfacet
facet normal -0.0 -0.0 1.0
  outer loop
    vertex 56.0 48.000000000000014 0.0
    vertex 51.576432670767936 42.36896489906452 0.0
    vertex 52.10177608944693 41.62141453395961 0.0
  endloop
endfacet
facet normal -0.0 -0.0 1.0
  outer loop
    vertex 56.0 48.000000000000014 0.0
    vertex 52.10177608944693 41.62141453395961 0.0
    vertex 52.41573859355746 40.76336744787956 0.0
  endloop
endfacet
facet normal -0.0 -0.0 1.0
  outer loop
    vertex 56.0 48.000000000000014 0.0
    vertex 52.41573859355746 40.76336744787956 0.0
    vertex 52.49692415729198 39.85329813175087 0.0
  endloop
endfacet
facet normal -0.0 -0.0 1.0
  outer loop
    vertex 56.0 48.000000000000014 0.0
    vertex 52.49692415729198 39.85329813175087 0.0
    vertex 56.0 31.999999999999996 0.0
  endloop
endfacet
facet normal 0.0 0.0 1.0
  outer loop
    vertex 37.499999999999986 37.74999999999999 0.9999999999999996
    vertex 25.5 43.53572602753314 0.9999999999999996
    vertex 25.5 36.4375 0.9999999999999996
  endloop
endfacet
facet normal 0.0 0.0 1.0
  outer loop
    vertex 25.5 43.53572602753314 0.9999999999999996
    vertex 37.499999999999986 37.74999999999999 0.9999999999999996
    vertex 37.499999999999986 42.14290411013254 0.9999999999999996
  endloop
endfacet
facet normal 0.10872659128563532 0.9940716917543756 0.0
  outer loop
    vertex 17.49999999999999 36.43750000000001 3.9999999999999996
    vertex 21.499999999999993 36.0 0.9999999999999996
    vertex 17.49999999999999 36.43750000000001 0.9999999999999996
  endloop
endfacet
facet normal 0.10872659128563532 0.9940716917543756 0.0
  outer loop
    vertex 21.499999999999993 36.0 0.9999999999999996
    vertex 17.49999999999999 36.43750000000001 3.9999999999999996
    vertex 21.499999999999993 36.0 3.9999999999999996
  endloop
endfacet
facet normal 0.1152944737447891 -0.9933313567606291 0.0
  outer loop
    vertex 21.499999999999993 44.0 3.9999999999999996
    vertex 17.49999999999999 43.53572602753314 0.9999999999999996
    vertex 21.499999999999993 44.0 0.9999999999999996
  endloop
endfacet
facet normal 0.1152944737447891 -0.9933313567606291 0.0
  outer loop
    vertex 17.49999999999999 43.53572602753314 0.9999999999999996
    vertex 21.499999999999993 44.0 3.9999999999999996
    vertex 17.49999999999999 43.53572602753314 3.9999999999999996
  endloop
endfacet
facet normal -0.10872659128563454 0.9940716917543758 0.0
  outer loop
    vertex 25.5 36.4375 3.9999999999999996
    vertex 37.499999999999986 37.74999999999999 0.9999999999999996
    vertex 25.5 36.4375 0.9999999999999996
  endloop
endfacet
facet normal -0.10872659128563454 0.9940716917543758 0.0
  outer loop
    vertex 37.499999999999986 37.74999999999999 0.9999999999999996
    vertex 25.5 36.4375 3.9999999999999996
    vertex 37.499999999999986 37.74999999999999 3.9999999999999996
  endloop
endfacet
facet normal 1.0 0.0 0.0
  outer loop
    vertex 39.499999999999986 48.00000000000001 0.0
    vertex 39.499999999999986 31.999999999999996 3.9999999999999996
    vertex 39.499999999999986 31.999999999999996 0.0
  endloop
endfacet
facet normal 1.0 0.0 0.0
  outer loop
    vertex 39.499999999999986 31.999999999999996 3.9999999999999996
    vertex 39.499999999999986 48.00000000000001 0.0
    vertex 39.499999999999986 48.00000000000001 3.9999999999999996
  endloop
endfacet
facet normal -0.11529447374478896 -0.9933313567606291 0.0
  outer loop
    vertex 25.5 43.53572602753314 3.9999999999999996
    vertex 21.499999999999993 44.0 0.9999999999999996
    vertex 25.5 43.53572602753314 0.9999999999999996
  endloop
endfacet
facet normal -0.11529447374478896 -0.9933313567606291 0.0
  outer loop
    vertex 21.499999999999993 44.0 0.9999999999999996
    vertex 25.5 43.53572602753314 3.9999999999999996
    vertex 21.499999999999993 44.0 3.9999999999999996
  endloop
endfacet
facet normal 0.0 0.0 1.0
  outer loop
    vertex 3.499999999999999 31.999999999999996 3.9999999999999996
    vertex 5.499999999999998 37.75000000000001 3.9999999999999996
    vertex 3.499999999999999 48.0 3.9999999999999996
  endloop
endfacet
facet normal 0.0 0.0 1.0
  outer loop
    vertex 5.499999999999998 37.75000000000001 3.9999999999999996
    vertex 3.499999999999999 31.999999999999996 3.9999999999999996
    vertex 39.499999999999986 31.999999999999996 3.9999999999999996
  endloop
endfacet
facet normal 0.0 0.0 1.0
  outer loop
    vertex 5.499999999999998 37.75000000000001 3.9999999999999996
    vertex 39.499999999999986 31.999999999999996 3.9999999999999996
    vertex 17.49999999999999 36.43750000000001 3.9999999999999996
  endloop
endfacet
facet normal 0.0 0.0 1.0
  outer loop
    vertex 17.49999999999999 36.43750000000001 3.9999999999999996
    vertex 39.499999999999986 31.999999999999996 3.9999999999999996
    vertex 21.499999999999993 36.0 3.9999999999999996
  endloop
endfacet
facet normal 0.0 0.0 1.0
  outer loop
    vertex 21.499999999999993 36.0 3.9999999999999996
    vertex 39.499999999999986 31.999999999999996 3.9999999999999996
    vertex 25.5 36.4375 3.9999999999999996
  endloop
endfacet
facet normal 0.0 0.0 1.0
  outer loop
    vertex 25.5 36.4375 3.9999999999999996
    vertex 39.499999999999986 31.999999999999996 3.9999999999999996
    vertex 37.499999999999986 37.74999999999999 3.9999999999999996
  endloop
endfacet
facet normal 0.0 0.0 1.0
  outer loop
    vertex 37.499999999999986 37.74999999999999 3.9999999999999996
    vertex 39.499999999999986 31.999999999999996 3.9999999999999996
    vertex 37.499999999999986 42.14290411013254 3.9999999999999996
  endloop
endfacet
facet normal 0.0 0.0 1.0
  outer loop
    vertex 3.499999999999999 48.0 3.9999999999999996
    vertex 5.499999999999998 42.14290411013254 3.9999999999999996
    vertex 39.499999999999986 48.00000000000001 3.9999999999999996
  endloop
endfacet
facet normal 0.0 0.0 1.0
  outer loop
    vertex 5.499999999999998 42.14290411013254 3.9999999999999996
    vertex 3.499999999999999 48.0 3.9999999999999996
    vertex 5.499999999999998 37.75000000000001 3.9999999999999996
  endloop
endfacet
facet normal 0.0 0.0 1.0
  outer loop
    vertex 39.499999999999986 48.00000000000001 3.9999999999999996
    vertex 5.499999999999998 42.14290411013254 3.9999999999999996
    vertex 17.49999999999999 43.53572602753314 3.9999999999999996
  endloop
endfacet
facet normal 0.0 0.0 1.0
  outer loop
    vertex 39.499999999999986 48.00000000000001 3.9999999999999996
    vertex 17.49999999999999 43.53572602753314 3.9999999999999996
    vertex 21.499999999999993 44.0 3.9999999999999996
  endloop
endfacet
facet normal 0.0 0.0 1.0
  outer loop
    vertex 39.499999999999986 48.00000000000001 3.9999999999999996
    vertex 21.499999999999993 44.0 3.9999999999999996
    vertex 25.5 43.53572602753314 3.9999999999999996
  endloop
endfacet
facet normal 0.0 0.0 1.0
  outer loop
    vertex 39.499999999999986 48.00000000000001 3.9999999999999996
    vertex 25.5 43.53572602753314 3.9999999999999996
    vertex 37.499999999999986 42.14290411013254 3.9999999999999996
  endloop
endfacet
facet normal 0.0 0.0 1.0
  outer loop
    vertex 39.499999999999986 48.00000000000001 3.9999999999999996
    vertex 37.499999999999986 42.14290411013254 3.9999999999999996
    vertex 39.499999999999986 31.999999999999996 3.9999999999999996
  endloop
endfacet
facet normal -0.11529447374478924 -0.9933313567606291 0.0
  outer loop
    vertex 37.499999999999986 42.14290411013254 3.9999999999999996
    vertex 25.5 43.53572602753314 0.9999999999999996
    vertex 37.499999999999986 42.14290411013254 0.9999999999999996
  endloop
endfacet
facet normal -0.11529447374478924 -0.9933313567606291 0.0
  outer loop
    vertex 25.5 43.53572602753314 0.9999999999999996
    vertex 37.499999999999986 42.14290411013254 3.9999999999999996
    vertex 25.5 43.53572602753314 3.9999999999999996
  endloop
endfacet
facet normal 0.0 0.0 1.0
  outer loop
    vertex 21.499999999999993 36.0 0.9999999999999996
    vertex 17.49999999999999 43.53572602753314 0.9999999999999996
    vertex 17.49999999999999 36.43750000000001 0.9999999999999996
  endloop
endfacet
facet normal 0.0 0.0 1.0
  outer loop
    vertex 17.49999999999999 43.53572602753314 0.9999999999999996
    vertex 21.499999999999993 36.0 0.9999999999999996
    vertex 21.499999999999993 44.0 0.9999999999999996
  endloop
endfacet
facet normal 0.0 0.0 1.0
  outer loop
    vertex 21.499999999999993 44.0 0.9999999999999996
    vertex 21.499999999999993 36.0 0.9999999999999996
    vertex 25.5 36.4375 0.9999999999999996
  endloop
endfacet
facet normal 0.0 0.0 1.0
  outer loop
    vertex 21.499999999999993 44.0 0.9999999999999996
    vertex 25.5 36.4375 0.9999999999999996
    vertex 25.5 43.53572602753314 0.9999999999999996
  endloop
endfacet
facet normal -0.10872659128563379 0.9940716917543758 0.0
  outer loop
    vertex 21.499999999999993 36.0 3.9999999999999996
    vertex 25.5 36.4375 0.9999999999999996
    vertex 21.499999999999993 36.0 0.9999999999999996
  endloop
endfacet
facet normal -0.10872659128563379 0.9940716917543758 0.0
  outer loop
    vertex 25.5 36.4375 0.9999999999999996
    vertex 21.499999999999993 36.0 3.9999999999999996
    vertex 25.5 36.4375 3.9999999999999996
  endloop
endfacet
facet normal 1.0 0.0 0.0
  outer loop
    vertex 5.499999999999998 42.14290411013254 0.9999999999999996
    vertex 5.499999999999998 37.75000000000001 3.9999999999999996
    vertex 5.499999999999998 37.75000000000001 0.9999999999999996
  endloop
endfacet
facet normal 1.0 0.0 0.0
  outer loop
    vertex 5.499999999999998 37.75000000000001 3.9999999999999996
    vertex 5.499999999999998 42.14290411013254 0.9999999999999996
    vertex 5.499999999999998 42.14290411013254 3.9999999999999996
  endloop
endfacet
facet normal 0.1152944737447892 -0.9933313567606291 0.0
  outer loop
    vertex 17.49999999999999 43.53572602753314 3.9999999999999996
    vertex 5.499999999999998 42.14290411013254 0.9999999999999996
    vertex 17.49999999999999 43.53572602753314 0.9999999999999996
  endloop
endfacet
facet normal 0.1152944737447892 -0.9933313567606291 0.0
  outer loop
    vertex 5.499999999999998 42.14290411013254 0.9999999999999996
    vertex 17.49999999999999 43.53572602753314 3.9999999999999996
    vertex 5.499999999999998 42.14290411013254 3.9999999999999996
  endloop
endfacet
facet normal 0.10872659128563492 0.9940716917543756 0.0
  outer loop
    vertex 5.499999999999998 37.75000000000001 3.9999999999999996
    vertex 17.49999999999999 36.43750000000001 0.9999999999999996
    vertex 5.499999999999998 37.75000000000001 0.9999999999999996
  endloop
endfacet
facet normal 0.10872659128563492 0.9940716917543756 0.0
  outer loop
    vertex 17.49999999999999 36.43750000000001 0.9999999999999996
    vertex 5.499999999999998 37.75000000000001 3.9999999999999996
    vertex 17.49999999999999 36.43750000000001 3.9999999999999996
  endloop
endfacet
facet normal 0.0 0.0 1.0
  outer loop
    vertex 17.49999999999999 36.43750000000001 0.9999999999999996
    vertex 5.499999999999998 42.14290411013254 0.9999999999999996
    vertex 5.499999999999998 37.75000000000001 0.9999999999999996
  endloop
endfacet
facet normal 0.0 0.0 1.0
  outer loop
    vertex 5.499999999999998 42.14290411013254 0.9999999999999996
    vertex 17.49999999999999 36.43750000000001 0.9999999999999996
    vertex 17.49999999999999 43.53572602753314 0.9999999999999996
  endloop
endfacet
facet normal 0.9991211877977076 -0.04191481949976342 0.0
  outer loop
    vertex 52.49692415729198 39.85329813175087 0.0
    vertex 52.339800118647446 38.953226305507066 7.0
    vertex 52.339800118647446 38.953226305507066 0.0
  endloop
endfacet
facet normal 0.9542286053278427 -0.29907819842656597 0.0
  outer loop
    vertex 52.339800118647446 38.953226305507066 7.0
    vertex 52.49692415729198 39.85329813175087 0.0
    vertex 52.49692415729198 39.85329813175087 7.0
  endloop
endfacet
facet normal 0.9542286053278427 -0.29907819842656597 0.0
  outer loop
    vertex 52.339800118647446 38.953226305507066 0.0
    vertex 51.955074221197755 38.12449037666764 7.0
    vertex 51.955074221197755 38.12449037666764 0.0
  endloop
endfacet
facet normal 0.8443069203422167 -0.5358598923806873 0.0
  outer loop
    vertex 51.955074221197755 38.12449037666764 7.0
    vertex 52.339800118647446 38.953226305507066 0.0
    vertex 52.339800118647446 38.953226305507066 7.0
  endloop
endfacet
facet normal 0.8443069203422167 -0.5358598923806873 0.0
  outer loop
    vertex 51.955074221197755 38.12449037666764 0.0
    vertex 51.36896489906448 37.42356732923211 7.0
    vertex 51.36896489906448 37.42356732923211 0.0
  endloop
endfacet
facet normal 0.6768471140184229 -0.7361236202194112 0.0
  outer loop
    vertex 51.36896489906448 37.42356732923211 7.0
    vertex 51.955074221197755 38.12449037666764 0.0
    vertex 51.955074221197755 38.12449037666764 7.0
  endloop
endfacet
facet normal 0.6768471140184229 -0.7361236202194112 0.0
  outer loop
    vertex 51.36896489906448 37.42356732923211 7.0
    vertex 50.621414533959566 36.898223910553114 0.0
    vertex 51.36896489906448 37.42356732923211 0.0
  endloop
endfacet
facet normal 0.46326129541701877 -0.8862217398419799 0.0
  outer loop
    vertex 50.621414533959566 36.898223910553114 0.0
    vertex 51.36896489906448 37.42356732923211 7.0
    vertex 50.621414533959566 36.898223910553114 7.0
  endloop
endfacet
facet normal 0.46326129541701877 -0.8862217398419799 0.0
  outer loop
    vertex 50.621414533959566 36.898223910553114 7.0
    vertex 49.76336744787951 36.584261406442586 0.0
    vertex 50.621414533959566 36.898223910553114 0.0
  endloop
endfacet
facet normal 0.21810498510843288 -0.9759253124449895 0.0
  outer loop
    vertex 49.76336744787951 36.584261406442586 0.0
    vertex 50.621414533959566 36.898223910553114 7.0
    vertex 49.76336744787951 36.584261406442586 7.0
  endloop
endfacet
facet normal 0.21810498510843288 -0.9759253124449895 0.0
  outer loop
    vertex 49.76336744787951 36.584261406442586 7.0
    vertex 48.853298131750826 36.50307584270807 0.0
    vertex 49.76336744787951 36.584261406442586 0.0
  endloop
endfacet
facet normal -0.04191481949976348 -0.9991211877977078 0.0
  outer loop
    vertex 48.853298131750826 36.50307584270807 0.0
    vertex 49.76336744787951 36.584261406442586 7.0
    vertex 48.853298131750826 36.50307584270807 7.0
  endloop
endfacet
facet normal -0.04191481949976348 -0.9991211877977078 0.0
  outer loop
    vertex 48.853298131750826 36.50307584270807 7.0
    vertex 47.953226305507016 36.6601998813526 0.0
    vertex 48.853298131750826 36.50307584270807 0.0
  endloop
endfacet
facet normal -0.29907819842656713 -0.9542286053278423 0.0
  outer loop
    vertex 47.953226305507016 36.6601998813526 0.0
    vertex 48.853298131750826 36.50307584270807 7.0
    vertex 47.953226305507016 36.6601998813526 7.0
  endloop
endfacet
facet normal -0.29907819842656713 -0.9542286053278423 0.0
  outer loop
    vertex 47.953226305507016 36.6601998813526 7.0
    vertex 47.12449037666759 37.044925778802295 0.0
    vertex 47.953226305507016 36.6601998813526 0.0
  endloop
endfacet
facet normal -0.5358598923806906 -0.8443069203422146 0.0
  outer loop
    vertex 47.12449037666759 37.044925778802295 0.0
    vertex 47.953226305507016 36.6601998813526 7.0
    vertex 47.12449037666759 37.044925778802295 7.0
  endloop
endfacet
facet normal -0.5358598923806906 -0.8443069203422146 0.0
  outer loop
    vertex 47.12449037666759 37.044925778802295 7.0
    vertex 46.423567329232064 37.63103510093556 0.0
    vertex 47.12449037666759 37.044925778802295 0.0
  endloop
endfacet
facet normal -0.7361236202194109 -0.6768471140184232 0.0
  outer loop
    vertex 46.423567329232064 37.63103510093556 0.0
    vertex 47.12449037666759 37.044925778802295 7.0
    vertex 46.423567329232064 37.63103510093556 7.0
  endloop
endfacet
facet normal -0.8862217398419799 -0.46326129541701877 0.0
  outer loop
    vertex 45.89822391055307 38.378585466040484 7.0
    vertex 46.423567329232064 37.63103510093556 0.0
    vertex 46.423567329232064 37.63103510093556 7.0
  endloop
endfacet
facet normal -0.7361236202194109 -0.6768471140184232 0.0
  outer loop
    vertex 46.423567329232064 37.63103510093556 0.0
    vertex 45.89822391055307 38.378585466040484 7.0
    vertex 45.89822391055307 38.378585466040484 0.0
  endloop
endfacet
facet normal -0.9759253124449895 -0.21810498510843288 0.0
  outer loop
    vertex 45.584261406442536 39.23663255212053 7.0
    vertex 45.89822391055307 38.378585466040484 0.0
    vertex 45.89822391055307 38.378585466040484 7.0
  endloop
endfacet
facet normal -0.8862217398419799 -0.46326129541701877 0.0
  outer loop
    vertex 45.89822391055307 38.378585466040484 0.0
    vertex 45.584261406442536 39.23663255212053 7.0
    vertex 45.584261406442536 39.23663255212053 0.0
  endloop
endfacet
facet normal -0.9991211877977078 0.04191481949976348 0.0
  outer loop
    vertex 45.50307584270802 40.146701868249224 7.0
    vertex 45.584261406442536 39.23663255212053 0.0
    vertex 45.584261406442536 39.23663255212053 7.0
  endloop
endfacet
facet normal -0.9759253124449895 -0.21810498510843288 0.0
  outer loop
    vertex 45.584261406442536 39.23663255212053 0.0
    vertex 45.50307584270802 40.146701868249224 7.0
    vertex 45.50307584270802 40.146701868249224 0.0
  endloop
endfacet
facet normal -0.9542286053278423 0.29907819842656713 0.0
  outer loop
    vertex 45.660199881352554 41.04677369449303 7.0
    vertex 45.50307584270802 40.146701868249224 0.0
    vertex 45.50307584270802 40.146701868249224 7.0
  endloop
endfacet
facet normal -0.9991211877977078 0.04191481949976348 0.0
  outer loop
    vertex 45.50307584270802 40.146701868249224 0.0
    vertex 45.660199881352554 41.04677369449303 7.0
    vertex 45.660199881352554 41.04677369449303 0.0
  endloop
endfacet
facet normal -0.8443069203422146 0.5358598923806906 0.0
  outer loop
    vertex 46.04492577880225 41.875509623332455 7.0
    vertex 45.660199881352554 41.04677369449303 0.0
    vertex 45.660199881352554 41.04677369449303 7.0
  endloop
endfacet
facet normal -0.9542286053278423 0.29907819842656713 0.0
  outer loop
    vertex 45.660199881352554 41.04677369449303 0.0
    vertex 46.04492577880225 41.875509623332455 7.0
    vertex 46.04492577880225 41.875509623332455 0.0
  endloop
endfacet
facet normal -0.6768471140184232 0.7361236202194109 0.0
  outer loop
    vertex 46.63103510093552 42.57643267076798 7.0
    vertex 46.04492577880225 41.875509623332455 0.0
    vertex 46.04492577880225 41.875509623332455 7.0
  endloop
endfacet
facet normal -0.8443069203422146 0.5358598923806906 0.0
  outer loop
    vertex 46.04492577880225 41.875509623332455 0.0
    vertex 46.63103510093552 42.57643267076798 7.0
    vertex 46.63103510093552 42.57643267076798 0.0
  endloop
endfacet
facet normal -0.6768471140184232 0.7361236202194109 0.0
  outer loop
    vertex 46.63103510093552 42.57643267076798 7.0
    vertex 47.378585466040434 43.10177608944697 0.0
    vertex 46.63103510093552 42.57643267076798 0.0
  endloop
endfacet
facet normal -0.46326129541701877 0.8862217398419799 0.0
  outer loop
    vertex 47.378585466040434 43.10177608944697 0.0
    vertex 46.63103510093552 42.57643267076798 7.0
    vertex 47.378585466040434 43.10177608944697 7.0
  endloop
endfacet
facet normal -0.46326129541701877 0.8862217398419799 0.0
  outer loop
    vertex 47.378585466040434 43.10177608944697 7.0
    vertex 48.23663255212049 43.415738593557506 0.0
    vertex 47.378585466040434 43.10177608944697 0.0
  endloop
endfacet
facet normal -0.2181049851084331 0.9759253124449893 0.0
  outer loop
    vertex 48.23663255212049 43.415738593557506 0.0
    vertex 47.378585466040434 43.10177608944697 7.0
    vertex 48.23663255212049 43.415738593557506 7.0
  endloop
endfacet
facet normal -0.2181049851084331 0.9759253124449893 0.0
  outer loop
    vertex 48.23663255212049 43.415738593557506 7.0
    vertex 49.146701868249174 43.49692415729202 0.0
    vertex 48.23663255212049 43.415738593557506 0.0
  endloop
endfacet
facet normal 0.041914819499762675 0.9991211877977078 0.0
  outer loop
    vertex 49.146701868249174 43.49692415729202 0.0
    vertex 48.23663255212049 43.415738593557506 7.0
    vertex 49.146701868249174 43.49692415729202 7.0
  endloop
endfacet
facet normal 0.041914819499762675 0.9991211877977078 0.0
  outer loop
    vertex 49.146701868249174 43.49692415729202 7.0
    vertex 50.046773694492984 43.339800118647496 0.0
    vertex 49.146701868249174 43.49692415729202 0.0
  endloop
endfacet
facet normal 0.29907819842656663 0.9542286053278424 0.0
  outer loop
    vertex 50.046773694492984 43.339800118647496 0.0
    vertex 49.146701868249174 43.49692415729202 7.0
    vertex 50.046773694492984 43.339800118647496 7.0
  endloop
endfacet
facet normal 0.29907819842656663 0.9542286053278424 0.0
  outer loop
    vertex 50.046773694492984 43.339800118647496 7.0
    vertex 50.87550962333241 42.9550742211978 0.0
    vertex 50.046773694492984 43.339800118647496 0.0
  endloop
endfacet
facet normal 0.5358598923806906 0.8443069203422146 0.0
  outer loop
    vertex 50.87550962333241 42.9550742211978 0.0
    vertex 50.046773694492984 43.339800118647496 7.0
    vertex 50.87550962333241 42.9550742211978 7.0
  endloop
endfacet
facet normal 0.5358598923806906 0.8443069203422146 0.0
  outer loop
    vertex 50.87550962333241 42.9550742211978 7.0
    vertex 51.576432670767936 42.36896489906452 0.0
    vertex 50.87550962333241 42.9550742211978 0.0
  endloop
endfacet
facet normal 0.7361236202194109 0.6768471140184232 0.0
  outer loop
    vertex 51.576432670767936 42.36896489906452 0.0
    vertex 50.87550962333241 42.9550742211978 7.0
    vertex 51.576432670767936 42.36896489906452 7.0
  endloop
endfacet
facet normal 0.7361236202194109 0.6768471140184232 0.0
  outer loop
    vertex 51.576432670767936 42.36896489906452 0.0
    vertex 52.10177608944693 41.62141453395961 7.0
    vertex 52.10177608944693 41.62141453395961 0.0
  endloop
endfacet
facet normal 0.8862217398419813 0.46326129541701616 0.0
  outer loop
    vertex 52.10177608944693 41.62141453395961 7.0
    vertex 51.576432670767936 42.36896489906452 0.0
    vertex 51.576432670767936 42.36896489906452 7.0
  endloop
endfacet
facet normal 0.0 0.0 1.0
  outer loop
    vertex 45.584261406442536 39.23663255212053 7.0
    vertex 45.660199881352554 41.04677369449303 7.0
    vertex 45.50307584270802 40.146701868249224 7.0
  endloop
endfacet
facet normal 0.0 0.0 1.0
  outer loop
    vertex 45.660199881352554 41.04677369449303 7.0
    vertex 45.584261406442536 39.23663255212053 7.0
    vertex 45.89822391055307 38.378585466040484 7.0
  endloop
endfacet
facet normal 0.0 0.0 1.0
  outer loop
    vertex 45.660199881352554 41.04677369449303 7.0
    vertex 45.89822391055307 38.378585466040484 7.0
    vertex 46.04492577880225 41.875509623332455 7.0
  endloop
endfacet
facet normal 0.0 0.0 1.0
  outer loop
    vertex 46.04492577880225 41.875509623332455 7.0
    vertex 45.89822391055307 38.378585466040484 7.0
    vertex 46.423567329232064 37.63103510093556 7.0
  endloop
endfacet
facet normal 0.0 0.0 1.0
  outer loop
    vertex 46.04492577880225 41.875509623332455 7.0
    vertex 46.423567329232064 37.63103510093556 7.0
    vertex 46.63103510093552 42.57643267076798 7.0
  endloop
endfacet
facet normal 0.0 0.0 1.0
  outer loop
    vertex 46.63103510093552 42.57643267076798 7.0
    vertex 46.423567329232064 37.63103510093556 7.0
    vertex 47.12449037666759 37.044925778802295 7.0
  endloop
endfacet
facet normal 0.0 0.0 1.0
  outer loop
    vertex 46.63103510093552 42.57643267076798 7.0
    vertex 47.12449037666759 37.044925778802295 7.0
    vertex 47.378585466040434 43.10177608944697 7.0
  endloop
endfacet
facet normal 0.0 0.0 1.0
  outer loop
    vertex 47.378585466040434 43.10177608944697 7.0
    vertex 47.12449037666759 37.044925778802295 7.0
    vertex 47.953226305507016 36.6601998813526 7.0
  endloop
endfacet
facet normal 0.0 0.0 1.0
  outer loop
    vertex 47.378585466040434 43.10177608944697 7.0
    vertex 47.953226305507016 36.6601998813526 7.0
    vertex 48.23663255212049 43.415738593557506 7.0
  endloop
endfacet
facet normal 0.0 0.0 1.0
  outer loop
    vertex 48.23663255212049 43.415738593557506 7.0
    vertex 47.953226305507016 36.6601998813526 7.0
    vertex 48.853298131750826 36.50307584270807 7.0
  endloop
endfacet
facet normal 0.0 0.0 1.0
  outer loop
    vertex 48.23663255212049 43.415738593557506 7.0
    vertex 48.853298131750826 36.50307584270807 7.0
    vertex 49.146701868249174 43.49692415729202 7.0
  endloop
endfacet
facet normal 0.0 0.0 1.0
  outer loop
    vertex 49.146701868249174 43.49692415729202 7.0
    vertex 48.853298131750826 36.50307584270807 7.0
    vertex 49.76336744787951 36.584261406442586 7.0
  endloop
endfacet
facet normal 0.0 0.0 1.0
  outer loop
    vertex 49.146701868249174 43.49692415729202 7.0
    vertex 49.76336744787951 36.584261406442586 7.0
    vertex 50.046773694492984 43.339800118647496 7.0
  endloop
endfacet
facet normal 0.0 0.0 1.0
  outer loop
    vertex 50.046773694492984 43.339800118647496 7.0
    vertex 49.76336744787951 36.584261406442586 7.0
    vertex 50.621414533959566 36.898223910553114 7.0
  endloop
endfacet
facet normal 0.0 0.0 1.0
  outer loop
    vertex 50.046773694492984 43.339800118647496 7.0
    vertex 50.621414533959566 36.898223910553114 7.0
    vertex 50.87550962333241 42.9550742211978 7.0
  endloop
endfacet
facet normal 0.0 0.0 1.0
  outer loop
    vertex 50.87550962333241 42.9550742211978 7.0
    vertex 50.621414533959566 36.898223910553114 7.0
    vertex 51.36896489906448 37.42356732923211 7.0
  endloop
endfacet
facet normal 0.0 0.0 1.0
  outer loop
    vertex 50.87550962333241 42.9550742211978 7.0
    vertex 51.36896489906448 37.42356732923211 7.0
    vertex 51.576432670767936 42.36896489906452 7.0
  endloop
endfacet
facet normal 0.0 0.0 1.0
  outer loop
    vertex 51.576432670767936 42.36896489906452 7.0
    vertex 51.36896489906448 37.42356732923211 7.0
    vertex 51.955074221197755 38.12449037666764 7.0
  endloop
endfacet
facet normal 0.0 0.0 1.0
  outer loop
    vertex 51.576432670767936 42.36896489906452 7.0
    vertex 51.955074221197755 38.12449037666764 7.0
    vertex 52.10177608944693 41.62141453395961 7.0
  endloop
endfacet
facet normal 0.0 0.0 1.0
  outer loop
    vertex 52.10177608944693 41.62141453395961 7.0
    vertex 51.955074221197755 38.12449037666764 7.0
    vertex 52.339800118647446 38.953226305507066 7.0
  endloop
endfacet
facet normal 0.0 0.0 1.0
  outer loop
    vertex 52.10177608944693 41.62141453395961 7.0
    vertex 52.339800118647446 38.953226305507066 7.0
    vertex 52.41573859355746 40.76336744787956 7.0
  endloop
endfacet
facet normal 0.0 0.0 1.0
  outer loop
    vertex 52.41573859355746 40.76336744787956 7.0
    vertex 52.339800118647446 38.953226305507066 7.0
    vertex 52.49692415729198 39.85329813175087 7.0
  endloop
endfacet
facet normal 0.26267848240994607 0.9648834203564737 0.0
  outer loop
    vertex -5.080625311565185 43.37709197124768 7.0
    vertex -4.23789652518264 43.02406867382947 0.0
    vertex -5.080625311565185 43.37709197124768 0.0
  endloop
endfacet
facet normal 0.5034581356621034 0.8640196210941271 0.0
  outer loop
    vertex -4.23789652518264 43.02406867382947 0.0
    vertex -5.080625311565185 43.37709197124768 7.0
    vertex -4.23789652518264 43.02406867382947 7.0
  endloop
endfacet
facet normal 0.5034581356621034 0.8640196210941271 0.0
  outer loop
    vertex -4.23789652518264 43.02406867382947 7.0
    vertex -3.515252178595217 42.46496009379955 0.0
    vertex -4.23789652518264 43.02406867382947 0.0
  endloop
endfacet
facet normal 0.7099279489727947 0.7042743125141517 0.0
  outer loop
    vertex -3.515252178595217 42.46496009379955 0.0
    vertex -4.23789652518264 43.02406867382947 7.0
    vertex -3.515252178595217 42.46496009379955 7.0
  endloop
endfacet
facet normal 0.7099279489727947 0.7042743125141517 0.0
  outer loop
    vertex -3.515252178595217 42.46496009379955 0.0
    vertex -2.9619392897966086 41.73786855691636 7.0
    vertex -2.9619392897966086 41.73786855691636 0.0
  endloop
endfacet
facet normal 0.8680173457723971 0.4965338734046681 0.0
  outer loop
    vertex -2.9619392897966086 41.73786855691636 7.0
    vertex -3.515252178595217 42.46496009379955 0.0
    vertex -3.515252178595217 42.46496009379955 7.0
  endloop
endfacet
facet normal 0.8680173457723971 0.4965338734046681 0.0
  outer loop
    vertex -2.9619392897966086 41.73786855691636 0.0
    vertex -2.6156652177656534 40.89234414984289 7.0
    vertex -2.6156652177656534 40.89234414984289 0.0
  endloop
endfacet
facet normal 0.9669527949240987 0.2549554713836791 0.0
  outer loop
    vertex -2.6156652177656534 40.89234414984289 7.0
    vertex -2.9619392897966086 41.73786855691636 0.0
    vertex -2.9619392897966086 41.73786855691636 7.0
  endloop
endfacet
facet normal 0.9669527949240987 0.2549554713836791 0.0
  outer loop
    vertex -2.6156652177656534 40.89234414984289 0.0
    vertex -2.5000279682663 39.98600796362607 7.0
    vertex -2.5000279682663 39.98600796362607 0.0
  endloop
endfacet
facet normal 0.9999920090667709 -0.003997724678269548 0.0
  outer loop
    vertex -2.5000279682663 39.98600796362607 7.0
    vertex -2.6156652177656534 40.89234414984289 0.0
    vertex -2.6156652177656534 40.89234414984289 7.0
  endloop
endfacet
facet normal 0.9999920090667709 -0.003997724678269548 0.0
  outer loop
    vertex -2.5000279682663 39.98600796362607 0.0
    vertex -2.622908028752341 39.0806253115652 7.0
    vertex -2.622908028752341 39.0806253115652 0.0
  endloop
endfacet
facet normal 0.9648834203564735 -0.26267848240994723 0.0
  outer loop
    vertex -2.622908028752341 39.0806253115652 7.0
    vertex -2.5000279682663 39.98600796362607 0.0
    vertex -2.5000279682663 39.98600796362607 7.0
  endloop
endfacet
facet normal 0.9648834203564735 -0.26267848240994723 0.0
  outer loop
    vertex -2.622908028752341 39.0806253115652 0.0
    vertex -2.975931326170552 38.237896525182656 7.0
    vertex -2.975931326170552 38.237896525182656 0.0
  endloop
endfacet
facet normal 0.8640196210941276 -0.5034581356621028 0.0
  outer loop
    vertex -2.975931326170552 38.237896525182656 7.0
    vertex -2.622908028752341 39.0806253115652 0.0
    vertex -2.622908028752341 39.0806253115652 7.0
  endloop
endfacet
facet normal 0.8640196210941276 -0.5034581356621028 0.0
  outer loop
    vertex -2.975931326170552 38.237896525182656 0.0
    vertex -3.5350399062004683 37.51525217859523 7.0
    vertex -3.5350399062004683 37.51525217859523 0.0
  endloop
endfacet
facet normal 0.7042743125141524 -0.7099279489727942 0.0
  outer loop
    vertex -3.5350399062004683 37.51525217859523 7.0
    vertex -2.975931326170552 38.237896525182656 0.0
    vertex -2.975931326170552 38.237896525182656 7.0
  endloop
endfacet
facet normal 0.7042743125141524 -0.7099279489727942 0.0
  outer loop
    vertex -3.5350399062004683 37.51525217859523 7.0
    vertex -4.262131443083662 36.961939289796625 0.0
    vertex -3.5350399062004683 37.51525217859523 0.0
  endloop
endfacet
facet normal 0.496533873404667 -0.8680173457723976 0.0
  outer loop
    vertex -4.262131443083662 36.961939289796625 0.0
    vertex -3.5350399062004683 37.51525217859523 7.0
    vertex -4.262131443083662 36.961939289796625 7.0
  endloop
endfacet
facet normal 0.496533873404667 -0.8680173457723976 0.0
  outer loop
    vertex -4.262131443083662 36.961939289796625 7.0
    vertex -5.107655850157123 36.615665217765674 0.0
    vertex -4.262131443083662 36.961939289796625 0.0
  endloop
endfacet
facet normal 0.25495547138367847 -0.9669527949240988 0.0
  outer loop
    vertex -5.107655850157123 36.615665217765674 0.0
    vertex -4.262131443083662 36.961939289796625 7.0
    vertex -5.107655850157123 36.615665217765674 7.0
  endloop
endfacet
facet normal 0.25495547138367847 -0.9669527949240988 0.0
  outer loop
    vertex -5.107655850157123 36.615665217765674 7.0
    vertex -6.013992036373944 36.500027968266316 0.0
    vertex -5.107655850157123 36.615665217765674 0.0
  endloop
endfacet
facet normal -0.003997724678268406 -0.9999920090667708 0.0
  outer loop
    vertex -6.013992036373944 36.500027968266316 0.0
    vertex -5.107655850157123 36.615665217765674 7.0
    vertex -6.013992036373944 36.500027968266316 7.0
  endloop
endfacet
facet normal -0.003997724678268406 -0.9999920090667708 0.0
  outer loop
    vertex -6.013992036373944 36.500027968266316 7.0
    vertex -6.919374688434814 36.622908028752356 0.0
    vertex -6.013992036373944 36.500027968266316 0.0
  endloop
endfacet
facet normal -0.26267848240994873 -0.9648834203564731 0.0
  outer loop
    vertex -6.919374688434814 36.622908028752356 0.0
    vertex -6.013992036373944 36.500027968266316 7.0
    vertex -6.919374688434814 36.622908028752356 7.0
  endloop
endfacet
facet normal -0.26267848240994873 -0.9648834203564731 0.0
  outer loop
    vertex -6.919374688434814 36.622908028752356 7.0
    vertex -7.76210347481736 36.975931326170574 0.0
    vertex -6.919374688434814 36.622908028752356 0.0
  endloop
endfacet
facet normal -0.5034581356621043 -0.8640196210941266 0.0
  outer loop
    vertex -7.76210347481736 36.975931326170574 0.0
    vertex -6.919374688434814 36.622908028752356 7.0
    vertex -7.76210347481736 36.975931326170574 7.0
  endloop
endfacet
facet normal -0.5034581356621043 -0.8640196210941266 0.0
  outer loop
    vertex -7.76210347481736 36.975931326170574 7.0
    vertex -8.484747821404781 37.53503990620049 0.0
    vertex -7.76210347481736 36.975931326170574 0.0
  endloop
endfacet
facet normal -0.7099279489727944 -0.7042743125141521 0.0
  outer loop
    vertex -8.484747821404781 37.53503990620049 0.0
    vertex -7.76210347481736 36.975931326170574 7.0
    vertex -8.484747821404781 37.53503990620049 7.0
  endloop
endfacet
facet normal -0.8680173457723973 -0.49653387340466776 0.0
  outer loop
    vertex -9.038060710203391 38.26213144308368 7.0
    vertex -8.484747821404781 37.53503990620049 0.0
    vertex -8.484747821404781 37.53503990620049 7.0
  endloop
endfacet
facet normal -0.7099279489727944 -0.7042743125141521 0.0
  outer loop
    vertex -8.484747821404781 37.53503990620049 0.0
    vertex -9.038060710203391 38.26213144308368 7.0
    vertex -9.038060710203391 38.26213144308368 0.0
  endloop
endfacet
facet normal -0.9669527949240985 -0.2549554713836797 0.0
  outer loop
    vertex -9.384334782234346 39.10765585015714 7.0
    vertex -9.038060710203391 38.26213144308368 0.0
    vertex -9.038060710203391 38.26213144308368 7.0
  endloop
endfacet
facet normal -0.8680173457723973 -0.49653387340466776 0.0
  outer loop
    vertex -9.038060710203391 38.26213144308368 0.0
    vertex -9.384334782234346 39.10765585015714 7.0
    vertex -9.384334782234346 39.10765585015714 0.0
  endloop
endfacet
facet normal -0.9999920090667708 0.003997724678269931 0.0
  outer loop
    vertex -9.499972031733698 40.01399203637396 7.0
    vertex -9.384334782234346 39.10765585015714 0.0
    vertex -9.384334782234346 39.10765585015714 7.0
  endloop
endfacet
facet normal -0.9669527949240985 -0.2549554713836797 0.0
  outer loop
    vertex -9.384334782234346 39.10765585015714 0.0
    vertex -9.499972031733698 40.01399203637396 7.0
    vertex -9.499972031733698 40.01399203637396 0.0
  endloop
endfacet
facet normal -0.9648834203564735 0.2626784824099478 0.0
  outer loop
    vertex -9.377091971247657 40.91937468843483 7.0
    vertex -9.499972031733698 40.01399203637396 0.0
    vertex -9.499972031733698 40.01399203637396 7.0
  endloop
endfacet
facet normal -0.9999920090667708 0.003997724678269931 0.0
  outer loop
    vertex -9.499972031733698 40.01399203637396 0.0
    vertex -9.377091971247657 40.91937468843483 7.0
    vertex -9.377091971247657 40.91937468843483 0.0
  endloop
endfacet
facet normal -0.8640196210941277 0.5034581356621024 0.0
  outer loop
    vertex -9.024068673829445 41.76210347481737 7.0
    vertex -9.377091971247657 40.91937468843483 0.0
    vertex -9.377091971247657 40.91937468843483 7.0
  endloop
endfacet
facet normal -0.9648834203564735 0.2626784824099478 0.0
  outer loop
    vertex -9.377091971247657 40.91937468843483 0.0
    vertex -9.024068673829445 41.76210347481737 7.0
    vertex -9.024068673829445 41.76210347481737 0.0
  endloop
endfacet
facet normal -0.7042743125141533 0.7099279489727931 0.0
  outer loop
    vertex -8.464960093799531 42.484747821404795 7.0
    vertex -9.024068673829445 41.76210347481737 0.0
    vertex -9.024068673829445 41.76210347481737 7.0
  endloop
endfacet
facet normal -0.8640196210941277 0.5034581356621024 0.0
  outer loop
    vertex -9.024068673829445 41.76210347481737 0.0
    vertex -8.464960093799531 42.484747821404795 7.0
    vertex -8.464960093799531 42.484747821404795 0.0
  endloop
endfacet
facet normal -0.7042743125141533 0.7099279489727931 0.0
  outer loop
    vertex -8.464960093799531 42.484747821404795 7.0
    vertex -7.737868556916338 43.03806071020341 0.0
    vertex -8.464960093799531 42.484747821404795 0.0
  endloop
endfacet
facet normal -0.4965338734046669 0.8680173457723978 0.0
  outer loop
    vertex -7.737868556916338 43.03806071020341 0.0
    vertex -8.464960093799531 42.484747821404795 7.0
    vertex -7.737868556916338 43.03806071020341 7.0
  endloop
endfacet
facet normal -0.4965338734046669 0.8680173457723978 0.0
  outer loop
    vertex -7.737868556916338 43.03806071020341 7.0
    vertex -6.892344149842875 43.38433478223436 0.0
    vertex -7.737868556916338 43.03806071020341 0.0
  endloop
endfacet
facet normal -0.254955471383678 0.9669527949240989 0.0
  outer loop
    vertex -6.892344149842875 43.38433478223436 0.0
    vertex -7.737868556916338 43.03806071020341 7.0
    vertex -6.892344149842875 43.38433478223436 7.0
  endloop
endfacet
facet normal -0.254955471383678 0.9669527949240989 0.0
  outer loop
    vertex -6.892344149842875 43.38433478223436 7.0
    vertex -5.986007963626056 43.49997203173372 0.0
    vertex -6.892344149842875 43.38433478223436 0.0
  endloop
endfacet
facet normal 0.003997724678268193 0.9999920090667708 0.0
  outer loop
    vertex -5.986007963626056 43.49997203173372 0.0
    vertex -6.892344149842875 43.38433478223436 7.0
    vertex -5.986007963626056 43.49997203173372 7.0
  endloop
endfacet
facet normal 0.003997724678268193 0.9999920090667708 0.0
  outer loop
    vertex -5.986007963626056 43.49997203173372 7.0
    vertex -5.080625311565185 43.37709197124768 0.0
    vertex -5.986007963626056 43.49997203173372 0.0
  endloop
endfacet
facet normal 0.26267848240994607 0.9648834203564737 0.0
  outer loop
    vertex -5.080625311565185 43.37709197124768 0.0
    vertex -5.986007963626056 43.49997203173372 7.0
    vertex -5.080625311565185 43.37709197124768 7.0
  endloop
endfacet
facet normal 0.0 0.0 1.0
  outer loop
    vertex -9.384334782234346 39.10765585015714 7.0
    vertex -9.377091971247657 40.91937468843483 7.0
    vertex -9.499972031733698 40.01399203637396 7.0
  endloop
endfacet
facet normal 0.0 0.0 1.0
  outer loop
    vertex -9.377091971247657 40.91937468843483 7.0
    vertex -9.384334782234346 39.10765585015714 7.0
    vertex -9.038060710203391 38.26213144308368 7.0
  endloop
endfacet
facet normal 0.0 0.0 1.0
  outer loop
    vertex -9.377091971247657 40.91937468843483 7.0
    vertex -9.038060710203391 38.26213144308368 7.0
    vertex -9.024068673829445 41.76210347481737 7.0
  endloop
endfacet
facet normal 0.0 0.0 1.0
  outer loop
    vertex -9.024068673829445 41.76210347481737 7.0
    vertex -9.038060710203391 38.26213144308368 7.0
    vertex -8.484747821404781 37.53503990620049 7.0
  endloop
endfacet
facet normal 0.0 0.0 1.0
  outer loop
    vertex -9.024068673829445 41.76210347481737 7.0
    vertex -8.484747821404781 37.53503990620049 7.0
    vertex -8.464960093799531 42.484747821404795 7.0
  endloop
endfacet
facet normal 0.0 0.0 1.0
  outer loop
    vertex -8.464960093799531 42.484747821404795 7.0
    vertex -8.484747821404781 37.53503990620049 7.0
    vertex -7.76210347481736 36.975931326170574 7.0
  endloop
endfacet
facet normal 0.0 0.0 1.0
  outer loop
    vertex -8.464960093799531 42.484747821404795 7.0
    vertex -7.76210347481736 36.975931326170574 7.0
    vertex -7.737868556916338 43.03806071020341 7.0
  endloop
endfacet
facet normal 0.0 0.0 1.0
  outer loop
    vertex -7.737868556916338 43.03806071020341 7.0
    vertex -7.76210347481736 36.975931326170574 7.0
    vertex -6.919374688434814 36.622908028752356 7.0
  endloop
endfacet
facet normal 0.0 0.0 1.0
  outer loop
    vertex -7.737868556916338 43.03806071020341 7.0
    vertex -6.919374688434814 36.622908028752356 7.0
    vertex -6.892344149842875 43.38433478223436 7.0
  endloop
endfacet
facet normal 0.0 0.0 1.0
  outer loop
    vertex -6.892344149842875 43.38433478223436 7.0
    vertex -6.919374688434814 36.622908028752356 7.0
    vertex -6.013992036373944 36.500027968266316 7.0
  endloop
endfacet
facet normal 0.0 0.0 1.0
  outer loop
    vertex -6.892344149842875 43.38433478223436 7.0
    vertex -6.013992036373944 36.500027968266316 7.0
    vertex -5.986007963626056 43.49997203173372 7.0
  endloop
endfacet
facet normal 0.0 0.0 1.0
  outer loop
    vertex -5.986007963626056 43.49997203173372 7.0
    vertex -6.013992036373944 36.500027968266316 7.0
    vertex -5.107655850157123 36.615665217765674 7.0
  endloop
endfacet
facet normal 0.0 0.0 1.0
  outer loop
    vertex -5.986007963626056 43.49997203173372 7.0
    vertex -5.107655850157123 36.615665217765674 7.0
    vertex -5.080625311565185 43.37709197124768 7.0
  endloop
endfacet
facet normal 0.0 0.0 1.0
  outer loop
    vertex -5.080625311565185 43.37709197124768 7.0
    vertex -5.107655850157123 36.615665217765674 7.0
    vertex -4.262131443083662 36.961939289796625 7.0
  endloop
endfacet
facet normal 0.0 0.0 1.0
  outer loop
    vertex -5.080625311565185 43.37709197124768 7.0
    vertex -4.262131443083662 36.961939289796625 7.0
    vertex -4.23789652518264 43.02406867382947 7.0
  endloop
endfacet
facet normal 0.0 0.0 1.0
  outer loop
    vertex -4.23789652518264 43.02406867382947 7.0
    vertex -4.262131443083662 36.961939289796625 7.0
    vertex -3.5350399062004683 37.51525217859523 7.0
  endloop
endfacet
facet normal 0.0 0.0 1.0
  outer loop
    vertex -4.23789652518264 43.02406867382947 7.0
    vertex -3.5350399062004683 37.51525217859523 7.0
    vertex -3.515252178595217 42.46496009379955 7.0
  endloop
endfacet
facet normal 0.0 0.0 1.0
  outer loop
    vertex -3.515252178595217 42.46496009379955 7.0
    vertex -3.5350399062004683 37.51525217859523 7.0
    vertex -2.975931326170552 38.237896525182656 7.0
  endloop
endfacet
facet normal 0.0 0.0 1.0
  outer loop
    vertex -3.515252178595217 42.46496009379955 7.0
    vertex -2.975931326170552 38.237896525182656 7.0
    vertex -2.9619392897966086 41.73786855691636 7.0
  endloop
endfacet
facet normal 0.0 0.0 1.0
  outer loop
    vertex -2.9619392897966086 41.73786855691636 7.0
    vertex -2.975931326170552 38.237896525182656 7.0
    vertex -2.622908028752341 39.0806253115652 7.0
  endloop
endfacet
facet normal 0.0 0.0 1.0
  outer loop
    vertex -2.9619392897966086 41.73786855691636 7.0
    vertex -2.622908028752341 39.0806253115652 7.0
    vertex -2.6156652177656534 40.89234414984289 7.0
  endloop
endfacet
facet normal 0.0 0.0 1.0
  outer loop
    vertex -2.6156652177656534 40.89234414984289 7.0
    vertex -2.622908028752341 39.0806253115652 7.0
    vertex -2.5000279682663 39.98600796362607 7.0
  endloop
endfacet
endsolid puffin_hips_2
