solid puffin_hips_2
facet normal 0.0 0.0 -1.0
  outer loop
    vertex 6.4999881132838455 6.51243089573269 0.0
    vertex 1.6943280398899712 6.275289036629519 0.0
    vertex 0.012430895732688862 6.499988113283847 0.0
  endloop
endfacet
facet normal 0.0 0.0 -1.0
  outer loop
    vertex 1.6943280398899712 6.275289036629519 0.0
    vertex 6.4999881132838455 6.51243089573269 0.0
    vertex 3.2607595281382276 5.6229393825343505 0.0
  endloop
endfacet
facet normal 0.0 0.0 -1.0
  outer loop
    vertex 3.2607595281382276 5.6229393825343505 0.0
    vertex 6.4999881132838455 6.51243089573269 0.0
    vertex 4.604975643203768 4.587395701866155 0.0
  endloop
endfacet
facet normal 0.0 0.0 -1.0
  outer loop
    vertex 4.604975643203768 4.587395701866155 0.0
    vertex 6.4999881132838455 6.51243089573269 0.0
    vertex 5.635370278267039 3.2392285851456193 0.0
  endloop
endfacet
facet normal 0.0 0.0 -1.0
  outer loop
    vertex 5.635370278267039 3.2392285851456193 0.0
    vertex 6.4999881132838455 6.51243089573269 0.0
    vertex 6.2817237417561245 1.6703133934257495 0.0
  endloop
endfacet
facet normal 0.0 0.0 -1.0
  outer loop
    vertex 6.2817237417561245 1.6703133934257495 0.0
    vertex 6.4999881132838455 6.51243089573269 0.0
    vertex 6.4999881132838455 -0.012430895732687451 0.0
  endloop
endfacet
facet normal 0.0 0.0 -1.0
  outer loop
    vertex 6.4999881132838455 -0.5124308957326872 3.0
    vertex -6.4999881132838455 -6.512430895732686 3.0
    vertex -6.4999881132838455 -0.5124308957326865 3.0
  endloop
endfacet
facet normal 0.0 0.0 -1.0
  outer loop
    vertex -6.4999881132838455 -6.512430895732686 3.0
    vertex 6.4999881132838455 -0.5124308957326872 3.0
    vertex 6.4999881132838455 -6.512430895732686 3.0
  endloop
endfacet
facet normal 0.0 0.0 -1.0
  outer loop
    vertex 1.6703133934257453 -6.281723741756126 0.0
    vertex 6.4999881132838455 -6.512430895732686 0.0
    vertex -0.012430895732691682 -6.499988113283847 0.0
  endloop
endfacet
facet normal 0.0 0.0 -1.0
  outer loop
    vertex 6.4999881132838455 -6.512430895732686 0.0
    vertex 1.6703133934257453 -6.281723741756126 0.0
    vertex 3.2392285851456193 -5.635370278267039 0.0
  endloop
endfacet
facet normal 0.0 0.0 -1.0
  outer loop
    vertex 6.4999881132838455 -6.512430895732686 0.0
    vertex 3.2392285851456193 -5.635370278267039 0.0
    vertex 4.587395701866151 -4.604975643203769 0.0
  endloop
endfacet
facet normal 0.0 0.0 -1.0
  outer loop
    vertex 6.4999881132838455 -6.512430895732686 0.0
    vertex 4.587395701866151 -4.604975643203769 0.0
    vertex 5.622939382534347 -3.260759528138231 0.0
  endloop
endfacet
facet normal 0.0 0.0 -1.0
  outer loop
    vertex 6.4999881132838455 -6.512430895732686 0.0
    vertex 5.622939382534347 -3.260759528138231 0.0
    vertex 6.275289036629517 -1.6943280398899696 0.0
  endloop
endfacet
facet normal 0.0 0.0 -1.0
  outer loop
    vertex 6.4999881132838455 -6.512430895732686 0.0
    vertex 6.275289036629517 -1.6943280398899696 0.0
    vertex 6.4331888213548165 -0.5124308957326872 0.0
  endloop
endfacet
facet normal 0.0 0.0 -1.0
  outer loop
    vertex 6.4999881132838455 -6.512430895732686 0.0
    vertex 6.4331888213548165 -0.5124308957326872 0.0
    vertex 6.4999881132838455 -0.012430895732687451 0.0
  endloop
endfacet
facet normal -1.0 -0.0 -0.0
  outer loop
    vertex 6.4999881132838455 6.51243089573269 4.5
    vertex 6.4999881132838455 -0.5124308957326872 3.0
    vertex 6.4999881132838455 -0.5124308957326872 4.499999999999995
  endloop
endfacet
facet normal -1.0 -0.0 -0.0
  outer loop
    vertex 6.4999881132838455 -0.5124308957326872 3.0
    vertex 6.4999881132838455 6.51243089573269 4.5
    vertex 6.4999881132838455 -0.012430895732687451 0.0
  endloop
endfacet
facet normal -1.0 -0.0 -0.0
  outer loop
    vertex 6.4999881132838455 -0.012430895732687451 0.0
    vertex 6.4999881132838455 6.51243089573269 4.5
    vertex 6.4999881132838455 6.51243089573269 0.0
  endloop
endfacet
facet normal -1.0 -0.0 -0.0
  outer loop
    vertex 6.4999881132838455 -0.5124308957326872 3.0
    vertex 6.4999881132838455 -6.512430895732686 0.0
    vertex 6.4999881132838455 -6.512430895732686 3.0
  endloop
endfacet
facet normal -1.0 -0.0 -0.0
  outer loop
    vertex 6.4999881132838455 -6.512430895732686 0.0
    vertex 6.4999881132838455 -0.5124308957326872 3.0
    vertex 6.4999881132838455 -0.012430895732687451 0.0
  endloop
endfacet
facet normal 6.101591202295541e-07 0.9999995752465968 -0.0009216866354743724
  outer loop
    vertex -6.4999881132838455 6.51243089573269 4.5
    vertex 0.012430895732688862 6.499988113283847 0.0
    vertex -6.4999881132838455 6.51243089573269 0.0
  endloop
endfacet
facet normal 6.101591202295541e-07 0.9999995752465968 -0.0009216866354743724
  outer loop
    vertex 0.012430895732688862 6.499988113283847 0.0
    vertex -6.4999881132838455 6.51243089573269 4.5
    vertex 6.4999881132838455 6.51243089573269 0.0
  endloop
endfacet
facet normal 6.101591202295541e-07 0.9999995752465968 -0.0009216866354743724
  outer loop
    vertex 6.4999881132838455 6.51243089573269 0.0
    vertex -6.4999881132838455 6.51243089573269 4.5
    vertex 6.4999881132838455 6.51243089573269 4.5
  endloop
endfacet
facet normal 0.7071067811865475 -0.7071067811865476 0.0
  outer loop
    vertex -2.8284271247461894 2.8284271247461903 -15.0
    vertex -3.464101615137753 2.0000000000000018 0.0
    vertex -3.464101615137753 2.0000000000000018 -15.0
  endloop
endfacet
facet normal 0.8660254037844386 -0.5000000000000001 0.0
  outer loop
    vertex -3.464101615137753 2.0000000000000018 0.0
    vertex -2.8284271247461894 2.8284271247461903 -15.0
    vertex -2.8284271247461894 2.8284271247461903 0.0
  endloop
endfacet
facet normal -0.9914448613738103 0.13052619222005268 -1.0583017441856181e-17
  outer loop
    vertex 3.932537192735844 -0.5124308957326872 0.0
    vertex 3.8637033051562715 -1.035276180410086 -15.0
    vertex 3.8637033051562715 -1.035276180410086 0.0
  endloop
endfacet
facet normal -0.9659258262890682 0.25881904510252157 -5.337168941090514e-18
  outer loop
    vertex 3.8637033051562715 -1.035276180410086 -15.0
    vertex 3.932537192735844 -0.5124308957326872 0.0
    vertex 3.9999999999999996 0.0 -15.0
  endloop
endfacet
facet normal -1.0 4.2773327499105146e-16 -5.337168941090514e-18
  outer loop
    vertex 3.9999999999999996 0.0 -15.0
    vertex 3.932537192735844 -0.5124308957326872 0.0
    vertex 3.9999999999999996 0.0 0.0
  endloop
endfacet
facet normal 0.4999999999999998 -0.8660254037844388 0.0
  outer loop
    vertex -1.9999999999999984 3.4641016151377553 0.0
    vertex -2.8284271247461894 2.8284271247461903 -15.0
    vertex -1.9999999999999984 3.4641016151377553 -15.0
  endloop
endfacet
facet normal 0.7071067811865475 -0.7071067811865476 0.0
  outer loop
    vertex -2.8284271247461894 2.8284271247461903 -15.0
    vertex -1.9999999999999984 3.4641016151377553 0.0
    vertex -2.8284271247461894 2.8284271247461903 0.0
  endloop
endfacet
facet normal -0.8660254037844387 0.5 0.0
  outer loop
    vertex 3.4641016151377526 -2.0000000000000018 0.0
    vertex 2.8284271247461903 -2.8284271247461903 -15.0
    vertex 2.8284271247461903 -2.8284271247461903 0.0
  endloop
endfacet
facet normal -0.7071067811865474 0.7071067811865478 0.0
  outer loop
    vertex 2.8284271247461903 -2.8284271247461903 -15.0
    vertex 3.4641016151377526 -2.0000000000000018 0.0
    vertex 3.4641016151377526 -2.0000000000000018 -15.0
  endloop
endfacet
facet normal 0.8660254037844386 -0.5000000000000001 0.0
  outer loop
    vertex -3.464101615137753 2.0000000000000018 -15.0
    vertex -3.863703305156272 1.035276180410084 0.0
    vertex -3.863703305156272 1.035276180410084 -15.0
  endloop
endfacet
facet normal 0.9659258262890684 -0.2588190451025208 0.0
  outer loop
    vertex -3.863703305156272 1.035276180410084 0.0
    vertex -3.464101615137753 2.0000000000000018 -15.0
    vertex -3.464101615137753 2.0000000000000018 0.0
  endloop
endfacet
facet normal -0.49999999999999944 0.866025403784439 0.0
  outer loop
    vertex 1.9999999999999962 -3.464101615137756 0.0
    vertex 2.8284271247461903 -2.8284271247461903 -15.0
    vertex 1.9999999999999962 -3.464101615137756 -15.0
  endloop
endfacet
facet normal -0.7071067811865474 0.7071067811865478 0.0
  outer loop
    vertex 2.8284271247461903 -2.8284271247461903 -15.0
    vertex 1.9999999999999962 -3.464101615137756 0.0
    vertex 2.8284271247461903 -2.8284271247461903 0.0
  endloop
endfacet
facet normal -0.2588190451025204 0.9659258262890684 0.0
  outer loop
    vertex 1.0352761804100812 -3.8637033051562732 0.0
    vertex 1.9999999999999962 -3.464101615137756 -15.0
    vertex 1.0352761804100812 -3.8637033051562732 -15.0
  endloop
endfacet
facet normal -0.49999999999999944 0.866025403784439 0.0
  outer loop
    vertex 1.9999999999999962 -3.464101615137756 -15.0
    vertex 1.0352761804100812 -3.8637033051562732 0.0
    vertex 1.9999999999999962 -3.464101615137756 0.0
  endloop
endfacet
facet normal 5.70311033321402e-16 1.0 0.0
  outer loop
    vertex -1.4099832412739487e-15 -3.9999999999999996 0.0
    vertex 1.0352761804100812 -3.8637033051562732 -15.0
    vertex -1.4099832412739487e-15 -3.9999999999999996 -15.0
  endloop
endfacet
facet normal -0.2588190451025204 0.9659258262890684 0.0
  outer loop
    vertex 1.0352761804100812 -3.8637033051562732 -15.0
    vertex -1.4099832412739487e-15 -3.9999999999999996 0.0
    vertex 1.0352761804100812 -3.8637033051562732 0.0
  endloop
endfacet
facet normal 0.25881904510252063 -0.9659258262890684 0.0
  outer loop
    vertex -1.0352761804100825 3.863703305156273 0.0
    vertex -1.9999999999999984 3.4641016151377553 -15.0
    vertex -1.0352761804100825 3.863703305156273 -15.0
  endloop
endfacet
facet normal 0.4999999999999998 -0.8660254037844388 0.0
  outer loop
    vertex -1.9999999999999984 3.4641016151377553 -15.0
    vertex -1.0352761804100825 3.863703305156273 0.0
    vertex -1.9999999999999984 3.4641016151377553 0.0
  endloop
endfacet
facet normal 0.25881904510252135 0.9659258262890682 0.0
  outer loop
    vertex -1.0352761804100854 -3.863703305156272 0.0
    vertex -1.4099832412739487e-15 -3.9999999999999996 -15.0
    vertex -1.0352761804100854 -3.863703305156272 -15.0
  endloop
endfacet
facet normal 5.70311033321402e-16 1.0 0.0
  outer loop
    vertex -1.4099832412739487e-15 -3.9999999999999996 -15.0
    vertex -1.0352761804100854 -3.863703305156272 0.0
    vertex -1.4099832412739487e-15 -3.9999999999999996 0.0
  endloop
endfacet
facet normal 0.866025403784439 0.49999999999999944 0.0
  outer loop
    vertex -3.4641016151377544 -1.9999999999999991 -15.0
    vertex -2.8284271247461916 -2.8284271247461885 0.0
    vertex -2.8284271247461916 -2.8284271247461885 -15.0
  endloop
endfacet
facet normal 0.7071067811865477 0.7071067811865475 0.0
  outer loop
    vertex -2.8284271247461916 -2.8284271247461885 0.0
    vertex -3.4641016151377544 -1.9999999999999991 -15.0
    vertex -3.4641016151377544 -1.9999999999999991 0.0
  endloop
endfacet
facet normal 0.9659258262890684 0.25881904510252024 -6.679194479554709e-18
  outer loop
    vertex -3.863703305156273 -1.0352761804100812 -15.0
    vertex -3.4641016151377544 -1.9999999999999991 0.0
    vertex -3.4641016151377544 -1.9999999999999991 -15.0
  endloop
endfacet
facet normal 0.866025403784439 0.49999999999999944 0.0
  outer loop
    vertex -3.4641016151377544 -1.9999999999999991 0.0
    vertex -3.863703305156273 -1.0352761804100812 -15.0
    vertex -3.863703305156273 -1.0352761804100812 0.0
  endloop
endfacet
facet normal 1.0 -1.425777583303505e-16 -6.679194479554711e-18
  outer loop
    vertex -3.999999999999999 0.0 -15.0
    vertex -3.863703305156273 -1.0352761804100812 0.0
    vertex -3.863703305156273 -1.0352761804100812 -15.0
  endloop
endfacet
facet normal 0.9659258262890684 0.25881904510252024 -6.679194479554709e-18
  outer loop
    vertex -3.863703305156273 -1.0352761804100812 0.0
    vertex -3.999999999999999 0.0 -15.0
    vertex -3.932537192735844 -0.5124308957326865 0.0
  endloop
endfacet
facet normal 0.9914448613738105 0.13052619222005132 -1.3244106089741678e-17
  outer loop
    vertex -3.932537192735844 -0.5124308957326865 0.0
    vertex -3.999999999999999 0.0 -15.0
    vertex -3.999999999999999 0.0 0.0
  endloop
endfacet
facet normal 0.9654290825583871 -0.2606658522907649 -5.053322608872088e-18
  outer loop
    vertex 6.275289036629517 -1.6943280398899696 -15.0
    vertex 5.622939382534347 -3.260759528138231 0.0
    vertex 5.622939382534347 -3.260759528138231 -15.0
  endloop
endfacet
facet normal 0.8650675973129766 -0.501655312021266 0.0
  outer loop
    vertex 5.622939382534347 -3.260759528138231 0.0
    vertex 6.275289036629517 -1.6943280398899696 -15.0
    vertex 6.275289036629517 -1.6943280398899696 0.0
  endloop
endfacet
facet normal 0.9999981712744378 -0.001912445497336776 -5.053322608872088e-18
  outer loop
    vertex 6.4999881132838455 -0.012430895732687451 -15.0
    vertex 6.275289036629517 -1.6943280398899696 0.0
    vertex 6.275289036629517 -1.6943280398899696 -15.0
  endloop
endfacet
facet normal 0.9654290825583871 -0.2606658522907649 -5.053322608872088e-18
  outer loop
    vertex 6.275289036629517 -1.6943280398899696 0.0
    vertex 6.4999881132838455 -0.012430895732687451 -15.0
    vertex 6.4331888213548165 -0.5124308957326872 0.0
  endloop
endfacet
facet normal 0.9911934240646532 -0.13242203778445916 -1.0020181466860658e-17
  outer loop
    vertex 6.4331888213548165 -0.5124308957326872 0.0
    vertex 6.4999881132838455 -0.012430895732687451 -15.0
    vertex 6.4999881132838455 -0.012430895732687451 0.0
  endloop
endfacet
facet normal 0.9664190371932498 0.25697129129626917 0.0
  outer loop
    vertex 6.2817237417561245 1.6703133934257495 -15.0
    vertex 6.4999881132838455 -0.012430895732687451 0.0
    vertex 6.4999881132838455 -0.012430895732687451 -15.0
  endloop
endfacet
facet normal 0.9999981712744378 -0.001912445497336776 -5.053322608872088e-18
  outer loop
    vertex 6.4999881132838455 -0.012430895732687451 0.0
    vertex 6.2817237417561245 1.6703133934257495 -15.0
    vertex 6.2817237417561245 1.6703133934257495 0.0
  endloop
endfacet
facet normal 0.8669800428103137 0.49834285925317173 0.0
  outer loop
    vertex 5.635370278267039 3.2392285851456193 -15.0
    vertex 6.2817237417561245 1.6703133934257495 0.0
    vertex 6.2817237417561245 1.6703133934257495 -15.0
  endloop
endfacet
facet normal 0.9664190371932498 0.25697129129626917 0.0
  outer loop
    vertex 6.2817237417561245 1.6703133934257495 0.0
    vertex 5.635370278267039 3.2392285851456193 -15.0
    vertex 5.635370278267039 3.2392285851456193 0.0
  endloop
endfacet
facet normal 0.7084577912621183 0.7057531849024848 0.0
  outer loop
    vertex 4.604975643203768 4.587395701866155 -15.0
    vertex 5.635370278267039 3.2392285851456193 0.0
    vertex 5.635370278267039 3.2392285851456193 -15.0
  endloop
endfacet
facet normal 0.8669800428103137 0.49834285925317173 0.0
  outer loop
    vertex 5.635370278267039 3.2392285851456193 0.0
    vertex 4.604975643203768 4.587395701866155 -15.0
    vertex 4.604975643203768 4.587395701866155 0.0
  endloop
endfacet
facet normal 0.5016553120212656 0.8650675973129769 0.0
  outer loop
    vertex 3.2607595281382276 5.6229393825343505 0.0
    vertex 4.604975643203768 4.587395701866155 -15.0
    vertex 3.2607595281382276 5.6229393825343505 -15.0
  endloop
endfacet
facet normal 0.7084577912621183 0.7057531849024848 0.0
  outer loop
    vertex 4.604975643203768 4.587395701866155 -15.0
    vertex 3.2607595281382276 5.6229393825343505 0.0
    vertex 4.604975643203768 4.587395701866155 0.0
  endloop
endfacet
facet normal 0.2606658522907647 0.9654290825583873 0.0
  outer loop
    vertex 1.6943280398899712 6.275289036629519 0.0
    vertex 3.2607595281382276 5.6229393825343505 -15.0
    vertex 1.6943280398899712 6.275289036629519 -15.0
  endloop
endfacet
facet normal 0.5016553120212656 0.8650675973129769 0.0
  outer loop
    vertex 3.2607595281382276 5.6229393825343505 -15.0
    vertex 1.6943280398899712 6.275289036629519 0.0
    vertex 3.2607595281382276 5.6229393825343505 0.0
  endloop
endfacet
facet normal 0.0019124454973367937 0.9999981712744378 0.0
  outer loop
    vertex 0.012430895732688862 6.499988113283847 0.0
    vertex 1.6943280398899712 6.275289036629519 -15.0
    vertex 0.012430895732688862 6.499988113283847 -15.0
  endloop
endfacet
facet normal 0.2606658522907647 0.9654290825583873 0.0
  outer loop
    vertex 1.6943280398899712 6.275289036629519 -15.0
    vertex 0.012430895732688862 6.499988113283847 0.0
    vertex 1.6943280398899712 6.275289036629519 0.0
  endloop
endfacet
facet normal -0.2569712912962695 0.9664190371932497 0.0
  outer loop
    vertex -1.6703133934257488 6.281723741756126 0.0
    vertex 0.012430895732688862 6.499988113283847 -15.0
    vertex -1.6703133934257488 6.281723741756126 -15.0
  endloop
endfacet
facet normal 0.0019124454973367937 0.9999981712744378 0.0
  outer loop
    vertex 0.012430895732688862 6.499988113283847 -15.0
    vertex -1.6703133934257488 6.281723741756126 0.0
    vertex 0.012430895732688862 6.499988113283847 0.0
  endloop
endfacet
facet normal -0.4983428592531723 0.8669800428103135 0.0
  outer loop
    vertex -3.239228585145619 5.635370278267039 0.0
    vertex -1.6703133934257488 6.281723741756126 -15.0
    vertex -3.239228585145619 5.635370278267039 -15.0
  endloop
endfacet
facet normal -0.2569712912962695 0.9664190371932497 0.0
  outer loop
    vertex -1.6703133934257488 6.281723741756126 -15.0
    vertex -3.239228585145619 5.635370278267039 0.0
    vertex -1.6703133934257488 6.281723741756126 0.0
  endloop
endfacet
facet normal -0.7057531849024848 0.7084577912621183 0.0
  outer loop
    vertex -4.587395701866153 4.604975643203769 0.0
    vertex -3.239228585145619 5.635370278267039 -15.0
    vertex -4.587395701866153 4.604975643203769 -15.0
  endloop
endfacet
facet normal -0.4983428592531723 0.8669800428103135 0.0
  outer loop
    vertex -3.239228585145619 5.635370278267039 -15.0
    vertex -4.587395701866153 4.604975643203769 0.0
    vertex -3.239228585145619 5.635370278267039 0.0
  endloop
endfacet
facet normal -0.7057531849024848 0.7084577912621183 0.0
  outer loop
    vertex -4.587395701866153 4.604975643203769 0.0
    vertex -5.62293938253435 3.2607595281382276 -15.0
    vertex -5.62293938253435 3.2607595281382276 0.0
  endloop
endfacet
facet normal -0.8650675973129769 0.5016553120212655 0.0
  outer loop
    vertex -5.62293938253435 3.2607595281382276 -15.0
    vertex -4.587395701866153 4.604975643203769 0.0
    vertex -4.587395701866153 4.604975643203769 -15.0
  endloop
endfacet
facet normal -0.9916926725218448 -0.12862986926247486 6.701612595751604e-18
  outer loop
    vertex -6.431909659658312 -0.5124308957326865 0.0
    vertex -6.2817237417561245 -1.6703133934257495 -15.0
    vertex -6.2817237417561245 -1.6703133934257495 0.0
  endloop
endfacet
facet normal -0.9664190371932498 -0.2569712912962689 3.3797202733318994e-18
  outer loop
    vertex -6.2817237417561245 -1.6703133934257495 -15.0
    vertex -6.431909659658312 -0.5124308957326865 0.0
    vertex -6.4999881132838455 0.012430895732690272 -15.0
  endloop
endfacet
facet normal -0.9999981712744378 0.0019124454973371502 3.3797202733318994e-18
  outer loop
    vertex -6.4999881132838455 0.012430895732690272 -15.0
    vertex -6.431909659658312 -0.5124308957326865 0.0
    vertex -6.4999881132838455 0.012430895732690272 0.0
  endloop
endfacet
facet normal 1.1584442864340977e-16 -1.0 0.0
  outer loop
    vertex 0.0 3.9999999999999996 0.0
    vertex -1.0352761804100825 3.863703305156273 -15.0
    vertex 0.0 3.9999999999999996 -15.0
  endloop
endfacet
facet normal 0.25881904510252063 -0.9659258262890684 0.0
  outer loop
    vertex -1.0352761804100825 3.863703305156273 -15.0
    vertex 0.0 3.9999999999999996 0.0
    vertex -1.0352761804100825 3.863703305156273 0.0
  endloop
endfacet
facet normal -0.9664190371932498 -0.2569712912962689 3.3797202733318994e-18
  outer loop
    vertex -6.2817237417561245 -1.6703133934257495 0.0
    vertex -5.63537027826704 -3.2392285851456166 -15.0
    vertex -5.63537027826704 -3.2392285851456166 0.0
  endloop
endfacet
facet normal -0.8669800428103138 -0.4983428592531716 0.0
  outer loop
    vertex -5.63537027826704 -3.2392285851456166 -15.0
    vertex -6.2817237417561245 -1.6703133934257495 0.0
    vertex -6.2817237417561245 -1.6703133934257495 -15.0
  endloop
endfacet
facet normal -0.8669800428103138 -0.4983428592531716 0.0
  outer loop
    vertex -5.63537027826704 -3.2392285851456166 0.0
    vertex -4.604975643203769 -4.587395701866153 -15.0
    vertex -4.604975643203769 -4.587395701866153 0.0
  endloop
endfacet
facet normal -0.7084577912621185 -0.7057531849024845 0.0
  outer loop
    vertex -4.604975643203769 -4.587395701866153 -15.0
    vertex -5.63537027826704 -3.2392285851456166 0.0
    vertex -5.63537027826704 -3.2392285851456166 -15.0
  endloop
endfacet
facet normal -0.5016553120212658 -0.8650675973129769 0.0
  outer loop
    vertex -3.2607595281382302 -5.62293938253435 0.0
    vertex -4.604975643203769 -4.587395701866153 -15.0
    vertex -3.2607595281382302 -5.62293938253435 -15.0
  endloop
endfacet
facet normal -0.7084577912621185 -0.7057531849024845 0.0
  outer loop
    vertex -4.604975643203769 -4.587395701866153 -15.0
    vertex -3.2607595281382302 -5.62293938253435 0.0
    vertex -4.604975643203769 -4.587395701866153 0.0
  endloop
endfacet
facet normal -0.2606658522907649 -0.9654290825583873 0.0
  outer loop
    vertex -1.6943280398899712 -6.275289036629518 0.0
    vertex -3.2607595281382302 -5.62293938253435 -15.0
    vertex -1.6943280398899712 -6.275289036629518 -15.0
  endloop
endfacet
facet normal -0.5016553120212658 -0.8650675973129769 0.0
  outer loop
    vertex -3.2607595281382302 -5.62293938253435 -15.0
    vertex -1.6943280398899712 -6.275289036629518 0.0
    vertex -3.2607595281382302 -5.62293938253435 0.0
  endloop
endfacet
facet normal -0.0019124454973370789 -0.9999981712744378 0.0
  outer loop
    vertex -0.012430895732691682 -6.499988113283847 0.0
    vertex -1.6943280398899712 -6.275289036629518 -15.0
    vertex -0.012430895732691682 -6.499988113283847 -15.0
  endloop
endfacet
facet normal -0.2606658522907649 -0.9654290825583873 0.0
  outer loop
    vertex -1.6943280398899712 -6.275289036629518 -15.0
    vertex -0.012430895732691682 -6.499988113283847 0.0
    vertex -1.6943280398899712 -6.275289036629518 0.0
  endloop
endfacet
facet normal 0.25697129129626883 -0.96641903719325 0.0
  outer loop
    vertex 1.6703133934257453 -6.281723741756126 0.0
    vertex -0.012430895732691682 -6.499988113283847 -15.0
    vertex 1.6703133934257453 -6.281723741756126 -15.0
  endloop
endfacet
facet normal -0.0019124454973370789 -0.9999981712744378 0.0
  outer loop
    vertex -0.012430895732691682 -6.499988113283847 -15.0
    vertex 1.6703133934257453 -6.281723741756126 0.0
    vertex -0.012430895732691682 -6.499988113283847 0.0
  endloop
endfacet
facet normal -0.5000000000000001 -0.8660254037844388 0.0
  outer loop
    vertex 2.0000000000000004 3.464101615137754 0.0
    vertex 1.035276180410084 3.863703305156273 -15.0
    vertex 2.0000000000000004 3.464101615137754 -15.0
  endloop
endfacet
facet normal -0.25881904510252096 -0.9659258262890682 0.0
  outer loop
    vertex 1.035276180410084 3.863703305156273 -15.0
    vertex 2.0000000000000004 3.464101615137754 0.0
    vertex 1.035276180410084 3.863703305156273 0.0
  endloop
endfacet
facet normal 0.9659258262890684 -0.2588190451025208 0.0
  outer loop
    vertex -3.863703305156272 1.035276180410084 -15.0
    vertex -3.999999999999999 0.0 0.0
    vertex -3.999999999999999 0.0 -15.0
  endloop
endfacet
facet normal 1.0 -1.425777583303505e-16 -6.679194479554711e-18
  outer loop
    vertex -3.999999999999999 0.0 0.0
    vertex -3.863703305156272 1.035276180410084 -15.0
    vertex -3.863703305156272 1.035276180410084 0.0
  endloop
endfacet
facet normal 0.49834285925317207 -0.8669800428103137 0.0
  outer loop
    vertex 3.2392285851456193 -5.635370278267039 0.0
    vertex 1.6703133934257453 -6.281723741756126 -15.0
    vertex 3.2392285851456193 -5.635370278267039 -15.0
  endloop
endfacet
facet normal 0.25697129129626883 -0.96641903719325 0.0
  outer loop
    vertex 1.6703133934257453 -6.281723741756126 -15.0
    vertex 3.2392285851456193 -5.635370278267039 0.0
    vertex 1.6703133934257453 -6.281723741756126 0.0
  endloop
endfacet
facet normal 0.7057531849024851 -0.708457791262118 0.0
  outer loop
    vertex 4.587395701866151 -4.604975643203769 0.0
    vertex 3.2392285851456193 -5.635370278267039 -15.0
    vertex 4.587395701866151 -4.604975643203769 -15.0
  endloop
endfacet
facet normal 0.49834285925317207 -0.8669800428103137 0.0
  outer loop
    vertex 3.2392285851456193 -5.635370278267039 -15.0
    vertex 4.587395701866151 -4.604975643203769 0.0
    vertex 3.2392285851456193 -5.635370278267039 0.0
  endloop
endfacet
facet normal 0.8650675973129766 -0.501655312021266 0.0
  outer loop
    vertex 5.622939382534347 -3.260759528138231 -15.0
    vertex 4.587395701866151 -4.604975643203769 0.0
    vertex 4.587395701866151 -4.604975643203769 -15.0
  endloop
endfacet
facet normal 0.7057531849024851 -0.708457791262118 0.0
  outer loop
    vertex 4.587395701866151 -4.604975643203769 0.0
    vertex 5.622939382534347 -3.260759528138231 -15.0
    vertex 5.622939382534347 -3.260759528138231 0.0
  endloop
endfacet
facet normal 0.0 0.0 1.0
  outer loop
    vertex -6.2817237417561245 -1.6703133934257495 -15.0
    vertex -6.275289036629517 1.6943280398899712 -15.0
    vertex -6.4999881132838455 0.012430895732690272 -15.0
  endloop
endfacet
facet normal 0.0 0.0 1.0
  outer loop
    vertex -6.275289036629517 1.6943280398899712 -15.0
    vertex -6.2817237417561245 -1.6703133934257495 -15.0
    vertex -5.63537027826704 -3.2392285851456166 -15.0
  endloop
endfacet
facet normal 0.0 0.0 1.0
  outer loop
    vertex -6.275289036629517 1.6943280398899712 -15.0
    vertex -5.63537027826704 -3.2392285851456166 -15.0
    vertex -5.62293938253435 3.2607595281382276 -15.0
  endloop
endfacet
facet normal 0.0 0.0 1.0
  outer loop
    vertex -5.62293938253435 3.2607595281382276 -15.0
    vertex -5.63537027826704 -3.2392285851456166 -15.0
    vertex -4.604975643203769 -4.587395701866153 -15.0
  endloop
endfacet
facet normal 0.0 0.0 1.0
  outer loop
    vertex -5.62293938253435 3.2607595281382276 -15.0
    vertex -4.604975643203769 -4.587395701866153 -15.0
    vertex -4.587395701866153 4.604975643203769 -15.0
  endloop
endfacet
facet normal 0.0 0.0 1.0
  outer loop
    vertex -4.587395701866153 4.604975643203769 -15.0
    vertex -4.604975643203769 -4.587395701866153 -15.0
    vertex -3.999999999999999 0.0 -15.0
  endloop
endfacet
facet normal 0.0 0.0 1.0
  outer loop
    vertex -3.999999999999999 0.0 -15.0
    vertex -4.604975643203769 -4.587395701866153 -15.0
    vertex -3.2607595281382302 -5.62293938253435 -15.0
  endloop
endfacet
facet normal 0.0 0.0 1.0
  outer loop
    vertex -3.999999999999999 0.0 -15.0
    vertex -3.2607595281382302 -5.62293938253435 -15.0
    vertex -3.863703305156273 -1.0352761804100812 -15.0
  endloop
endfacet
facet normal 0.0 0.0 1.0
  outer loop
    vertex -3.863703305156273 -1.0352761804100812 -15.0
    vertex -3.2607595281382302 -5.62293938253435 -15.0
    vertex -3.4641016151377544 -1.9999999999999991 -15.0
  endloop
endfacet
facet normal 0.0 0.0 1.0
  outer loop
    vertex -3.4641016151377544 -1.9999999999999991 -15.0
    vertex -3.2607595281382302 -5.62293938253435 -15.0
    vertex -2.8284271247461916 -2.8284271247461885 -15.0
  endloop
endfacet
facet normal 0.0 0.0 1.0
  outer loop
    vertex -2.8284271247461916 -2.8284271247461885 -15.0
    vertex -3.2607595281382302 -5.62293938253435 -15.0
    vertex -1.6943280398899712 -6.275289036629518 -15.0
  endloop
endfacet
facet normal 0.0 0.0 1.0
  outer loop
    vertex -2.8284271247461916 -2.8284271247461885 -15.0
    vertex -1.6943280398899712 -6.275289036629518 -15.0
    vertex -2.0000000000000013 -3.464101615137753 -15.0
  endloop
endfacet
facet normal 0.0 0.0 1.0
  outer loop
    vertex -2.0000000000000013 -3.464101615137753 -15.0
    vertex -1.6943280398899712 -6.275289036629518 -15.0
    vertex -1.0352761804100854 -3.863703305156272 -15.0
  endloop
endfacet
facet normal 0.0 0.0 1.0
  outer loop
    vertex -1.0352761804100854 -3.863703305156272 -15.0
    vertex -1.6943280398899712 -6.275289036629518 -15.0
    vertex -0.012430895732691682 -6.499988113283847 -15.0
  endloop
endfacet
facet normal 0.0 0.0 1.0
  outer loop
    vertex -1.0352761804100854 -3.863703305156272 -15.0
    vertex -0.012430895732691682 -6.499988113283847 -15.0
    vertex -1.4099832412739487e-15 -3.9999999999999996 -15.0
  endloop
endfacet
facet normal 0.0 0.0 1.0
  outer loop
    vertex -1.4099832412739487e-15 -3.9999999999999996 -15.0
    vertex -0.012430895732691682 -6.499988113283847 -15.0
    vertex 1.6703133934257453 -6.281723741756126 -15.0
  endloop
endfacet
facet normal 0.0 0.0 1.0
  outer loop
    vertex -1.4099832412739487e-15 -3.9999999999999996 -15.0
    vertex 1.6703133934257453 -6.281723741756126 -15.0
    vertex 1.0352761804100812 -3.8637033051562732 -15.0
  endloop
endfacet
facet normal 0.0 0.0 1.0
  outer loop
    vertex 1.0352761804100812 -3.8637033051562732 -15.0
    vertex 1.6703133934257453 -6.281723741756126 -15.0
    vertex 1.9999999999999962 -3.464101615137756 -15.0
  endloop
endfacet
facet normal 0.0 0.0 1.0
  outer loop
    vertex 1.9999999999999962 -3.464101615137756 -15.0
    vertex 1.6703133934257453 -6.281723741756126 -15.0
    vertex 3.2392285851456193 -5.635370278267039 -15.0
  endloop
endfacet
facet normal 0.0 0.0 1.0
  outer loop
    vertex 1.9999999999999962 -3.464101615137756 -15.0
    vertex 3.2392285851456193 -5.635370278267039 -15.0
    vertex 2.8284271247461903 -2.8284271247461903 -15.0
  endloop
endfacet
facet normal 0.0 0.0 1.0
  outer loop
    vertex 2.8284271247461903 -2.8284271247461903 -15.0
    vertex 3.2392285851456193 -5.635370278267039 -15.0
    vertex 3.4641016151377526 -2.0000000000000018 -15.0
  endloop
endfacet
facet normal 0.0 0.0 1.0
  outer loop
    vertex 3.4641016151377526 -2.0000000000000018 -15.0
    vertex 3.2392285851456193 -5.635370278267039 -15.0
    vertex 4.587395701866151 -4.604975643203769 -15.0
  endloop
endfacet
facet normal 0.0 0.0 1.0
  outer loop
    vertex 3.4641016151377526 -2.0000000000000018 -15.0
    vertex 4.587395701866151 -4.604975643203769 -15.0
    vertex 3.8637033051562715 -1.035276180410086 -15.0
  endloop
endfacet
facet normal 0.0 0.0 1.0
  outer loop
    vertex 3.8637033051562715 -1.035276180410086 -15.0
    vertex 4.587395701866151 -4.604975643203769 -15.0
    vertex 3.9999999999999996 0.0 -15.0
  endloop
endfacet
facet normal 0.0 0.0 1.0
  outer loop
    vertex -4.587395701866153 4.604975643203769 -15.0
    vertex -3.863703305156272 1.035276180410084 -15.0
    vertex -3.239228585145619 5.635370278267039 -15.0
  endloop
endfacet
facet normal 0.0 0.0 1.0
  outer loop
    vertex -3.863703305156272 1.035276180410084 -15.0
    vertex -4.587395701866153 4.604975643203769 -15.0
    vertex -3.999999999999999 0.0 -15.0
  endloop
endfacet
facet normal 0.0 0.0 1.0
  outer loop
    vertex -3.239228585145619 5.635370278267039 -15.0
    vertex -3.863703305156272 1.035276180410084 -15.0
    vertex -3.464101615137753 2.0000000000000018 -15.0
  endloop
endfacet
facet normal 0.0 0.0 1.0
  outer loop
    vertex -3.239228585145619 5.635370278267039 -15.0
    vertex -3.464101615137753 2.0000000000000018 -15.0
    vertex -2.8284271247461894 2.8284271247461903 -15.0
  endloop
endfacet
facet normal 0.0 0.0 1.0
  outer loop
    vertex -3.239228585145619 5.635370278267039 -15.0
    vertex -2.8284271247461894 2.8284271247461903 -15.0
    vertex -1.6703133934257488 6.281723741756126 -15.0
  endloop
endfacet
facet normal 0.0 0.0 1.0
  outer loop
    vertex -1.6703133934257488 6.281723741756126 -15.0
    vertex -2.8284271247461894 2.8284271247461903 -15.0
    vertex -1.9999999999999984 3.4641016151377553 -15.0
  endloop
endfacet
facet normal 0.0 0.0 1.0
  outer loop
    vertex -1.6703133934257488 6.281723741756126 -15.0
    vertex -1.9999999999999984 3.4641016151377553 -15.0
    vertex -1.0352761804100825 3.863703305156273 -15.0
  endloop
endfacet
facet normal 0.0 0.0 1.0
  outer loop
    vertex -1.6703133934257488 6.281723741756126 -15.0
    vertex -1.0352761804100825 3.863703305156273 -15.0
    vertex 0.012430895732688862 6.499988113283847 -15.0
  endloop
endfacet
facet normal 0.0 0.0 1.0
  outer loop
    vertex 0.012430895732688862 6.499988113283847 -15.0
    vertex -1.0352761804100825 3.863703305156273 -15.0
    vertex 0.0 3.9999999999999996 -15.0
  endloop
endfacet
facet normal 0.0 0.0 1.0
  outer loop
    vertex 0.012430895732688862 6.499988113283847 -15.0
    vertex 0.0 3.9999999999999996 -15.0
    vertex 1.035276180410084 3.863703305156273 -15.0
  endloop
endfacet
facet normal 0.0 0.0 1.0
  outer loop
    vertex 0.012430895732688862 6.499988113283847 -15.0
    vertex 1.035276180410084 3.863703305156273 -15.0
    vertex 1.6943280398899712 6.275289036629519 -15.0
  endloop
endfacet
facet normal 0.0 0.0 1.0
  outer loop
    vertex 1.6943280398899712 6.275289036629519 -15.0
    vertex 1.035276180410084 3.863703305156273 -15.0
    vertex 2.0000000000000004 3.464101615137754 -15.0
  endloop
endfacet
facet normal 0.0 0.0 1.0
  outer loop
    vertex 1.6943280398899712 6.275289036629519 -15.0
    vertex 2.0000000000000004 3.464101615137754 -15.0
    vertex 3.2607595281382276 5.6229393825343505 -15.0
  endloop
endfacet
facet normal 0.0 0.0 1.0
  outer loop
    vertex 3.2607595281382276 5.6229393825343505 -15.0
    vertex 2.0000000000000004 3.464101615137754 -15.0
    vertex 2.8284271247461903 2.8284271247461903 -15.0
  endloop
endfacet
facet normal 0.0 0.0 1.0
  outer loop
    vertex 3.2607595281382276 5.6229393825343505 -15.0
    vertex 2.8284271247461903 2.8284271247461903 -15.0
    vertex 3.464101615137754 1.9999999999999991 -15.0
  endloop
endfacet
facet normal 0.0 0.0 1.0
  outer loop
    vertex 3.2607595281382276 5.6229393825343505 -15.0
    vertex 3.464101615137754 1.9999999999999991 -15.0
    vertex 4.604975643203768 4.587395701866155 -15.0
  endloop
endfacet
facet normal 0.0 0.0 1.0
  outer loop
    vertex 4.604975643203768 4.587395701866155 -15.0
    vertex 3.464101615137754 1.9999999999999991 -15.0
    vertex 3.863703305156273 1.0352761804100825 -15.0
  endloop
endfacet
facet normal 0.0 0.0 1.0
  outer loop
    vertex 4.604975643203768 4.587395701866155 -15.0
    vertex 3.863703305156273 1.0352761804100825 -15.0
    vertex 3.9999999999999996 0.0 -15.0
  endloop
endfacet
facet normal 0.0 0.0 1.0
  outer loop
    vertex 4.604975643203768 4.587395701866155 -15.0
    vertex 3.9999999999999996 0.0 -15.0
    vertex 4.587395701866151 -4.604975643203769 -15.0
  endloop
endfacet
facet normal 0.0 0.0 1.0
  outer loop
    vertex 4.604975643203768 4.587395701866155 -15.0
    vertex 4.587395701866151 -4.604975643203769 -15.0
    vertex 5.622939382534347 -3.260759528138231 -15.0
  endloop
endfacet
facet normal 0.0 0.0 1.0
  outer loop
    vertex 4.604975643203768 4.587395701866155 -15.0
    vertex 5.622939382534347 -3.260759528138231 -15.0
    vertex 5.635370278267039 3.2392285851456193 -15.0
  endloop
endfacet
facet normal 0.0 0.0 1.0
  outer loop
    vertex 5.635370278267039 3.2392285851456193 -15.0
    vertex 5.622939382534347 -3.260759528138231 -15.0
    vertex 6.275289036629517 -1.6943280398899696 -15.0
  endloop
endfacet
facet normal 0.0 0.0 1.0
  outer loop
    vertex 5.635370278267039 3.2392285851456193 -15.0
    vertex 6.275289036629517 -1.6943280398899696 -15.0
    vertex 6.2817237417561245 1.6703133934257495 -15.0
  endloop
endfacet
facet normal 0.0 0.0 1.0
  outer loop
    vertex 6.2817237417561245 1.6703133934257495 -15.0
    vertex 6.275289036629517 -1.6943280398899696 -15.0
    vertex 6.4999881132838455 -0.012430895732687451 -15.0
  endloop
endfacet
facet normal 0.0 0.0 -1.0
  outer loop
    vertex -6.431909659658312 -0.5124308957326865 0.0
    vertex -6.4999881132838455 -6.512430895732686 0.0
    vertex -6.4999881132838455 0.012430895732690272 0.0
  endloop
endfacet
facet normal 0.0 0.0 -1.0
  outer loop
    vertex -6.4999881132838455 -6.512430895732686 0.0
    vertex -6.431909659658312 -0.5124308957326865 0.0
    vertex -6.2817237417561245 -1.6703133934257495 0.0
  endloop
endfacet
facet normal 0.0 0.0 -1.0
  outer loop
    vertex -6.4999881132838455 -6.512430895732686 0.0
    vertex -6.2817237417561245 -1.6703133934257495 0.0
    vertex -5.63537027826704 -3.2392285851456166 0.0
  endloop
endfacet
facet normal 0.0 0.0 -1.0
  outer loop
    vertex -6.4999881132838455 -6.512430895732686 0.0
    vertex -5.63537027826704 -3.2392285851456166 0.0
    vertex -4.604975643203769 -4.587395701866153 0.0
  endloop
endfacet
facet normal 0.0 0.0 -1.0
  outer loop
    vertex -6.4999881132838455 -6.512430895732686 0.0
    vertex -4.604975643203769 -4.587395701866153 0.0
    vertex -3.2607595281382302 -5.62293938253435 0.0
  endloop
endfacet
facet normal 0.0 0.0 -1.0
  outer loop
    vertex -6.4999881132838455 -6.512430895732686 0.0
    vertex -3.2607595281382302 -5.62293938253435 0.0
    vertex -1.6943280398899712 -6.275289036629518 0.0
  endloop
endfacet
facet normal 0.0 0.0 -1.0
  outer loop
    vertex -6.4999881132838455 -6.512430895732686 0.0
    vertex -1.6943280398899712 -6.275289036629518 0.0
    vertex -0.012430895732691682 -6.499988113283847 0.0
  endloop
endfacet
facet normal 0.0 0.0 -1.0
  outer loop
    vertex -6.4999881132838455 6.51243089573269 0.0
    vertex -6.275289036629517 1.6943280398899712 0.0
    vertex -6.4999881132838455 0.012430895732690272 0.0
  endloop
endfacet
facet normal 0.0 0.0 -1.0
  outer loop
    vertex -6.275289036629517 1.6943280398899712 0.0
    vertex -6.4999881132838455 6.51243089573269 0.0
    vertex -5.62293938253435 3.2607595281382276 0.0
  endloop
endfacet
facet normal 0.0 0.0 -1.0
  outer loop
    vertex -5.62293938253435 3.2607595281382276 0.0
    vertex -6.4999881132838455 6.51243089573269 0.0
    vertex -4.587395701866153 4.604975643203769 0.0
  endloop
endfacet
facet normal 0.0 0.0 -1.0
  outer loop
    vertex -4.587395701866153 4.604975643203769 0.0
    vertex -6.4999881132838455 6.51243089573269 0.0
    vertex -3.239228585145619 5.635370278267039 0.0
  endloop
endfacet
facet normal 0.0 0.0 -1.0
  outer loop
    vertex -3.239228585145619 5.635370278267039 0.0
    vertex -6.4999881132838455 6.51243089573269 0.0
    vertex -1.6703133934257488 6.281723741756126 0.0
  endloop
endfacet
facet normal 0.0 0.0 -1.0
  outer loop
    vertex -1.6703133934257488 6.281723741756126 0.0
    vertex -6.4999881132838455 6.51243089573269 0.0
    vertex 0.012430895732688862 6.499988113283847 0.0
  endloop
endfacet
facet normal -0.8660254037844388 -0.4999999999999998 0.0
  outer loop
    vertex 3.464101615137754 1.9999999999999991 0.0
    vertex 3.863703305156273 1.0352761804100825 -15.0
    vertex 3.863703305156273 1.0352761804100825 0.0
  endloop
endfacet
facet normal -0.9659258262890682 -0.2588190451025211 0.0
  outer loop
    vertex 3.863703305156273 1.0352761804100825 -15.0
    vertex 3.464101615137754 1.9999999999999991 0.0
    vertex 3.464101615137754 1.9999999999999991 -15.0
  endloop
endfacet
facet normal -0.7071067811865478 -0.7071067811865472 0.0
  outer loop
    vertex 2.8284271247461903 2.8284271247461903 0.0
    vertex 2.0000000000000004 3.464101615137754 -15.0
    vertex 2.8284271247461903 2.8284271247461903 -15.0
  endloop
endfacet
facet normal -0.5000000000000001 -0.8660254037844388 0.0
  outer loop
    vertex 2.0000000000000004 3.464101615137754 -15.0
    vertex 2.8284271247461903 2.8284271247461903 0.0
    vertex 2.0000000000000004 3.464101615137754 0.0
  endloop
endfacet
facet normal 0.7071067811865477 0.7071067811865475 0.0
  outer loop
    vertex -2.8284271247461916 -2.8284271247461885 0.0
    vertex -2.0000000000000013 -3.464101615137753 -15.0
    vertex -2.8284271247461916 -2.8284271247461885 -15.0
  endloop
endfacet
facet normal 0.5000000000000001 0.8660254037844386 0.0
  outer loop
    vertex -2.0000000000000013 -3.464101615137753 -15.0
    vertex -2.8284271247461916 -2.8284271247461885 0.0
    vertex -2.0000000000000013 -3.464101615137753 0.0
  endloop
endfacet
facet normal -0.9659258262890682 -0.2588190451025211 0.0
  outer loop
    vertex 3.863703305156273 1.0352761804100825 0.0
    vertex 3.9999999999999996 0.0 -15.0
    vertex 3.9999999999999996 0.0 0.0
  endloop
endfacet
facet normal -1.0 4.2773327499105146e-16 -5.337168941090514e-18
  outer loop
    vertex 3.9999999999999996 0.0 -15.0
    vertex 3.863703305156273 1.0352761804100825 0.0
    vertex 3.863703305156273 1.0352761804100825 -15.0
  endloop
endfacet
facet normal 0.5000000000000001 0.8660254037844386 0.0
  outer loop
    vertex -2.0000000000000013 -3.464101615137753 0.0
    vertex -1.0352761804100854 -3.863703305156272 -15.0
    vertex -2.0000000000000013 -3.464101615137753 -15.0
  endloop
endfacet
facet normal 0.25881904510252135 0.9659258262890682 0.0
  outer loop
    vertex -1.0352761804100854 -3.863703305156272 -15.0
    vertex -2.0000000000000013 -3.464101615137753 0.0
    vertex -1.0352761804100854 -3.863703305156272 0.0
  endloop
endfacet
facet normal -0.8650675973129769 0.5016553120212655 0.0
  outer loop
    vertex -5.62293938253435 3.2607595281382276 0.0
    vertex -6.275289036629517 1.6943280398899712 -15.0
    vertex -6.275289036629517 1.6943280398899712 0.0
  endloop
endfacet
facet normal -0.9654290825583873 0.2606658522907648 0.0
  outer loop
    vertex -6.275289036629517 1.6943280398899712 -15.0
    vertex -5.62293938253435 3.2607595281382276 0.0
    vertex -5.62293938253435 3.2607595281382276 -15.0
  endloop
endfacet
facet normal -0.9654290825583873 0.2606658522907648 0.0
  outer loop
    vertex -6.275289036629517 1.6943280398899712 0.0
    vertex -6.4999881132838455 0.012430895732690272 -15.0
    vertex -6.4999881132838455 0.012430895732690272 0.0
  endloop
endfacet
facet normal -0.9999981712744378 0.0019124454973371502 3.3797202733318994e-18
  outer loop
    vertex -6.4999881132838455 0.012430895732690272 -15.0
    vertex -6.275289036629517 1.6943280398899712 0.0
    vertex -6.275289036629517 1.6943280398899712 -15.0
  endloop
endfacet
facet normal -0.25881904510252096 -0.9659258262890682 0.0
  outer loop
    vertex 1.035276180410084 3.863703305156273 0.0
    vertex 0.0 3.9999999999999996 -15.0
    vertex 1.035276180410084 3.863703305156273 -15.0
  endloop
endfacet
facet normal 1.1584442864340977e-16 -1.0 0.0
  outer loop
    vertex 0.0 3.9999999999999996 -15.0
    vertex 1.035276180410084 3.863703305156273 0.0
    vertex 0.0 3.9999999999999996 0.0
  endloop
endfacet
facet normal -0.9659258262890682 0.25881904510252157 -5.337168941090514e-18
  outer loop
    vertex 3.8637033051562715 -1.035276180410086 0.0
    vertex 3.4641016151377526 -2.0000000000000018 -15.0
    vertex 3.4641016151377526 -2.0000000000000018 0.0
  endloop
endfacet
facet normal -0.8660254037844387 0.5 0.0
  outer loop
    vertex 3.4641016151377526 -2.0000000000000018 -15.0
    vertex 3.8637033051562715 -1.035276180410086 0.0
    vertex 3.8637033051562715 -1.035276180410086 -15.0
  endloop
endfacet
facet normal 0.0 0.0 -1.0
  outer loop
    vertex -3.863703305156272 1.035276180410084 0.0
    vertex -3.932537192735844 -0.5124308957326865 0.0
    vertex -3.999999999999999 0.0 0.0
  endloop
endfacet
facet normal 0.0 0.0 -1.0
  outer loop
    vertex -3.932537192735844 -0.5124308957326865 0.0
    vertex -3.863703305156272 1.035276180410084 0.0
    vertex -3.863703305156273 -1.0352761804100812 0.0
  endloop
endfacet
facet normal 0.0 0.0 -1.0
  outer loop
    vertex -3.863703305156273 -1.0352761804100812 0.0
    vertex -3.863703305156272 1.035276180410084 0.0
    vertex -3.4641016151377544 -1.9999999999999991 0.0
  endloop
endfacet
facet normal 0.0 0.0 -1.0
  outer loop
    vertex -3.4641016151377544 -1.9999999999999991 0.0
    vertex -3.863703305156272 1.035276180410084 0.0
    vertex -3.464101615137753 2.0000000000000018 0.0
  endloop
endfacet
facet normal 0.0 0.0 -1.0
  outer loop
    vertex -3.4641016151377544 -1.9999999999999991 0.0
    vertex -3.464101615137753 2.0000000000000018 0.0
    vertex -2.8284271247461916 -2.8284271247461885 0.0
  endloop
endfacet
facet normal 0.0 0.0 -1.0
  outer loop
    vertex -2.8284271247461916 -2.8284271247461885 0.0
    vertex -3.464101615137753 2.0000000000000018 0.0
    vertex -2.8284271247461894 2.8284271247461903 0.0
  endloop
endfacet
facet normal 0.0 0.0 -1.0
  outer loop
    vertex -2.8284271247461916 -2.8284271247461885 0.0
    vertex -2.8284271247461894 2.8284271247461903 0.0
    vertex -2.0000000000000013 -3.464101615137753 0.0
  endloop
endfacet
facet normal 0.0 0.0 -1.0
  outer loop
    vertex -2.0000000000000013 -3.464101615137753 0.0
    vertex -2.8284271247461894 2.8284271247461903 0.0
    vertex -1.9999999999999984 3.4641016151377553 0.0
  endloop
endfacet
facet normal 0.0 0.0 -1.0
  outer loop
    vertex -2.0000000000000013 -3.464101615137753 0.0
    vertex -1.9999999999999984 3.4641016151377553 0.0
    vertex -1.0352761804100854 -3.863703305156272 0.0
  endloop
endfacet
facet normal 0.0 0.0 -1.0
  outer loop
    vertex -1.0352761804100854 -3.863703305156272 0.0
    vertex -1.9999999999999984 3.4641016151377553 0.0
    vertex -1.0352761804100825 3.863703305156273 0.0
  endloop
endfacet
facet normal 0.0 0.0 -1.0
  outer loop
    vertex -1.0352761804100854 -3.863703305156272 0.0
    vertex -1.0352761804100825 3.863703305156273 0.0
    vertex -1.4099832412739487e-15 -3.9999999999999996 0.0
  endloop
endfacet
facet normal 0.0 0.0 -1.0
  outer loop
    vertex -1.4099832412739487e-15 -3.9999999999999996 0.0
    vertex -1.0352761804100825 3.863703305156273 0.0
    vertex 0.0 3.9999999999999996 0.0
  endloop
endfacet
facet normal 0.0 0.0 -1.0
  outer loop
    vertex -1.4099832412739487e-15 -3.9999999999999996 0.0
    vertex 0.0 3.9999999999999996 0.0
    vertex 1.0352761804100812 -3.8637033051562732 0.0
  endloop
endfacet
facet normal 0.0 0.0 -1.0
  outer loop
    vertex 1.0352761804100812 -3.8637033051562732 0.0
    vertex 0.0 3.9999999999999996 0.0
    vertex 1.035276180410084 3.863703305156273 0.0
  endloop
endfacet
facet normal 0.0 0.0 -1.0
  outer loop
    vertex 1.0352761804100812 -3.8637033051562732 0.0
    vertex 1.035276180410084 3.863703305156273 0.0
    vertex 1.9999999999999962 -3.464101615137756 0.0
  endloop
endfacet
facet normal 0.0 0.0 -1.0
  outer loop
    vertex 1.9999999999999962 -3.464101615137756 0.0
    vertex 1.035276180410084 3.863703305156273 0.0
    vertex 2.0000000000000004 3.464101615137754 0.0
  endloop
endfacet
facet normal 0.0 0.0 -1.0
  outer loop
    vertex 1.9999999999999962 -3.464101615137756 0.0
    vertex 2.0000000000000004 3.464101615137754 0.0
    vertex 2.8284271247461903 -2.8284271247461903 0.0
  endloop
endfacet
facet normal 0.0 0.0 -1.0
  outer loop
    vertex 2.8284271247461903 -2.8284271247461903 0.0
    vertex 2.0000000000000004 3.464101615137754 0.0
    vertex 2.8284271247461903 2.8284271247461903 0.0
  endloop
endfacet
facet normal 0.0 0.0 -1.0
  outer loop
    vertex 2.8284271247461903 -2.8284271247461903 0.0
    vertex 2.8284271247461903 2.8284271247461903 0.0
    vertex 3.464101615137754 1.9999999999999991 0.0
  endloop
endfacet
facet normal 0.0 0.0 -1.0
  outer loop
    vertex 2.8284271247461903 -2.8284271247461903 0.0
    vertex 3.464101615137754 1.9999999999999991 0.0
    vertex 3.4641016151377526 -2.0000000000000018 0.0
  endloop
endfacet
facet normal 0.0 0.0 -1.0
  outer loop
    vertex 3.4641016151377526 -2.0000000000000018 0.0
    vertex 3.464101615137754 1.9999999999999991 0.0
    vertex 3.8637033051562715 -1.035276180410086 0.0
  endloop
endfacet
facet normal 0.0 0.0 -1.0
  outer loop
    vertex 3.8637033051562715 -1.035276180410086 0.0
    vertex 3.464101615137754 1.9999999999999991 0.0
    vertex 3.863703305156273 1.0352761804100825 0.0
  endloop
endfacet
facet normal 0.0 0.0 -1.0
  outer loop
    vertex 3.8637033051562715 -1.035276180410086 0.0
    vertex 3.863703305156273 1.0352761804100825 0.0
    vertex 3.932537192735844 -0.5124308957326872 0.0
  endloop
endfacet
facet normal 0.0 0.0 -1.0
  outer loop
    vertex 3.932537192735844 -0.5124308957326872 0.0
    vertex 3.863703305156273 1.0352761804100825 0.0
    vertex 3.9999999999999996 0.0 0.0
  endloop
endfacet
facet normal -5.423022383657921e-17 -1.0 -6.58599057696037e-33
  outer loop
    vertex 6.4999881132838455 -0.5124308957326872 4.499999999999995
    vertex -6.4999881132838455 -0.5124308957326865 3.0
    vertex 6.4999881132838455 -0.5124308957326872 3.0
  endloop
endfacet
facet normal -5.423022383657921e-17 -1.0 -6.58599057696037e-33
  outer loop
    vertex -6.4999881132838455 -0.5124308957326865 3.0
    vertex 6.4999881132838455 -0.5124308957326872 4.499999999999995
    vertex -6.4999881132838455 -0.5124308957326865 4.5
  endloop
endfacet
facet normal 2.1692089534631686e-16 -4.0142661396896414e-16 1.0
  outer loop
    vertex 6.4999881132838455 -0.5124308957326872 4.499999999999995
    vertex -6.4999881132838455 6.51243089573269 4.5
    vertex -6.4999881132838455 -0.5124308957326865 4.5
  endloop
endfacet
facet normal 2.1692089534631686e-16 -4.0142661396896414e-16 1.0
  outer loop
    vertex -6.4999881132838455 6.51243089573269 4.5
    vertex 6.4999881132838455 -0.5124308957326872 4.499999999999995
    vertex 6.4999881132838455 6.51243089573269 4.5
  endloop
endfacet
facet normal 0.0 0.0 -1.0
  outer loop
    vertex -4.587395701866153 4.604975643203769 0.0
    vertex -3.863703305156272 1.035276180410084 0.0
    vertex -3.999999999999999 0.0 0.0
  endloop
endfacet
facet normal 0.0 0.0 -1.0
  outer loop
    vertex -3.863703305156272 1.035276180410084 0.0
    vertex -4.587395701866153 4.604975643203769 0.0
    vertex -3.239228585145619 5.635370278267039 0.0
  endloop
endfacet
facet normal 0.0 0.0 -1.0
  outer loop
    vertex -3.863703305156272 1.035276180410084 0.0
    vertex -3.239228585145619 5.635370278267039 0.0
    vertex -3.464101615137753 2.0000000000000018 0.0
  endloop
endfacet
facet normal 0.0 0.0 -1.0
  outer loop
    vertex -3.464101615137753 2.0000000000000018 0.0
    vertex -3.239228585145619 5.635370278267039 0.0
    vertex -2.8284271247461894 2.8284271247461903 0.0
  endloop
endfacet
facet normal 0.0 0.0 -1.0
  outer loop
    vertex -2.8284271247461894 2.8284271247461903 0.0
    vertex -3.239228585145619 5.635370278267039 0.0
    vertex -1.6703133934257488 6.281723741756126 0.0
  endloop
endfacet
facet normal 0.0 0.0 -1.0
  outer loop
    vertex -2.8284271247461894 2.8284271247461903 0.0
    vertex -1.6703133934257488 6.281723741756126 0.0
    vertex -1.9999999999999984 3.4641016151377553 0.0
  endloop
endfacet
facet normal 0.0 0.0 -1.0
  outer loop
    vertex -1.9999999999999984 3.4641016151377553 0.0
    vertex -1.6703133934257488 6.281723741756126 0.0
    vertex -1.0352761804100825 3.863703305156273 0.0
  endloop
endfacet
facet normal 0.0 0.0 -1.0
  outer loop
    vertex -1.0352761804100825 3.863703305156273 0.0
    vertex -1.6703133934257488 6.281723741756126 0.0
    vertex 0.012430895732688862 6.499988113283847 0.0
  endloop
endfacet
facet normal 0.0 0.0 -1.0
  outer loop
    vertex -1.0352761804100825 3.863703305156273 0.0
    vertex 0.012430895732688862 6.499988113283847 0.0
    vertex 0.0 3.9999999999999996 0.0
  endloop
endfacet
facet normal 0.0 0.0 -1.0
  outer loop
    vertex 0.0 3.9999999999999996 0.0
    vertex 0.012430895732688862 6.499988113283847 0.0
    vertex 1.035276180410084 3.863703305156273 0.0
  endloop
endfacet
facet normal 0.0 0.0 -1.0
  outer loop
    vertex 1.035276180410084 3.863703305156273 0.0
    vertex 0.012430895732688862 6.499988113283847 0.0
    vertex 1.6943280398899712 6.275289036629519 0.0
  endloop
endfacet
facet normal 0.0 0.0 -1.0
  outer loop
    vertex 1.035276180410084 3.863703305156273 0.0
    vertex 1.6943280398899712 6.275289036629519 0.0
    vertex 2.0000000000000004 3.464101615137754 0.0
  endloop
endfacet
facet normal 0.0 0.0 -1.0
  outer loop
    vertex 2.0000000000000004 3.464101615137754 0.0
    vertex 1.6943280398899712 6.275289036629519 0.0
    vertex 3.2607595281382276 5.6229393825343505 0.0
  endloop
endfacet
facet normal 0.0 0.0 -1.0
  outer loop
    vertex 2.0000000000000004 3.464101615137754 0.0
    vertex 3.2607595281382276 5.6229393825343505 0.0
    vertex 2.8284271247461903 2.8284271247461903 0.0
  endloop
endfacet
facet normal 0.0 0.0 -1.0
  outer loop
    vertex 2.8284271247461903 2.8284271247461903 0.0
    vertex 3.2607595281382276 5.6229393825343505 0.0
    vertex 3.464101615137754 1.9999999999999991 0.0
  endloop
endfacet
facet normal 0.0 0.0 -1.0
  outer loop
    vertex 3.464101615137754 1.9999999999999991 0.0
    vertex 3.2607595281382276 5.6229393825343505 0.0
    vertex 4.604975643203768 4.587395701866155 0.0
  endloop
endfacet
facet normal 0.0 0.0 -1.0
  outer loop
    vertex 3.464101615137754 1.9999999999999991 0.0
    vertex 4.604975643203768 4.587395701866155 0.0
    vertex 3.863703305156273 1.0352761804100825 0.0
  endloop
endfacet
facet normal 0.0 0.0 -1.0
  outer loop
    vertex 3.863703305156273 1.0352761804100825 0.0
    vertex 4.604975643203768 4.587395701866155 0.0
    vertex 3.9999999999999996 0.0 0.0
  endloop
endfacet
facet normal 0.0 0.0 -1.0
  outer loop
    vertex 3.9999999999999996 0.0 0.0
    vertex 4.604975643203768 4.587395701866155 0.0
    vertex 4.587395701866151 -4.604975643203769 0.0
  endloop
endfacet
facet normal 0.0 0.0 -1.0
  outer loop
    vertex 4.587395701866151 -4.604975643203769 0.0
    vertex 4.604975643203768 4.587395701866155 0.0
    vertex 5.622939382534347 -3.260759528138231 0.0
  endloop
endfacet
facet normal 0.0 0.0 -1.0
  outer loop
    vertex 5.622939382534347 -3.260759528138231 0.0
    vertex 4.604975643203768 4.587395701866155 0.0
    vertex 5.635370278267039 3.2392285851456193 0.0
  endloop
endfacet
facet normal 0.0 0.0 -1.0
  outer loop
    vertex 5.622939382534347 -3.260759528138231 0.0
    vertex 5.635370278267039 3.2392285851456193 0.0
    vertex 6.275289036629517 -1.6943280398899696 0.0
  endloop
endfacet
facet normal 0.0 0.0 -1.0
  outer loop
    vertex 6.275289036629517 -1.6943280398899696 0.0
    vertex 5.635370278267039 3.2392285851456193 0.0
    vertex 6.2817237417561245 1.6703133934257495 0.0
  endloop
endfacet
facet normal 0.0 0.0 -1.0
  outer loop
    vertex 6.275289036629517 -1.6943280398899696 0.0
    vertex 6.2817237417561245 1.6703133934257495 0.0
    vertex 6.4331888213548165 -0.5124308957326872 0.0
  endloop
endfacet
facet normal 0.0 0.0 -1.0
  outer loop
    vertex 6.4331888213548165 -0.5124308957326872 0.0
    vertex 6.2817237417561245 1.6703133934257495 0.0
    vertex 6.4999881132838455 -0.012430895732687451 0.0
  endloop
endfacet
facet normal 0.0 0.0 -1.0
  outer loop
    vertex -6.275289036629517 1.6943280398899712 0.0
    vertex -6.431909659658312 -0.5124308957326865 0.0
    vertex -6.4999881132838455 0.012430895732690272 0.0
  endloop
endfacet
facet normal 0.0 0.0 -1.0
  outer loop
    vertex -6.431909659658312 -0.5124308957326865 0.0
    vertex -6.275289036629517 1.6943280398899712 0.0
    vertex -6.2817237417561245 -1.6703133934257495 0.0
  endloop
endfacet
facet normal 0.0 0.0 -1.0
  outer loop
    vertex -6.2817237417561245 -1.6703133934257495 0.0
    vertex -6.275289036629517 1.6943280398899712 0.0
    vertex -5.63537027826704 -3.2392285851456166 0.0
  endloop
endfacet
facet normal 0.0 0.0 -1.0
  outer loop
    vertex -5.63537027826704 -3.2392285851456166 0.0
    vertex -6.275289036629517 1.6943280398899712 0.0
    vertex -5.62293938253435 3.2607595281382276 0.0
  endloop
endfacet
facet normal 0.0 0.0 -1.0
  outer loop
    vertex -5.63537027826704 -3.2392285851456166 0.0
    vertex -5.62293938253435 3.2607595281382276 0.0
    vertex -4.604975643203769 -4.587395701866153 0.0
  endloop
endfacet
facet normal 0.0 0.0 -1.0
  outer loop
    vertex -4.604975643203769 -4.587395701866153 0.0
    vertex -5.62293938253435 3.2607595281382276 0.0
    vertex -4.587395701866153 4.604975643203769 0.0
  endloop
endfacet
facet normal 0.0 0.0 -1.0
  outer loop
    vertex -4.604975643203769 -4.587395701866153 0.0
    vertex -4.587395701866153 4.604975643203769 0.0
    vertex -3.999999999999999 0.0 0.0
  endloop
endfacet
facet normal 0.0 0.0 -1.0
  outer loop
    vertex -4.604975643203769 -4.587395701866153 0.0
    vertex -3.999999999999999 0.0 0.0
    vertex -3.2607595281382302 -5.62293938253435 0.0
  endloop
endfacet
facet normal 0.0 0.0 -1.0
  outer loop
    vertex -3.2607595281382302 -5.62293938253435 0.0
    vertex -3.999999999999999 0.0 0.0
    vertex -3.932537192735844 -0.5124308957326865 0.0
  endloop
endfacet
facet normal 0.0 0.0 -1.0
  outer loop
    vertex -3.2607595281382302 -5.62293938253435 0.0
    vertex -3.932537192735844 -0.5124308957326865 0.0
    vertex -3.863703305156273 -1.0352761804100812 0.0
  endloop
endfacet
facet normal 0.0 0.0 -1.0
  outer loop
    vertex -3.2607595281382302 -5.62293938253435 0.0
    vertex -3.863703305156273 -1.0352761804100812 0.0
    vertex -3.4641016151377544 -1.9999999999999991 0.0
  endloop
endfacet
facet normal 0.0 0.0 -1.0
  outer loop
    vertex -3.2607595281382302 -5.62293938253435 0.0
    vertex -3.4641016151377544 -1.9999999999999991 0.0
    vertex -2.8284271247461916 -2.8284271247461885 0.0
  endloop
endfacet
facet normal 0.0 0.0 -1.0
  outer loop
    vertex -3.2607595281382302 -5.62293938253435 0.0
    vertex -2.8284271247461916 -2.8284271247461885 0.0
    vertex -1.6943280398899712 -6.275289036629518 0.0
  endloop
endfacet
facet normal 0.0 0.0 -1.0
  outer loop
    vertex -1.6943280398899712 -6.275289036629518 0.0
    vertex -2.8284271247461916 -2.8284271247461885 0.0
    vertex -2.0000000000000013 -3.464101615137753 0.0
  endloop
endfacet
facet normal 0.0 0.0 -1.0
  outer loop
    vertex -1.6943280398899712 -6.275289036629518 0.0
    vertex -2.0000000000000013 -3.464101615137753 0.0
    vertex -1.0352761804100854 -3.863703305156272 0.0
  endloop
endfacet
facet normal 0.0 0.0 -1.0
  outer loop
    vertex -1.6943280398899712 -6.275289036629518 0.0
    vertex -1.0352761804100854 -3.863703305156272 0.0
    vertex -0.012430895732691682 -6.499988113283847 0.0
  endloop
endfacet
facet normal 0.0 0.0 -1.0
  outer loop
    vertex -0.012430895732691682 -6.499988113283847 0.0
    vertex -1.0352761804100854 -3.863703305156272 0.0
    vertex -1.4099832412739487e-15 -3.9999999999999996 0.0
  endloop
endfacet
facet normal 0.0 0.0 -1.0
  outer loop
    vertex -0.012430895732691682 -6.499988113283847 0.0
    vertex -1.4099832412739487e-15 -3.9999999999999996 0.0
    vertex 1.6703133934257453 -6.281723741756126 0.0
  endloop
endfacet
facet normal 0.0 0.0 -1.0
  outer loop
    vertex 1.6703133934257453 -6.281723741756126 0.0
    vertex -1.4099832412739487e-15 -3.9999999999999996 0.0
    vertex 1.0352761804100812 -3.8637033051562732 0.0
  endloop
endfacet
facet normal 0.0 0.0 -1.0
  outer loop
    vertex 1.6703133934257453 -6.281723741756126 0.0
    vertex 1.0352761804100812 -3.8637033051562732 0.0
    vertex 1.9999999999999962 -3.464101615137756 0.0
  endloop
endfacet
facet normal 0.0 0.0 -1.0
  outer loop
    vertex 1.6703133934257453 -6.281723741756126 0.0
    vertex 1.9999999999999962 -3.464101615137756 0.0
    vertex 3.2392285851456193 -5.635370278267039 0.0
  endloop
endfacet
facet normal 0.0 0.0 -1.0
  outer loop
    vertex 3.2392285851456193 -5.635370278267039 0.0
    vertex 1.9999999999999962 -3.464101615137756 0.0
    vertex 2.8284271247461903 -2.8284271247461903 0.0
  endloop
endfacet
facet normal 0.0 0.0 -1.0
  outer loop
    vertex 3.2392285851456193 -5.635370278267039 0.0
    vertex 2.8284271247461903 -2.8284271247461903 0.0
    vertex 3.4641016151377526 -2.0000000000000018 0.0
  endloop
endfacet
facet normal 0.0 0.0 -1.0
  outer loop
    vertex 3.2392285851456193 -5.635370278267039 0.0
    vertex 3.4641016151377526 -2.0000000000000018 0.0
    vertex 4.587395701866151 -4.604975643203769 0.0
  endloop
endfacet
facet normal 0.0 0.0 -1.0
  outer loop
    vertex 4.587395701866151 -4.604975643203769 0.0
    vertex 3.4641016151377526 -2.0000000000000018 0.0
    vertex 3.8637033051562715 -1.035276180410086 0.0
  endloop
endfacet
facet normal 0.0 0.0 -1.0
  outer loop
    vertex 4.587395701866151 -4.604975643203769 0.0
    vertex 3.8637033051562715 -1.035276180410086 0.0
    vertex 3.932537192735844 -0.5124308957326872 0.0
  endloop
endfacet
facet normal 0.0 0.0 -1.0
  outer loop
    vertex 4.587395701866151 -4.604975643203769 0.0
    vertex 3.932537192735844 -0.5124308957326872 0.0
    vertex 3.9999999999999996 0.0 0.0
  endloop
endfacet
facet normal -6.10158796271099e-07 -0.9999990443058363 -0.0013825292191694289
  outer loop
    vertex 6.4999881132838455 -6.512430895732686 3.0
    vertex -0.012430895732691682 -6.499988113283847 0.0
    vertex 6.4999881132838455 -6.512430895732686 0.0
  endloop
endfacet
facet normal -6.10158796271099e-07 -0.9999990443058363 -0.0013825292191694289
  outer loop
    vertex -0.012430895732691682 -6.499988113283847 0.0
    vertex 6.4999881132838455 -6.512430895732686 3.0
    vertex -6.4999881132838455 -6.512430895732686 0.0
  endloop
endfacet
facet normal -6.10158796271099e-07 -0.9999990443058363 -0.0013825292191694289
  outer loop
    vertex -6.4999881132838455 -6.512430895732686 0.0
    vertex 6.4999881132838455 -6.512430895732686 3.0
    vertex -6.4999881132838455 -6.512430895732686 3.0
  endloop
endfacet
facet normal -1.0 0.0 0.0
  outer loop
    vertex -6.4999881132838455 6.51243089573269 4.5
    vertex -6.4999881132838455 -0.5124308957326865 3.0
    vertex -6.4999881132838455 -0.5124308957326865 4.5
  endloop
endfacet
facet normal -1.0 0.0 0.0
  outer loop
    vertex -6.4999881132838455 -0.5124308957326865 3.0
    vertex -6.4999881132838455 6.51243089573269 4.5
    vertex -6.4999881132838455 0.012430895732690272 0.0
  endloop
endfacet
facet normal -1.0 0.0 0.0
  outer loop
    vertex -6.4999881132838455 0.012430895732690272 0.0
    vertex -6.4999881132838455 6.51243089573269 4.5
    vertex -6.4999881132838455 6.51243089573269 0.0
  endloop
endfacet
facet normal -1.0 0.0 0.0
  outer loop
    vertex -6.4999881132838455 -0.5124308957326865 3.0
    vertex -6.4999881132838455 -6.512430895732686 0.0
    vertex -6.4999881132838455 -6.512430895732686 3.0
  endloop
endfacet
facet normal -1.0 0.0 0.0
  outer loop
    vertex -6.4999881132838455 -6.512430895732686 0.0
    vertex -6.4999881132838455 -0.5124308957326865 3.0
    vertex -6.4999881132838455 0.012430895732690272 0.0
  endloop
endfacet
facet normal -0.7071067811865478 -0.7071067811865472 0.0
  outer loop
    vertex 2.8284271247461903 2.8284271247461903 0.0
    vertex 3.464101615137754 1.9999999999999991 -15.0
    vertex 3.464101615137754 1.9999999999999991 0.0
  endloop
endfacet
facet normal -0.8660254037844388 -0.4999999999999998 0.0
  outer loop
    vertex 3.464101615137754 1.9999999999999991 -15.0
    vertex 2.8284271247461903 2.8284271247461903 0.0
    vertex 2.8284271247461903 2.8284271247461903 -15.0
  endloop
endfacet
endsolid puffin_hips_2
