solid ascii
  facet normal 1.000000e+00 0.000000e+00 -0.000000e+00
    outer loop
      vertex   -1.269500e+02 5.750000e+01 3.000000e+00
      vertex   -1.269500e+02 9.250000e+01 3.000000e+00
      vertex   -1.269500e+02 5.750000e+01 2.500000e+01
    endloop
  endfacet
  facet normal 1.000000e+00 -0.000000e+00 0.000000e+00
    outer loop
      vertex   -1.269500e+02 5.750000e+01 2.500000e+01
      vertex   -1.269500e+02 9.250000e+01 3.000000e+00
      vertex   -1.269500e+02 9.250000e+01 2.500000e+01
    endloop
  endfacet
  facet normal 2.404088e-30 -5.075305e-16 1.000000e+00
    outer loop
      vertex   -1.269500e+02 9.250000e+01 2.500000e+01
      vertex   -1.299501e+02 9.250000e+01 2.500000e+01
      vertex   -1.269500e+02 5.750000e+01 2.500000e+01
    endloop
  endfacet
  facet normal 5.921044e-15 0.000000e+00 1.000000e+00
    outer loop
      vertex   -1.269500e+02 5.750000e+01 2.500000e+01
      vertex   -1.299501e+02 9.250000e+01 2.500000e+01
      vertex   -1.299501e+02 5.750000e+01 2.500000e+01
    endloop
  endfacet
  facet normal -0.000000e+00 -0.000000e+00 -1.000000e+00
    outer loop
      vertex   -1.269500e+02 9.250000e+01 3.000000e+00
      vertex   -1.269500e+02 5.750000e+01 3.000000e+00
      vertex   -1.269501e+02 9.250000e+01 3.000000e+00
    endloop
  endfacet
  facet normal -0.000000e+00 -0.000000e+00 -1.000000e+00
    outer loop
      vertex   -1.269501e+02 9.250000e+01 3.000000e+00
      vertex   -1.269500e+02 5.750000e+01 3.000000e+00
      vertex   -1.269501e+02 5.750000e+01 3.000000e+00
    endloop
  endfacet
  facet normal -1.000000e+00 0.000000e+00 0.000000e+00
    outer loop
      vertex   -1.299501e+02 8.650000e+01 1.526557e-14
      vertex   -1.299501e+02 6.350000e+01 1.526557e-14
      vertex   -1.299501e+02 8.650000e+01 3.000000e+00
    endloop
  endfacet
  facet normal -1.000000e+00 -0.000000e+00 0.000000e+00
    outer loop
      vertex   -1.299501e+02 8.650000e+01 3.000000e+00
      vertex   -1.299501e+02 6.350000e+01 1.526557e-14
      vertex   -1.299501e+02 6.350000e+01 3.000000e+00
    endloop
  endfacet
  facet normal -1.000000e+00 -0.000000e+00 0.000000e+00
    outer loop
      vertex   -1.299501e+02 9.250000e+01 2.500000e+01
      vertex   -1.299501e+02 6.350000e+01 3.000000e+00
      vertex   -1.299501e+02 5.750000e+01 2.500000e+01
    endloop
  endfacet
  facet normal -1.000000e+00 -0.000000e+00 0.000000e+00
    outer loop
      vertex   -1.299501e+02 9.250000e+01 2.500000e+01
      vertex   -1.299501e+02 8.650000e+01 3.000000e+00
      vertex   -1.299501e+02 6.350000e+01 3.000000e+00
    endloop
  endfacet
  facet normal -1.000000e+00 -0.000000e+00 -0.000000e+00
    outer loop
      vertex   -1.299501e+02 9.250000e+01 2.500000e+01
      vertex   -1.299501e+02 9.250000e+01 3.000000e+00
      vertex   -1.299501e+02 8.650000e+01 3.000000e+00
    endloop
  endfacet
  facet normal -1.000000e+00 0.000000e+00 0.000000e+00
    outer loop
      vertex   -1.299501e+02 6.350000e+01 3.000000e+00
      vertex   -1.299501e+02 5.750000e+01 3.000000e+00
      vertex   -1.299501e+02 5.750000e+01 2.500000e+01
    endloop
  endfacet
  facet normal 1.000000e+00 0.000000e+00 0.000000e+00
    outer loop
      vertex   -1.269501e+02 9.250000e+01 3.000000e+00
      vertex   -1.269501e+02 5.750000e+01 3.000000e+00
      vertex   -1.269501e+02 9.250000e+01 1.526557e-14
    endloop
  endfacet
  facet normal 1.000000e+00 0.000000e+00 0.000000e+00
    outer loop
      vertex   -1.269501e+02 9.250000e+01 1.526557e-14
      vertex   -1.269501e+02 5.750000e+01 3.000000e+00
      vertex   -1.269501e+02 5.750000e+01 1.526557e-14
    endloop
  endfacet
  facet normal -1.000000e+00 -0.000000e+00 -1.291896e-15
    outer loop
      vertex   -1.479500e+02 9.250000e+01 3.000000e+00
      vertex   -1.479500e+02 5.750000e+01 3.000000e+00
      vertex   -1.479500e+02 9.250000e+01 2.500000e+01
    endloop
  endfacet
  facet normal -1.000000e+00 6.556766e-31 -1.291896e-15
    outer loop
      vertex   -1.479500e+02 9.250000e+01 2.500000e+01
      vertex   -1.479500e+02 5.750000e+01 3.000000e+00
      vertex   -1.479500e+02 5.750000e+01 2.500000e+01
    endloop
  endfacet
  facet normal -5.921044e-15 -5.075305e-16 1.000000e+00
    outer loop
      vertex   -1.479500e+02 5.750000e+01 2.500000e+01
      vertex   -1.449500e+02 5.750000e+01 2.500000e+01
      vertex   -1.479500e+02 9.250000e+01 2.500000e+01
    endloop
  endfacet
  facet normal -0.000000e+00 0.000000e+00 1.000000e+00
    outer loop
      vertex   -1.479500e+02 9.250000e+01 2.500000e+01
      vertex   -1.449500e+02 5.750000e+01 2.500000e+01
      vertex   -1.449500e+02 9.250000e+01 2.500000e+01
    endloop
  endfacet
  facet normal 0.000000e+00 1.000000e+00 0.000000e+00
    outer loop
      vertex   -1.269501e+02 9.250000e+01 3.000000e+00
      vertex   -1.269501e+02 9.250000e+01 1.526557e-14
      vertex   -1.299501e+02 9.250000e+01 3.000000e+00
    endloop
  endfacet
  facet normal 0.000000e+00 1.000000e+00 0.000000e+00
    outer loop
      vertex   -1.299501e+02 9.250000e+01 2.500000e+01
      vertex   -1.269501e+02 9.250000e+01 3.000000e+00
      vertex   -1.299501e+02 9.250000e+01 3.000000e+00
    endloop
  endfacet
  facet normal -4.736835e-15 1.000000e+00 -6.459321e-16
    outer loop
      vertex   -1.299501e+02 9.250000e+01 2.500000e+01
      vertex   -1.269500e+02 9.250000e+01 2.500000e+01
      vertex   -1.269501e+02 9.250000e+01 3.000000e+00
    endloop
  endfacet
  facet normal -1.927340e-10 1.000000e+00 0.000000e+00
    outer loop
      vertex   -1.269501e+02 9.250000e+01 3.000000e+00
      vertex   -1.269500e+02 9.250000e+01 2.500000e+01
      vertex   -1.269500e+02 9.250000e+01 3.000000e+00
    endloop
  endfacet
  facet normal -0.000000e+00 1.000000e+00 0.000000e+00
    outer loop
      vertex   -1.479500e+02 9.250000e+01 3.000000e+00
      vertex   -1.449500e+02 9.250000e+01 3.000000e+00
      vertex   -1.479500e+02 9.250000e+01 1.526557e-14
    endloop
  endfacet
  facet normal -0.000000e+00 1.000000e+00 0.000000e+00
    outer loop
      vertex   -1.479500e+02 9.250000e+01 3.000000e+00
      vertex   -1.449500e+02 9.250000e+01 2.500000e+01
      vertex   -1.449500e+02 9.250000e+01 3.000000e+00
    endloop
  endfacet
  facet normal 4.736835e-15 1.000000e+00 -6.459321e-16
    outer loop
      vertex   -1.479500e+02 9.250000e+01 3.000000e+00
      vertex   -1.479500e+02 9.250000e+01 2.500000e+01
      vertex   -1.449500e+02 9.250000e+01 2.500000e+01
    endloop
  endfacet
  facet normal 1.927340e-10 1.000000e+00 2.489923e-25
    outer loop
      vertex   -1.479500e+02 9.250000e+01 3.000000e+00
      vertex   -1.479500e+02 9.250000e+01 3.000000e+00
      vertex   -1.479500e+02 9.250000e+01 2.500000e+01
    endloop
  endfacet
  facet normal -0.000000e+00 1.000000e+00 0.000000e+00
    outer loop
      vertex   -1.449500e+02 9.250000e+01 3.000000e+00
      vertex   -1.299501e+02 9.250000e+01 3.000000e+00
      vertex   -1.479500e+02 9.250000e+01 1.526557e-14
    endloop
  endfacet
  facet normal -0.000000e+00 1.000000e+00 0.000000e+00
    outer loop
      vertex   -1.479500e+02 9.250000e+01 1.526557e-14
      vertex   -1.299501e+02 9.250000e+01 3.000000e+00
      vertex   -1.269501e+02 9.250000e+01 1.526557e-14
    endloop
  endfacet
  facet normal 0.000000e+00 -0.000000e+00 1.000000e+00
    outer loop
      vertex   -1.449500e+02 5.750000e+01 3.000000e+00
      vertex   -1.299501e+02 5.750000e+01 3.000000e+00
      vertex   -1.449500e+02 6.350000e+01 3.000000e+00
    endloop
  endfacet
  facet normal -0.000000e+00 0.000000e+00 1.000000e+00
    outer loop
      vertex   -1.449500e+02 6.350000e+01 3.000000e+00
      vertex   -1.299501e+02 5.750000e+01 3.000000e+00
      vertex   -1.299501e+02 6.350000e+01 3.000000e+00
    endloop
  endfacet
  facet normal 0.000000e+00 0.000000e+00 -1.000000e+00
    outer loop
      vertex   -1.479500e+02 5.750000e+01 3.000000e+00
      vertex   -1.479500e+02 9.250000e+01 3.000000e+00
      vertex   -1.479500e+02 5.750000e+01 3.000000e+00
    endloop
  endfacet
  facet normal 0.000000e+00 0.000000e+00 -1.000000e+00
    outer loop
      vertex   -1.479500e+02 5.750000e+01 3.000000e+00
      vertex   -1.479500e+02 9.250000e+01 3.000000e+00
      vertex   -1.479500e+02 9.250000e+01 3.000000e+00
    endloop
  endfacet
  facet normal 0.000000e+00 -0.000000e+00 1.000000e+00
    outer loop
      vertex   -1.449500e+02 8.650000e+01 3.000000e+00
      vertex   -1.299501e+02 8.650000e+01 3.000000e+00
      vertex   -1.449500e+02 9.250000e+01 3.000000e+00
    endloop
  endfacet
  facet normal -0.000000e+00 0.000000e+00 1.000000e+00
    outer loop
      vertex   -1.449500e+02 9.250000e+01 3.000000e+00
      vertex   -1.299501e+02 8.650000e+01 3.000000e+00
      vertex   -1.299501e+02 9.250000e+01 3.000000e+00
    endloop
  endfacet
  facet normal 0.000000e+00 -0.000000e+00 -1.000000e+00
    outer loop
      vertex   -1.449500e+02 8.650000e+01 1.526557e-14
      vertex   -1.269501e+02 9.250000e+01 1.526557e-14
      vertex   -1.299501e+02 8.650000e+01 1.526557e-14
    endloop
  endfacet
  facet normal 0.000000e+00 0.000000e+00 -1.000000e+00
    outer loop
      vertex   -1.449500e+02 8.650000e+01 1.526557e-14
      vertex   -1.479500e+02 9.250000e+01 1.526557e-14
      vertex   -1.269501e+02 9.250000e+01 1.526557e-14
    endloop
  endfacet
  facet normal -0.000000e+00 0.000000e+00 -1.000000e+00
    outer loop
      vertex   -1.449500e+02 8.650000e+01 1.526557e-14
      vertex   -1.479500e+02 5.750000e+01 1.526557e-14
      vertex   -1.479500e+02 9.250000e+01 1.526557e-14
    endloop
  endfacet
  facet normal 0.000000e+00 -0.000000e+00 -1.000000e+00
    outer loop
      vertex   -1.449500e+02 8.650000e+01 1.526557e-14
      vertex   -1.449500e+02 6.350000e+01 1.526557e-14
      vertex   -1.479500e+02 5.750000e+01 1.526557e-14
    endloop
  endfacet
  facet normal 0.000000e+00 0.000000e+00 -1.000000e+00
    outer loop
      vertex   -1.479500e+02 5.750000e+01 1.526557e-14
      vertex   -1.449500e+02 6.350000e+01 1.526557e-14
      vertex   -1.299501e+02 6.350000e+01 1.526557e-14
    endloop
  endfacet
  facet normal 0.000000e+00 0.000000e+00 -1.000000e+00
    outer loop
      vertex   -1.269501e+02 5.750000e+01 1.526557e-14
      vertex   -1.299501e+02 6.350000e+01 1.526557e-14
      vertex   -1.299501e+02 8.650000e+01 1.526557e-14
    endloop
  endfacet
  facet normal -0.000000e+00 -0.000000e+00 -1.000000e+00
    outer loop
      vertex   -1.269501e+02 9.250000e+01 1.526557e-14
      vertex   -1.269501e+02 5.750000e+01 1.526557e-14
      vertex   -1.299501e+02 8.650000e+01 1.526557e-14
    endloop
  endfacet
  facet normal 0.000000e+00 0.000000e+00 -1.000000e+00
    outer loop
      vertex   -1.479500e+02 5.750000e+01 1.526557e-14
      vertex   -1.299501e+02 6.350000e+01 1.526557e-14
      vertex   -1.269501e+02 5.750000e+01 1.526557e-14
    endloop
  endfacet
  facet normal -0.000000e+00 -1.000000e+00 -0.000000e+00
    outer loop
      vertex   -1.299501e+02 8.650000e+01 3.000000e+00
      vertex   -1.449500e+02 8.650000e+01 3.000000e+00
      vertex   -1.299501e+02 8.650000e+01 1.526557e-14
    endloop
  endfacet
  facet normal -0.000000e+00 -1.000000e+00 -0.000000e+00
    outer loop
      vertex   -1.299501e+02 8.650000e+01 1.526557e-14
      vertex   -1.449500e+02 8.650000e+01 3.000000e+00
      vertex   -1.449500e+02 8.650000e+01 1.526557e-14
    endloop
  endfacet
  facet normal 1.000000e+00 0.000000e+00 -0.000000e+00
    outer loop
      vertex   -1.449500e+02 6.350000e+01 1.526557e-14
      vertex   -1.449500e+02 8.650000e+01 1.526557e-14
      vertex   -1.449500e+02 6.350000e+01 3.000000e+00
    endloop
  endfacet
  facet normal 1.000000e+00 -0.000000e+00 0.000000e+00
    outer loop
      vertex   -1.449500e+02 6.350000e+01 3.000000e+00
      vertex   -1.449500e+02 8.650000e+01 1.526557e-14
      vertex   -1.449500e+02 8.650000e+01 3.000000e+00
    endloop
  endfacet
  facet normal 1.000000e+00 0.000000e+00 1.291896e-15
    outer loop
      vertex   -1.449500e+02 5.750000e+01 2.500000e+01
      vertex   -1.449500e+02 8.650000e+01 3.000000e+00
      vertex   -1.449500e+02 9.250000e+01 2.500000e+01
    endloop
  endfacet
  facet normal 1.000000e+00 -0.000000e+00 1.291896e-15
    outer loop
      vertex   -1.449500e+02 5.750000e+01 2.500000e+01
      vertex   -1.449500e+02 6.350000e+01 3.000000e+00
      vertex   -1.449500e+02 8.650000e+01 3.000000e+00
    endloop
  endfacet
  facet normal 1.000000e+00 -4.736952e-15 0.000000e+00
    outer loop
      vertex   -1.449500e+02 5.750000e+01 2.500000e+01
      vertex   -1.449500e+02 5.750000e+01 3.000000e+00
      vertex   -1.449500e+02 6.350000e+01 3.000000e+00
    endloop
  endfacet
  facet normal 1.000000e+00 4.736952e-15 -0.000000e+00
    outer loop
      vertex   -1.449500e+02 8.650000e+01 3.000000e+00
      vertex   -1.449500e+02 9.250000e+01 3.000000e+00
      vertex   -1.449500e+02 9.250000e+01 2.500000e+01
    endloop
  endfacet
  facet normal -0.000000e+00 1.000000e+00 0.000000e+00
    outer loop
      vertex   -1.449500e+02 6.350000e+01 3.000000e+00
      vertex   -1.299501e+02 6.350000e+01 3.000000e+00
      vertex   -1.449500e+02 6.350000e+01 1.526557e-14
    endloop
  endfacet
  facet normal -0.000000e+00 1.000000e+00 0.000000e+00
    outer loop
      vertex   -1.449500e+02 6.350000e+01 1.526557e-14
      vertex   -1.299501e+02 6.350000e+01 3.000000e+00
      vertex   -1.299501e+02 6.350000e+01 1.526557e-14
    endloop
  endfacet
  facet normal -1.000000e+00 0.000000e+00 -0.000000e+00
    outer loop
      vertex   -1.479500e+02 5.750000e+01 3.000000e+00
      vertex   -1.479500e+02 9.250000e+01 3.000000e+00
      vertex   -1.479500e+02 5.750000e+01 1.526557e-14
    endloop
  endfacet
  facet normal -1.000000e+00 0.000000e+00 0.000000e+00
    outer loop
      vertex   -1.479500e+02 5.750000e+01 1.526557e-14
      vertex   -1.479500e+02 9.250000e+01 3.000000e+00
      vertex   -1.479500e+02 9.250000e+01 1.526557e-14
    endloop
  endfacet
  facet normal 0.000000e+00 -1.000000e+00 -3.229740e-16
    outer loop
      vertex   -1.479500e+02 5.750000e+01 3.000000e+00
      vertex   -1.479500e+02 5.750000e+01 3.000000e+00
      vertex   -1.479500e+02 5.750000e+01 2.500000e+01
    endloop
  endfacet
  facet normal 2.368418e-15 -1.000000e+00 -3.229660e-16
    outer loop
      vertex   -1.479500e+02 5.750000e+01 2.500000e+01
      vertex   -1.479500e+02 5.750000e+01 3.000000e+00
      vertex   -1.449500e+02 5.750000e+01 2.500000e+01
    endloop
  endfacet
  facet normal 0.000000e+00 -1.000000e+00 -0.000000e+00
    outer loop
      vertex   -1.449500e+02 5.750000e+01 2.500000e+01
      vertex   -1.479500e+02 5.750000e+01 3.000000e+00
      vertex   -1.449500e+02 5.750000e+01 3.000000e+00
    endloop
  endfacet
  facet normal -0.000000e+00 -1.000000e+00 -0.000000e+00
    outer loop
      vertex   -1.449500e+02 5.750000e+01 3.000000e+00
      vertex   -1.479500e+02 5.750000e+01 3.000000e+00
      vertex   -1.479500e+02 5.750000e+01 1.526557e-14
    endloop
  endfacet
  facet normal -0.000000e+00 -1.000000e+00 0.000000e+00
    outer loop
      vertex   -1.269501e+02 5.750000e+01 1.526557e-14
      vertex   -1.449500e+02 5.750000e+01 3.000000e+00
      vertex   -1.479500e+02 5.750000e+01 1.526557e-14
    endloop
  endfacet
  facet normal 0.000000e+00 -1.000000e+00 0.000000e+00
    outer loop
      vertex   -1.269501e+02 5.750000e+01 1.526557e-14
      vertex   -1.299501e+02 5.750000e+01 3.000000e+00
      vertex   -1.449500e+02 5.750000e+01 3.000000e+00
    endloop
  endfacet
  facet normal 0.000000e+00 -1.000000e+00 0.000000e+00
    outer loop
      vertex   -1.269501e+02 5.750000e+01 1.526557e-14
      vertex   -1.269501e+02 5.750000e+01 3.000000e+00
      vertex   -1.299501e+02 5.750000e+01 3.000000e+00
    endloop
  endfacet
  facet normal 0.000000e+00 -1.000000e+00 0.000000e+00
    outer loop
      vertex   -1.299501e+02 5.750000e+01 3.000000e+00
      vertex   -1.269501e+02 5.750000e+01 3.000000e+00
      vertex   -1.299501e+02 5.750000e+01 2.500000e+01
    endloop
  endfacet
  facet normal -2.368418e-15 -1.000000e+00 -3.229660e-16
    outer loop
      vertex   -1.299501e+02 5.750000e+01 2.500000e+01
      vertex   -1.269501e+02 5.750000e+01 3.000000e+00
      vertex   -1.269500e+02 5.750000e+01 2.500000e+01
    endloop
  endfacet
  facet normal 0.000000e+00 -1.000000e+00 -3.229740e-16
    outer loop
      vertex   -1.269500e+02 5.750000e+01 2.500000e+01
      vertex   -1.269501e+02 5.750000e+01 3.000000e+00
      vertex   -1.269500e+02 5.750000e+01 3.000000e+00
    endloop
  endfacet
endsolid
