solid ascii
  facet normal -1.000000e+00 0.000000e+00 0.000000e+00
    outer loop
      vertex   -1.500000e+01 1.100000e+01 0.000000e+00
      vertex   -1.500000e+01 8.000000e+00 0.000000e+00
      vertex   -1.500000e+01 1.100000e+01 3.000000e+00
    endloop
  endfacet
  facet normal -1.000000e+00 -0.000000e+00 0.000000e+00
    outer loop
      vertex   -1.500000e+01 1.100000e+01 3.000000e+00
      vertex   -1.500000e+01 8.000000e+00 0.000000e+00
      vertex   -1.500000e+01 8.000000e+00 3.000000e+00
    endloop
  endfacet
  facet normal 0.000000e+00 -1.000000e+00 0.000000e+00
    outer loop
      vertex   -7.500000e+01 1.100000e+01 0.000000e+00
      vertex   -4.500000e+01 1.100000e+01 0.000000e+00
      vertex   -7.500000e+01 1.100000e+01 3.000000e+00
    endloop
  endfacet
  facet normal 0.000000e+00 -1.000000e+00 0.000000e+00
    outer loop
      vertex   -7.500000e+01 1.100000e+01 3.000000e+00
      vertex   -4.500000e+01 1.100000e+01 0.000000e+00
      vertex   -4.500000e+01 1.100000e+01 3.000000e+00
    endloop
  endfacet
  facet normal 0.000000e+00 -1.000000e+00 0.000000e+00
    outer loop
      vertex   -4.500000e+01 1.100000e+01 3.000000e+00
      vertex   -4.500000e+01 1.100000e+01 0.000000e+00
      vertex   -1.500000e+01 1.100000e+01 0.000000e+00
    endloop
  endfacet
  facet normal -0.000000e+00 -1.000000e+00 -0.000000e+00
    outer loop
      vertex   -1.500000e+01 1.100000e+01 3.000000e+00
      vertex   -4.500000e+01 1.100000e+01 3.000000e+00
      vertex   -1.500000e+01 1.100000e+01 0.000000e+00
    endloop
  endfacet
  facet normal 1.000000e+00 0.000000e+00 -0.000000e+00
    outer loop
      vertex   -7.500000e+01 8.000000e+00 0.000000e+00
      vertex   -7.500000e+01 1.100000e+01 0.000000e+00
      vertex   -7.500000e+01 8.000000e+00 3.000000e+00
    endloop
  endfacet
  facet normal 1.000000e+00 -0.000000e+00 0.000000e+00
    outer loop
      vertex   -7.500000e+01 8.000000e+00 3.000000e+00
      vertex   -7.500000e+01 1.100000e+01 0.000000e+00
      vertex   -7.500000e+01 1.100000e+01 3.000000e+00
    endloop
  endfacet
  facet normal 0.000000e+00 1.000000e+00 -2.368476e-15
    outer loop
      vertex   -1.500000e+01 8.000000e+00 0.000000e+00
      vertex   -4.500000e+01 8.000000e+00 0.000000e+00
      vertex   -1.500000e+01 8.000000e+00 3.000000e+00
    endloop
  endfacet
  facet normal -2.368476e-16 1.000000e+00 0.000000e+00
    outer loop
      vertex   -1.500000e+01 8.000000e+00 3.000000e+00
      vertex   -4.500000e+01 8.000000e+00 0.000000e+00
      vertex   -4.500000e+01 8.000000e+00 3.000000e+00
    endloop
  endfacet
  facet normal 0.000000e+00 1.000000e+00 0.000000e+00
    outer loop
      vertex   -4.500000e+01 8.000000e+00 3.000000e+00
      vertex   -4.500000e+01 8.000000e+00 0.000000e+00
      vertex   -7.500000e+01 8.000000e+00 0.000000e+00
    endloop
  endfacet
  facet normal 2.368476e-16 1.000000e+00 -2.368476e-15
    outer loop
      vertex   -7.500000e+01 8.000000e+00 3.000000e+00
      vertex   -4.500000e+01 8.000000e+00 3.000000e+00
      vertex   -7.500000e+01 8.000000e+00 0.000000e+00
    endloop
  endfacet
  facet normal 1.000000e+00 -1.973730e-17 1.184238e-15
    outer loop
      vertex   -6.000000e+00 2.000000e+01 0.000000e+00
      vertex   -6.000000e+00 6.500000e+01 0.000000e+00
      vertex   -6.000000e+00 2.000000e+01 3.000000e+00
    endloop
  endfacet
  facet normal 1.000000e+00 -9.868649e-17 0.000000e+00
    outer loop
      vertex   -6.000000e+00 2.000000e+01 3.000000e+00
      vertex   -6.000000e+00 6.500000e+01 0.000000e+00
      vertex   -6.000000e+00 6.500000e+01 3.000000e+00
    endloop
  endfacet
  facet normal 1.000000e+00 -0.000000e+00 0.000000e+00
    outer loop
      vertex   -6.000000e+00 6.500000e+01 3.000000e+00
      vertex   -6.000000e+00 6.500000e+01 0.000000e+00
      vertex   -6.000000e+00 1.100000e+02 0.000000e+00
    endloop
  endfacet
  facet normal 1.000000e+00 -9.868649e-17 -1.480297e-15
    outer loop
      vertex   -6.000000e+00 1.100000e+02 3.000000e+00
      vertex   -6.000000e+00 6.500000e+01 3.000000e+00
      vertex   -6.000000e+00 1.100000e+02 0.000000e+00
    endloop
  endfacet
  facet normal 0.000000e+00 1.000000e+00 -0.000000e+00
    outer loop
      vertex   -3.000000e+00 2.000000e+01 0.000000e+00
      vertex   -6.000000e+00 2.000000e+01 0.000000e+00
      vertex   -3.000000e+00 2.000000e+01 3.000000e+00
    endloop
  endfacet
  facet normal 0.000000e+00 1.000000e+00 0.000000e+00
    outer loop
      vertex   -3.000000e+00 2.000000e+01 3.000000e+00
      vertex   -6.000000e+00 2.000000e+01 0.000000e+00
      vertex   -6.000000e+00 2.000000e+01 3.000000e+00
    endloop
  endfacet
  facet normal -1.000000e+00 -2.960595e-17 -2.220446e-15
    outer loop
      vertex   -3.000000e+00 1.100000e+02 0.000000e+00
      vertex   -3.000000e+00 6.500000e+01 0.000000e+00
      vertex   -3.000000e+00 1.100000e+02 3.000000e+00
    endloop
  endfacet
  facet normal -1.000000e+00 -1.776357e-16 0.000000e+00
    outer loop
      vertex   -3.000000e+00 1.100000e+02 3.000000e+00
      vertex   -3.000000e+00 6.500000e+01 0.000000e+00
      vertex   -3.000000e+00 6.500000e+01 3.000000e+00
    endloop
  endfacet
  facet normal -1.000000e+00 -1.973730e-17 -0.000000e+00
    outer loop
      vertex   -3.000000e+00 6.500000e+01 3.000000e+00
      vertex   -3.000000e+00 6.500000e+01 0.000000e+00
      vertex   -3.000000e+00 2.000000e+01 0.000000e+00
    endloop
  endfacet
  facet normal -1.000000e+00 1.776357e-16 -2.960595e-15
    outer loop
      vertex   -3.000000e+00 2.000000e+01 3.000000e+00
      vertex   -3.000000e+00 6.500000e+01 3.000000e+00
      vertex   -3.000000e+00 2.000000e+01 0.000000e+00
    endloop
  endfacet
  facet normal 0.000000e+00 -1.000000e+00 0.000000e+00
    outer loop
      vertex   -6.000000e+00 1.100000e+02 0.000000e+00
      vertex   -3.000000e+00 1.100000e+02 0.000000e+00
      vertex   -6.000000e+00 1.100000e+02 3.000000e+00
    endloop
  endfacet
  facet normal 0.000000e+00 -1.000000e+00 0.000000e+00
    outer loop
      vertex   -6.000000e+00 1.100000e+02 3.000000e+00
      vertex   -3.000000e+00 1.100000e+02 0.000000e+00
      vertex   -3.000000e+00 1.100000e+02 3.000000e+00
    endloop
  endfacet
  facet normal 1.000000e+00 0.000000e+00 -0.000000e+00
    outer loop
      vertex   -7.500000e+01 1.190000e+02 0.000000e+00
      vertex   -7.500000e+01 1.220000e+02 0.000000e+00
      vertex   -7.500000e+01 1.190000e+02 3.000000e+00
    endloop
  endfacet
  facet normal 1.000000e+00 -0.000000e+00 0.000000e+00
    outer loop
      vertex   -7.500000e+01 1.190000e+02 3.000000e+00
      vertex   -7.500000e+01 1.220000e+02 0.000000e+00
      vertex   -7.500000e+01 1.220000e+02 3.000000e+00
    endloop
  endfacet
  facet normal 0.000000e+00 1.000000e+00 -0.000000e+00
    outer loop
      vertex   -1.500000e+01 1.190000e+02 0.000000e+00
      vertex   -4.500000e+01 1.190000e+02 0.000000e+00
      vertex   -1.500000e+01 1.190000e+02 3.000000e+00
    endloop
  endfacet
  facet normal 0.000000e+00 1.000000e+00 -0.000000e+00
    outer loop
      vertex   -1.500000e+01 1.190000e+02 3.000000e+00
      vertex   -4.500000e+01 1.190000e+02 0.000000e+00
      vertex   -4.500000e+01 1.190000e+02 3.000000e+00
    endloop
  endfacet
  facet normal 0.000000e+00 1.000000e+00 0.000000e+00
    outer loop
      vertex   -4.500000e+01 1.190000e+02 3.000000e+00
      vertex   -4.500000e+01 1.190000e+02 0.000000e+00
      vertex   -7.500000e+01 1.190000e+02 0.000000e+00
    endloop
  endfacet
  facet normal -0.000000e+00 1.000000e+00 0.000000e+00
    outer loop
      vertex   -7.500000e+01 1.190000e+02 3.000000e+00
      vertex   -4.500000e+01 1.190000e+02 3.000000e+00
      vertex   -7.500000e+01 1.190000e+02 0.000000e+00
    endloop
  endfacet
  facet normal -1.000000e+00 2.960595e-15 0.000000e+00
    outer loop
      vertex   -1.500000e+01 1.220000e+02 0.000000e+00
      vertex   -1.500000e+01 1.190000e+02 0.000000e+00
      vertex   -1.500000e+01 1.220000e+02 3.000000e+00
    endloop
  endfacet
  facet normal -1.000000e+00 2.960595e-15 0.000000e+00
    outer loop
      vertex   -1.500000e+01 1.220000e+02 3.000000e+00
      vertex   -1.500000e+01 1.190000e+02 0.000000e+00
      vertex   -1.500000e+01 1.190000e+02 3.000000e+00
    endloop
  endfacet
  facet normal 0.000000e+00 -1.000000e+00 0.000000e+00
    outer loop
      vertex   -7.500000e+01 1.220000e+02 0.000000e+00
      vertex   -4.500000e+01 1.220000e+02 0.000000e+00
      vertex   -7.500000e+01 1.220000e+02 3.000000e+00
    endloop
  endfacet
  facet normal 0.000000e+00 -1.000000e+00 0.000000e+00
    outer loop
      vertex   -7.500000e+01 1.220000e+02 3.000000e+00
      vertex   -4.500000e+01 1.220000e+02 0.000000e+00
      vertex   -4.500000e+01 1.220000e+02 3.000000e+00
    endloop
  endfacet
  facet normal 0.000000e+00 -1.000000e+00 0.000000e+00
    outer loop
      vertex   -4.500000e+01 1.220000e+02 3.000000e+00
      vertex   -4.500000e+01 1.220000e+02 0.000000e+00
      vertex   -1.500000e+01 1.220000e+02 0.000000e+00
    endloop
  endfacet
  facet normal -0.000000e+00 -1.000000e+00 -0.000000e+00
    outer loop
      vertex   -1.500000e+01 1.220000e+02 3.000000e+00
      vertex   -4.500000e+01 1.220000e+02 3.000000e+00
      vertex   -1.500000e+01 1.220000e+02 0.000000e+00
    endloop
  endfacet
  facet normal 0.000000e+00 -1.000000e+00 0.000000e+00
    outer loop
      vertex   -9.000000e+01 5.000000e+00 0.000000e+00
      vertex   -4.500000e+01 5.000000e+00 0.000000e+00
      vertex   -9.000000e+01 5.000000e+00 3.000000e+00
    endloop
  endfacet
  facet normal 0.000000e+00 -1.000000e+00 0.000000e+00
    outer loop
      vertex   -9.000000e+01 5.000000e+00 3.000000e+00
      vertex   -4.500000e+01 5.000000e+00 0.000000e+00
      vertex   -4.500000e+01 5.000000e+00 3.000000e+00
    endloop
  endfacet
  facet normal 0.000000e+00 -1.000000e+00 0.000000e+00
    outer loop
      vertex   -4.500000e+01 5.000000e+00 3.000000e+00
      vertex   -4.500000e+01 5.000000e+00 0.000000e+00
      vertex   0.000000e+00 5.000000e+00 0.000000e+00
    endloop
  endfacet
  facet normal -0.000000e+00 -1.000000e+00 -0.000000e+00
    outer loop
      vertex   0.000000e+00 5.000000e+00 3.000000e+00
      vertex   -4.500000e+01 5.000000e+00 3.000000e+00
      vertex   0.000000e+00 5.000000e+00 0.000000e+00
    endloop
  endfacet
  facet normal -1.000000e+00 0.000000e+00 0.000000e+00
    outer loop
      vertex   -9.000000e+01 1.250000e+02 0.000000e+00
      vertex   -9.000000e+01 8.500000e+01 0.000000e+00
      vertex   -9.000000e+01 1.250000e+02 3.000000e+00
    endloop
  endfacet
  facet normal -1.000000e+00 -0.000000e+00 0.000000e+00
    outer loop
      vertex   -9.000000e+01 1.250000e+02 3.000000e+00
      vertex   -9.000000e+01 8.500000e+01 0.000000e+00
      vertex   -9.000000e+01 8.500000e+01 3.000000e+00
    endloop
  endfacet
  facet normal -1.000000e+00 -0.000000e+00 -0.000000e+00
    outer loop
      vertex   -9.000000e+01 8.500000e+01 3.000000e+00
      vertex   -9.000000e+01 8.500000e+01 0.000000e+00
      vertex   -9.000000e+01 4.500000e+01 0.000000e+00
    endloop
  endfacet
  facet normal -1.000000e+00 -0.000000e+00 -0.000000e+00
    outer loop
      vertex   -9.000000e+01 4.500000e+01 3.000000e+00
      vertex   -9.000000e+01 4.500000e+01 0.000000e+00
      vertex   -9.000000e+01 5.000000e+00 0.000000e+00
    endloop
  endfacet
  facet normal -1.000000e+00 0.000000e+00 -0.000000e+00
    outer loop
      vertex   -9.000000e+01 5.000000e+00 3.000000e+00
      vertex   -9.000000e+01 4.500000e+01 3.000000e+00
      vertex   -9.000000e+01 5.000000e+00 0.000000e+00
    endloop
  endfacet
  facet normal -1.000000e+00 -0.000000e+00 0.000000e+00
    outer loop
      vertex   -9.000000e+01 8.500000e+01 3.000000e+00
      vertex   -9.000000e+01 4.500000e+01 0.000000e+00
      vertex   -9.000000e+01 4.500000e+01 3.000000e+00
    endloop
  endfacet
  facet normal 0.000000e+00 1.000000e+00 -0.000000e+00
    outer loop
      vertex   0.000000e+00 1.250000e+02 0.000000e+00
      vertex   -4.500000e+01 1.250000e+02 0.000000e+00
      vertex   0.000000e+00 1.250000e+02 3.000000e+00
    endloop
  endfacet
  facet normal 0.000000e+00 1.000000e+00 -0.000000e+00
    outer loop
      vertex   0.000000e+00 1.250000e+02 3.000000e+00
      vertex   -4.500000e+01 1.250000e+02 0.000000e+00
      vertex   -4.500000e+01 1.250000e+02 3.000000e+00
    endloop
  endfacet
  facet normal 0.000000e+00 1.000000e+00 0.000000e+00
    outer loop
      vertex   -4.500000e+01 1.250000e+02 3.000000e+00
      vertex   -4.500000e+01 1.250000e+02 0.000000e+00
      vertex   -9.000000e+01 1.250000e+02 0.000000e+00
    endloop
  endfacet
  facet normal -0.000000e+00 1.000000e+00 0.000000e+00
    outer loop
      vertex   -9.000000e+01 1.250000e+02 3.000000e+00
      vertex   -4.500000e+01 1.250000e+02 3.000000e+00
      vertex   -9.000000e+01 1.250000e+02 0.000000e+00
    endloop
  endfacet
  facet normal 1.000000e+00 0.000000e+00 -0.000000e+00
    outer loop
      vertex   0.000000e+00 5.000000e+00 0.000000e+00
      vertex   0.000000e+00 4.500000e+01 0.000000e+00
      vertex   0.000000e+00 5.000000e+00 3.000000e+00
    endloop
  endfacet
  facet normal 1.000000e+00 -0.000000e+00 0.000000e+00
    outer loop
      vertex   0.000000e+00 5.000000e+00 3.000000e+00
      vertex   0.000000e+00 4.500000e+01 0.000000e+00
      vertex   0.000000e+00 4.500000e+01 3.000000e+00
    endloop
  endfacet
  facet normal 1.000000e+00 -0.000000e+00 0.000000e+00
    outer loop
      vertex   0.000000e+00 4.500000e+01 3.000000e+00
      vertex   0.000000e+00 4.500000e+01 0.000000e+00
      vertex   0.000000e+00 8.500000e+01 0.000000e+00
    endloop
  endfacet
  facet normal 1.000000e+00 -0.000000e+00 0.000000e+00
    outer loop
      vertex   0.000000e+00 8.500000e+01 3.000000e+00
      vertex   0.000000e+00 8.500000e+01 0.000000e+00
      vertex   0.000000e+00 1.250000e+02 0.000000e+00
    endloop
  endfacet
  facet normal 1.000000e+00 0.000000e+00 0.000000e+00
    outer loop
      vertex   0.000000e+00 1.250000e+02 3.000000e+00
      vertex   0.000000e+00 8.500000e+01 3.000000e+00
      vertex   0.000000e+00 1.250000e+02 0.000000e+00
    endloop
  endfacet
  facet normal 1.000000e+00 -0.000000e+00 0.000000e+00
    outer loop
      vertex   0.000000e+00 4.500000e+01 3.000000e+00
      vertex   0.000000e+00 8.500000e+01 0.000000e+00
      vertex   0.000000e+00 8.500000e+01 3.000000e+00
    endloop
  endfacet
  facet normal 0.000000e+00 -0.000000e+00 1.000000e+00
    outer loop
      vertex   -8.400000e+01 6.500000e+01 3.000000e+00
      vertex   -4.500000e+01 8.500000e+01 3.000000e+00
      vertex   -8.400000e+01 1.100000e+02 3.000000e+00
    endloop
  endfacet
  facet normal -0.000000e+00 0.000000e+00 1.000000e+00
    outer loop
      vertex   -8.400000e+01 6.500000e+01 3.000000e+00
      vertex   -4.500000e+01 4.500000e+01 3.000000e+00
      vertex   -4.500000e+01 8.500000e+01 3.000000e+00
    endloop
  endfacet
  facet normal -0.000000e+00 0.000000e+00 1.000000e+00
    outer loop
      vertex   -8.400000e+01 6.500000e+01 3.000000e+00
      vertex   -8.400000e+01 2.000000e+01 3.000000e+00
      vertex   -4.500000e+01 4.500000e+01 3.000000e+00
    endloop
  endfacet
  facet normal -0.000000e+00 0.000000e+00 1.000000e+00
    outer loop
      vertex   -4.500000e+01 4.500000e+01 3.000000e+00
      vertex   -8.400000e+01 2.000000e+01 3.000000e+00
      vertex   -4.500000e+01 2.000000e+01 3.000000e+00
    endloop
  endfacet
  facet normal 0.000000e+00 0.000000e+00 1.000000e+00
    outer loop
      vertex   -6.000000e+00 2.000000e+01 3.000000e+00
      vertex   -4.500000e+01 2.000000e+01 3.000000e+00
      vertex   -1.500000e+01 1.100000e+01 3.000000e+00
    endloop
  endfacet
  facet normal 0.000000e+00 0.000000e+00 1.000000e+00
    outer loop
      vertex   0.000000e+00 5.000000e+00 3.000000e+00
      vertex   -1.500000e+01 1.100000e+01 3.000000e+00
      vertex   -1.500000e+01 8.000000e+00 3.000000e+00
    endloop
  endfacet
  facet normal 0.000000e+00 -0.000000e+00 1.000000e+00
    outer loop
      vertex   -4.500000e+01 5.000000e+00 3.000000e+00
      vertex   -1.500000e+01 8.000000e+00 3.000000e+00
      vertex   -4.500000e+01 8.000000e+00 3.000000e+00
    endloop
  endfacet
  facet normal -0.000000e+00 0.000000e+00 1.000000e+00
    outer loop
      vertex   -7.500000e+01 8.000000e+00 3.000000e+00
      vertex   -4.500000e+01 5.000000e+00 3.000000e+00
      vertex   -4.500000e+01 8.000000e+00 3.000000e+00
    endloop
  endfacet
  facet normal -0.000000e+00 0.000000e+00 1.000000e+00
    outer loop
      vertex   -7.500000e+01 8.000000e+00 3.000000e+00
      vertex   -9.000000e+01 5.000000e+00 3.000000e+00
      vertex   -4.500000e+01 5.000000e+00 3.000000e+00
    endloop
  endfacet
  facet normal 0.000000e+00 -0.000000e+00 1.000000e+00
    outer loop
      vertex   -7.500000e+01 8.000000e+00 3.000000e+00
      vertex   -7.500000e+01 1.100000e+01 3.000000e+00
      vertex   -9.000000e+01 5.000000e+00 3.000000e+00
    endloop
  endfacet
  facet normal 0.000000e+00 -0.000000e+00 1.000000e+00
    outer loop
      vertex   -9.000000e+01 5.000000e+00 3.000000e+00
      vertex   -7.500000e+01 1.100000e+01 3.000000e+00
      vertex   -8.400000e+01 2.000000e+01 3.000000e+00
    endloop
  endfacet
  facet normal -0.000000e+00 0.000000e+00 1.000000e+00
    outer loop
      vertex   -8.700000e+01 2.000000e+01 3.000000e+00
      vertex   -9.000000e+01 5.000000e+00 3.000000e+00
      vertex   -8.400000e+01 2.000000e+01 3.000000e+00
    endloop
  endfacet
  facet normal 0.000000e+00 0.000000e+00 1.000000e+00
    outer loop
      vertex   -8.700000e+01 2.000000e+01 3.000000e+00
      vertex   -9.000000e+01 4.500000e+01 3.000000e+00
      vertex   -9.000000e+01 5.000000e+00 3.000000e+00
    endloop
  endfacet
  facet normal 0.000000e+00 -0.000000e+00 1.000000e+00
    outer loop
      vertex   -8.700000e+01 2.000000e+01 3.000000e+00
      vertex   -8.700000e+01 6.500000e+01 3.000000e+00
      vertex   -9.000000e+01 4.500000e+01 3.000000e+00
    endloop
  endfacet
  facet normal 0.000000e+00 -0.000000e+00 1.000000e+00
    outer loop
      vertex   -9.000000e+01 4.500000e+01 3.000000e+00
      vertex   -8.700000e+01 6.500000e+01 3.000000e+00
      vertex   -9.000000e+01 8.500000e+01 3.000000e+00
    endloop
  endfacet
  facet normal -0.000000e+00 0.000000e+00 1.000000e+00
    outer loop
      vertex   -9.000000e+01 8.500000e+01 3.000000e+00
      vertex   -8.700000e+01 6.500000e+01 3.000000e+00
      vertex   -8.700000e+01 1.100000e+02 3.000000e+00
    endloop
  endfacet
  facet normal -0.000000e+00 0.000000e+00 1.000000e+00
    outer loop
      vertex   -9.000000e+01 1.250000e+02 3.000000e+00
      vertex   -8.700000e+01 1.100000e+02 3.000000e+00
      vertex   -8.400000e+01 1.100000e+02 3.000000e+00
    endloop
  endfacet
  facet normal 0.000000e+00 0.000000e+00 1.000000e+00
    outer loop
      vertex   -7.500000e+01 1.190000e+02 3.000000e+00
      vertex   -8.400000e+01 1.100000e+02 3.000000e+00
      vertex   -4.500000e+01 8.500000e+01 3.000000e+00
    endloop
  endfacet
  facet normal -0.000000e+00 0.000000e+00 1.000000e+00
    outer loop
      vertex   -4.500000e+01 1.190000e+02 3.000000e+00
      vertex   -4.500000e+01 8.500000e+01 3.000000e+00
      vertex   -1.500000e+01 1.190000e+02 3.000000e+00
    endloop
  endfacet
  facet normal 0.000000e+00 0.000000e+00 1.000000e+00
    outer loop
      vertex   -4.500000e+01 1.190000e+02 3.000000e+00
      vertex   -7.500000e+01 1.190000e+02 3.000000e+00
      vertex   -4.500000e+01 8.500000e+01 3.000000e+00
    endloop
  endfacet
  facet normal 0.000000e+00 -0.000000e+00 1.000000e+00
    outer loop
      vertex   -9.000000e+01 8.500000e+01 3.000000e+00
      vertex   -8.700000e+01 1.100000e+02 3.000000e+00
      vertex   -9.000000e+01 1.250000e+02 3.000000e+00
    endloop
  endfacet
  facet normal 0.000000e+00 -0.000000e+00 1.000000e+00
    outer loop
      vertex   -4.500000e+01 1.220000e+02 3.000000e+00
      vertex   -4.500000e+01 1.250000e+02 3.000000e+00
      vertex   -7.500000e+01 1.220000e+02 3.000000e+00
    endloop
  endfacet
  facet normal 0.000000e+00 -0.000000e+00 1.000000e+00
    outer loop
      vertex   -4.500000e+01 1.220000e+02 3.000000e+00
      vertex   -1.500000e+01 1.220000e+02 3.000000e+00
      vertex   -4.500000e+01 1.250000e+02 3.000000e+00
    endloop
  endfacet
  facet normal -0.000000e+00 0.000000e+00 1.000000e+00
    outer loop
      vertex   -4.500000e+01 1.250000e+02 3.000000e+00
      vertex   -1.500000e+01 1.220000e+02 3.000000e+00
      vertex   0.000000e+00 1.250000e+02 3.000000e+00
    endloop
  endfacet
  facet normal 0.000000e+00 0.000000e+00 1.000000e+00
    outer loop
      vertex   0.000000e+00 1.250000e+02 3.000000e+00
      vertex   -1.500000e+01 1.220000e+02 3.000000e+00
      vertex   -1.500000e+01 1.190000e+02 3.000000e+00
    endloop
  endfacet
  facet normal 0.000000e+00 0.000000e+00 1.000000e+00
    outer loop
      vertex   -6.000000e+00 1.100000e+02 3.000000e+00
      vertex   -1.500000e+01 1.190000e+02 3.000000e+00
      vertex   -4.500000e+01 8.500000e+01 3.000000e+00
    endloop
  endfacet
  facet normal 0.000000e+00 0.000000e+00 1.000000e+00
    outer loop
      vertex   -6.000000e+00 6.500000e+01 3.000000e+00
      vertex   -4.500000e+01 8.500000e+01 3.000000e+00
      vertex   -4.500000e+01 4.500000e+01 3.000000e+00
    endloop
  endfacet
  facet normal 0.000000e+00 0.000000e+00 1.000000e+00
    outer loop
      vertex   -6.000000e+00 2.000000e+01 3.000000e+00
      vertex   -4.500000e+01 4.500000e+01 3.000000e+00
      vertex   -4.500000e+01 2.000000e+01 3.000000e+00
    endloop
  endfacet
  facet normal 0.000000e+00 -0.000000e+00 1.000000e+00
    outer loop
      vertex   -6.000000e+00 2.000000e+01 3.000000e+00
      vertex   -6.000000e+00 6.500000e+01 3.000000e+00
      vertex   -4.500000e+01 4.500000e+01 3.000000e+00
    endloop
  endfacet
  facet normal 0.000000e+00 -0.000000e+00 1.000000e+00
    outer loop
      vertex   -8.400000e+01 1.100000e+02 3.000000e+00
      vertex   -7.500000e+01 1.190000e+02 3.000000e+00
      vertex   -9.000000e+01 1.250000e+02 3.000000e+00
    endloop
  endfacet
  facet normal -0.000000e+00 0.000000e+00 1.000000e+00
    outer loop
      vertex   -9.000000e+01 1.250000e+02 3.000000e+00
      vertex   -7.500000e+01 1.190000e+02 3.000000e+00
      vertex   -7.500000e+01 1.220000e+02 3.000000e+00
    endloop
  endfacet
  facet normal 0.000000e+00 0.000000e+00 1.000000e+00
    outer loop
      vertex   -4.500000e+01 1.250000e+02 3.000000e+00
      vertex   -9.000000e+01 1.250000e+02 3.000000e+00
      vertex   -7.500000e+01 1.220000e+02 3.000000e+00
    endloop
  endfacet
  facet normal 0.000000e+00 0.000000e+00 1.000000e+00
    outer loop
      vertex   0.000000e+00 4.500000e+01 3.000000e+00
      vertex   -3.000000e+00 2.000000e+01 3.000000e+00
      vertex   0.000000e+00 5.000000e+00 3.000000e+00
    endloop
  endfacet
  facet normal 0.000000e+00 0.000000e+00 1.000000e+00
    outer loop
      vertex   0.000000e+00 4.500000e+01 3.000000e+00
      vertex   -3.000000e+00 6.500000e+01 3.000000e+00
      vertex   -3.000000e+00 2.000000e+01 3.000000e+00
    endloop
  endfacet
  facet normal 0.000000e+00 -0.000000e+00 1.000000e+00
    outer loop
      vertex   0.000000e+00 4.500000e+01 3.000000e+00
      vertex   0.000000e+00 8.500000e+01 3.000000e+00
      vertex   -3.000000e+00 6.500000e+01 3.000000e+00
    endloop
  endfacet
  facet normal 0.000000e+00 -0.000000e+00 1.000000e+00
    outer loop
      vertex   -3.000000e+00 6.500000e+01 3.000000e+00
      vertex   0.000000e+00 8.500000e+01 3.000000e+00
      vertex   -3.000000e+00 1.100000e+02 3.000000e+00
    endloop
  endfacet
  facet normal -0.000000e+00 0.000000e+00 1.000000e+00
    outer loop
      vertex   -3.000000e+00 1.100000e+02 3.000000e+00
      vertex   0.000000e+00 8.500000e+01 3.000000e+00
      vertex   0.000000e+00 1.250000e+02 3.000000e+00
    endloop
  endfacet
  facet normal 0.000000e+00 -0.000000e+00 1.000000e+00
    outer loop
      vertex   -6.000000e+00 1.100000e+02 3.000000e+00
      vertex   0.000000e+00 1.250000e+02 3.000000e+00
      vertex   -1.500000e+01 1.190000e+02 3.000000e+00
    endloop
  endfacet
  facet normal 0.000000e+00 0.000000e+00 1.000000e+00
    outer loop
      vertex   -6.000000e+00 1.100000e+02 3.000000e+00
      vertex   -3.000000e+00 1.100000e+02 3.000000e+00
      vertex   0.000000e+00 1.250000e+02 3.000000e+00
    endloop
  endfacet
  facet normal 0.000000e+00 -0.000000e+00 1.000000e+00
    outer loop
      vertex   -4.500000e+01 5.000000e+00 3.000000e+00
      vertex   0.000000e+00 5.000000e+00 3.000000e+00
      vertex   -1.500000e+01 8.000000e+00 3.000000e+00
    endloop
  endfacet
  facet normal 0.000000e+00 0.000000e+00 1.000000e+00
    outer loop
      vertex   -3.000000e+00 2.000000e+01 3.000000e+00
      vertex   -6.000000e+00 2.000000e+01 3.000000e+00
      vertex   0.000000e+00 5.000000e+00 3.000000e+00
    endloop
  endfacet
  facet normal 0.000000e+00 0.000000e+00 1.000000e+00
    outer loop
      vertex   0.000000e+00 5.000000e+00 3.000000e+00
      vertex   -6.000000e+00 2.000000e+01 3.000000e+00
      vertex   -1.500000e+01 1.100000e+01 3.000000e+00
    endloop
  endfacet
  facet normal 0.000000e+00 -0.000000e+00 1.000000e+00
    outer loop
      vertex   -6.000000e+00 6.500000e+01 3.000000e+00
      vertex   -6.000000e+00 1.100000e+02 3.000000e+00
      vertex   -4.500000e+01 8.500000e+01 3.000000e+00
    endloop
  endfacet
  facet normal 0.000000e+00 -0.000000e+00 1.000000e+00
    outer loop
      vertex   -4.500000e+01 1.100000e+01 3.000000e+00
      vertex   -4.500000e+01 1.475000e+01 3.000000e+00
      vertex   -7.500000e+01 1.100000e+01 3.000000e+00
    endloop
  endfacet
  facet normal 0.000000e+00 -0.000000e+00 1.000000e+00
    outer loop
      vertex   -4.500000e+01 1.100000e+01 3.000000e+00
      vertex   -1.500000e+01 1.100000e+01 3.000000e+00
      vertex   -4.500000e+01 1.475000e+01 3.000000e+00
    endloop
  endfacet
  facet normal -0.000000e+00 -0.000000e+00 1.000000e+00
    outer loop
      vertex   -4.500000e+01 1.475000e+01 3.000000e+00
      vertex   -1.500000e+01 1.100000e+01 3.000000e+00
      vertex   -4.500000e+01 2.000000e+01 3.000000e+00
    endloop
  endfacet
  facet normal 0.000000e+00 -0.000000e+00 1.000000e+00
    outer loop
      vertex   -7.500000e+01 1.100000e+01 3.000000e+00
      vertex   -4.500000e+01 2.000000e+01 3.000000e+00
      vertex   -8.400000e+01 2.000000e+01 3.000000e+00
    endloop
  endfacet
  facet normal 0.000000e+00 0.000000e+00 1.000000e+00
    outer loop
      vertex   -7.500000e+01 1.100000e+01 3.000000e+00
      vertex   -4.500000e+01 1.475000e+01 3.000000e+00
      vertex   -4.500000e+01 2.000000e+01 3.000000e+00
    endloop
  endfacet
  facet normal -1.000000e+00 0.000000e+00 0.000000e+00
    outer loop
      vertex   -8.700000e+01 1.100000e+02 3.000000e+00
      vertex   -8.700000e+01 6.500000e+01 3.000000e+00
      vertex   -8.700000e+01 1.100000e+02 2.300000e+01
    endloop
  endfacet
  facet normal -1.000000e+00 -0.000000e+00 0.000000e+00
    outer loop
      vertex   -8.700000e+01 1.100000e+02 2.300000e+01
      vertex   -8.700000e+01 6.500000e+01 3.000000e+00
      vertex   -8.700000e+01 6.500000e+01 2.300000e+01
    endloop
  endfacet
  facet normal -1.000000e+00 -0.000000e+00 -0.000000e+00
    outer loop
      vertex   -8.700000e+01 6.500000e+01 2.300000e+01
      vertex   -8.700000e+01 6.500000e+01 3.000000e+00
      vertex   -8.700000e+01 2.000000e+01 3.000000e+00
    endloop
  endfacet
  facet normal -1.000000e+00 0.000000e+00 -0.000000e+00
    outer loop
      vertex   -8.700000e+01 2.000000e+01 2.300000e+01
      vertex   -8.700000e+01 6.500000e+01 2.300000e+01
      vertex   -8.700000e+01 2.000000e+01 3.000000e+00
    endloop
  endfacet
  facet normal 0.000000e+00 -1.000000e+00 0.000000e+00
    outer loop
      vertex   -8.700000e+01 2.000000e+01 3.000000e+00
      vertex   -8.400000e+01 2.000000e+01 3.000000e+00
      vertex   -8.700000e+01 2.000000e+01 2.300000e+01
    endloop
  endfacet
  facet normal 0.000000e+00 -1.000000e+00 0.000000e+00
    outer loop
      vertex   -8.700000e+01 2.000000e+01 2.300000e+01
      vertex   -8.400000e+01 2.000000e+01 3.000000e+00
      vertex   -8.400000e+01 2.000000e+01 2.300000e+01
    endloop
  endfacet
  facet normal 1.000000e+00 0.000000e+00 -0.000000e+00
    outer loop
      vertex   -8.400000e+01 2.000000e+01 3.000000e+00
      vertex   -8.400000e+01 6.500000e+01 3.000000e+00
      vertex   -8.400000e+01 2.000000e+01 2.300000e+01
    endloop
  endfacet
  facet normal 1.000000e+00 -0.000000e+00 0.000000e+00
    outer loop
      vertex   -8.400000e+01 2.000000e+01 2.300000e+01
      vertex   -8.400000e+01 6.500000e+01 3.000000e+00
      vertex   -8.400000e+01 6.500000e+01 2.300000e+01
    endloop
  endfacet
  facet normal 1.000000e+00 -0.000000e+00 0.000000e+00
    outer loop
      vertex   -8.400000e+01 6.500000e+01 2.300000e+01
      vertex   -8.400000e+01 6.500000e+01 3.000000e+00
      vertex   -8.400000e+01 1.100000e+02 3.000000e+00
    endloop
  endfacet
  facet normal 1.000000e+00 0.000000e+00 0.000000e+00
    outer loop
      vertex   -8.400000e+01 1.100000e+02 2.300000e+01
      vertex   -8.400000e+01 6.500000e+01 2.300000e+01
      vertex   -8.400000e+01 1.100000e+02 3.000000e+00
    endloop
  endfacet
  facet normal 0.000000e+00 1.000000e+00 -0.000000e+00
    outer loop
      vertex   -8.400000e+01 1.100000e+02 3.000000e+00
      vertex   -8.700000e+01 1.100000e+02 3.000000e+00
      vertex   -8.400000e+01 1.100000e+02 2.300000e+01
    endloop
  endfacet
  facet normal 0.000000e+00 1.000000e+00 -0.000000e+00
    outer loop
      vertex   -8.400000e+01 1.100000e+02 2.300000e+01
      vertex   -8.700000e+01 1.100000e+02 3.000000e+00
      vertex   -8.700000e+01 1.100000e+02 2.300000e+01
    endloop
  endfacet
  facet normal 0.000000e+00 0.000000e+00 1.000000e+00
    outer loop
      vertex   -8.400000e+01 1.100000e+02 2.300000e+01
      vertex   -8.700000e+01 1.100000e+02 2.300000e+01
      vertex   -8.400000e+01 6.500000e+01 2.300000e+01
    endloop
  endfacet
  facet normal 0.000000e+00 0.000000e+00 1.000000e+00
    outer loop
      vertex   -8.400000e+01 6.500000e+01 2.300000e+01
      vertex   -8.700000e+01 1.100000e+02 2.300000e+01
      vertex   -8.700000e+01 6.500000e+01 2.300000e+01
    endloop
  endfacet
  facet normal 0.000000e+00 0.000000e+00 1.000000e+00
    outer loop
      vertex   -8.400000e+01 2.000000e+01 2.300000e+01
      vertex   -8.700000e+01 6.500000e+01 2.300000e+01
      vertex   -8.700000e+01 2.000000e+01 2.300000e+01
    endloop
  endfacet
  facet normal 0.000000e+00 -0.000000e+00 1.000000e+00
    outer loop
      vertex   -8.400000e+01 2.000000e+01 2.300000e+01
      vertex   -8.400000e+01 6.500000e+01 2.300000e+01
      vertex   -8.700000e+01 6.500000e+01 2.300000e+01
    endloop
  endfacet
  facet normal -0.000000e+00 -0.000000e+00 -1.000000e+00
    outer loop
      vertex   -4.500000e+01 8.000000e+00 0.000000e+00
      vertex   -4.500000e+01 5.000000e+00 0.000000e+00
      vertex   -7.500000e+01 8.000000e+00 0.000000e+00
    endloop
  endfacet
  facet normal 0.000000e+00 -0.000000e+00 -1.000000e+00
    outer loop
      vertex   -4.500000e+01 8.000000e+00 0.000000e+00
      vertex   -1.500000e+01 8.000000e+00 0.000000e+00
      vertex   -4.500000e+01 5.000000e+00 0.000000e+00
    endloop
  endfacet
  facet normal 0.000000e+00 0.000000e+00 -1.000000e+00
    outer loop
      vertex   -4.500000e+01 5.000000e+00 0.000000e+00
      vertex   -1.500000e+01 8.000000e+00 0.000000e+00
      vertex   0.000000e+00 5.000000e+00 0.000000e+00
    endloop
  endfacet
  facet normal 0.000000e+00 0.000000e+00 -1.000000e+00
    outer loop
      vertex   0.000000e+00 5.000000e+00 0.000000e+00
      vertex   -1.500000e+01 8.000000e+00 0.000000e+00
      vertex   -1.500000e+01 1.100000e+01 0.000000e+00
    endloop
  endfacet
  facet normal -0.000000e+00 0.000000e+00 -1.000000e+00
    outer loop
      vertex   -6.000000e+00 2.000000e+01 0.000000e+00
      vertex   -1.500000e+01 1.100000e+01 0.000000e+00
      vertex   -4.500000e+01 4.500000e+01 0.000000e+00
    endloop
  endfacet
  facet normal -0.000000e+00 0.000000e+00 -1.000000e+00
    outer loop
      vertex   -6.000000e+00 6.500000e+01 0.000000e+00
      vertex   -4.500000e+01 4.500000e+01 0.000000e+00
      vertex   -4.500000e+01 8.500000e+01 0.000000e+00
    endloop
  endfacet
  facet normal -0.000000e+00 0.000000e+00 -1.000000e+00
    outer loop
      vertex   -6.000000e+00 1.100000e+02 0.000000e+00
      vertex   -4.500000e+01 8.500000e+01 0.000000e+00
      vertex   -1.500000e+01 1.190000e+02 0.000000e+00
    endloop
  endfacet
  facet normal -0.000000e+00 0.000000e+00 -1.000000e+00
    outer loop
      vertex   0.000000e+00 1.250000e+02 0.000000e+00
      vertex   -1.500000e+01 1.190000e+02 0.000000e+00
      vertex   -1.500000e+01 1.220000e+02 0.000000e+00
    endloop
  endfacet
  facet normal -0.000000e+00 -0.000000e+00 -1.000000e+00
    outer loop
      vertex   -4.500000e+01 1.250000e+02 0.000000e+00
      vertex   -1.500000e+01 1.220000e+02 0.000000e+00
      vertex   -4.500000e+01 1.220000e+02 0.000000e+00
    endloop
  endfacet
  facet normal 0.000000e+00 0.000000e+00 -1.000000e+00
    outer loop
      vertex   -7.500000e+01 1.220000e+02 0.000000e+00
      vertex   -4.500000e+01 1.250000e+02 0.000000e+00
      vertex   -4.500000e+01 1.220000e+02 0.000000e+00
    endloop
  endfacet
  facet normal 0.000000e+00 0.000000e+00 -1.000000e+00
    outer loop
      vertex   -7.500000e+01 1.220000e+02 0.000000e+00
      vertex   -9.000000e+01 1.250000e+02 0.000000e+00
      vertex   -4.500000e+01 1.250000e+02 0.000000e+00
    endloop
  endfacet
  facet normal -0.000000e+00 -0.000000e+00 -1.000000e+00
    outer loop
      vertex   -7.500000e+01 1.220000e+02 0.000000e+00
      vertex   -7.500000e+01 1.190000e+02 0.000000e+00
      vertex   -9.000000e+01 1.250000e+02 0.000000e+00
    endloop
  endfacet
  facet normal 0.000000e+00 -0.000000e+00 -1.000000e+00
    outer loop
      vertex   -9.000000e+01 1.250000e+02 0.000000e+00
      vertex   -7.500000e+01 1.190000e+02 0.000000e+00
      vertex   -9.000000e+01 8.500000e+01 0.000000e+00
    endloop
  endfacet
  facet normal 0.000000e+00 0.000000e+00 -1.000000e+00
    outer loop
      vertex   -9.000000e+01 8.500000e+01 0.000000e+00
      vertex   -7.500000e+01 1.190000e+02 0.000000e+00
      vertex   -4.500000e+01 8.500000e+01 0.000000e+00
    endloop
  endfacet
  facet normal 0.000000e+00 0.000000e+00 -1.000000e+00
    outer loop
      vertex   -9.000000e+01 4.500000e+01 0.000000e+00
      vertex   -4.500000e+01 8.500000e+01 0.000000e+00
      vertex   -4.500000e+01 4.500000e+01 0.000000e+00
    endloop
  endfacet
  facet normal 0.000000e+00 0.000000e+00 -1.000000e+00
    outer loop
      vertex   -7.500000e+01 1.100000e+01 0.000000e+00
      vertex   -4.500000e+01 4.500000e+01 0.000000e+00
      vertex   -4.500000e+01 1.475000e+01 0.000000e+00
    endloop
  endfacet
  facet normal 0.000000e+00 0.000000e+00 -1.000000e+00
    outer loop
      vertex   -4.500000e+01 1.100000e+01 0.000000e+00
      vertex   -4.500000e+01 1.475000e+01 0.000000e+00
      vertex   -1.500000e+01 1.100000e+01 0.000000e+00
    endloop
  endfacet
  facet normal 0.000000e+00 0.000000e+00 -1.000000e+00
    outer loop
      vertex   -4.500000e+01 1.100000e+01 0.000000e+00
      vertex   -7.500000e+01 1.100000e+01 0.000000e+00
      vertex   -4.500000e+01 1.475000e+01 0.000000e+00
    endloop
  endfacet
  facet normal -0.000000e+00 -0.000000e+00 -1.000000e+00
    outer loop
      vertex   -4.500000e+01 4.500000e+01 0.000000e+00
      vertex   -1.500000e+01 1.100000e+01 0.000000e+00
      vertex   -4.500000e+01 1.475000e+01 0.000000e+00
    endloop
  endfacet
  facet normal -0.000000e+00 0.000000e+00 -1.000000e+00
    outer loop
      vertex   -7.500000e+01 8.000000e+00 0.000000e+00
      vertex   -9.000000e+01 5.000000e+00 0.000000e+00
      vertex   -7.500000e+01 1.100000e+01 0.000000e+00
    endloop
  endfacet
  facet normal -0.000000e+00 -0.000000e+00 -1.000000e+00
    outer loop
      vertex   -7.500000e+01 8.000000e+00 0.000000e+00
      vertex   -4.500000e+01 5.000000e+00 0.000000e+00
      vertex   -9.000000e+01 5.000000e+00 0.000000e+00
    endloop
  endfacet
  facet normal 0.000000e+00 -0.000000e+00 -1.000000e+00
    outer loop
      vertex   -6.000000e+00 1.100000e+02 0.000000e+00
      vertex   0.000000e+00 1.250000e+02 0.000000e+00
      vertex   -3.000000e+00 1.100000e+02 0.000000e+00
    endloop
  endfacet
  facet normal 0.000000e+00 0.000000e+00 -1.000000e+00
    outer loop
      vertex   -6.000000e+00 1.100000e+02 0.000000e+00
      vertex   -1.500000e+01 1.190000e+02 0.000000e+00
      vertex   0.000000e+00 1.250000e+02 0.000000e+00
    endloop
  endfacet
  facet normal -0.000000e+00 -0.000000e+00 -1.000000e+00
    outer loop
      vertex   -6.000000e+00 1.100000e+02 0.000000e+00
      vertex   -6.000000e+00 6.500000e+01 0.000000e+00
      vertex   -4.500000e+01 8.500000e+01 0.000000e+00
    endloop
  endfacet
  facet normal -0.000000e+00 0.000000e+00 -1.000000e+00
    outer loop
      vertex   -6.000000e+00 6.500000e+01 0.000000e+00
      vertex   -6.000000e+00 2.000000e+01 0.000000e+00
      vertex   -4.500000e+01 4.500000e+01 0.000000e+00
    endloop
  endfacet
  facet normal 0.000000e+00 0.000000e+00 -1.000000e+00
    outer loop
      vertex   -1.500000e+01 1.100000e+01 0.000000e+00
      vertex   -6.000000e+00 2.000000e+01 0.000000e+00
      vertex   0.000000e+00 5.000000e+00 0.000000e+00
    endloop
  endfacet
  facet normal 0.000000e+00 0.000000e+00 -1.000000e+00
    outer loop
      vertex   0.000000e+00 5.000000e+00 0.000000e+00
      vertex   -6.000000e+00 2.000000e+01 0.000000e+00
      vertex   -3.000000e+00 2.000000e+01 0.000000e+00
    endloop
  endfacet
  facet normal -0.000000e+00 0.000000e+00 -1.000000e+00
    outer loop
      vertex   0.000000e+00 4.500000e+01 0.000000e+00
      vertex   -3.000000e+00 2.000000e+01 0.000000e+00
      vertex   -3.000000e+00 6.500000e+01 0.000000e+00
    endloop
  endfacet
  facet normal -0.000000e+00 0.000000e+00 -1.000000e+00
    outer loop
      vertex   0.000000e+00 8.500000e+01 0.000000e+00
      vertex   -3.000000e+00 6.500000e+01 0.000000e+00
      vertex   -3.000000e+00 1.100000e+02 0.000000e+00
    endloop
  endfacet
  facet normal -0.000000e+00 -0.000000e+00 -1.000000e+00
    outer loop
      vertex   0.000000e+00 1.250000e+02 0.000000e+00
      vertex   0.000000e+00 8.500000e+01 0.000000e+00
      vertex   -3.000000e+00 1.100000e+02 0.000000e+00
    endloop
  endfacet
  facet normal 0.000000e+00 0.000000e+00 -1.000000e+00
    outer loop
      vertex   0.000000e+00 5.000000e+00 0.000000e+00
      vertex   -3.000000e+00 2.000000e+01 0.000000e+00
      vertex   0.000000e+00 4.500000e+01 0.000000e+00
    endloop
  endfacet
  facet normal 0.000000e+00 0.000000e+00 -1.000000e+00
    outer loop
      vertex   0.000000e+00 4.500000e+01 0.000000e+00
      vertex   -3.000000e+00 6.500000e+01 0.000000e+00
      vertex   0.000000e+00 8.500000e+01 0.000000e+00
    endloop
  endfacet
  facet normal 0.000000e+00 0.000000e+00 -1.000000e+00
    outer loop
      vertex   -9.000000e+01 5.000000e+00 0.000000e+00
      vertex   -9.000000e+01 4.500000e+01 0.000000e+00
      vertex   -7.500000e+01 1.100000e+01 0.000000e+00
    endloop
  endfacet
  facet normal 0.000000e+00 0.000000e+00 -1.000000e+00
    outer loop
      vertex   -7.500000e+01 1.100000e+01 0.000000e+00
      vertex   -9.000000e+01 4.500000e+01 0.000000e+00
      vertex   -4.500000e+01 4.500000e+01 0.000000e+00
    endloop
  endfacet
  facet normal 0.000000e+00 0.000000e+00 -1.000000e+00
    outer loop
      vertex   -9.000000e+01 4.500000e+01 0.000000e+00
      vertex   -9.000000e+01 8.500000e+01 0.000000e+00
      vertex   -4.500000e+01 8.500000e+01 0.000000e+00
    endloop
  endfacet
  facet normal 0.000000e+00 -0.000000e+00 -1.000000e+00
    outer loop
      vertex   -4.500000e+01 1.250000e+02 0.000000e+00
      vertex   0.000000e+00 1.250000e+02 0.000000e+00
      vertex   -1.500000e+01 1.220000e+02 0.000000e+00
    endloop
  endfacet
  facet normal 0.000000e+00 0.000000e+00 -1.000000e+00
    outer loop
      vertex   -7.500000e+01 1.190000e+02 0.000000e+00
      vertex   -4.500000e+01 1.190000e+02 0.000000e+00
      vertex   -4.500000e+01 8.500000e+01 0.000000e+00
    endloop
  endfacet
  facet normal 0.000000e+00 0.000000e+00 -1.000000e+00
    outer loop
      vertex   -4.500000e+01 8.500000e+01 0.000000e+00
      vertex   -4.500000e+01 1.190000e+02 0.000000e+00
      vertex   -1.500000e+01 1.190000e+02 0.000000e+00
    endloop
  endfacet
endsolid
solid ascii
  facet normal 0.000000e+00 1.000000e+00 -0.000000e+00
    outer loop
      vertex   -1.500000e+01 1.220000e+02 0.000000e+00
      vertex   -4.500000e+01 1.220000e+02 0.000000e+00
      vertex   -1.500000e+01 1.220000e+02 2.300000e+01
    endloop
  endfacet
  facet normal 0.000000e+00 1.000000e+00 -0.000000e+00
    outer loop
      vertex   -1.500000e+01 1.220000e+02 2.300000e+01
      vertex   -4.500000e+01 1.220000e+02 0.000000e+00
      vertex   -4.500000e+01 1.220000e+02 2.300000e+01
    endloop
  endfacet
  facet normal 0.000000e+00 1.000000e+00 0.000000e+00
    outer loop
      vertex   -4.500000e+01 1.220000e+02 2.300000e+01
      vertex   -4.500000e+01 1.220000e+02 0.000000e+00
      vertex   -7.500000e+01 1.220000e+02 0.000000e+00
    endloop
  endfacet
  facet normal -0.000000e+00 1.000000e+00 0.000000e+00
    outer loop
      vertex   -7.500000e+01 1.220000e+02 2.300000e+01
      vertex   -4.500000e+01 1.220000e+02 2.300000e+01
      vertex   -7.500000e+01 1.220000e+02 0.000000e+00
    endloop
  endfacet
  facet normal 1.000000e+00 -2.960595e-15 0.000000e+00
    outer loop
      vertex   -1.500000e+01 1.190000e+02 0.000000e+00
      vertex   -1.500000e+01 1.220000e+02 0.000000e+00
      vertex   -1.500000e+01 1.190000e+02 2.300000e+01
    endloop
  endfacet
  facet normal 1.000000e+00 -2.960595e-15 0.000000e+00
    outer loop
      vertex   -1.500000e+01 1.190000e+02 2.300000e+01
      vertex   -1.500000e+01 1.220000e+02 0.000000e+00
      vertex   -1.500000e+01 1.220000e+02 2.300000e+01
    endloop
  endfacet
  facet normal 0.000000e+00 -1.000000e+00 0.000000e+00
    outer loop
      vertex   -7.500000e+01 1.190000e+02 0.000000e+00
      vertex   -4.500000e+01 1.190000e+02 0.000000e+00
      vertex   -7.500000e+01 1.190000e+02 2.300000e+01
    endloop
  endfacet
  facet normal 0.000000e+00 -1.000000e+00 0.000000e+00
    outer loop
      vertex   -7.500000e+01 1.190000e+02 2.300000e+01
      vertex   -4.500000e+01 1.190000e+02 0.000000e+00
      vertex   -4.500000e+01 1.190000e+02 2.300000e+01
    endloop
  endfacet
  facet normal 0.000000e+00 -1.000000e+00 0.000000e+00
    outer loop
      vertex   -4.500000e+01 1.190000e+02 2.300000e+01
      vertex   -4.500000e+01 1.190000e+02 0.000000e+00
      vertex   -1.500000e+01 1.190000e+02 0.000000e+00
    endloop
  endfacet
  facet normal -0.000000e+00 -1.000000e+00 -0.000000e+00
    outer loop
      vertex   -1.500000e+01 1.190000e+02 2.300000e+01
      vertex   -4.500000e+01 1.190000e+02 2.300000e+01
      vertex   -1.500000e+01 1.190000e+02 0.000000e+00
    endloop
  endfacet
  facet normal -1.000000e+00 0.000000e+00 0.000000e+00
    outer loop
      vertex   -7.500000e+01 1.220000e+02 0.000000e+00
      vertex   -7.500000e+01 1.190000e+02 0.000000e+00
      vertex   -7.500000e+01 1.220000e+02 2.300000e+01
    endloop
  endfacet
  facet normal -1.000000e+00 -0.000000e+00 0.000000e+00
    outer loop
      vertex   -7.500000e+01 1.220000e+02 2.300000e+01
      vertex   -7.500000e+01 1.190000e+02 0.000000e+00
      vertex   -7.500000e+01 1.190000e+02 2.300000e+01
    endloop
  endfacet
  facet normal 0.000000e+00 -0.000000e+00 1.000000e+00
    outer loop
      vertex   -7.500000e+01 1.190000e+02 2.300000e+01
      vertex   -4.500000e+01 1.190000e+02 2.300000e+01
      vertex   -7.500000e+01 1.220000e+02 2.300000e+01
    endloop
  endfacet
  facet normal -0.000000e+00 0.000000e+00 1.000000e+00
    outer loop
      vertex   -7.500000e+01 1.220000e+02 2.300000e+01
      vertex   -4.500000e+01 1.190000e+02 2.300000e+01
      vertex   -4.500000e+01 1.220000e+02 2.300000e+01
    endloop
  endfacet
  facet normal -0.000000e+00 0.000000e+00 1.000000e+00
    outer loop
      vertex   -4.500000e+01 1.220000e+02 2.300000e+01
      vertex   -4.500000e+01 1.190000e+02 2.300000e+01
      vertex   -1.500000e+01 1.190000e+02 2.300000e+01
    endloop
  endfacet
  facet normal 0.000000e+00 0.000000e+00 1.000000e+00
    outer loop
      vertex   -1.500000e+01 1.220000e+02 2.300000e+01
      vertex   -4.500000e+01 1.220000e+02 2.300000e+01
      vertex   -1.500000e+01 1.190000e+02 2.300000e+01
    endloop
  endfacet
  facet normal 0.000000e+00 -0.000000e+00 -1.000000e+00
    outer loop
      vertex   -7.500000e+01 1.220000e+02 0.000000e+00
      vertex   -4.500000e+01 1.220000e+02 0.000000e+00
      vertex   -7.500000e+01 1.190000e+02 0.000000e+00
    endloop
  endfacet
  facet normal 0.000000e+00 0.000000e+00 -1.000000e+00
    outer loop
      vertex   -7.500000e+01 1.190000e+02 0.000000e+00
      vertex   -4.500000e+01 1.220000e+02 0.000000e+00
      vertex   -4.500000e+01 1.190000e+02 0.000000e+00
    endloop
  endfacet
  facet normal 0.000000e+00 0.000000e+00 -1.000000e+00
    outer loop
      vertex   -4.500000e+01 1.190000e+02 0.000000e+00
      vertex   -4.500000e+01 1.220000e+02 0.000000e+00
      vertex   -1.500000e+01 1.220000e+02 0.000000e+00
    endloop
  endfacet
  facet normal 0.000000e+00 0.000000e+00 -1.000000e+00
    outer loop
      vertex   -1.500000e+01 1.190000e+02 0.000000e+00
      vertex   -4.500000e+01 1.190000e+02 0.000000e+00
      vertex   -1.500000e+01 1.220000e+02 0.000000e+00
    endloop
  endfacet
endsolid
solid ascii
  facet normal 0.000000e+00 1.000000e+00 -0.000000e+00
    outer loop
      vertex   -3.000000e+00 1.100000e+02 0.000000e+00
      vertex   -6.000000e+00 1.100000e+02 0.000000e+00
      vertex   -3.000000e+00 1.100000e+02 2.300000e+01
    endloop
  endfacet
  facet normal 0.000000e+00 1.000000e+00 -0.000000e+00
    outer loop
      vertex   -3.000000e+00 1.100000e+02 2.300000e+01
      vertex   -6.000000e+00 1.100000e+02 0.000000e+00
      vertex   -6.000000e+00 1.100000e+02 2.300000e+01
    endloop
  endfacet
  facet normal 1.000000e+00 1.973730e-17 0.000000e+00
    outer loop
      vertex   -3.000000e+00 2.000000e+01 0.000000e+00
      vertex   -3.000000e+00 6.500000e+01 0.000000e+00
      vertex   -3.000000e+00 2.000000e+01 2.300000e+01
    endloop
  endfacet
  facet normal 1.000000e+00 9.868649e-18 -1.930823e-17
    outer loop
      vertex   -3.000000e+00 2.000000e+01 2.300000e+01
      vertex   -3.000000e+00 6.500000e+01 0.000000e+00
      vertex   -3.000000e+00 6.500000e+01 2.300000e+01
    endloop
  endfacet
  facet normal 1.000000e+00 2.960595e-17 -1.930823e-17
    outer loop
      vertex   -3.000000e+00 6.500000e+01 2.300000e+01
      vertex   -3.000000e+00 6.500000e+01 0.000000e+00
      vertex   -3.000000e+00 1.100000e+02 0.000000e+00
    endloop
  endfacet
  facet normal 1.000000e+00 9.868649e-18 -5.792468e-17
    outer loop
      vertex   -3.000000e+00 1.100000e+02 2.300000e+01
      vertex   -3.000000e+00 6.500000e+01 2.300000e+01
      vertex   -3.000000e+00 1.100000e+02 0.000000e+00
    endloop
  endfacet
  facet normal 0.000000e+00 -1.000000e+00 0.000000e+00
    outer loop
      vertex   -6.000000e+00 2.000000e+01 0.000000e+00
      vertex   -3.000000e+00 2.000000e+01 0.000000e+00
      vertex   -6.000000e+00 2.000000e+01 2.300000e+01
    endloop
  endfacet
  facet normal 0.000000e+00 -1.000000e+00 0.000000e+00
    outer loop
      vertex   -6.000000e+00 2.000000e+01 2.300000e+01
      vertex   -3.000000e+00 2.000000e+01 0.000000e+00
      vertex   -3.000000e+00 2.000000e+01 2.300000e+01
    endloop
  endfacet
  facet normal -1.000000e+00 0.000000e+00 0.000000e+00
    outer loop
      vertex   -6.000000e+00 1.100000e+02 0.000000e+00
      vertex   -6.000000e+00 6.500000e+01 0.000000e+00
      vertex   -6.000000e+00 1.100000e+02 2.300000e+01
    endloop
  endfacet
  facet normal -1.000000e+00 -0.000000e+00 0.000000e+00
    outer loop
      vertex   -6.000000e+00 1.100000e+02 2.300000e+01
      vertex   -6.000000e+00 6.500000e+01 0.000000e+00
      vertex   -6.000000e+00 6.500000e+01 2.300000e+01
    endloop
  endfacet
  facet normal -1.000000e+00 1.973730e-17 0.000000e+00
    outer loop
      vertex   -6.000000e+00 6.500000e+01 2.300000e+01
      vertex   -6.000000e+00 6.500000e+01 0.000000e+00
      vertex   -6.000000e+00 2.000000e+01 0.000000e+00
    endloop
  endfacet
  facet normal -1.000000e+00 0.000000e+00 3.861645e-17
    outer loop
      vertex   -6.000000e+00 2.000000e+01 2.300000e+01
      vertex   -6.000000e+00 6.500000e+01 2.300000e+01
      vertex   -6.000000e+00 2.000000e+01 0.000000e+00
    endloop
  endfacet
  facet normal 0.000000e+00 0.000000e+00 1.000000e+00
    outer loop
      vertex   -3.000000e+00 1.100000e+02 2.300000e+01
      vertex   -6.000000e+00 1.100000e+02 2.300000e+01
      vertex   -3.000000e+00 6.500000e+01 2.300000e+01
    endloop
  endfacet
  facet normal 0.000000e+00 0.000000e+00 1.000000e+00
    outer loop
      vertex   -3.000000e+00 6.500000e+01 2.300000e+01
      vertex   -6.000000e+00 1.100000e+02 2.300000e+01
      vertex   -6.000000e+00 6.500000e+01 2.300000e+01
    endloop
  endfacet
  facet normal 0.000000e+00 0.000000e+00 1.000000e+00
    outer loop
      vertex   -3.000000e+00 2.000000e+01 2.300000e+01
      vertex   -6.000000e+00 6.500000e+01 2.300000e+01
      vertex   -6.000000e+00 2.000000e+01 2.300000e+01
    endloop
  endfacet
  facet normal 0.000000e+00 0.000000e+00 1.000000e+00
    outer loop
      vertex   -3.000000e+00 2.000000e+01 2.300000e+01
      vertex   -3.000000e+00 6.500000e+01 2.300000e+01
      vertex   -6.000000e+00 6.500000e+01 2.300000e+01
    endloop
  endfacet
  facet normal 0.000000e+00 0.000000e+00 -1.000000e+00
    outer loop
      vertex   -3.000000e+00 2.000000e+01 0.000000e+00
      vertex   -6.000000e+00 2.000000e+01 0.000000e+00
      vertex   -3.000000e+00 6.500000e+01 0.000000e+00
    endloop
  endfacet
  facet normal -0.000000e+00 0.000000e+00 -1.000000e+00
    outer loop
      vertex   -3.000000e+00 6.500000e+01 0.000000e+00
      vertex   -6.000000e+00 2.000000e+01 0.000000e+00
      vertex   -6.000000e+00 6.500000e+01 0.000000e+00
    endloop
  endfacet
  facet normal -0.000000e+00 0.000000e+00 -1.000000e+00
    outer loop
      vertex   -3.000000e+00 1.100000e+02 0.000000e+00
      vertex   -6.000000e+00 6.500000e+01 0.000000e+00
      vertex   -6.000000e+00 1.100000e+02 0.000000e+00
    endloop
  endfacet
  facet normal -0.000000e+00 -0.000000e+00 -1.000000e+00
    outer loop
      vertex   -3.000000e+00 1.100000e+02 0.000000e+00
      vertex   -3.000000e+00 6.500000e+01 0.000000e+00
      vertex   -6.000000e+00 6.500000e+01 0.000000e+00
    endloop
  endfacet
endsolid
solid ascii
  facet normal 0.000000e+00 -1.000000e+00 -3.861645e-17
    outer loop
      vertex   -7.500000e+01 8.000000e+00 0.000000e+00
      vertex   -4.500000e+01 8.000000e+00 0.000000e+00
      vertex   -7.500000e+01 8.000000e+00 2.300000e+01
    endloop
  endfacet
  facet normal 1.480297e-16 -1.000000e+00 1.544658e-16
    outer loop
      vertex   -7.500000e+01 8.000000e+00 2.300000e+01
      vertex   -4.500000e+01 8.000000e+00 0.000000e+00
      vertex   -4.500000e+01 8.000000e+00 2.300000e+01
    endloop
  endfacet
  facet normal 0.000000e+00 -1.000000e+00 1.544658e-16
    outer loop
      vertex   -4.500000e+01 8.000000e+00 2.300000e+01
      vertex   -4.500000e+01 8.000000e+00 0.000000e+00
      vertex   -1.500000e+01 8.000000e+00 0.000000e+00
    endloop
  endfacet
  facet normal -1.480297e-16 -1.000000e+00 -3.861645e-17
    outer loop
      vertex   -1.500000e+01 8.000000e+00 2.300000e+01
      vertex   -4.500000e+01 8.000000e+00 2.300000e+01
      vertex   -1.500000e+01 8.000000e+00 0.000000e+00
    endloop
  endfacet
  facet normal -1.000000e+00 0.000000e+00 0.000000e+00
    outer loop
      vertex   -7.500000e+01 1.100000e+01 0.000000e+00
      vertex   -7.500000e+01 8.000000e+00 0.000000e+00
      vertex   -7.500000e+01 1.100000e+01 2.300000e+01
    endloop
  endfacet
  facet normal -1.000000e+00 -0.000000e+00 0.000000e+00
    outer loop
      vertex   -7.500000e+01 1.100000e+01 2.300000e+01
      vertex   -7.500000e+01 8.000000e+00 0.000000e+00
      vertex   -7.500000e+01 8.000000e+00 2.300000e+01
    endloop
  endfacet
  facet normal 0.000000e+00 1.000000e+00 -0.000000e+00
    outer loop
      vertex   -1.500000e+01 1.100000e+01 0.000000e+00
      vertex   -4.500000e+01 1.100000e+01 0.000000e+00
      vertex   -1.500000e+01 1.100000e+01 2.300000e+01
    endloop
  endfacet
  facet normal 0.000000e+00 1.000000e+00 -0.000000e+00
    outer loop
      vertex   -1.500000e+01 1.100000e+01 2.300000e+01
      vertex   -4.500000e+01 1.100000e+01 0.000000e+00
      vertex   -4.500000e+01 1.100000e+01 2.300000e+01
    endloop
  endfacet
  facet normal 0.000000e+00 1.000000e+00 0.000000e+00
    outer loop
      vertex   -4.500000e+01 1.100000e+01 2.300000e+01
      vertex   -4.500000e+01 1.100000e+01 0.000000e+00
      vertex   -7.500000e+01 1.100000e+01 0.000000e+00
    endloop
  endfacet
  facet normal -0.000000e+00 1.000000e+00 0.000000e+00
    outer loop
      vertex   -7.500000e+01 1.100000e+01 2.300000e+01
      vertex   -4.500000e+01 1.100000e+01 2.300000e+01
      vertex   -7.500000e+01 1.100000e+01 0.000000e+00
    endloop
  endfacet
  facet normal 1.000000e+00 0.000000e+00 -0.000000e+00
    outer loop
      vertex   -1.500000e+01 8.000000e+00 0.000000e+00
      vertex   -1.500000e+01 1.100000e+01 0.000000e+00
      vertex   -1.500000e+01 8.000000e+00 2.300000e+01
    endloop
  endfacet
  facet normal 1.000000e+00 -0.000000e+00 0.000000e+00
    outer loop
      vertex   -1.500000e+01 8.000000e+00 2.300000e+01
      vertex   -1.500000e+01 1.100000e+01 0.000000e+00
      vertex   -1.500000e+01 1.100000e+01 2.300000e+01
    endloop
  endfacet
  facet normal 0.000000e+00 0.000000e+00 1.000000e+00
    outer loop
      vertex   -1.500000e+01 1.100000e+01 2.300000e+01
      vertex   -4.500000e+01 1.100000e+01 2.300000e+01
      vertex   -1.500000e+01 8.000000e+00 2.300000e+01
    endloop
  endfacet
  facet normal 0.000000e+00 0.000000e+00 1.000000e+00
    outer loop
      vertex   -1.500000e+01 8.000000e+00 2.300000e+01
      vertex   -4.500000e+01 1.100000e+01 2.300000e+01
      vertex   -4.500000e+01 8.000000e+00 2.300000e+01
    endloop
  endfacet
  facet normal 0.000000e+00 -0.000000e+00 1.000000e+00
    outer loop
      vertex   -4.500000e+01 8.000000e+00 2.300000e+01
      vertex   -4.500000e+01 1.100000e+01 2.300000e+01
      vertex   -7.500000e+01 1.100000e+01 2.300000e+01
    endloop
  endfacet
  facet normal 0.000000e+00 -0.000000e+00 1.000000e+00
    outer loop
      vertex   -7.500000e+01 8.000000e+00 2.300000e+01
      vertex   -4.500000e+01 8.000000e+00 2.300000e+01
      vertex   -7.500000e+01 1.100000e+01 2.300000e+01
    endloop
  endfacet
  facet normal 0.000000e+00 0.000000e+00 -1.000000e+00
    outer loop
      vertex   -1.500000e+01 8.000000e+00 0.000000e+00
      vertex   -4.500000e+01 8.000000e+00 0.000000e+00
      vertex   -1.500000e+01 1.100000e+01 0.000000e+00
    endloop
  endfacet
  facet normal -0.000000e+00 0.000000e+00 -1.000000e+00
    outer loop
      vertex   -1.500000e+01 1.100000e+01 0.000000e+00
      vertex   -4.500000e+01 8.000000e+00 0.000000e+00
      vertex   -4.500000e+01 1.100000e+01 0.000000e+00
    endloop
  endfacet
  facet normal -0.000000e+00 -0.000000e+00 -1.000000e+00
    outer loop
      vertex   -4.500000e+01 1.100000e+01 0.000000e+00
      vertex   -4.500000e+01 8.000000e+00 0.000000e+00
      vertex   -7.500000e+01 8.000000e+00 0.000000e+00
    endloop
  endfacet
  facet normal 0.000000e+00 -0.000000e+00 -1.000000e+00
    outer loop
      vertex   -7.500000e+01 1.100000e+01 0.000000e+00
      vertex   -4.500000e+01 1.100000e+01 0.000000e+00
      vertex   -7.500000e+01 8.000000e+00 0.000000e+00
    endloop
  endfacet
endsolid
