solid ascii
  facet normal -0.000000e+00 -1.000000e+00 0.000000e+00
    outer loop
      vertex   -2.900000e+01 3.108624e-14 2.797762e-14
      vertex   -2.900000e+01 3.108624e-14 3.000000e+00
      vertex   -3.200000e+01 3.108624e-14 2.797762e-14
    endloop
  endfacet
  facet normal 0.000000e+00 -1.000000e+00 0.000000e+00
    outer loop
      vertex   -3.200000e+01 3.108624e-14 2.797762e-14
      vertex   -2.900000e+01 3.108624e-14 3.000000e+00
      vertex   -3.200000e+01 3.108624e-14 3.000000e+00
    endloop
  endfacet
  facet normal 1.709300e-17 8.660254e-01 -5.000000e-01
    outer loop
      vertex   -3.500000e+01 4.226795e+01 1.831868e-14
      vertex   -3.500000e+01 4.400000e+01 3.000000e+00
      vertex   -2.000000e+01 4.226795e+01 1.859225e-14
    endloop
  endfacet
  facet normal -1.469087e-16 8.660254e-01 -5.000000e-01
    outer loop
      vertex   -2.000000e+01 4.226795e+01 1.859225e-14
      vertex   -3.500000e+01 4.400000e+01 3.000000e+00
      vertex   -2.000000e+01 4.650000e+01 7.330127e+00
    endloop
  endfacet
  facet normal 0.000000e+00 8.660254e-01 -5.000000e-01
    outer loop
      vertex   -2.000000e+01 4.650000e+01 7.330127e+00
      vertex   -3.500000e+01 4.400000e+01 3.000000e+00
      vertex   -3.500000e+01 4.650000e+01 7.330134e+00
    endloop
  endfacet
  facet normal -1.000000e+00 9.716232e-31 1.640926e-15
    outer loop
      vertex   -3.500000e+01 4.650000e+01 7.330134e+00
      vertex   -3.500000e+01 4.400000e+01 3.000000e+00
      vertex   -3.500000e+01 4.350000e+01 7.330134e+00
    endloop
  endfacet
  facet normal -1.000000e+00 -1.421085e-14 1.251927e-20
    outer loop
      vertex   -3.500000e+01 4.350000e+01 7.330134e+00
      vertex   -3.500000e+01 4.400000e+01 3.000000e+00
      vertex   -3.500000e+01 4.350000e+01 3.000000e+00
    endloop
  endfacet
  facet normal -1.000000e+00 0.000000e+00 -0.000000e+00
    outer loop
      vertex   -3.500000e+01 4.100000e+01 3.000000e+00
      vertex   -3.500000e+01 4.350000e+01 7.330134e+00
      vertex   -3.500000e+01 4.350000e+01 3.000000e+00
    endloop
  endfacet
  facet normal 4.404833e-07 -0.000000e+00 1.000000e+00
    outer loop
      vertex   -2.000000e+01 4.350000e+01 7.330127e+00
      vertex   -2.000000e+01 4.650000e+01 7.330127e+00
      vertex   -3.500000e+01 4.350000e+01 7.330134e+00
    endloop
  endfacet
  facet normal 4.404833e-07 2.960595e-16 1.000000e+00
    outer loop
      vertex   -3.500000e+01 4.350000e+01 7.330134e+00
      vertex   -2.000000e+01 4.650000e+01 7.330127e+00
      vertex   -3.500000e+01 4.650000e+01 7.330134e+00
    endloop
  endfacet
  facet normal 4.500097e-16 -8.660254e-01 5.000000e-01
    outer loop
      vertex   -3.500000e+01 4.350000e+01 7.330134e+00
      vertex   -3.500000e+01 4.100000e+01 3.000000e+00
      vertex   -2.000000e+01 4.350000e+01 7.330127e+00
    endloop
  endfacet
  facet normal 0.000000e+00 -8.660254e-01 5.000000e-01
    outer loop
      vertex   -2.000000e+01 4.350000e+01 7.330127e+00
      vertex   -3.500000e+01 4.100000e+01 3.000000e+00
      vertex   -2.000000e+01 4.100000e+01 3.000000e+00
    endloop
  endfacet
  facet normal -0.000000e+00 -1.000000e+00 -0.000000e+00
    outer loop
      vertex   -2.000000e+01 1.100000e+01 3.000000e+00
      vertex   -2.900000e+01 1.100000e+01 3.000000e+00
      vertex   -2.000000e+01 1.100000e+01 2.664535e-14
    endloop
  endfacet
  facet normal -0.000000e+00 -1.000000e+00 -0.000000e+00
    outer loop
      vertex   -2.000000e+01 1.100000e+01 2.664535e-14
      vertex   -2.900000e+01 1.100000e+01 3.000000e+00
      vertex   -2.900000e+01 1.100000e+01 2.664535e-14
    endloop
  endfacet
  facet normal 1.000000e+00 0.000000e+00 0.000000e+00
    outer loop
      vertex   -2.900000e+01 1.100000e+01 3.000000e+00
      vertex   -2.900000e+01 3.108624e-14 3.000000e+00
      vertex   -2.900000e+01 1.100000e+01 2.664535e-14
    endloop
  endfacet
  facet normal 1.000000e+00 0.000000e+00 0.000000e+00
    outer loop
      vertex   -2.900000e+01 1.100000e+01 2.664535e-14
      vertex   -2.900000e+01 3.108624e-14 3.000000e+00
      vertex   -2.900000e+01 3.108624e-14 2.797762e-14
    endloop
  endfacet
  facet normal 1.000000e+00 -1.363459e-15 1.792210e-15
    outer loop
      vertex   -2.000000e+01 1.100000e+01 2.664535e-14
      vertex   -2.000000e+01 4.226795e+01 1.859225e-14
      vertex   -2.000000e+01 4.100000e+01 3.000000e+00
    endloop
  endfacet
  facet normal 1.000000e+00 -1.184238e-15 0.000000e+00
    outer loop
      vertex   -2.000000e+01 1.100000e+01 3.000000e+00
      vertex   -2.000000e+01 1.100000e+01 2.664535e-14
      vertex   -2.000000e+01 4.100000e+01 3.000000e+00
    endloop
  endfacet
  facet normal 1.000000e+00 -0.000000e+00 0.000000e+00
    outer loop
      vertex   -2.000000e+01 4.350000e+01 7.330127e+00
      vertex   -2.000000e+01 4.100000e+01 3.000000e+00
      vertex   -2.000000e+01 4.650000e+01 7.330127e+00
    endloop
  endfacet
  facet normal 1.000000e+00 -1.399130e-15 1.777134e-15
    outer loop
      vertex   -2.000000e+01 4.650000e+01 7.330127e+00
      vertex   -2.000000e+01 4.100000e+01 3.000000e+00
      vertex   -2.000000e+01 4.226795e+01 1.859225e-14
    endloop
  endfacet
  facet normal -1.000000e+00 0.000000e+00 -0.000000e+00
    outer loop
      vertex   -3.200000e+01 3.108624e-14 3.000000e+00
      vertex   -3.200000e+01 1.100000e+01 3.000000e+00
      vertex   -3.200000e+01 3.108624e-14 2.797762e-14
    endloop
  endfacet
  facet normal -1.000000e+00 0.000000e+00 0.000000e+00
    outer loop
      vertex   -3.200000e+01 3.108624e-14 2.797762e-14
      vertex   -3.200000e+01 1.100000e+01 3.000000e+00
      vertex   -3.200000e+01 1.100000e+01 2.664535e-14
    endloop
  endfacet
  facet normal -0.000000e+00 -1.000000e+00 -0.000000e+00
    outer loop
      vertex   -3.200000e+01 1.100000e+01 3.000000e+00
      vertex   -5.000000e+01 1.100000e+01 3.000000e+00
      vertex   -3.200000e+01 1.100000e+01 2.664535e-14
    endloop
  endfacet
  facet normal -0.000000e+00 -1.000000e+00 -0.000000e+00
    outer loop
      vertex   -3.200000e+01 1.100000e+01 2.664535e-14
      vertex   -5.000000e+01 1.100000e+01 3.000000e+00
      vertex   -5.000000e+01 1.100000e+01 2.664535e-14
    endloop
  endfacet
  facet normal 1.154632e-15 4.440892e-15 1.000000e+00
    outer loop
      vertex   -3.500000e+01 4.350000e+01 3.000000e+00
      vertex   -3.500000e+01 4.400000e+01 3.000000e+00
      vertex   -5.000000e+01 4.850000e+01 3.000000e+00
    endloop
  endfacet
  facet normal -2.605323e-16 1.302662e-16 1.000000e+00
    outer loop
      vertex   -3.500000e+01 4.100000e+01 3.000000e+00
      vertex   -5.000000e+01 4.850000e+01 3.000000e+00
      vertex   -5.000000e+01 1.100000e+01 3.000000e+00
    endloop
  endfacet
  facet normal 0.000000e+00 0.000000e+00 1.000000e+00
    outer loop
      vertex   -3.200000e+01 1.100000e+01 3.000000e+00
      vertex   -3.500000e+01 4.100000e+01 3.000000e+00
      vertex   -5.000000e+01 1.100000e+01 3.000000e+00
    endloop
  endfacet
  facet normal 0.000000e+00 -0.000000e+00 1.000000e+00
    outer loop
      vertex   -3.200000e+01 1.100000e+01 3.000000e+00
      vertex   -2.900000e+01 1.100000e+01 3.000000e+00
      vertex   -3.500000e+01 4.100000e+01 3.000000e+00
    endloop
  endfacet
  facet normal 0.000000e+00 8.074349e-17 1.000000e+00
    outer loop
      vertex   -3.200000e+01 1.100000e+01 3.000000e+00
      vertex   -3.200000e+01 3.108624e-14 3.000000e+00
      vertex   -2.900000e+01 1.100000e+01 3.000000e+00
    endloop
  endfacet
  facet normal -0.000000e+00 8.074349e-17 1.000000e+00
    outer loop
      vertex   -2.900000e+01 1.100000e+01 3.000000e+00
      vertex   -3.200000e+01 3.108624e-14 3.000000e+00
      vertex   -2.900000e+01 3.108624e-14 3.000000e+00
    endloop
  endfacet
  facet normal 5.609678e-32 3.947460e-17 1.000000e+00
    outer loop
      vertex   -2.000000e+01 6.350000e+01 3.000000e+00
      vertex   -3.000000e+01 8.600000e+01 3.000000e+00
      vertex   -3.500000e+01 6.350000e+01 3.000000e+00
    endloop
  endfacet
  facet normal 4.440892e-16 2.368476e-16 1.000000e+00
    outer loop
      vertex   -2.000000e+01 6.350000e+01 3.000000e+00
      vertex   -2.000000e+01 1.010000e+02 3.000000e+00
      vertex   -3.000000e+01 8.600000e+01 3.000000e+00
    endloop
  endfacet
  facet normal 4.283760e-16 2.473230e-16 1.000000e+00
    outer loop
      vertex   -3.000000e+01 8.600000e+01 3.000000e+00
      vertex   -2.000000e+01 1.010000e+02 3.000000e+00
      vertex   -2.288675e+01 1.060000e+02 3.000000e+00
    endloop
  endfacet
  facet normal 1.596963e-30 3.996803e-16 1.000000e+00
    outer loop
      vertex   -3.000000e+01 1.060000e+02 3.000000e+00
      vertex   -3.000000e+01 8.600000e+01 3.000000e+00
      vertex   -2.288675e+01 1.060000e+02 3.000000e+00
    endloop
  endfacet
  facet normal -2.932916e-16 1.046505e-16 1.000000e+00
    outer loop
      vertex   -3.000000e+01 8.600000e+01 3.000000e+00
      vertex   -4.211325e+01 8.600000e+01 3.000000e+00
      vertex   -3.500000e+01 6.350000e+01 3.000000e+00
    endloop
  endfacet
  facet normal 5.248706e-17 2.139665e-16 1.000000e+00
    outer loop
      vertex   -3.500000e+01 6.350000e+01 3.000000e+00
      vertex   -4.211325e+01 8.600000e+01 3.000000e+00
      vertex   -5.000000e+01 4.850000e+01 3.000000e+00
    endloop
  endfacet
  facet normal -7.515356e-17 3.416071e-16 1.000000e+00
    outer loop
      vertex   -3.500000e+01 4.400000e+01 3.000000e+00
      vertex   -3.500000e+01 6.350000e+01 3.000000e+00
      vertex   -5.000000e+01 4.850000e+01 3.000000e+00
    endloop
  endfacet
  facet normal 0.000000e+00 2.250052e-16 1.000000e+00
    outer loop
      vertex   -4.211325e+01 8.600000e+01 3.000000e+00
      vertex   -5.000000e+01 8.600000e+01 3.000000e+00
      vertex   -5.000000e+01 4.850000e+01 3.000000e+00
    endloop
  endfacet
  facet normal -3.256654e-16 0.000000e+00 1.000000e+00
    outer loop
      vertex   -3.500000e+01 4.350000e+01 3.000000e+00
      vertex   -5.000000e+01 4.850000e+01 3.000000e+00
      vertex   -3.500000e+01 4.100000e+01 3.000000e+00
    endloop
  endfacet
  facet normal 0.000000e+00 -0.000000e+00 1.000000e+00
    outer loop
      vertex   -2.000000e+01 1.100000e+01 3.000000e+00
      vertex   -2.000000e+01 4.100000e+01 3.000000e+00
      vertex   -2.900000e+01 1.100000e+01 3.000000e+00
    endloop
  endfacet
  facet normal 0.000000e+00 -0.000000e+00 1.000000e+00
    outer loop
      vertex   -2.900000e+01 1.100000e+01 3.000000e+00
      vertex   -2.000000e+01 4.100000e+01 3.000000e+00
      vertex   -3.500000e+01 4.100000e+01 3.000000e+00
    endloop
  endfacet
  facet normal 1.000000e+00 -3.346557e-16 1.932136e-16
    outer loop
      vertex   -3.500000e+01 4.226795e+01 1.831868e-14
      vertex   -3.500000e+01 6.350000e+01 1.776357e-14
      vertex   -3.500000e+01 4.400000e+01 3.000000e+00
    endloop
  endfacet
  facet normal 1.000000e+00 -3.643809e-16 0.000000e+00
    outer loop
      vertex   -3.500000e+01 4.400000e+01 3.000000e+00
      vertex   -3.500000e+01 6.350000e+01 1.776357e-14
      vertex   -3.500000e+01 6.350000e+01 3.000000e+00
    endloop
  endfacet
  facet normal -1.421085e-15 -1.000000e+00 0.000000e+00
    outer loop
      vertex   -2.000000e+01 6.350000e+01 3.000000e+00
      vertex   -3.500000e+01 6.350000e+01 3.000000e+00
      vertex   -2.000000e+01 6.350000e+01 1.776357e-14
    endloop
  endfacet
  facet normal -1.421085e-15 -1.000000e+00 -0.000000e+00
    outer loop
      vertex   -2.000000e+01 6.350000e+01 1.776357e-14
      vertex   -3.500000e+01 6.350000e+01 3.000000e+00
      vertex   -3.500000e+01 6.350000e+01 1.776357e-14
    endloop
  endfacet
  facet normal 3.995602e-15 1.000000e+00 0.000000e+00
    outer loop
      vertex   -2.288675e+01 1.060000e+02 3.000000e+00
      vertex   -2.288675e+01 1.060000e+02 8.881784e-15
      vertex   -3.000000e+01 1.060000e+02 3.000000e+00
    endloop
  endfacet
  facet normal 3.995602e-15 1.000000e+00 0.000000e+00
    outer loop
      vertex   -3.000000e+01 1.060000e+02 3.000000e+00
      vertex   -2.288675e+01 1.060000e+02 8.881784e-15
      vertex   -3.000000e+01 1.060000e+02 8.881784e-15
    endloop
  endfacet
  facet normal -1.000000e+00 0.000000e+00 0.000000e+00
    outer loop
      vertex   -3.000000e+01 8.600000e+01 9.992007e-15
      vertex   -3.000000e+01 8.600000e+01 3.000000e+00
      vertex   -3.000000e+01 1.060000e+02 8.881784e-15
    endloop
  endfacet
  facet normal -1.000000e+00 0.000000e+00 0.000000e+00
    outer loop
      vertex   -3.000000e+01 1.060000e+02 8.881784e-15
      vertex   -3.000000e+01 8.600000e+01 3.000000e+00
      vertex   -3.000000e+01 1.060000e+02 3.000000e+00
    endloop
  endfacet
  facet normal 1.000000e+00 -4.736952e-16 0.000000e+00
    outer loop
      vertex   -2.000000e+01 1.010000e+02 3.000000e+00
      vertex   -2.000000e+01 6.350000e+01 3.000000e+00
      vertex   -2.000000e+01 1.010000e+02 8.881784e-15
    endloop
  endfacet
  facet normal 1.000000e+00 -4.736952e-16 0.000000e+00
    outer loop
      vertex   -2.000000e+01 1.010000e+02 8.881784e-15
      vertex   -2.000000e+01 6.350000e+01 3.000000e+00
      vertex   -2.000000e+01 6.350000e+01 1.776357e-14
    endloop
  endfacet
  facet normal 8.660254e-01 5.000000e-01 0.000000e+00
    outer loop
      vertex   -2.000000e+01 1.010000e+02 8.881784e-15
      vertex   -2.288675e+01 1.060000e+02 8.881784e-15
      vertex   -2.000000e+01 1.010000e+02 3.000000e+00
    endloop
  endfacet
  facet normal 8.660254e-01 5.000000e-01 -0.000000e+00
    outer loop
      vertex   -2.000000e+01 1.010000e+02 3.000000e+00
      vertex   -2.288675e+01 1.060000e+02 8.881784e-15
      vertex   -2.288675e+01 1.060000e+02 3.000000e+00
    endloop
  endfacet
  facet normal -0.000000e+00 -2.663006e-16 -1.000000e+00
    outer loop
      vertex   -3.200000e+01 1.100000e+01 2.664535e-14
      vertex   -5.000000e+01 1.100000e+01 2.664535e-14
      vertex   -3.500000e+01 4.226795e+01 1.831868e-14
    endloop
  endfacet
  facet normal 1.823802e-17 -2.628009e-16 -1.000000e+00
    outer loop
      vertex   -2.900000e+01 1.100000e+01 2.664535e-14
      vertex   -3.500000e+01 4.226795e+01 1.831868e-14
      vertex   -2.000000e+01 4.226795e+01 1.859225e-14
    endloop
  endfacet
  facet normal -0.000000e+00 -2.575513e-16 -1.000000e+00
    outer loop
      vertex   -2.000000e+01 1.100000e+01 2.664535e-14
      vertex   -2.900000e+01 1.100000e+01 2.664535e-14
      vertex   -2.000000e+01 4.226795e+01 1.859225e-14
    endloop
  endfacet
  facet normal -1.154222e-16 -1.480297e-16 -1.000000e+00
    outer loop
      vertex   -5.000000e+01 1.010000e+02 8.881784e-15
      vertex   -4.038120e+01 8.600000e+01 9.992007e-15
      vertex   -5.000000e+01 5.600000e+01 1.554312e-14
    endloop
  endfacet
  facet normal 6.073744e-17 -3.506678e-17 -1.000000e+00
    outer loop
      vertex   -5.000000e+01 1.010000e+02 8.881784e-15
      vertex   -4.711325e+01 1.060000e+02 8.881784e-15
      vertex   -4.038120e+01 8.600000e+01 9.992007e-15
    endloop
  endfacet
  facet normal 0.000000e+00 -5.551115e-17 -1.000000e+00
    outer loop
      vertex   -4.038120e+01 8.600000e+01 9.992007e-15
      vertex   -4.711325e+01 1.060000e+02 8.881784e-15
      vertex   -4.038120e+01 1.060000e+02 8.881784e-15
    endloop
  endfacet
  facet normal 2.864739e-16 -2.768884e-16 -1.000000e+00
    outer loop
      vertex   -5.000000e+01 5.600000e+01 1.554312e-14
      vertex   -4.038120e+01 8.600000e+01 9.992007e-15
      vertex   -3.500000e+01 6.350000e+01 1.776357e-14
    endloop
  endfacet
  facet normal 1.611022e-16 -2.614498e-17 -1.000000e+00
    outer loop
      vertex   -3.500000e+01 4.226795e+01 1.831868e-14
      vertex   -5.000000e+01 5.600000e+01 1.554312e-14
      vertex   -3.500000e+01 6.350000e+01 1.776357e-14
    endloop
  endfacet
  facet normal -4.082415e-17 -2.467162e-16 -1.000000e+00
    outer loop
      vertex   -3.500000e+01 4.226795e+01 1.831868e-14
      vertex   -5.000000e+01 1.100000e+01 2.664535e-14
      vertex   -5.000000e+01 5.600000e+01 1.554312e-14
    endloop
  endfacet
  facet normal -2.218005e-31 -5.551115e-17 -1.000000e+00
    outer loop
      vertex   -3.000000e+01 1.060000e+02 8.881784e-15
      vertex   -2.288675e+01 1.060000e+02 8.881784e-15
      vertex   -3.000000e+01 8.600000e+01 9.992007e-15
    endloop
  endfacet
  facet normal -5.949667e-17 -3.435042e-17 -1.000000e+00
    outer loop
      vertex   -3.000000e+01 8.600000e+01 9.992007e-15
      vertex   -2.288675e+01 1.060000e+02 8.881784e-15
      vertex   -2.000000e+01 1.010000e+02 8.881784e-15
    endloop
  endfacet
  facet normal 2.442491e-16 -2.368476e-16 -1.000000e+00
    outer loop
      vertex   -2.000000e+01 6.350000e+01 1.776357e-14
      vertex   -3.000000e+01 8.600000e+01 9.992007e-15
      vertex   -2.000000e+01 1.010000e+02 8.881784e-15
    endloop
  endfacet
  facet normal -4.908468e-31 -3.454027e-16 -1.000000e+00
    outer loop
      vertex   -2.000000e+01 6.350000e+01 1.776357e-14
      vertex   -3.500000e+01 6.350000e+01 1.776357e-14
      vertex   -3.000000e+01 8.600000e+01 9.992007e-15
    endloop
  endfacet
  facet normal 0.000000e+00 -3.454027e-16 -1.000000e+00
    outer loop
      vertex   -3.000000e+01 8.600000e+01 9.992007e-15
      vertex   -3.500000e+01 6.350000e+01 1.776357e-14
      vertex   -4.038120e+01 8.600000e+01 9.992007e-15
    endloop
  endfacet
  facet normal 0.000000e+00 -2.663006e-16 -1.000000e+00
    outer loop
      vertex   -3.200000e+01 1.100000e+01 2.664535e-14
      vertex   -3.500000e+01 4.226795e+01 1.831868e-14
      vertex   -2.900000e+01 1.100000e+01 2.664535e-14
    endloop
  endfacet
  facet normal 0.000000e+00 -1.211152e-16 -1.000000e+00
    outer loop
      vertex   -2.900000e+01 3.108624e-14 2.797762e-14
      vertex   -3.200000e+01 1.100000e+01 2.664535e-14
      vertex   -2.900000e+01 1.100000e+01 2.664535e-14
    endloop
  endfacet
  facet normal -0.000000e+00 -1.211152e-16 -1.000000e+00
    outer loop
      vertex   -2.900000e+01 3.108624e-14 2.797762e-14
      vertex   -3.200000e+01 3.108624e-14 2.797762e-14
      vertex   -3.200000e+01 1.100000e+01 2.664535e-14
    endloop
  endfacet
  facet normal -1.000000e+00 5.684342e-16 0.000000e+00
    outer loop
      vertex   -5.000000e+01 1.100000e+01 3.000000e+00
      vertex   -5.000000e+01 4.850000e+01 3.000000e+00
      vertex   -5.000000e+01 1.100000e+01 2.664535e-14
    endloop
  endfacet
  facet normal -1.000000e+00 1.105289e-15 -6.710681e-15
    outer loop
      vertex   -5.000000e+01 1.100000e+01 2.664535e-14
      vertex   -5.000000e+01 4.850000e+01 3.000000e+00
      vertex   -5.000000e+01 5.600000e+01 1.554312e-14
    endloop
  endfacet
  facet normal -1.000000e+00 3.789561e-16 -8.526513e-15
    outer loop
      vertex   -5.000000e+01 5.600000e+01 1.554312e-14
      vertex   -5.000000e+01 4.850000e+01 3.000000e+00
      vertex   -5.000000e+01 8.600000e+01 3.000000e+00
    endloop
  endfacet
  facet normal -1.000000e+00 0.000000e+00 0.000000e+00
    outer loop
      vertex   -5.000000e+01 1.010000e+02 8.881784e-15
      vertex   -5.000000e+01 8.600000e+01 3.000000e+00
      vertex   -5.000000e+01 1.010000e+02 8.000000e+00
    endloop
  endfacet
  facet normal -1.000000e+00 -3.157968e-16 -1.578984e-15
    outer loop
      vertex   -5.000000e+01 1.010000e+02 8.881784e-15
      vertex   -5.000000e+01 5.600000e+01 1.554312e-14
      vertex   -5.000000e+01 8.600000e+01 3.000000e+00
    endloop
  endfacet
  facet normal -1.000000e+00 0.000000e+00 0.000000e+00
    outer loop
      vertex   -5.000000e+01 8.600000e+01 3.000000e+00
      vertex   -5.000000e+01 8.600000e+01 8.000000e+00
      vertex   -5.000000e+01 1.010000e+02 8.000000e+00
    endloop
  endfacet
  facet normal 0.000000e+00 1.776357e-16 1.000000e+00
    outer loop
      vertex   -4.500000e+01 1.060000e+02 8.000000e+00
      vertex   -4.711325e+01 1.060000e+02 8.000000e+00
      vertex   -4.500000e+01 8.600000e+01 8.000000e+00
    endloop
  endfacet
  facet normal -2.600767e-16 1.501553e-16 1.000000e+00
    outer loop
      vertex   -4.500000e+01 8.600000e+01 8.000000e+00
      vertex   -4.711325e+01 1.060000e+02 8.000000e+00
      vertex   -5.000000e+01 1.010000e+02 8.000000e+00
    endloop
  endfacet
  facet normal 3.552714e-16 3.552714e-16 1.000000e+00
    outer loop
      vertex   -5.000000e+01 8.600000e+01 8.000000e+00
      vertex   -4.500000e+01 8.600000e+01 8.000000e+00
      vertex   -5.000000e+01 1.010000e+02 8.000000e+00
    endloop
  endfacet
  facet normal -0.000000e+00 -1.000000e+00 0.000000e+00
    outer loop
      vertex   -4.211325e+01 8.600000e+01 3.000000e+00
      vertex   -4.500000e+01 8.600000e+01 8.000000e+00
      vertex   -5.000000e+01 8.600000e+01 3.000000e+00
    endloop
  endfacet
  facet normal 0.000000e+00 -1.000000e+00 0.000000e+00
    outer loop
      vertex   -5.000000e+01 8.600000e+01 3.000000e+00
      vertex   -4.500000e+01 8.600000e+01 8.000000e+00
      vertex   -5.000000e+01 8.600000e+01 8.000000e+00
    endloop
  endfacet
  facet normal 0.000000e+00 1.000000e+00 -0.000000e+00
    outer loop
      vertex   -3.000000e+01 8.600000e+01 9.992007e-15
      vertex   -4.038120e+01 8.600000e+01 9.992007e-15
      vertex   -3.000000e+01 8.600000e+01 3.000000e+00
    endloop
  endfacet
  facet normal 0.000000e+00 1.000000e+00 0.000000e+00
    outer loop
      vertex   -3.000000e+01 8.600000e+01 3.000000e+00
      vertex   -4.038120e+01 8.600000e+01 9.992007e-15
      vertex   -4.211325e+01 8.600000e+01 3.000000e+00
    endloop
  endfacet
  facet normal -0.000000e+00 1.000000e+00 0.000000e+00
    outer loop
      vertex   -4.711325e+01 1.060000e+02 8.000000e+00
      vertex   -4.500000e+01 1.060000e+02 8.000000e+00
      vertex   -4.711325e+01 1.060000e+02 8.881784e-15
    endloop
  endfacet
  facet normal -0.000000e+00 1.000000e+00 0.000000e+00
    outer loop
      vertex   -4.711325e+01 1.060000e+02 8.881784e-15
      vertex   -4.500000e+01 1.060000e+02 8.000000e+00
      vertex   -4.038120e+01 1.060000e+02 8.881784e-15
    endloop
  endfacet
  facet normal -8.660254e-01 5.000000e-01 0.000000e+00
    outer loop
      vertex   -4.711325e+01 1.060000e+02 8.881784e-15
      vertex   -5.000000e+01 1.010000e+02 8.881784e-15
      vertex   -4.711325e+01 1.060000e+02 8.000000e+00
    endloop
  endfacet
  facet normal -8.660254e-01 5.000000e-01 0.000000e+00
    outer loop
      vertex   -4.711325e+01 1.060000e+02 8.000000e+00
      vertex   -5.000000e+01 1.010000e+02 8.881784e-15
      vertex   -5.000000e+01 1.010000e+02 8.000000e+00
    endloop
  endfacet
  facet normal 8.660254e-01 -1.510615e-15 5.000000e-01
    outer loop
      vertex   -4.038120e+01 8.600000e+01 9.992007e-15
      vertex   -4.038120e+01 1.060000e+02 8.881784e-15
      vertex   -4.211325e+01 8.600000e+01 3.000000e+00
    endloop
  endfacet
  facet normal 8.660254e-01 -7.403406e-16 5.000000e-01
    outer loop
      vertex   -4.211325e+01 8.600000e+01 3.000000e+00
      vertex   -4.038120e+01 1.060000e+02 8.881784e-15
      vertex   -4.500000e+01 1.060000e+02 8.000000e+00
    endloop
  endfacet
  facet normal 8.660254e-01 9.230221e-17 5.000000e-01
    outer loop
      vertex   -4.500000e+01 8.600000e+01 8.000000e+00
      vertex   -4.211325e+01 8.600000e+01 3.000000e+00
      vertex   -4.500000e+01 1.060000e+02 8.000000e+00
    endloop
  endfacet
endsolid
