solid puffin_hips_2
facet normal -0.0 -1.0 -0.0
  outer loop
    vertex 49.5 -6.499999999999999 0.0
    vertex 36.5 -6.499999999999999 -6.0
    vertex 49.5 -6.499999999999999 -6.0
  endloop
endfacet
facet normal -0.0 -1.0 -0.0
  outer loop
    vertex 36.5 -6.499999999999999 -6.0
    vertex 49.5 -6.499999999999999 0.0
    vertex 36.5 -6.499999999999999 0.0
  endloop
endfacet
facet normal -1.0 0.0 0.0
  outer loop
    vertex 36.5 6.499999999999999 0.0
    vertex 36.5 -6.499999999999999 -6.0
    vertex 36.5 -6.499999999999999 0.0
  endloop
endfacet
facet normal -1.0 0.0 0.0
  outer loop
    vertex 36.5 -6.499999999999999 -6.0
    vertex 36.5 6.499999999999999 0.0
    vertex 36.5 6.499999999999999 -6.0
  endloop
endfacet
facet normal 0.0 0.0 -1.0
  outer loop
    vertex 36.5 6.499999999999999 -6.0
    vertex 39.27795739198297 1.465059324432229 -6.0
    vertex 36.5 -6.499999999999999 -6.0
  endloop
endfacet
facet normal 0.0 0.0 -1.0
  outer loop
    vertex 39.27795739198297 1.465059324432229 -6.0
    vertex 36.5 6.499999999999999 -6.0
    vertex 39.783968173736135 2.3784741521525676 -6.0
  endloop
endfacet
facet normal 0.0 0.0 -1.0
  outer loop
    vertex 39.783968173736135 2.3784741521525676 -6.0
    vertex 36.5 6.499999999999999 -6.0
    vertex 40.509146209705285 3.1297998970180902 -6.0
  endloop
endfacet
facet normal 0.0 0.0 -1.0
  outer loop
    vertex 40.509146209705285 3.1297998970180902 -6.0
    vertex 36.5 6.499999999999999 -6.0
    vertex 41.40407181515251 3.667834951140711 -6.0
  endloop
endfacet
facet normal 0.0 0.0 -1.0
  outer loop
    vertex 41.40407181515251 3.667834951140711 -6.0
    vertex 36.5 6.499999999999999 -6.0
    vertex 49.5 6.499999999999999 -6.0
  endloop
endfacet
facet normal 0.0 0.0 -1.0
  outer loop
    vertex 36.5 -6.499999999999999 -6.0
    vertex 39.27795739198297 1.465059324432229 -6.0
    vertex 39.02559766299994 0.45180312487684265 -6.0
  endloop
endfacet
facet normal 0.0 0.0 -1.0
  outer loop
    vertex 41.40407181515251 3.667834951140711 -6.0
    vertex 49.5 6.499999999999999 -6.0
    vertex 42.40775728900107 3.9559131147269437 -6.0
  endloop
endfacet
facet normal 0.0 0.0 -1.0
  outer loop
    vertex 42.40775728900107 3.9559131147269437 -6.0
    vertex 49.5 6.499999999999999 -6.0
    vertex 43.45180312487684 3.9744023370000567 -6.0
  endloop
endfacet
facet normal 0.0 0.0 -1.0
  outer loop
    vertex 43.45180312487684 3.9744023370000567 -6.0
    vertex 49.5 6.499999999999999 -6.0
    vertex 44.465059324432225 3.7220426080170244 -6.0
  endloop
endfacet
facet normal 0.0 0.0 -1.0
  outer loop
    vertex 44.465059324432225 3.7220426080170244 -6.0
    vertex 49.5 6.499999999999999 -6.0
    vertex 45.37847415215256 3.21603182626387 -6.0
  endloop
endfacet
facet normal 0.0 0.0 -1.0
  outer loop
    vertex 45.37847415215256 3.21603182626387 -6.0
    vertex 49.5 6.499999999999999 -6.0
    vertex 46.12979989701809 2.490853790294715 -6.0
  endloop
endfacet
facet normal 0.0 0.0 -1.0
  outer loop
    vertex 46.12979989701809 2.490853790294715 -6.0
    vertex 49.5 6.499999999999999 -6.0
    vertex 46.66783495114071 1.5959281848474907 -6.0
  endloop
endfacet
facet normal 0.0 0.0 -1.0
  outer loop
    vertex 46.66783495114071 1.5959281848474907 -6.0
    vertex 49.5 6.499999999999999 -6.0
    vertex 46.95591311472695 0.5922427109989342 -6.0
  endloop
endfacet
facet normal 0.0 0.0 -1.0
  outer loop
    vertex 46.95591311472695 0.5922427109989342 -6.0
    vertex 49.5 6.499999999999999 -6.0
    vertex 46.97440233700006 -0.45180312487684127 -6.0
  endloop
endfacet
facet normal 0.0 0.0 -1.0
  outer loop
    vertex 36.5 -6.499999999999999 -6.0
    vertex 41.534940675567775 -3.7220426080170244 -6.0
    vertex 49.5 -6.499999999999999 -6.0
  endloop
endfacet
facet normal 0.0 0.0 -1.0
  outer loop
    vertex 41.534940675567775 -3.7220426080170244 -6.0
    vertex 36.5 -6.499999999999999 -6.0
    vertex 40.62152584784743 -3.2160318262638685 -6.0
  endloop
endfacet
facet normal 0.0 0.0 -1.0
  outer loop
    vertex 40.62152584784743 -3.2160318262638685 -6.0
    vertex 36.5 -6.499999999999999 -6.0
    vertex 39.87020010298191 -2.4908537902947137 -6.0
  endloop
endfacet
facet normal 0.0 0.0 -1.0
  outer loop
    vertex 39.87020010298191 -2.4908537902947137 -6.0
    vertex 36.5 -6.499999999999999 -6.0
    vertex 39.33216504885929 -1.595928184847489 -6.0
  endloop
endfacet
facet normal 0.0 0.0 -1.0
  outer loop
    vertex 39.33216504885929 -1.595928184847489 -6.0
    vertex 36.5 -6.499999999999999 -6.0
    vertex 39.04408688527305 -0.5922427109989342 -6.0
  endloop
endfacet
facet normal 0.0 0.0 -1.0
  outer loop
    vertex 39.04408688527305 -0.5922427109989342 -6.0
    vertex 36.5 -6.499999999999999 -6.0
    vertex 39.02559766299994 0.45180312487684265 -6.0
  endloop
endfacet
facet normal 0.0 0.0 -1.0
  outer loop
    vertex 49.5 -6.499999999999999 -6.0
    vertex 41.534940675567775 -3.7220426080170244 -6.0
    vertex 42.54819687512316 -3.9744023370000567 -6.0
  endloop
endfacet
facet normal 0.0 0.0 -1.0
  outer loop
    vertex 49.5 -6.499999999999999 -6.0
    vertex 42.54819687512316 -3.9744023370000567 -6.0
    vertex 43.59224271099893 -3.9559131147269433 -6.0
  endloop
endfacet
facet normal 0.0 0.0 -1.0
  outer loop
    vertex 49.5 -6.499999999999999 -6.0
    vertex 43.59224271099893 -3.9559131147269433 -6.0
    vertex 44.59592818484749 -3.667834951140712 -6.0
  endloop
endfacet
facet normal 0.0 0.0 -1.0
  outer loop
    vertex 49.5 -6.499999999999999 -6.0
    vertex 44.59592818484749 -3.667834951140712 -6.0
    vertex 45.490853790294715 -3.1297998970180902 -6.0
  endloop
endfacet
facet normal 0.0 0.0 -1.0
  outer loop
    vertex 49.5 -6.499999999999999 -6.0
    vertex 45.490853790294715 -3.1297998970180902 -6.0
    vertex 46.216031826263865 -2.378474152152569 -6.0
  endloop
endfacet
facet normal 0.0 0.0 -1.0
  outer loop
    vertex 49.5 -6.499999999999999 -6.0
    vertex 46.216031826263865 -2.378474152152569 -6.0
    vertex 46.72204260801703 -1.465059324432228 -6.0
  endloop
endfacet
facet normal 0.0 0.0 -1.0
  outer loop
    vertex 49.5 -6.499999999999999 -6.0
    vertex 46.72204260801703 -1.465059324432228 -6.0
    vertex 46.97440233700006 -0.45180312487684127 -6.0
  endloop
endfacet
facet normal 0.0 0.0 -1.0
  outer loop
    vertex 49.5 -6.499999999999999 -6.0
    vertex 46.97440233700006 -0.45180312487684127 -6.0
    vertex 49.5 6.499999999999999 -6.0
  endloop
endfacet
facet normal 1.0 0.0 0.0
  outer loop
    vertex 49.5 6.499999999999999 -6.0
    vertex 49.5 -6.499999999999999 0.0
    vertex 49.5 -6.499999999999999 -6.0
  endloop
endfacet
facet normal 1.0 0.0 0.0
  outer loop
    vertex 49.5 -6.499999999999999 0.0
    vertex 49.5 6.499999999999999 -6.0
    vertex 49.5 6.499999999999999 0.0
  endloop
endfacet
facet normal 0.0 1.0 0.0
  outer loop
    vertex 36.5 6.499999999999999 0.0
    vertex 49.5 6.499999999999999 -6.0
    vertex 36.5 6.499999999999999 -6.0
  endloop
endfacet
facet normal 0.0 1.0 0.0
  outer loop
    vertex 49.5 6.499999999999999 -6.0
    vertex 36.5 6.499999999999999 0.0
    vertex 49.5 6.499999999999999 0.0
  endloop
endfacet
facet normal -0.8040079565659674 0.5946185380381421 -2.0374801402241887e-17
  outer loop
    vertex 39.783968173736135 2.3784741521525676 -1.7499999999999996
    vertex 39.27795739198297 1.465059324432229 -6.0
    vertex 39.27795739198297 1.465059324432229 -1.7499999999999996
  endloop
endfacet
facet normal -0.9305106520042565 0.366264831108057 1.607184441334726e-17
  outer loop
    vertex 39.27795739198297 1.465059324432229 -6.0
    vertex 39.783968173736135 2.3784741521525676 -1.7499999999999996
    vertex 39.783968173736135 2.3784741521525676 -6.0
  endloop
endfacet
facet normal -0.9305106520042565 0.366264831108057 1.607184441334726e-17
  outer loop
    vertex 39.27795739198297 1.465059324432229 -1.7499999999999996
    vertex 39.02559766299994 0.45180312487684265 -6.0
    vertex 39.02559766299994 0.45180312487684265 -1.7499999999999996
  endloop
endfacet
facet normal -0.9936005842500145 0.11295078121921115 6.607873445599522e-18
  outer loop
    vertex 39.02559766299994 0.45180312487684265 -6.0
    vertex 39.27795739198297 1.465059324432229 -1.7499999999999996
    vertex 39.27795739198297 1.465059324432229 -6.0
  endloop
endfacet
facet normal -0.9936005842500145 0.11295078121921115 6.607873445599522e-18
  outer loop
    vertex 39.02559766299994 0.45180312487684265 -1.7499999999999996
    vertex 39.04408688527305 -0.5922427109989342 -6.0
    vertex 39.04408688527305 -0.5922427109989342 -1.7499999999999996
  endloop
endfacet
facet normal -0.988978278681736 -0.14806067774973347 2.6939775543677846e-17
  outer loop
    vertex 39.04408688527305 -0.5922427109989342 -6.0
    vertex 39.02559766299994 0.45180312487684265 -1.7499999999999996
    vertex 39.02559766299994 0.45180312487684265 -6.0
  endloop
endfacet
facet normal 0.0 0.0 -1.0
  outer loop
    vertex 36.5 6.499999999999999 0.0
    vertex 38.02375478231083 0.486809545331284 0.0
    vertex 36.5 -6.499999999999999 0.0
  endloop
endfacet
facet normal 0.0 0.0 -1.0
  outer loop
    vertex 38.02375478231083 0.486809545331284 0.0
    vertex 36.5 6.499999999999999 0.0
    vertex 38.319311807956 1.7581689477578208 0.0
  endloop
endfacet
facet normal 0.0 0.0 -1.0
  outer loop
    vertex 38.319311807956 1.7581689477578208 0.0
    vertex 36.5 6.499999999999999 0.0
    vertex 38.933849998686 2.9097120419062286 0.0
  endloop
endfacet
facet normal 0.0 0.0 -1.0
  outer loop
    vertex 38.933849998686 2.9097120419062286 0.0
    vertex 36.5 6.499999999999999 0.0
    vertex 39.82548959237496 3.8629630689252306 0.0
  endloop
endfacet
facet normal 0.0 0.0 -1.0
  outer loop
    vertex 39.82548959237496 3.8629630689252306 0.0
    vertex 36.5 6.499999999999999 0.0
    vertex 40.93346682421706 4.552959546645286 0.0
  endloop
endfacet
facet normal 0.0 0.0 -1.0
  outer loop
    vertex 40.93346682421706 4.552959546645286 0.0
    vertex 36.5 6.499999999999999 0.0
    vertex 42.18227487688123 4.932679355382873 0.0
  endloop
endfacet
facet normal 0.0 0.0 -1.0
  outer loop
    vertex 42.18227487688123 4.932679355382873 0.0
    vertex 36.5 6.499999999999999 0.0
    vertex 49.5 6.499999999999999 0.0
  endloop
endfacet
facet normal 0.0 0.0 -1.0
  outer loop
    vertex 42.18227487688123 4.932679355382873 0.0
    vertex 49.5 6.499999999999999 0.0
    vertex 43.48680954533128 4.97624521768917 0.0
  endloop
endfacet
facet normal 0.0 0.0 -1.0
  outer loop
    vertex 43.48680954533128 4.97624521768917 0.0
    vertex 49.5 6.499999999999999 0.0
    vertex 44.758168947757824 4.680688192044002 0.0
  endloop
endfacet
facet normal 0.0 0.0 -1.0
  outer loop
    vertex 44.758168947757824 4.680688192044002 0.0
    vertex 49.5 6.499999999999999 0.0
    vertex 45.909712041906225 4.066150001314005 0.0
  endloop
endfacet
facet normal 0.0 0.0 -1.0
  outer loop
    vertex 45.909712041906225 4.066150001314005 0.0
    vertex 49.5 6.499999999999999 0.0
    vertex 46.862963068925225 3.1745104076250503 0.0
  endloop
endfacet
facet normal 0.0 0.0 -1.0
  outer loop
    vertex 46.862963068925225 3.1745104076250503 0.0
    vertex 49.5 6.499999999999999 0.0
    vertex 47.55295954664528 2.066533175782942 0.0
  endloop
endfacet
facet normal 0.0 0.0 -1.0
  outer loop
    vertex 47.55295954664528 2.066533175782942 0.0
    vertex 49.5 6.499999999999999 0.0
    vertex 47.932679355382874 0.8177251231187724 0.0
  endloop
endfacet
facet normal 0.0 0.0 -1.0
  outer loop
    vertex 47.932679355382874 0.8177251231187724 0.0
    vertex 49.5 6.499999999999999 0.0
    vertex 47.97624521768917 -0.48680954533128257 0.0
  endloop
endfacet
facet normal 0.0 0.0 -1.0
  outer loop
    vertex 36.5 -6.499999999999999 0.0
    vertex 42.51319045466872 -4.97624521768917 0.0
    vertex 49.5 -6.499999999999999 0.0
  endloop
endfacet
facet normal 0.0 0.0 -1.0
  outer loop
    vertex 42.51319045466872 -4.97624521768917 0.0
    vertex 36.5 -6.499999999999999 0.0
    vertex 41.241831052242176 -4.680688192044002 0.0
  endloop
endfacet
facet normal 0.0 0.0 -1.0
  outer loop
    vertex 41.241831052242176 -4.680688192044002 0.0
    vertex 36.5 -6.499999999999999 0.0
    vertex 40.090287958093775 -4.066150001314003 0.0
  endloop
endfacet
facet normal 0.0 0.0 -1.0
  outer loop
    vertex 40.090287958093775 -4.066150001314003 0.0
    vertex 36.5 -6.499999999999999 0.0
    vertex 39.137036931074775 -3.174510407625049 0.0
  endloop
endfacet
facet normal 0.0 0.0 -1.0
  outer loop
    vertex 39.137036931074775 -3.174510407625049 0.0
    vertex 36.5 -6.499999999999999 0.0
    vertex 38.44704045335472 -2.0665331757829404 0.0
  endloop
endfacet
facet normal 0.0 0.0 -1.0
  outer loop
    vertex 38.44704045335472 -2.0665331757829404 0.0
    vertex 36.5 -6.499999999999999 0.0
    vertex 38.067320644617126 -0.8177251231187711 0.0
  endloop
endfacet
facet normal 0.0 0.0 -1.0
  outer loop
    vertex 38.067320644617126 -0.8177251231187711 0.0
    vertex 36.5 -6.499999999999999 0.0
    vertex 38.02375478231083 0.486809545331284 0.0
  endloop
endfacet
facet normal 0.0 0.0 -1.0
  outer loop
    vertex 49.5 -6.499999999999999 0.0
    vertex 42.51319045466872 -4.97624521768917 0.0
    vertex 43.81772512311877 -4.932679355382872 0.0
  endloop
endfacet
facet normal 0.0 0.0 -1.0
  outer loop
    vertex 49.5 -6.499999999999999 0.0
    vertex 43.81772512311877 -4.932679355382872 0.0
    vertex 45.06653317578294 -4.552959546645288 0.0
  endloop
endfacet
facet normal 0.0 0.0 -1.0
  outer loop
    vertex 49.5 -6.499999999999999 0.0
    vertex 45.06653317578294 -4.552959546645288 0.0
    vertex 46.17451040762505 -3.862963068925231 0.0
  endloop
endfacet
facet normal 0.0 0.0 -1.0
  outer loop
    vertex 49.5 -6.499999999999999 0.0
    vertex 46.17451040762505 -3.862963068925231 0.0
    vertex 47.066150001314 -2.9097120419062312 0.0
  endloop
endfacet
facet normal 0.0 0.0 -1.0
  outer loop
    vertex 49.5 -6.499999999999999 0.0
    vertex 47.066150001314 -2.9097120419062312 0.0
    vertex 47.680688192044 -1.7581689477578208 0.0
  endloop
endfacet
facet normal 0.0 0.0 -1.0
  outer loop
    vertex 49.5 -6.499999999999999 0.0
    vertex 47.680688192044 -1.7581689477578208 0.0
    vertex 47.97624521768917 -0.48680954533128257 0.0
  endloop
endfacet
facet normal 0.0 0.0 -1.0
  outer loop
    vertex 49.5 -6.499999999999999 0.0
    vertex 47.97624521768917 -0.48680954533128257 0.0
    vertex 49.5 6.499999999999999 0.0
  endloop
endfacet
facet normal -0.9169587377851782 -0.398982046211873 1.2555643252322075e-16
  outer loop
    vertex 39.33216504885929 -1.5959281848474878 -1.7499999999999996
    vertex 39.04408688527305 -0.5922427109989342 -6.0
    vertex 39.33216504885929 -1.595928184847489 -6.0
  endloop
endfacet
facet normal -0.988978278681736 -0.14806067774973347 2.6939775543677846e-17
  outer loop
    vertex 39.04408688527305 -0.5922427109989342 -6.0
    vertex 39.33216504885929 -1.5959281848474878 -1.7499999999999996
    vertex 39.04408688527305 -0.5922427109989342 -1.7499999999999996
  endloop
endfacet
facet normal 0.9889782786817363 0.14806067774973333 2.748644946303251e-18
  outer loop
    vertex 46.95591311472695 0.5922427109989342 -6.0
    vertex 46.97440233700006 -0.45180312487684127 -1.7499999999999996
    vertex 46.97440233700006 -0.45180312487684127 -6.0
  endloop
endfacet
facet normal 0.9936005842500145 -0.11295078121921102 2.311541990106018e-17
  outer loop
    vertex 46.97440233700006 -0.45180312487684127 -1.7499999999999996
    vertex 46.95591311472695 0.5922427109989342 -6.0
    vertex 46.95591311472695 0.5922427109989342 -1.7499999999999996
  endloop
endfacet
facet normal 0.9305106520042566 -0.3662648311080566 9.931131576198007e-17
  outer loop
    vertex 46.72204260801703 -1.465059324432228 -6.0
    vertex 46.216031826263865 -2.3784741521525676 -1.7499999999999996
    vertex 46.216031826263865 -2.378474152152569 -6.0
  endloop
endfacet
facet normal 0.8040079565659672 -0.5946185380381425 1.7879116320194606e-16
  outer loop
    vertex 46.216031826263865 -2.3784741521525676 -1.7499999999999996
    vertex 46.72204260801703 -1.465059324432228 -6.0
    vertex 46.72204260801703 -1.4650593244322274 -1.7499999999999996
  endloop
endfacet
facet normal -0.7824499742545237 -0.6227134475736775 2.363274486715958e-16
  outer loop
    vertex 39.87020010298191 -2.4908537902947123 -1.7499999999999996
    vertex 39.33216504885929 -1.595928184847489 -6.0
    vertex 39.87020010298191 -2.4908537902947137 -6.0
  endloop
endfacet
facet normal -0.9169587377851782 -0.398982046211873 1.2555643252322075e-16
  outer loop
    vertex 39.33216504885929 -1.595928184847489 -6.0
    vertex 39.87020010298191 -2.4908537902947123 -1.7499999999999996
    vertex 39.33216504885929 -1.5959281848474878 -1.7499999999999996
  endloop
endfacet
facet normal -0.5946185380381419 -0.8040079565659676 2.8463052703347196e-16
  outer loop
    vertex 40.62152584784743 -3.216031826263867 -1.7499999999999996
    vertex 39.87020010298191 -2.4908537902947137 -6.0
    vertex 40.62152584784743 -3.2160318262638685 -6.0
  endloop
endfacet
facet normal -0.7824499742545237 -0.6227134475736775 2.363274486715958e-16
  outer loop
    vertex 39.87020010298191 -2.4908537902947137 -6.0
    vertex 40.62152584784743 -3.216031826263867 -1.7499999999999996
    vertex 39.87020010298191 -2.4908537902947123 -1.7499999999999996
  endloop
endfacet
facet normal -0.6227134475736789 0.7824499742545226 -1.0013788666828664e-16
  outer loop
    vertex 40.509146209705285 3.1297998970180916 -1.7499999999999996
    vertex 39.783968173736135 2.3784741521525676 -6.0
    vertex 39.783968173736135 2.3784741521525676 -1.7499999999999996
  endloop
endfacet
facet normal -0.8040079565659674 0.5946185380381421 -2.0374801402241887e-17
  outer loop
    vertex 39.783968173736135 2.3784741521525676 -6.0
    vertex 40.509146209705285 3.1297998970180916 -1.7499999999999996
    vertex 40.509146209705285 3.1297998970180902 -6.0
  endloop
endfacet
facet normal -0.36626483110805635 -0.9305106520042566 3.9044051528610974e-16
  outer loop
    vertex 41.534940675567775 -3.722042608017023 -1.7499999999999996
    vertex 40.62152584784743 -3.2160318262638685 -6.0
    vertex 41.534940675567775 -3.7220426080170244 -6.0
  endloop
endfacet
facet normal -0.5946185380381419 -0.8040079565659678 2.8463052703347196e-16
  outer loop
    vertex 40.62152584784743 -3.2160318262638685 -6.0
    vertex 41.534940675567775 -3.722042608017023 -1.7499999999999996
    vertex 40.62152584784743 -3.216031826263867 -1.7499999999999996
  endloop
endfacet
facet normal -0.11295078121921119 -0.9936005842500144 4.52641622684587e-16
  outer loop
    vertex 42.54819687512316 -3.974402337000054 -1.7499999999999996
    vertex 41.534940675567775 -3.7220426080170244 -6.0
    vertex 42.54819687512316 -3.9744023370000567 -6.0
  endloop
endfacet
facet normal -0.36626483110805635 -0.9305106520042566 3.9044051528610974e-16
  outer loop
    vertex 41.534940675567775 -3.7220426080170244 -6.0
    vertex 42.54819687512316 -3.974402337000054 -1.7499999999999996
    vertex 41.534940675567775 -3.722042608017023 -1.7499999999999996
  endloop
endfacet
facet normal 0.9936005842500145 -0.11295078121921102 2.311541990106018e-17
  outer loop
    vertex 46.97440233700006 -0.45180312487684127 -6.0
    vertex 46.72204260801703 -1.4650593244322274 -1.7499999999999996
    vertex 46.72204260801703 -1.465059324432228 -6.0
  endloop
endfacet
facet normal 0.9305106520042566 -0.3662648311080566 9.931131576198007e-17
  outer loop
    vertex 46.72204260801703 -1.4650593244322274 -1.7499999999999996
    vertex 46.97440233700006 -0.45180312487684127 -6.0
    vertex 46.97440233700006 -0.45180312487684127 -1.7499999999999996
  endloop
endfacet
facet normal 0.14806067774973336 -0.9889782786817362 3.696217095446092e-16
  outer loop
    vertex 43.59224271099893 -3.9559131147269424 -1.7499999999999996
    vertex 42.54819687512316 -3.9744023370000567 -6.0
    vertex 43.59224271099893 -3.9559131147269433 -6.0
  endloop
endfacet
facet normal -0.11295078121921119 -0.9936005842500144 4.52641622684587e-16
  outer loop
    vertex 42.54819687512316 -3.9744023370000567 -6.0
    vertex 43.59224271099893 -3.9559131147269424 -1.7499999999999996
    vertex 42.54819687512316 -3.974402337000054 -1.7499999999999996
  endloop
endfacet
facet normal 0.39898204621187294 -0.9169587377851782 3.0277288383698085e-16
  outer loop
    vertex 44.59592818484749 -3.66783495114071 -1.7499999999999996
    vertex 43.59224271099893 -3.9559131147269433 -6.0
    vertex 44.59592818484749 -3.667834951140712 -6.0
  endloop
endfacet
facet normal 0.14806067774973336 -0.9889782786817362 3.696217095446092e-16
  outer loop
    vertex 43.59224271099893 -3.9559131147269433 -6.0
    vertex 44.59592818484749 -3.66783495114071 -1.7499999999999996
    vertex 43.59224271099893 -3.9559131147269424 -1.7499999999999996
  endloop
endfacet
facet normal 0.6227134475736783 -0.7824499742545231 2.4535141249223206e-16
  outer loop
    vertex 45.490853790294715 -3.1297998970180902 -1.7499999999999996
    vertex 44.59592818484749 -3.667834951140712 -6.0
    vertex 45.490853790294715 -3.1297998970180902 -6.0
  endloop
endfacet
facet normal 0.3989820462118729 -0.9169587377851781 3.0277288383698085e-16
  outer loop
    vertex 44.59592818484749 -3.667834951140712 -6.0
    vertex 45.490853790294715 -3.1297998970180902 -1.7499999999999996
    vertex 44.59592818484749 -3.66783495114071 -1.7499999999999996
  endloop
endfacet
facet normal 0.8040079565659672 -0.5946185380381425 1.7879116320194611e-16
  outer loop
    vertex 46.216031826263865 -2.378474152152569 -6.0
    vertex 45.490853790294715 -3.1297998970180902 -1.7499999999999996
    vertex 45.490853790294715 -3.1297998970180902 -6.0
  endloop
endfacet
facet normal 0.6227134475736783 -0.7824499742545231 2.4535141249223206e-16
  outer loop
    vertex 45.490853790294715 -3.1297998970180902 -1.7499999999999996
    vertex 46.216031826263865 -2.378474152152569 -6.0
    vertex 46.216031826263865 -2.3784741521525676 -1.7499999999999996
  endloop
endfacet
facet normal 0.11295078121921115 0.9936005842500144 -4.179975992904255e-17
  outer loop
    vertex 43.45180312487684 3.9744023370000567 -1.7499999999999996
    vertex 44.465059324432225 3.7220426080170244 -6.0
    vertex 43.45180312487684 3.9744023370000567 -6.0
  endloop
endfacet
facet normal 0.3662648311080574 0.9305106520042563 0.0
  outer loop
    vertex 44.465059324432225 3.7220426080170244 -6.0
    vertex 43.45180312487684 3.9744023370000567 -1.7499999999999996
    vertex 44.465059324432225 3.7220426080170244 -1.7499999999999996
  endloop
endfacet
facet normal 0.9169587377851782 0.39898204621187283 3.232773065241336e-18
  outer loop
    vertex 46.66783495114071 1.5959281848474907 -6.0
    vertex 46.95591311472695 0.5922427109989342 -1.7499999999999996
    vertex 46.95591311472695 0.5922427109989342 -6.0
  endloop
endfacet
facet normal 0.9889782786817363 0.14806067774973333 2.748644946303251e-18
  outer loop
    vertex 46.95591311472695 0.5922427109989342 -1.7499999999999996
    vertex 46.66783495114071 1.5959281848474907 -6.0
    vertex 46.66783495114071 1.5959281848474907 -1.7499999999999996
  endloop
endfacet
facet normal 0.7824499742545226 0.6227134475736791 0.0
  outer loop
    vertex 46.12979989701809 2.490853790294715 -6.0
    vertex 46.66783495114071 1.5959281848474907 -1.7499999999999996
    vertex 46.66783495114071 1.5959281848474907 -6.0
  endloop
endfacet
facet normal 0.9169587377851782 0.39898204621187283 3.232773065241336e-18
  outer loop
    vertex 46.66783495114071 1.5959281848474907 -1.7499999999999996
    vertex 46.12979989701809 2.490853790294715 -6.0
    vertex 46.12979989701809 2.490853790294715 -1.7499999999999996
  endloop
endfacet
facet normal 0.5946185380381411 0.8040079565659684 0.0
  outer loop
    vertex 45.37847415215256 3.21603182626387 -1.7499999999999996
    vertex 46.12979989701809 2.490853790294715 -6.0
    vertex 45.37847415215256 3.21603182626387 -6.0
  endloop
endfacet
facet normal 0.7824499742545226 0.6227134475736791 0.0
  outer loop
    vertex 46.12979989701809 2.490853790294715 -6.0
    vertex 45.37847415215256 3.21603182626387 -1.7499999999999996
    vertex 46.12979989701809 2.490853790294715 -1.7499999999999996
  endloop
endfacet
facet normal -0.1480606777497334 0.9889782786817362 -1.2251949411152983e-16
  outer loop
    vertex 42.40775728900107 3.9559131147269437 -1.7499999999999996
    vertex 43.45180312487684 3.9744023370000567 -6.0
    vertex 42.40775728900107 3.9559131147269437 -6.0
  endloop
endfacet
facet normal 0.11295078121921115 0.9936005842500144 -4.179975992904255e-17
  outer loop
    vertex 43.45180312487684 3.9744023370000567 -6.0
    vertex 42.40775728900107 3.9559131147269437 -1.7499999999999996
    vertex 43.45180312487684 3.9744023370000567 -1.7499999999999996
  endloop
endfacet
facet normal 0.3662648311080574 0.9305106520042563 0.0
  outer loop
    vertex 44.465059324432225 3.7220426080170244 -1.7499999999999996
    vertex 45.37847415215256 3.21603182626387 -6.0
    vertex 44.465059324432225 3.7220426080170244 -6.0
  endloop
endfacet
facet normal 0.5946185380381411 0.8040079565659684 0.0
  outer loop
    vertex 45.37847415215256 3.21603182626387 -6.0
    vertex 44.465059324432225 3.7220426080170244 -1.7499999999999996
    vertex 45.37847415215256 3.21603182626387 -1.7499999999999996
  endloop
endfacet
facet normal -0.3989820462118729 0.9169587377851781 -1.510188484807843e-16
  outer loop
    vertex 41.40407181515251 3.6678349511407125 -1.7499999999999996
    vertex 42.40775728900107 3.9559131147269437 -6.0
    vertex 41.40407181515251 3.667834951140711 -6.0
  endloop
endfacet
facet normal -0.1480606777497334 0.9889782786817362 -1.2251949411152983e-16
  outer loop
    vertex 42.40775728900107 3.9559131147269437 -6.0
    vertex 41.40407181515251 3.6678349511407125 -1.7499999999999996
    vertex 42.40775728900107 3.9559131147269437 -1.7499999999999996
  endloop
endfacet
facet normal -0.5520845488312243 0.6715870921791809 -0.4941390781552658
  outer loop
    vertex 39.82548959237496 3.8629630689252306 0.0
    vertex 39.783968173736135 2.3784741521525676 -1.7499999999999996
    vertex 38.933849998686 2.9097120419062286 0.0
  endloop
endfacet
facet normal -0.5520845488312243 0.6715870921791809 -0.4941390781552658
  outer loop
    vertex 39.82548959237496 3.8629630689252306 0.0
    vertex 40.509146209705285 3.1297998970180916 -1.7499999999999996
    vertex 39.783968173736135 2.3784741521525676 -1.7499999999999996
  endloop
endfacet
facet normal -0.35945319411023363 0.7915933126826014 -0.4941390781552659
  outer loop
    vertex 40.93346682421706 4.552959546645286 0.0
    vertex 40.509146209705285 3.1297998970180916 -1.7499999999999996
    vertex 39.82548959237496 3.8629630689252306 0.0
  endloop
endfacet
facet normal -0.35945319411023363 0.7915933126826014 -0.4941390781552659
  outer loop
    vertex 40.93346682421706 4.552959546645286 0.0
    vertex 41.40407181515251 3.6678349511407125 -1.7499999999999996
    vertex 40.509146209705285 3.1297998970180916 -1.7499999999999996
  endloop
endfacet
facet normal -0.14232569823511956 0.8576537570965043 -0.4941390781552662
  outer loop
    vertex 42.18227487688123 4.932679355382873 0.0
    vertex 41.40407181515251 3.6678349511407125 -1.7499999999999996
    vertex 40.93346682421706 4.552959546645286 0.0
  endloop
endfacet
facet normal -0.14232569823511956 0.8576537570965043 -0.4941390781552662
  outer loop
    vertex 42.18227487688123 4.932679355382873 0.0
    vertex 42.40775728900107 3.9559131147269437 -1.7499999999999996
    vertex 41.40407181515251 3.6678349511407125 -1.7499999999999996
  endloop
endfacet
facet normal 0.0845010587703804 0.8652665153041277 -0.49413907815526675
  outer loop
    vertex 43.48680954533128 4.97624521768917 0.0
    vertex 42.40775728900107 3.9559131147269437 -1.7499999999999996
    vertex 42.18227487688123 4.932679355382873 0.0
  endloop
endfacet
facet normal 0.0845010587703804 0.8652665153041277 -0.49413907815526675
  outer loop
    vertex 43.48680954533128 4.97624521768917 0.0
    vertex 43.45180312487684 3.9744023370000567 -1.7499999999999996
    vertex 42.40775728900107 3.9559131147269437 -1.7499999999999996
  endloop
endfacet
facet normal 0.3055692082652805 0.8139127904143003 -0.49413907815526686
  outer loop
    vertex 44.758168947757824 4.680688192044002 0.0
    vertex 43.45180312487684 3.9744023370000567 -1.7499999999999996
    vertex 43.48680954533128 4.97624521768917 0.0
  endloop
endfacet
facet normal 0.3055692082652805 0.8139127904143003 -0.49413907815526686
  outer loop
    vertex 44.758168947757824 4.680688192044002 0.0
    vertex 44.465059324432225 3.7220426080170244 -1.7499999999999996
    vertex 43.45180312487684 3.9744023370000567 -1.7499999999999996
  endloop
endfacet
facet normal 0.505813321193895 0.707092253912221 -0.49413907815526703
  outer loop
    vertex 45.909712041906225 4.066150001314005 0.0
    vertex 44.465059324432225 3.7220426080170244 -1.7499999999999996
    vertex 44.758168947757824 4.680688192044002 0.0
  endloop
endfacet
facet normal 0.505813321193895 0.707092253912221 -0.49413907815526703
  outer loop
    vertex 45.909712041906225 4.066150001314005 0.0
    vertex 45.37847415215256 3.21603182626387 -1.7499999999999996
    vertex 44.465059324432225 3.7220426080170244 -1.7499999999999996
  endloop
endfacet
facet normal 0.671587092179181 0.5520845488312239 -0.49413907815526614
  outer loop
    vertex 46.862963068925225 3.1745104076250503 0.0
    vertex 45.37847415215256 3.21603182626387 -1.7499999999999996
    vertex 45.909712041906225 4.066150001314005 0.0
  endloop
endfacet
facet normal 0.671587092179181 0.5520845488312239 -0.49413907815526614
  outer loop
    vertex 46.862963068925225 3.1745104076250503 0.0
    vertex 46.12979989701809 2.490853790294715 -1.7499999999999996
    vertex 45.37847415215256 3.21603182626387 -1.7499999999999996
  endloop
endfacet
facet normal 0.671587092179181 0.5520845488312239 -0.49413907815526614
  outer loop
    vertex 46.862963068925225 3.1745104076250503 0.0
    vertex 47.55295954664528 2.066533175782942 0.0
    vertex 46.12979989701809 2.490853790294715 -1.7499999999999996
  endloop
endfacet
facet normal 0.6785026973460028 0.5396379829643108 -0.498422448367255
  outer loop
    vertex 46.12979989701809 2.490853790294715 -1.7499999999999996
    vertex 47.55295954664528 2.066533175782942 0.0
    vertex 46.66783495114071 1.5959281848474907 -1.7499999999999996
  endloop
endfacet
facet normal 0.7915933126826011 0.3594531941102338 -0.49413907815526614
  outer loop
    vertex 47.55295954664528 2.066533175782942 0.0
    vertex 47.932679355382874 0.8177251231187724 0.0
    vertex 46.66783495114071 1.5959281848474907 -1.7499999999999996
  endloop
endfacet
facet normal 0.7950518660251724 0.3456408443651908 -0.49842244836725536
  outer loop
    vertex 46.66783495114071 1.5959281848474907 -1.7499999999999996
    vertex 47.932679355382874 0.8177251231187724 0.0
    vertex 46.95591311472695 0.5922427109989342 -1.7499999999999996
  endloop
endfacet
facet normal 0.8576537570965038 0.14232569823512004 -0.4941390781552666
  outer loop
    vertex 47.932679355382874 0.8177251231187724 0.0
    vertex 47.97624521768917 -0.48680954533128257 0.0
    vertex 46.95591311472695 0.5922427109989342 -1.7499999999999996
  endloop
endfacet
facet normal 0.8574195639200579 0.1280888534210853 -0.4984224483672558
  outer loop
    vertex 46.95591311472695 0.5922427109989342 -1.7499999999999996
    vertex 47.97624521768917 -0.48680954533128257 0.0
    vertex 46.97440233700006 -0.45180312487684127 -1.7499999999999996
  endloop
endfacet
facet normal 0.8613555354866165 -0.09819218120682824 -0.4984224483672557
  outer loop
    vertex 46.97440233700006 -0.45180312487684127 -1.7499999999999996
    vertex 47.97624521768917 -0.48680954533128257 0.0
    vertex 47.680688192044 -1.7581689477578208 0.0
  endloop
endfacet
facet normal 0.8613555354866165 -0.09819218120682824 -0.4984224483672557
  outer loop
    vertex 46.97440233700006 -0.45180312487684127 -1.7499999999999996
    vertex 47.680688192044 -1.7581689477578208 0.0
    vertex 46.72204260801703 -1.4650593244322274 -1.7499999999999996
  endloop
endfacet
facet normal 0.8065915507670885 -0.31778158095574743 -0.49842244836725524
  outer loop
    vertex 46.72204260801703 -1.4650593244322274 -1.7499999999999996
    vertex 47.680688192044 -1.7581689477578208 0.0
    vertex 47.066150001314 -2.9097120419062312 0.0
  endloop
endfacet
facet normal 0.8065915507670885 -0.31778158095574743 -0.49842244836725524
  outer loop
    vertex 46.72204260801703 -1.4650593244322274 -1.7499999999999996
    vertex 47.066150001314 -2.9097120419062312 0.0
    vertex 46.216031826263865 -2.3784741521525676 -1.7499999999999996
  endloop
endfacet
facet normal 0.6968596848183447 -0.5157146911214264 -0.4984224483672551
  outer loop
    vertex 46.216031826263865 -2.3784741521525676 -1.7499999999999996
    vertex 47.066150001314 -2.9097120419062312 0.0
    vertex 46.17451040762505 -3.862963068925231 0.0
  endloop
endfacet
facet normal 0.6968596848183447 -0.5157146911214264 -0.4984224483672551
  outer loop
    vertex 46.216031826263865 -2.3784741521525676 -1.7499999999999996
    vertex 46.17451040762505 -3.862963068925231 0.0
    vertex 45.490853790294715 -3.1297998970180902 -1.7499999999999996
  endloop
endfacet
facet normal 0.3594531941102328 -0.7915933126826011 -0.4941390781552669
  outer loop
    vertex 45.06653317578294 -4.552959546645288 0.0
    vertex 45.490853790294715 -3.1297998970180902 -1.7499999999999996
    vertex 46.17451040762505 -3.862963068925231 0.0
  endloop
endfacet
facet normal 0.3594531941102328 -0.7915933126826011 -0.4941390781552669
  outer loop
    vertex 45.06653317578294 -4.552959546645288 0.0
    vertex 44.59592818484749 -3.66783495114071 -1.7499999999999996
    vertex 45.490853790294715 -3.1297998970180902 -1.7499999999999996
  endloop
endfacet
facet normal 0.14232569823511937 -0.8576537570965039 -0.49413907815526686
  outer loop
    vertex 43.81772512311877 -4.932679355382872 0.0
    vertex 44.59592818484749 -3.66783495114071 -1.7499999999999996
    vertex 45.06653317578294 -4.552959546645288 0.0
  endloop
endfacet
facet normal 0.14232569823511937 -0.8576537570965039 -0.49413907815526686
  outer loop
    vertex 43.81772512311877 -4.932679355382872 0.0
    vertex 43.59224271099893 -3.9559131147269424 -1.7499999999999996
    vertex 44.59592818484749 -3.66783495114071 -1.7499999999999996
  endloop
endfacet
facet normal -0.08450105877038033 -0.8652665153041273 -0.4941390781552673
  outer loop
    vertex 42.51319045466872 -4.97624521768917 0.0
    vertex 43.59224271099893 -3.9559131147269424 -1.7499999999999996
    vertex 43.81772512311877 -4.932679355382872 0.0
  endloop
endfacet
facet normal -0.08450105877038033 -0.8652665153041273 -0.4941390781552673
  outer loop
    vertex 42.51319045466872 -4.97624521768917 0.0
    vertex 42.54819687512316 -3.974402337000054 -1.7499999999999996
    vertex 43.59224271099893 -3.9559131147269424 -1.7499999999999996
  endloop
endfacet
facet normal -0.30556920826528067 -0.8139127904142999 -0.4941390781552675
  outer loop
    vertex 41.241831052242176 -4.680688192044002 0.0
    vertex 42.54819687512316 -3.974402337000054 -1.7499999999999996
    vertex 42.51319045466872 -4.97624521768917 0.0
  endloop
endfacet
facet normal -0.30556920826528067 -0.8139127904142999 -0.4941390781552675
  outer loop
    vertex 41.241831052242176 -4.680688192044002 0.0
    vertex 41.534940675567775 -3.722042608017023 -1.7499999999999996
    vertex 42.54819687512316 -3.974402337000054 -1.7499999999999996
  endloop
endfacet
facet normal -0.5058133211938951 -0.7070922539122213 -0.49413907815526636
  outer loop
    vertex 40.090287958093775 -4.066150001314003 0.0
    vertex 41.534940675567775 -3.722042608017023 -1.7499999999999996
    vertex 41.241831052242176 -4.680688192044002 0.0
  endloop
endfacet
facet normal -0.5058133211938951 -0.7070922539122213 -0.49413907815526636
  outer loop
    vertex 40.090287958093775 -4.066150001314003 0.0
    vertex 40.62152584784743 -3.216031826263867 -1.7499999999999996
    vertex 41.534940675567775 -3.722042608017023 -1.7499999999999996
  endloop
endfacet
facet normal -0.6715870921791814 -0.5520845488312237 -0.4941390781552659
  outer loop
    vertex 39.137036931074775 -3.174510407625049 0.0
    vertex 40.62152584784743 -3.216031826263867 -1.7499999999999996
    vertex 40.090287958093775 -4.066150001314003 0.0
  endloop
endfacet
facet normal -0.6715870921791814 -0.5520845488312237 -0.4941390781552659
  outer loop
    vertex 39.137036931074775 -3.174510407625049 0.0
    vertex 39.87020010298191 -2.4908537902947123 -1.7499999999999996
    vertex 40.62152584784743 -3.216031826263867 -1.7499999999999996
  endloop
endfacet
facet normal -0.7915933126826012 -0.35945319411023385 -0.49413907815526625
  outer loop
    vertex 38.44704045335472 -2.0665331757829404 0.0
    vertex 39.87020010298191 -2.4908537902947123 -1.7499999999999996
    vertex 39.137036931074775 -3.174510407625049 0.0
  endloop
endfacet
facet normal -0.7950518660251724 -0.34564084436519105 -0.49842244836725536
  outer loop
    vertex 39.33216504885929 -1.5959281848474878 -1.7499999999999996
    vertex 39.87020010298191 -2.4908537902947123 -1.7499999999999996
    vertex 38.44704045335472 -2.0665331757829404 0.0
  endloop
endfacet
facet normal -0.8576537570965038 -0.14232569823512023 -0.4941390781552666
  outer loop
    vertex 38.067320644617126 -0.8177251231187711 0.0
    vertex 39.33216504885929 -1.5959281848474878 -1.7499999999999996
    vertex 38.44704045335472 -2.0665331757829404 0.0
  endloop
endfacet
facet normal -0.8574195639200577 -0.12808885342108559 -0.4984224483672558
  outer loop
    vertex 39.04408688527305 -0.5922427109989342 -1.7499999999999996
    vertex 39.33216504885929 -1.5959281848474878 -1.7499999999999996
    vertex 38.067320644617126 -0.8177251231187711 0.0
  endloop
endfacet
facet normal -0.8652665153041276 0.08450105877038057 -0.494139078155267
  outer loop
    vertex 38.02375478231083 0.486809545331284 0.0
    vertex 39.04408688527305 -0.5922427109989342 -1.7499999999999996
    vertex 38.067320644617126 -0.8177251231187711 0.0
  endloop
endfacet
facet normal -0.8652665153041276 0.08450105877038057 -0.494139078155267
  outer loop
    vertex 38.02375478231083 0.486809545331284 0.0
    vertex 39.02559766299994 0.45180312487684265 -1.7499999999999996
    vertex 39.04408688527305 -0.5922427109989342 -1.7499999999999996
  endloop
endfacet
facet normal -0.8139127904143004 0.3055692082652811 -0.49413907815526664
  outer loop
    vertex 38.319311807956 1.7581689477578208 0.0
    vertex 39.02559766299994 0.45180312487684265 -1.7499999999999996
    vertex 38.02375478231083 0.486809545331284 0.0
  endloop
endfacet
facet normal -0.8139127904143004 0.3055692082652811 -0.49413907815526664
  outer loop
    vertex 38.319311807956 1.7581689477578208 0.0
    vertex 39.27795739198297 1.465059324432229 -1.7499999999999996
    vertex 39.02559766299994 0.45180312487684265 -1.7499999999999996
  endloop
endfacet
facet normal -0.7070922539122214 0.5058133211938954 -0.4941390781552658
  outer loop
    vertex 38.933849998686 2.9097120419062286 0.0
    vertex 39.27795739198297 1.465059324432229 -1.7499999999999996
    vertex 38.319311807956 1.7581689477578208 0.0
  endloop
endfacet
facet normal -0.7070922539122214 0.5058133211938954 -0.4941390781552658
  outer loop
    vertex 38.933849998686 2.9097120419062286 0.0
    vertex 39.783968173736135 2.3784741521525676 -1.7499999999999996
    vertex 39.27795739198297 1.465059324432229 -1.7499999999999996
  endloop
endfacet
facet normal -0.6227134475736789 0.7824499742545226 -1.0013788666828664e-16
  outer loop
    vertex 40.509146209705285 3.1297998970180916 -1.7499999999999996
    vertex 41.40407181515251 3.667834951140711 -6.0
    vertex 40.509146209705285 3.1297998970180902 -6.0
  endloop
endfacet
facet normal -0.3989820462118729 0.9169587377851781 -1.510188484807843e-16
  outer loop
    vertex 41.40407181515251 3.667834951140711 -6.0
    vertex 40.509146209705285 3.1297998970180916 -1.7499999999999996
    vertex 41.40407181515251 3.6678349511407125 -1.7499999999999996
  endloop
endfacet
endsolid puffin_hips_2
