solid ascii
  facet normal -9.958932e-01 -9.053575e-02 0.000000e+00
    outer loop
      vertex   -9.750000e+00 4.100000e+01 3.000000e+00
      vertex   -8.250000e+00 2.450000e+01 3.000000e+00
      vertex   -9.750000e+00 4.100000e+01 9.000000e+00
    endloop
  endfacet
  facet normal -9.958932e-01 -9.053575e-02 0.000000e+00
    outer loop
      vertex   -9.750000e+00 4.100000e+01 9.000000e+00
      vertex   -8.250000e+00 2.450000e+01 3.000000e+00
      vertex   -8.250000e+00 2.450000e+01 9.000000e+00
    endloop
  endfacet
  facet normal -9.958932e-01 9.053575e-02 0.000000e+00
    outer loop
      vertex   -8.250000e+00 2.450000e+01 3.000000e+00
      vertex   -9.750000e+00 8.000000e+00 3.000000e+00
      vertex   -8.250000e+00 2.450000e+01 9.000000e+00
    endloop
  endfacet
  facet normal -9.958932e-01 9.053575e-02 0.000000e+00
    outer loop
      vertex   -8.250000e+00 2.450000e+01 9.000000e+00
      vertex   -9.750000e+00 8.000000e+00 3.000000e+00
      vertex   -9.750000e+00 8.000000e+00 9.000000e+00
    endloop
  endfacet
  facet normal 0.000000e+00 1.000000e+00 -0.000000e+00
    outer loop
      vertex   -9.750000e+00 8.000000e+00 3.000000e+00
      vertex   -1.425000e+01 8.000000e+00 3.000000e+00
      vertex   -9.750000e+00 8.000000e+00 9.000000e+00
    endloop
  endfacet
  facet normal 0.000000e+00 1.000000e+00 -0.000000e+00
    outer loop
      vertex   -9.750000e+00 8.000000e+00 9.000000e+00
      vertex   -1.425000e+01 8.000000e+00 3.000000e+00
      vertex   -1.425000e+01 8.000000e+00 9.000000e+00
    endloop
  endfacet
  facet normal 0.000000e+00 -1.000000e+00 0.000000e+00
    outer loop
      vertex   -1.425000e+01 4.100000e+01 3.000000e+00
      vertex   -9.750000e+00 4.100000e+01 3.000000e+00
      vertex   -1.425000e+01 4.100000e+01 9.000000e+00
    endloop
  endfacet
  facet normal 0.000000e+00 -1.000000e+00 0.000000e+00
    outer loop
      vertex   -1.425000e+01 4.100000e+01 9.000000e+00
      vertex   -9.750000e+00 4.100000e+01 3.000000e+00
      vertex   -9.750000e+00 4.100000e+01 9.000000e+00
    endloop
  endfacet
  facet normal 9.958932e-01 -9.053575e-02 0.000000e+00
    outer loop
      vertex   -1.575000e+01 2.450000e+01 3.000000e+00
      vertex   -1.425000e+01 4.100000e+01 3.000000e+00
      vertex   -1.575000e+01 2.450000e+01 9.000000e+00
    endloop
  endfacet
  facet normal 9.958932e-01 -9.053575e-02 0.000000e+00
    outer loop
      vertex   -1.575000e+01 2.450000e+01 9.000000e+00
      vertex   -1.425000e+01 4.100000e+01 3.000000e+00
      vertex   -1.425000e+01 4.100000e+01 9.000000e+00
    endloop
  endfacet
  facet normal 9.958932e-01 9.053575e-02 0.000000e+00
    outer loop
      vertex   -1.425000e+01 8.000000e+00 3.000000e+00
      vertex   -1.575000e+01 2.450000e+01 3.000000e+00
      vertex   -1.425000e+01 8.000000e+00 9.000000e+00
    endloop
  endfacet
  facet normal 9.958932e-01 9.053575e-02 -0.000000e+00
    outer loop
      vertex   -1.425000e+01 8.000000e+00 9.000000e+00
      vertex   -1.575000e+01 2.450000e+01 3.000000e+00
      vertex   -1.575000e+01 2.450000e+01 9.000000e+00
    endloop
  endfacet
  facet normal -1.000000e+00 0.000000e+00 0.000000e+00
    outer loop
      vertex   -1.875000e+01 4.400000e+01 0.000000e+00
      vertex   -1.875000e+01 5.000000e+00 0.000000e+00
      vertex   -1.875000e+01 4.400000e+01 9.000000e+00
    endloop
  endfacet
  facet normal -1.000000e+00 -0.000000e+00 0.000000e+00
    outer loop
      vertex   -1.875000e+01 4.400000e+01 9.000000e+00
      vertex   -1.875000e+01 5.000000e+00 0.000000e+00
      vertex   -1.875000e+01 5.000000e+00 9.000000e+00
    endloop
  endfacet
  facet normal 0.000000e+00 1.000000e+00 -0.000000e+00
    outer loop
      vertex   -5.250000e+00 4.400000e+01 0.000000e+00
      vertex   -1.875000e+01 4.400000e+01 0.000000e+00
      vertex   -5.250000e+00 4.400000e+01 9.000000e+00
    endloop
  endfacet
  facet normal 0.000000e+00 1.000000e+00 -0.000000e+00
    outer loop
      vertex   -5.250000e+00 4.400000e+01 9.000000e+00
      vertex   -1.875000e+01 4.400000e+01 0.000000e+00
      vertex   -1.875000e+01 4.400000e+01 9.000000e+00
    endloop
  endfacet
  facet normal 1.000000e+00 0.000000e+00 -0.000000e+00
    outer loop
      vertex   -5.250000e+00 5.000000e+00 0.000000e+00
      vertex   -5.250000e+00 4.400000e+01 0.000000e+00
      vertex   -5.250000e+00 5.000000e+00 9.000000e+00
    endloop
  endfacet
  facet normal 1.000000e+00 -0.000000e+00 0.000000e+00
    outer loop
      vertex   -5.250000e+00 5.000000e+00 9.000000e+00
      vertex   -5.250000e+00 4.400000e+01 0.000000e+00
      vertex   -5.250000e+00 4.400000e+01 9.000000e+00
    endloop
  endfacet
  facet normal 0.000000e+00 -1.000000e+00 0.000000e+00
    outer loop
      vertex   -1.875000e+01 5.000000e+00 0.000000e+00
      vertex   -5.250000e+00 5.000000e+00 0.000000e+00
      vertex   -1.875000e+01 5.000000e+00 9.000000e+00
    endloop
  endfacet
  facet normal 0.000000e+00 -1.000000e+00 0.000000e+00
    outer loop
      vertex   -1.875000e+01 5.000000e+00 9.000000e+00
      vertex   -5.250000e+00 5.000000e+00 0.000000e+00
      vertex   -5.250000e+00 5.000000e+00 9.000000e+00
    endloop
  endfacet
  facet normal 0.000000e+00 0.000000e+00 1.000000e+00
    outer loop
      vertex   -8.250000e+00 2.450000e+01 9.000000e+00
      vertex   -9.750000e+00 8.000000e+00 9.000000e+00
      vertex   -5.250000e+00 5.000000e+00 9.000000e+00
    endloop
  endfacet
  facet normal 0.000000e+00 0.000000e+00 1.000000e+00
    outer loop
      vertex   -5.250000e+00 4.400000e+01 9.000000e+00
      vertex   -8.250000e+00 2.450000e+01 9.000000e+00
      vertex   -5.250000e+00 5.000000e+00 9.000000e+00
    endloop
  endfacet
  facet normal 0.000000e+00 0.000000e+00 1.000000e+00
    outer loop
      vertex   -5.250000e+00 4.400000e+01 9.000000e+00
      vertex   -9.750000e+00 4.100000e+01 9.000000e+00
      vertex   -8.250000e+00 2.450000e+01 9.000000e+00
    endloop
  endfacet
  facet normal 0.000000e+00 0.000000e+00 1.000000e+00
    outer loop
      vertex   -5.250000e+00 4.400000e+01 9.000000e+00
      vertex   -1.875000e+01 4.400000e+01 9.000000e+00
      vertex   -9.750000e+00 4.100000e+01 9.000000e+00
    endloop
  endfacet
  facet normal 0.000000e+00 0.000000e+00 1.000000e+00
    outer loop
      vertex   -9.750000e+00 4.100000e+01 9.000000e+00
      vertex   -1.875000e+01 4.400000e+01 9.000000e+00
      vertex   -1.425000e+01 4.100000e+01 9.000000e+00
    endloop
  endfacet
  facet normal 0.000000e+00 0.000000e+00 1.000000e+00
    outer loop
      vertex   -1.425000e+01 4.100000e+01 9.000000e+00
      vertex   -1.875000e+01 4.400000e+01 9.000000e+00
      vertex   -1.575000e+01 2.450000e+01 9.000000e+00
    endloop
  endfacet
  facet normal 0.000000e+00 0.000000e+00 1.000000e+00
    outer loop
      vertex   -1.575000e+01 2.450000e+01 9.000000e+00
      vertex   -1.875000e+01 4.400000e+01 9.000000e+00
      vertex   -1.875000e+01 5.000000e+00 9.000000e+00
    endloop
  endfacet
  facet normal -0.000000e+00 0.000000e+00 1.000000e+00
    outer loop
      vertex   -1.425000e+01 8.000000e+00 9.000000e+00
      vertex   -1.875000e+01 5.000000e+00 9.000000e+00
      vertex   -5.250000e+00 5.000000e+00 9.000000e+00
    endloop
  endfacet
  facet normal 0.000000e+00 0.000000e+00 1.000000e+00
    outer loop
      vertex   -9.750000e+00 8.000000e+00 9.000000e+00
      vertex   -1.425000e+01 8.000000e+00 9.000000e+00
      vertex   -5.250000e+00 5.000000e+00 9.000000e+00
    endloop
  endfacet
  facet normal 0.000000e+00 0.000000e+00 1.000000e+00
    outer loop
      vertex   -1.425000e+01 8.000000e+00 9.000000e+00
      vertex   -1.575000e+01 2.450000e+01 9.000000e+00
      vertex   -1.875000e+01 5.000000e+00 9.000000e+00
    endloop
  endfacet
  facet normal 0.000000e+00 -0.000000e+00 1.000000e+00
    outer loop
      vertex   -1.423882e+01 2.427597e+01 2.000000e+00
      vertex   -9.752797e+00 2.438785e+01 2.000000e+00
      vertex   -1.425000e+01 2.450000e+01 2.000000e+00
    endloop
  endfacet
  facet normal -0.000000e+00 0.000000e+00 1.000000e+00
    outer loop
      vertex   -1.423882e+01 2.427597e+01 2.000000e+00
      vertex   -9.775131e+00 2.416465e+01 2.000000e+00
      vertex   -9.752797e+00 2.438785e+01 2.000000e+00
    endloop
  endfacet
  facet normal -0.000000e+00 0.000000e+00 1.000000e+00
    outer loop
      vertex   -1.423882e+01 2.427597e+01 2.000000e+00
      vertex   -1.420539e+01 2.405417e+01 2.000000e+00
      vertex   -9.775131e+00 2.416465e+01 2.000000e+00
    endloop
  endfacet
  facet normal 0.000000e+00 0.000000e+00 1.000000e+00
    outer loop
      vertex   -9.775131e+00 2.416465e+01 2.000000e+00
      vertex   -1.420539e+01 2.405417e+01 2.000000e+00
      vertex   -9.819576e+00 2.394480e+01 2.000000e+00
    endloop
  endfacet
  facet normal 0.000000e+00 0.000000e+00 1.000000e+00
    outer loop
      vertex   -9.819576e+00 2.394480e+01 2.000000e+00
      vertex   -1.420539e+01 2.405417e+01 2.000000e+00
      vertex   -1.415004e+01 2.383680e+01 2.000000e+00
    endloop
  endfacet
  facet normal 0.000000e+00 0.000000e+00 1.000000e+00
    outer loop
      vertex   -9.885692e+00 2.373045e+01 2.000000e+00
      vertex   -1.415004e+01 2.383680e+01 2.000000e+00
      vertex   -1.407332e+01 2.362602e+01 2.000000e+00
    endloop
  endfacet
  facet normal 0.000000e+00 0.000000e+00 1.000000e+00
    outer loop
      vertex   -9.972820e+00 2.352376e+01 2.000000e+00
      vertex   -1.407332e+01 2.362602e+01 2.000000e+00
      vertex   -1.397600e+01 2.342393e+01 2.000000e+00
    endloop
  endfacet
  facet normal 0.000000e+00 0.000000e+00 1.000000e+00
    outer loop
      vertex   -1.008010e+01 2.332677e+01 2.000000e+00
      vertex   -1.397600e+01 2.342393e+01 2.000000e+00
      vertex   -1.385904e+01 2.323253e+01 2.000000e+00
    endloop
  endfacet
  facet normal 0.000000e+00 0.000000e+00 1.000000e+00
    outer loop
      vertex   -1.020645e+01 2.314144e+01 2.000000e+00
      vertex   -1.385904e+01 2.323253e+01 2.000000e+00
      vertex   -1.372360e+01 2.305373e+01 2.000000e+00
    endloop
  endfacet
  facet normal 0.000000e+00 0.000000e+00 1.000000e+00
    outer loop
      vertex   -1.035063e+01 2.296961e+01 2.000000e+00
      vertex   -1.372360e+01 2.305373e+01 2.000000e+00
      vertex   -1.357103e+01 2.288930e+01 2.000000e+00
    endloop
  endfacet
  facet normal 0.000000e+00 0.000000e+00 1.000000e+00
    outer loop
      vertex   -1.051121e+01 2.281299e+01 2.000000e+00
      vertex   -1.357103e+01 2.288930e+01 2.000000e+00
      vertex   -1.340285e+01 2.274088e+01 2.000000e+00
    endloop
  endfacet
  facet normal 0.000000e+00 0.000000e+00 1.000000e+00
    outer loop
      vertex   -1.068658e+01 2.267314e+01 2.000000e+00
      vertex   -1.340285e+01 2.274088e+01 2.000000e+00
      vertex   -1.322073e+01 2.260994e+01 2.000000e+00
    endloop
  endfacet
  facet normal 0.000000e+00 0.000000e+00 1.000000e+00
    outer loop
      vertex   -1.087500e+01 2.255144e+01 2.000000e+00
      vertex   -1.322073e+01 2.260994e+01 2.000000e+00
      vertex   -1.302647e+01 2.249779e+01 2.000000e+00
    endloop
  endfacet
  facet normal 0.000000e+00 0.000000e+00 1.000000e+00
    outer loop
      vertex   -1.107460e+01 2.244911e+01 2.000000e+00
      vertex   -1.302647e+01 2.249779e+01 2.000000e+00
      vertex   -1.282202e+01 2.240553e+01 2.000000e+00
    endloop
  endfacet
  facet normal 0.000000e+00 0.000000e+00 1.000000e+00
    outer loop
      vertex   -1.128341e+01 2.236716e+01 2.000000e+00
      vertex   -1.282202e+01 2.240553e+01 2.000000e+00
      vertex   -1.260939e+01 2.233410e+01 2.000000e+00
    endloop
  endfacet
  facet normal 0.000000e+00 0.000000e+00 1.000000e+00
    outer loop
      vertex   -1.149933e+01 2.230641e+01 2.000000e+00
      vertex   -1.260939e+01 2.233410e+01 2.000000e+00
      vertex   -1.239071e+01 2.228418e+01 2.000000e+00
    endloop
  endfacet
  facet normal 0.000000e+00 0.000000e+00 1.000000e+00
    outer loop
      vertex   -1.172023e+01 2.226746e+01 2.000000e+00
      vertex   -1.239071e+01 2.228418e+01 2.000000e+00
      vertex   -1.216814e+01 2.225629e+01 2.000000e+00
    endloop
  endfacet
  facet normal 0.000000e+00 -0.000000e+00 1.000000e+00
    outer loop
      vertex   -1.194391e+01 2.225070e+01 2.000000e+00
      vertex   -1.172023e+01 2.226746e+01 2.000000e+00
      vertex   -1.216814e+01 2.225629e+01 2.000000e+00
    endloop
  endfacet
  facet normal 0.000000e+00 0.000000e+00 1.000000e+00
    outer loop
      vertex   -9.819576e+00 2.394480e+01 2.000000e+00
      vertex   -1.415004e+01 2.383680e+01 2.000000e+00
      vertex   -9.885692e+00 2.373045e+01 2.000000e+00
    endloop
  endfacet
  facet normal 0.000000e+00 0.000000e+00 1.000000e+00
    outer loop
      vertex   -9.885692e+00 2.373045e+01 2.000000e+00
      vertex   -1.407332e+01 2.362602e+01 2.000000e+00
      vertex   -9.972820e+00 2.352376e+01 2.000000e+00
    endloop
  endfacet
  facet normal 0.000000e+00 0.000000e+00 1.000000e+00
    outer loop
      vertex   -9.972820e+00 2.352376e+01 2.000000e+00
      vertex   -1.397600e+01 2.342393e+01 2.000000e+00
      vertex   -1.008010e+01 2.332677e+01 2.000000e+00
    endloop
  endfacet
  facet normal 0.000000e+00 0.000000e+00 1.000000e+00
    outer loop
      vertex   -1.008010e+01 2.332677e+01 2.000000e+00
      vertex   -1.385904e+01 2.323253e+01 2.000000e+00
      vertex   -1.020645e+01 2.314144e+01 2.000000e+00
    endloop
  endfacet
  facet normal 0.000000e+00 0.000000e+00 1.000000e+00
    outer loop
      vertex   -1.020645e+01 2.314144e+01 2.000000e+00
      vertex   -1.372360e+01 2.305373e+01 2.000000e+00
      vertex   -1.035063e+01 2.296961e+01 2.000000e+00
    endloop
  endfacet
  facet normal 0.000000e+00 0.000000e+00 1.000000e+00
    outer loop
      vertex   -1.035063e+01 2.296961e+01 2.000000e+00
      vertex   -1.357103e+01 2.288930e+01 2.000000e+00
      vertex   -1.051121e+01 2.281299e+01 2.000000e+00
    endloop
  endfacet
  facet normal 0.000000e+00 0.000000e+00 1.000000e+00
    outer loop
      vertex   -1.051121e+01 2.281299e+01 2.000000e+00
      vertex   -1.340285e+01 2.274088e+01 2.000000e+00
      vertex   -1.068658e+01 2.267314e+01 2.000000e+00
    endloop
  endfacet
  facet normal 0.000000e+00 0.000000e+00 1.000000e+00
    outer loop
      vertex   -1.068658e+01 2.267314e+01 2.000000e+00
      vertex   -1.322073e+01 2.260994e+01 2.000000e+00
      vertex   -1.087500e+01 2.255144e+01 2.000000e+00
    endloop
  endfacet
  facet normal 0.000000e+00 0.000000e+00 1.000000e+00
    outer loop
      vertex   -1.087500e+01 2.255144e+01 2.000000e+00
      vertex   -1.302647e+01 2.249779e+01 2.000000e+00
      vertex   -1.107460e+01 2.244911e+01 2.000000e+00
    endloop
  endfacet
  facet normal 0.000000e+00 0.000000e+00 1.000000e+00
    outer loop
      vertex   -1.107460e+01 2.244911e+01 2.000000e+00
      vertex   -1.282202e+01 2.240553e+01 2.000000e+00
      vertex   -1.128341e+01 2.236716e+01 2.000000e+00
    endloop
  endfacet
  facet normal 0.000000e+00 0.000000e+00 1.000000e+00
    outer loop
      vertex   -1.128341e+01 2.236716e+01 2.000000e+00
      vertex   -1.260939e+01 2.233410e+01 2.000000e+00
      vertex   -1.149933e+01 2.230641e+01 2.000000e+00
    endloop
  endfacet
  facet normal 0.000000e+00 0.000000e+00 1.000000e+00
    outer loop
      vertex   -1.149933e+01 2.230641e+01 2.000000e+00
      vertex   -1.239071e+01 2.228418e+01 2.000000e+00
      vertex   -1.172023e+01 2.226746e+01 2.000000e+00
    endloop
  endfacet
  facet normal 0.000000e+00 -0.000000e+00 1.000000e+00
    outer loop
      vertex   -9.752797e+00 2.438785e+01 2.000000e+00
      vertex   -9.752797e+00 2.461215e+01 2.000000e+00
      vertex   -1.425000e+01 2.450000e+01 2.000000e+00
    endloop
  endfacet
  facet normal 0.000000e+00 -0.000000e+00 1.000000e+00
    outer loop
      vertex   -1.425000e+01 2.450000e+01 2.000000e+00
      vertex   -9.752797e+00 2.461215e+01 2.000000e+00
      vertex   -1.423882e+01 2.472403e+01 2.000000e+00
    endloop
  endfacet
  facet normal -0.000000e+00 -0.000000e+00 1.000000e+00
    outer loop
      vertex   -1.423882e+01 2.472403e+01 2.000000e+00
      vertex   -9.752797e+00 2.461215e+01 2.000000e+00
      vertex   -9.775131e+00 2.483535e+01 2.000000e+00
    endloop
  endfacet
  facet normal -0.000000e+00 -0.000000e+00 1.000000e+00
    outer loop
      vertex   -1.420539e+01 2.494583e+01 2.000000e+00
      vertex   -9.775131e+00 2.483535e+01 2.000000e+00
      vertex   -9.819576e+00 2.505520e+01 2.000000e+00
    endloop
  endfacet
  facet normal -0.000000e+00 -0.000000e+00 1.000000e+00
    outer loop
      vertex   -1.415004e+01 2.516320e+01 2.000000e+00
      vertex   -9.819576e+00 2.505520e+01 2.000000e+00
      vertex   -9.885692e+00 2.526955e+01 2.000000e+00
    endloop
  endfacet
  facet normal -0.000000e+00 -0.000000e+00 1.000000e+00
    outer loop
      vertex   -1.407332e+01 2.537398e+01 2.000000e+00
      vertex   -9.885692e+00 2.526955e+01 2.000000e+00
      vertex   -9.972820e+00 2.547624e+01 2.000000e+00
    endloop
  endfacet
  facet normal -0.000000e+00 -0.000000e+00 1.000000e+00
    outer loop
      vertex   -1.397600e+01 2.557607e+01 2.000000e+00
      vertex   -9.972820e+00 2.547624e+01 2.000000e+00
      vertex   -1.008010e+01 2.567323e+01 2.000000e+00
    endloop
  endfacet
  facet normal -0.000000e+00 -0.000000e+00 1.000000e+00
    outer loop
      vertex   -1.385904e+01 2.576747e+01 2.000000e+00
      vertex   -1.008010e+01 2.567323e+01 2.000000e+00
      vertex   -1.020645e+01 2.585856e+01 2.000000e+00
    endloop
  endfacet
  facet normal -0.000000e+00 -0.000000e+00 1.000000e+00
    outer loop
      vertex   -1.372360e+01 2.594627e+01 2.000000e+00
      vertex   -1.020645e+01 2.585856e+01 2.000000e+00
      vertex   -1.035063e+01 2.603039e+01 2.000000e+00
    endloop
  endfacet
  facet normal -0.000000e+00 -0.000000e+00 1.000000e+00
    outer loop
      vertex   -1.357103e+01 2.611070e+01 2.000000e+00
      vertex   -1.035063e+01 2.603039e+01 2.000000e+00
      vertex   -1.051121e+01 2.618701e+01 2.000000e+00
    endloop
  endfacet
  facet normal -0.000000e+00 -0.000000e+00 1.000000e+00
    outer loop
      vertex   -1.340285e+01 2.625912e+01 2.000000e+00
      vertex   -1.051121e+01 2.618701e+01 2.000000e+00
      vertex   -1.068658e+01 2.632686e+01 2.000000e+00
    endloop
  endfacet
  facet normal -0.000000e+00 -0.000000e+00 1.000000e+00
    outer loop
      vertex   -1.322073e+01 2.639006e+01 2.000000e+00
      vertex   -1.068658e+01 2.632686e+01 2.000000e+00
      vertex   -1.087500e+01 2.644856e+01 2.000000e+00
    endloop
  endfacet
  facet normal -0.000000e+00 -0.000000e+00 1.000000e+00
    outer loop
      vertex   -1.302647e+01 2.650221e+01 2.000000e+00
      vertex   -1.087500e+01 2.644856e+01 2.000000e+00
      vertex   -1.107460e+01 2.655089e+01 2.000000e+00
    endloop
  endfacet
  facet normal -0.000000e+00 -0.000000e+00 1.000000e+00
    outer loop
      vertex   -1.282202e+01 2.659447e+01 2.000000e+00
      vertex   -1.107460e+01 2.655089e+01 2.000000e+00
      vertex   -1.128341e+01 2.663284e+01 2.000000e+00
    endloop
  endfacet
  facet normal -0.000000e+00 -0.000000e+00 1.000000e+00
    outer loop
      vertex   -1.260939e+01 2.666590e+01 2.000000e+00
      vertex   -1.128341e+01 2.663284e+01 2.000000e+00
      vertex   -1.149933e+01 2.669359e+01 2.000000e+00
    endloop
  endfacet
  facet normal -0.000000e+00 -0.000000e+00 1.000000e+00
    outer loop
      vertex   -1.239071e+01 2.671582e+01 2.000000e+00
      vertex   -1.149933e+01 2.669359e+01 2.000000e+00
      vertex   -1.172023e+01 2.673254e+01 2.000000e+00
    endloop
  endfacet
  facet normal -0.000000e+00 -0.000000e+00 1.000000e+00
    outer loop
      vertex   -1.216814e+01 2.674371e+01 2.000000e+00
      vertex   -1.172023e+01 2.673254e+01 2.000000e+00
      vertex   -1.194391e+01 2.674930e+01 2.000000e+00
    endloop
  endfacet
  facet normal -0.000000e+00 0.000000e+00 1.000000e+00
    outer loop
      vertex   -1.216814e+01 2.674371e+01 2.000000e+00
      vertex   -1.239071e+01 2.671582e+01 2.000000e+00
      vertex   -1.172023e+01 2.673254e+01 2.000000e+00
    endloop
  endfacet
  facet normal 0.000000e+00 -0.000000e+00 1.000000e+00
    outer loop
      vertex   -1.423882e+01 2.472403e+01 2.000000e+00
      vertex   -9.775131e+00 2.483535e+01 2.000000e+00
      vertex   -1.420539e+01 2.494583e+01 2.000000e+00
    endloop
  endfacet
  facet normal 0.000000e+00 -0.000000e+00 1.000000e+00
    outer loop
      vertex   -1.420539e+01 2.494583e+01 2.000000e+00
      vertex   -9.819576e+00 2.505520e+01 2.000000e+00
      vertex   -1.415004e+01 2.516320e+01 2.000000e+00
    endloop
  endfacet
  facet normal 0.000000e+00 -0.000000e+00 1.000000e+00
    outer loop
      vertex   -1.415004e+01 2.516320e+01 2.000000e+00
      vertex   -9.885692e+00 2.526955e+01 2.000000e+00
      vertex   -1.407332e+01 2.537398e+01 2.000000e+00
    endloop
  endfacet
  facet normal 0.000000e+00 -0.000000e+00 1.000000e+00
    outer loop
      vertex   -1.407332e+01 2.537398e+01 2.000000e+00
      vertex   -9.972820e+00 2.547624e+01 2.000000e+00
      vertex   -1.397600e+01 2.557607e+01 2.000000e+00
    endloop
  endfacet
  facet normal 0.000000e+00 -0.000000e+00 1.000000e+00
    outer loop
      vertex   -1.397600e+01 2.557607e+01 2.000000e+00
      vertex   -1.008010e+01 2.567323e+01 2.000000e+00
      vertex   -1.385904e+01 2.576747e+01 2.000000e+00
    endloop
  endfacet
  facet normal 0.000000e+00 -0.000000e+00 1.000000e+00
    outer loop
      vertex   -1.385904e+01 2.576747e+01 2.000000e+00
      vertex   -1.020645e+01 2.585856e+01 2.000000e+00
      vertex   -1.372360e+01 2.594627e+01 2.000000e+00
    endloop
  endfacet
  facet normal 0.000000e+00 -0.000000e+00 1.000000e+00
    outer loop
      vertex   -1.372360e+01 2.594627e+01 2.000000e+00
      vertex   -1.035063e+01 2.603039e+01 2.000000e+00
      vertex   -1.357103e+01 2.611070e+01 2.000000e+00
    endloop
  endfacet
  facet normal 0.000000e+00 -0.000000e+00 1.000000e+00
    outer loop
      vertex   -1.357103e+01 2.611070e+01 2.000000e+00
      vertex   -1.051121e+01 2.618701e+01 2.000000e+00
      vertex   -1.340285e+01 2.625912e+01 2.000000e+00
    endloop
  endfacet
  facet normal 0.000000e+00 -0.000000e+00 1.000000e+00
    outer loop
      vertex   -1.340285e+01 2.625912e+01 2.000000e+00
      vertex   -1.068658e+01 2.632686e+01 2.000000e+00
      vertex   -1.322073e+01 2.639006e+01 2.000000e+00
    endloop
  endfacet
  facet normal 0.000000e+00 -0.000000e+00 1.000000e+00
    outer loop
      vertex   -1.322073e+01 2.639006e+01 2.000000e+00
      vertex   -1.087500e+01 2.644856e+01 2.000000e+00
      vertex   -1.302647e+01 2.650221e+01 2.000000e+00
    endloop
  endfacet
  facet normal 0.000000e+00 -0.000000e+00 1.000000e+00
    outer loop
      vertex   -1.302647e+01 2.650221e+01 2.000000e+00
      vertex   -1.107460e+01 2.655089e+01 2.000000e+00
      vertex   -1.282202e+01 2.659447e+01 2.000000e+00
    endloop
  endfacet
  facet normal 0.000000e+00 -0.000000e+00 1.000000e+00
    outer loop
      vertex   -1.282202e+01 2.659447e+01 2.000000e+00
      vertex   -1.128341e+01 2.663284e+01 2.000000e+00
      vertex   -1.260939e+01 2.666590e+01 2.000000e+00
    endloop
  endfacet
  facet normal 0.000000e+00 -0.000000e+00 1.000000e+00
    outer loop
      vertex   -1.260939e+01 2.666590e+01 2.000000e+00
      vertex   -1.149933e+01 2.669359e+01 2.000000e+00
      vertex   -1.239071e+01 2.671582e+01 2.000000e+00
    endloop
  endfacet
  facet normal 9.987569e-01 -4.984589e-02 0.000000e+00
    outer loop
      vertex   -1.423882e+01 2.472403e+01 2.000000e+00
      vertex   -1.423882e+01 2.472403e+01 3.000000e+00
      vertex   -1.425000e+01 2.450000e+01 2.000000e+00
    endloop
  endfacet
  facet normal 9.888308e-01 -1.490423e-01 0.000000e+00
    outer loop
      vertex   -1.423882e+01 2.472403e+01 2.000000e+00
      vertex   -1.420539e+01 2.494583e+01 3.000000e+00
      vertex   -1.423882e+01 2.472403e+01 3.000000e+00
    endloop
  endfacet
  facet normal 9.888308e-01 -1.490423e-01 0.000000e+00
    outer loop
      vertex   -1.423882e+01 2.472403e+01 2.000000e+00
      vertex   -1.420539e+01 2.494583e+01 2.000000e+00
      vertex   -1.420539e+01 2.494583e+01 3.000000e+00
    endloop
  endfacet
  facet normal 9.690773e-01 -2.467574e-01 0.000000e+00
    outer loop
      vertex   -1.420539e+01 2.494583e+01 3.000000e+00
      vertex   -1.420539e+01 2.494583e+01 2.000000e+00
      vertex   -1.415004e+01 2.516320e+01 3.000000e+00
    endloop
  endfacet
  facet normal 9.690773e-01 -2.467574e-01 0.000000e+00
    outer loop
      vertex   -1.415004e+01 2.516320e+01 3.000000e+00
      vertex   -1.420539e+01 2.494583e+01 2.000000e+00
      vertex   -1.415004e+01 2.516320e+01 2.000000e+00
    endloop
  endfacet
  facet normal 9.396926e-01 -3.420201e-01 0.000000e+00
    outer loop
      vertex   -1.407332e+01 2.537398e+01 3.000000e+00
      vertex   -1.415004e+01 2.516320e+01 2.000000e+00
      vertex   -1.407332e+01 2.537398e+01 2.000000e+00
    endloop
  endfacet
  facet normal 9.009689e-01 -4.338837e-01 0.000000e+00
    outer loop
      vertex   -1.397600e+01 2.557607e+01 3.000000e+00
      vertex   -1.407332e+01 2.537398e+01 2.000000e+00
      vertex   -1.397600e+01 2.557607e+01 2.000000e+00
    endloop
  endfacet
  facet normal 8.532909e-01 -5.214352e-01 0.000000e+00
    outer loop
      vertex   -1.385904e+01 2.576747e+01 3.000000e+00
      vertex   -1.397600e+01 2.557607e+01 2.000000e+00
      vertex   -1.385904e+01 2.576747e+01 2.000000e+00
    endloop
  endfacet
  facet normal 7.971325e-01 -6.038044e-01 0.000000e+00
    outer loop
      vertex   -1.372360e+01 2.594627e+01 3.000000e+00
      vertex   -1.385904e+01 2.576747e+01 2.000000e+00
      vertex   -1.372360e+01 2.594627e+01 2.000000e+00
    endloop
  endfacet
  facet normal 7.330519e-01 -6.801727e-01 0.000000e+00
    outer loop
      vertex   -1.357103e+01 2.611070e+01 3.000000e+00
      vertex   -1.372360e+01 2.594627e+01 2.000000e+00
      vertex   -1.357103e+01 2.611070e+01 2.000000e+00
    endloop
  endfacet
  facet normal 6.616858e-01 -7.497812e-01 0.000000e+00
    outer loop
      vertex   -1.340285e+01 2.625912e+01 3.000000e+00
      vertex   -1.357103e+01 2.611070e+01 2.000000e+00
      vertex   -1.340285e+01 2.625912e+01 2.000000e+00
    endloop
  endfacet
  facet normal 5.837437e-01 -8.119380e-01 0.000000e+00
    outer loop
      vertex   -1.322073e+01 2.639006e+01 3.000000e+00
      vertex   -1.340285e+01 2.625912e+01 2.000000e+00
      vertex   -1.322073e+01 2.639006e+01 2.000000e+00
    endloop
  endfacet
  facet normal 5.000000e-01 -8.660254e-01 0.000000e+00
    outer loop
      vertex   -1.302647e+01 2.650221e+01 3.000000e+00
      vertex   -1.322073e+01 2.639006e+01 2.000000e+00
      vertex   -1.302647e+01 2.650221e+01 2.000000e+00
    endloop
  endfacet
  facet normal 4.112871e-01 -9.115059e-01 0.000000e+00
    outer loop
      vertex   -1.282202e+01 2.659447e+01 3.000000e+00
      vertex   -1.302647e+01 2.650221e+01 2.000000e+00
      vertex   -1.282202e+01 2.659447e+01 2.000000e+00
    endloop
  endfacet
  facet normal 3.184867e-01 -9.479273e-01 0.000000e+00
    outer loop
      vertex   -1.260939e+01 2.666590e+01 3.000000e+00
      vertex   -1.282202e+01 2.659447e+01 2.000000e+00
      vertex   -1.260939e+01 2.666590e+01 2.000000e+00
    endloop
  endfacet
  facet normal 2.225209e-01 -9.749279e-01 0.000000e+00
    outer loop
      vertex   -1.239071e+01 2.671582e+01 3.000000e+00
      vertex   -1.260939e+01 2.666590e+01 2.000000e+00
      vertex   -1.239071e+01 2.671582e+01 2.000000e+00
    endloop
  endfacet
  facet normal 1.243437e-01 -9.922392e-01 0.000000e+00
    outer loop
      vertex   -1.216814e+01 2.674371e+01 3.000000e+00
      vertex   -1.239071e+01 2.671582e+01 2.000000e+00
      vertex   -1.216814e+01 2.674371e+01 2.000000e+00
    endloop
  endfacet
  facet normal 2.493069e-02 -9.996892e-01 0.000000e+00
    outer loop
      vertex   -1.194391e+01 2.674930e+01 3.000000e+00
      vertex   -1.216814e+01 2.674371e+01 2.000000e+00
      vertex   -1.194391e+01 2.674930e+01 2.000000e+00
    endloop
  endfacet
  facet normal -7.473009e-02 -9.972038e-01 0.000000e+00
    outer loop
      vertex   -1.172023e+01 2.673254e+01 3.000000e+00
      vertex   -1.194391e+01 2.674930e+01 2.000000e+00
      vertex   -1.172023e+01 2.673254e+01 2.000000e+00
    endloop
  endfacet
  facet normal -1.736482e-01 -9.848078e-01 0.000000e+00
    outer loop
      vertex   -1.149933e+01 2.669359e+01 3.000000e+00
      vertex   -1.172023e+01 2.673254e+01 2.000000e+00
      vertex   -1.149933e+01 2.669359e+01 2.000000e+00
    endloop
  endfacet
  facet normal -2.708405e-01 -9.626242e-01 0.000000e+00
    outer loop
      vertex   -1.128341e+01 2.663284e+01 3.000000e+00
      vertex   -1.149933e+01 2.669359e+01 2.000000e+00
      vertex   -1.128341e+01 2.663284e+01 2.000000e+00
    endloop
  endfacet
  facet normal -3.653410e-01 -9.308737e-01 0.000000e+00
    outer loop
      vertex   -1.107460e+01 2.655089e+01 3.000000e+00
      vertex   -1.128341e+01 2.663284e+01 2.000000e+00
      vertex   -1.107460e+01 2.655089e+01 2.000000e+00
    endloop
  endfacet
  facet normal -4.562107e-01 -8.898718e-01 0.000000e+00
    outer loop
      vertex   -1.087500e+01 2.644856e+01 3.000000e+00
      vertex   -1.107460e+01 2.655089e+01 2.000000e+00
      vertex   -1.087500e+01 2.644856e+01 2.000000e+00
    endloop
  endfacet
  facet normal -5.425463e-01 -8.400259e-01 0.000000e+00
    outer loop
      vertex   -1.068658e+01 2.632686e+01 3.000000e+00
      vertex   -1.087500e+01 2.644856e+01 2.000000e+00
      vertex   -1.068658e+01 2.632686e+01 2.000000e+00
    endloop
  endfacet
  facet normal -6.234898e-01 -7.818315e-01 0.000000e+00
    outer loop
      vertex   -1.051121e+01 2.618701e+01 3.000000e+00
      vertex   -1.068658e+01 2.632686e+01 2.000000e+00
      vertex   -1.051121e+01 2.618701e+01 2.000000e+00
    endloop
  endfacet
  facet normal -6.982368e-01 -7.158668e-01 0.000000e+00
    outer loop
      vertex   -1.035063e+01 2.603039e+01 3.000000e+00
      vertex   -1.051121e+01 2.618701e+01 2.000000e+00
      vertex   -1.035063e+01 2.603039e+01 2.000000e+00
    endloop
  endfacet
  facet normal -7.660444e-01 -6.427876e-01 0.000000e+00
    outer loop
      vertex   -1.020645e+01 2.585856e+01 3.000000e+00
      vertex   -1.035063e+01 2.603039e+01 2.000000e+00
      vertex   -1.020645e+01 2.585856e+01 2.000000e+00
    endloop
  endfacet
  facet normal -8.262388e-01 -5.633201e-01 0.000000e+00
    outer loop
      vertex   -1.008010e+01 2.567323e+01 3.000000e+00
      vertex   -1.020645e+01 2.585856e+01 2.000000e+00
      vertex   -1.008010e+01 2.567323e+01 2.000000e+00
    endloop
  endfacet
  facet normal -8.782216e-01 -4.782540e-01 0.000000e+00
    outer loop
      vertex   -9.972820e+00 2.547624e+01 3.000000e+00
      vertex   -1.008010e+01 2.567323e+01 2.000000e+00
      vertex   -9.972820e+00 2.547624e+01 2.000000e+00
    endloop
  endfacet
  facet normal -9.214762e-01 -3.884348e-01 0.000000e+00
    outer loop
      vertex   -9.885692e+00 2.526955e+01 3.000000e+00
      vertex   -9.972820e+00 2.547624e+01 2.000000e+00
      vertex   -9.885692e+00 2.526955e+01 2.000000e+00
    endloop
  endfacet
  facet normal -9.555728e-01 -2.947552e-01 0.000000e+00
    outer loop
      vertex   -9.819576e+00 2.505520e+01 3.000000e+00
      vertex   -9.885692e+00 2.526955e+01 2.000000e+00
      vertex   -9.819576e+00 2.505520e+01 2.000000e+00
    endloop
  endfacet
  facet normal -9.801725e-01 -1.981461e-01 0.000000e+00
    outer loop
      vertex   -9.775131e+00 2.483535e+01 3.000000e+00
      vertex   -9.819576e+00 2.505520e+01 2.000000e+00
      vertex   -9.775131e+00 2.483535e+01 2.000000e+00
    endloop
  endfacet
  facet normal -9.950308e-01 -9.956785e-02 0.000000e+00
    outer loop
      vertex   -9.752797e+00 2.461215e+01 3.000000e+00
      vertex   -9.775131e+00 2.483535e+01 2.000000e+00
      vertex   -9.752797e+00 2.461215e+01 2.000000e+00
    endloop
  endfacet
  facet normal -1.000000e+00 -0.000000e+00 -0.000000e+00
    outer loop
      vertex   -9.752797e+00 2.438785e+01 3.000000e+00
      vertex   -9.752797e+00 2.461215e+01 2.000000e+00
      vertex   -9.752797e+00 2.438785e+01 2.000000e+00
    endloop
  endfacet
  facet normal -9.950308e-01 9.956785e-02 0.000000e+00
    outer loop
      vertex   -9.775131e+00 2.416465e+01 3.000000e+00
      vertex   -9.752797e+00 2.438785e+01 2.000000e+00
      vertex   -9.775131e+00 2.416465e+01 2.000000e+00
    endloop
  endfacet
  facet normal -9.801725e-01 1.981461e-01 0.000000e+00
    outer loop
      vertex   -9.819576e+00 2.394480e+01 3.000000e+00
      vertex   -9.775131e+00 2.416465e+01 2.000000e+00
      vertex   -9.819576e+00 2.394480e+01 2.000000e+00
    endloop
  endfacet
  facet normal -9.555728e-01 2.947552e-01 0.000000e+00
    outer loop
      vertex   -9.885692e+00 2.373045e+01 3.000000e+00
      vertex   -9.819576e+00 2.394480e+01 2.000000e+00
      vertex   -9.885692e+00 2.373045e+01 2.000000e+00
    endloop
  endfacet
  facet normal -9.214762e-01 3.884348e-01 0.000000e+00
    outer loop
      vertex   -9.972820e+00 2.352376e+01 3.000000e+00
      vertex   -9.885692e+00 2.373045e+01 2.000000e+00
      vertex   -9.972820e+00 2.352376e+01 2.000000e+00
    endloop
  endfacet
  facet normal -8.782216e-01 4.782540e-01 0.000000e+00
    outer loop
      vertex   -1.008010e+01 2.332677e+01 3.000000e+00
      vertex   -9.972820e+00 2.352376e+01 2.000000e+00
      vertex   -1.008010e+01 2.332677e+01 2.000000e+00
    endloop
  endfacet
  facet normal -8.262388e-01 5.633201e-01 0.000000e+00
    outer loop
      vertex   -1.020645e+01 2.314144e+01 3.000000e+00
      vertex   -1.008010e+01 2.332677e+01 2.000000e+00
      vertex   -1.020645e+01 2.314144e+01 2.000000e+00
    endloop
  endfacet
  facet normal -7.660444e-01 6.427876e-01 0.000000e+00
    outer loop
      vertex   -1.035063e+01 2.296961e+01 3.000000e+00
      vertex   -1.020645e+01 2.314144e+01 2.000000e+00
      vertex   -1.035063e+01 2.296961e+01 2.000000e+00
    endloop
  endfacet
  facet normal -6.982368e-01 7.158668e-01 0.000000e+00
    outer loop
      vertex   -1.051121e+01 2.281299e+01 3.000000e+00
      vertex   -1.035063e+01 2.296961e+01 2.000000e+00
      vertex   -1.051121e+01 2.281299e+01 2.000000e+00
    endloop
  endfacet
  facet normal -6.234898e-01 7.818315e-01 0.000000e+00
    outer loop
      vertex   -1.068658e+01 2.267314e+01 3.000000e+00
      vertex   -1.051121e+01 2.281299e+01 2.000000e+00
      vertex   -1.068658e+01 2.267314e+01 2.000000e+00
    endloop
  endfacet
  facet normal -5.425463e-01 8.400259e-01 0.000000e+00
    outer loop
      vertex   -1.087500e+01 2.255144e+01 3.000000e+00
      vertex   -1.068658e+01 2.267314e+01 2.000000e+00
      vertex   -1.087500e+01 2.255144e+01 2.000000e+00
    endloop
  endfacet
  facet normal -4.562107e-01 8.898718e-01 0.000000e+00
    outer loop
      vertex   -1.107460e+01 2.244911e+01 3.000000e+00
      vertex   -1.087500e+01 2.255144e+01 2.000000e+00
      vertex   -1.107460e+01 2.244911e+01 2.000000e+00
    endloop
  endfacet
  facet normal -3.653410e-01 9.308737e-01 0.000000e+00
    outer loop
      vertex   -1.128341e+01 2.236716e+01 3.000000e+00
      vertex   -1.107460e+01 2.244911e+01 2.000000e+00
      vertex   -1.128341e+01 2.236716e+01 2.000000e+00
    endloop
  endfacet
  facet normal -2.708405e-01 9.626242e-01 0.000000e+00
    outer loop
      vertex   -1.149933e+01 2.230641e+01 3.000000e+00
      vertex   -1.128341e+01 2.236716e+01 2.000000e+00
      vertex   -1.149933e+01 2.230641e+01 2.000000e+00
    endloop
  endfacet
  facet normal -1.736482e-01 9.848078e-01 0.000000e+00
    outer loop
      vertex   -1.172023e+01 2.226746e+01 3.000000e+00
      vertex   -1.149933e+01 2.230641e+01 2.000000e+00
      vertex   -1.172023e+01 2.226746e+01 2.000000e+00
    endloop
  endfacet
  facet normal -7.473009e-02 9.972038e-01 0.000000e+00
    outer loop
      vertex   -1.194391e+01 2.225070e+01 3.000000e+00
      vertex   -1.172023e+01 2.226746e+01 2.000000e+00
      vertex   -1.194391e+01 2.225070e+01 2.000000e+00
    endloop
  endfacet
  facet normal 2.493069e-02 9.996892e-01 0.000000e+00
    outer loop
      vertex   -1.216814e+01 2.225629e+01 3.000000e+00
      vertex   -1.194391e+01 2.225070e+01 2.000000e+00
      vertex   -1.216814e+01 2.225629e+01 2.000000e+00
    endloop
  endfacet
  facet normal 1.243437e-01 9.922392e-01 0.000000e+00
    outer loop
      vertex   -1.239071e+01 2.228418e+01 3.000000e+00
      vertex   -1.216814e+01 2.225629e+01 2.000000e+00
      vertex   -1.239071e+01 2.228418e+01 2.000000e+00
    endloop
  endfacet
  facet normal 2.225209e-01 9.749279e-01 0.000000e+00
    outer loop
      vertex   -1.260939e+01 2.233410e+01 3.000000e+00
      vertex   -1.239071e+01 2.228418e+01 2.000000e+00
      vertex   -1.260939e+01 2.233410e+01 2.000000e+00
    endloop
  endfacet
  facet normal 3.184867e-01 9.479273e-01 0.000000e+00
    outer loop
      vertex   -1.282202e+01 2.240553e+01 3.000000e+00
      vertex   -1.260939e+01 2.233410e+01 2.000000e+00
      vertex   -1.282202e+01 2.240553e+01 2.000000e+00
    endloop
  endfacet
  facet normal 4.112871e-01 9.115059e-01 0.000000e+00
    outer loop
      vertex   -1.302647e+01 2.249779e+01 3.000000e+00
      vertex   -1.282202e+01 2.240553e+01 2.000000e+00
      vertex   -1.302647e+01 2.249779e+01 2.000000e+00
    endloop
  endfacet
  facet normal 5.000000e-01 8.660254e-01 0.000000e+00
    outer loop
      vertex   -1.322073e+01 2.260994e+01 3.000000e+00
      vertex   -1.302647e+01 2.249779e+01 2.000000e+00
      vertex   -1.322073e+01 2.260994e+01 2.000000e+00
    endloop
  endfacet
  facet normal 5.837437e-01 8.119380e-01 0.000000e+00
    outer loop
      vertex   -1.340285e+01 2.274088e+01 3.000000e+00
      vertex   -1.322073e+01 2.260994e+01 2.000000e+00
      vertex   -1.340285e+01 2.274088e+01 2.000000e+00
    endloop
  endfacet
  facet normal 6.616858e-01 7.497812e-01 0.000000e+00
    outer loop
      vertex   -1.357103e+01 2.288930e+01 3.000000e+00
      vertex   -1.340285e+01 2.274088e+01 2.000000e+00
      vertex   -1.357103e+01 2.288930e+01 2.000000e+00
    endloop
  endfacet
  facet normal 7.330519e-01 6.801727e-01 0.000000e+00
    outer loop
      vertex   -1.372360e+01 2.305373e+01 3.000000e+00
      vertex   -1.357103e+01 2.288930e+01 2.000000e+00
      vertex   -1.372360e+01 2.305373e+01 2.000000e+00
    endloop
  endfacet
  facet normal 7.971325e-01 6.038044e-01 0.000000e+00
    outer loop
      vertex   -1.385904e+01 2.323253e+01 3.000000e+00
      vertex   -1.372360e+01 2.305373e+01 2.000000e+00
      vertex   -1.385904e+01 2.323253e+01 2.000000e+00
    endloop
  endfacet
  facet normal 8.532909e-01 5.214352e-01 0.000000e+00
    outer loop
      vertex   -1.397600e+01 2.342393e+01 3.000000e+00
      vertex   -1.385904e+01 2.323253e+01 2.000000e+00
      vertex   -1.397600e+01 2.342393e+01 2.000000e+00
    endloop
  endfacet
  facet normal 9.009689e-01 4.338837e-01 0.000000e+00
    outer loop
      vertex   -1.407332e+01 2.362602e+01 3.000000e+00
      vertex   -1.397600e+01 2.342393e+01 2.000000e+00
      vertex   -1.407332e+01 2.362602e+01 2.000000e+00
    endloop
  endfacet
  facet normal 9.396926e-01 3.420201e-01 0.000000e+00
    outer loop
      vertex   -1.415004e+01 2.383680e+01 3.000000e+00
      vertex   -1.407332e+01 2.362602e+01 2.000000e+00
      vertex   -1.415004e+01 2.383680e+01 2.000000e+00
    endloop
  endfacet
  facet normal 9.690773e-01 2.467574e-01 0.000000e+00
    outer loop
      vertex   -1.420539e+01 2.405417e+01 3.000000e+00
      vertex   -1.415004e+01 2.383680e+01 2.000000e+00
      vertex   -1.420539e+01 2.405417e+01 2.000000e+00
    endloop
  endfacet
  facet normal 9.888308e-01 1.490423e-01 0.000000e+00
    outer loop
      vertex   -1.423882e+01 2.427597e+01 3.000000e+00
      vertex   -1.420539e+01 2.405417e+01 2.000000e+00
      vertex   -1.423882e+01 2.427597e+01 2.000000e+00
    endloop
  endfacet
  facet normal 9.987569e-01 4.984589e-02 0.000000e+00
    outer loop
      vertex   -1.425000e+01 2.450000e+01 3.000000e+00
      vertex   -1.423882e+01 2.427597e+01 2.000000e+00
      vertex   -1.425000e+01 2.450000e+01 2.000000e+00
    endloop
  endfacet
  facet normal 9.987569e-01 -4.984589e-02 0.000000e+00
    outer loop
      vertex   -1.423882e+01 2.472403e+01 3.000000e+00
      vertex   -1.425000e+01 2.450000e+01 3.000000e+00
      vertex   -1.425000e+01 2.450000e+01 2.000000e+00
    endloop
  endfacet
  facet normal 9.396926e-01 -3.420201e-01 0.000000e+00
    outer loop
      vertex   -1.415004e+01 2.516320e+01 3.000000e+00
      vertex   -1.415004e+01 2.516320e+01 2.000000e+00
      vertex   -1.407332e+01 2.537398e+01 3.000000e+00
    endloop
  endfacet
  facet normal 9.009689e-01 -4.338837e-01 0.000000e+00
    outer loop
      vertex   -1.407332e+01 2.537398e+01 3.000000e+00
      vertex   -1.407332e+01 2.537398e+01 2.000000e+00
      vertex   -1.397600e+01 2.557607e+01 3.000000e+00
    endloop
  endfacet
  facet normal 8.532909e-01 -5.214352e-01 0.000000e+00
    outer loop
      vertex   -1.397600e+01 2.557607e+01 3.000000e+00
      vertex   -1.397600e+01 2.557607e+01 2.000000e+00
      vertex   -1.385904e+01 2.576747e+01 3.000000e+00
    endloop
  endfacet
  facet normal 7.971325e-01 -6.038044e-01 0.000000e+00
    outer loop
      vertex   -1.385904e+01 2.576747e+01 3.000000e+00
      vertex   -1.385904e+01 2.576747e+01 2.000000e+00
      vertex   -1.372360e+01 2.594627e+01 3.000000e+00
    endloop
  endfacet
  facet normal 7.330519e-01 -6.801727e-01 0.000000e+00
    outer loop
      vertex   -1.372360e+01 2.594627e+01 3.000000e+00
      vertex   -1.372360e+01 2.594627e+01 2.000000e+00
      vertex   -1.357103e+01 2.611070e+01 3.000000e+00
    endloop
  endfacet
  facet normal 6.616858e-01 -7.497812e-01 0.000000e+00
    outer loop
      vertex   -1.357103e+01 2.611070e+01 3.000000e+00
      vertex   -1.357103e+01 2.611070e+01 2.000000e+00
      vertex   -1.340285e+01 2.625912e+01 3.000000e+00
    endloop
  endfacet
  facet normal 5.837437e-01 -8.119380e-01 0.000000e+00
    outer loop
      vertex   -1.340285e+01 2.625912e+01 3.000000e+00
      vertex   -1.340285e+01 2.625912e+01 2.000000e+00
      vertex   -1.322073e+01 2.639006e+01 3.000000e+00
    endloop
  endfacet
  facet normal 5.000000e-01 -8.660254e-01 0.000000e+00
    outer loop
      vertex   -1.322073e+01 2.639006e+01 3.000000e+00
      vertex   -1.322073e+01 2.639006e+01 2.000000e+00
      vertex   -1.302647e+01 2.650221e+01 3.000000e+00
    endloop
  endfacet
  facet normal 4.112871e-01 -9.115059e-01 0.000000e+00
    outer loop
      vertex   -1.302647e+01 2.650221e+01 3.000000e+00
      vertex   -1.302647e+01 2.650221e+01 2.000000e+00
      vertex   -1.282202e+01 2.659447e+01 3.000000e+00
    endloop
  endfacet
  facet normal 3.184867e-01 -9.479273e-01 0.000000e+00
    outer loop
      vertex   -1.282202e+01 2.659447e+01 3.000000e+00
      vertex   -1.282202e+01 2.659447e+01 2.000000e+00
      vertex   -1.260939e+01 2.666590e+01 3.000000e+00
    endloop
  endfacet
  facet normal 2.225209e-01 -9.749279e-01 0.000000e+00
    outer loop
      vertex   -1.260939e+01 2.666590e+01 3.000000e+00
      vertex   -1.260939e+01 2.666590e+01 2.000000e+00
      vertex   -1.239071e+01 2.671582e+01 3.000000e+00
    endloop
  endfacet
  facet normal 1.243437e-01 -9.922392e-01 0.000000e+00
    outer loop
      vertex   -1.239071e+01 2.671582e+01 3.000000e+00
      vertex   -1.239071e+01 2.671582e+01 2.000000e+00
      vertex   -1.216814e+01 2.674371e+01 3.000000e+00
    endloop
  endfacet
  facet normal 2.493069e-02 -9.996892e-01 0.000000e+00
    outer loop
      vertex   -1.216814e+01 2.674371e+01 3.000000e+00
      vertex   -1.216814e+01 2.674371e+01 2.000000e+00
      vertex   -1.194391e+01 2.674930e+01 3.000000e+00
    endloop
  endfacet
  facet normal -7.473009e-02 -9.972038e-01 -0.000000e+00
    outer loop
      vertex   -1.194391e+01 2.674930e+01 3.000000e+00
      vertex   -1.194391e+01 2.674930e+01 2.000000e+00
      vertex   -1.172023e+01 2.673254e+01 3.000000e+00
    endloop
  endfacet
  facet normal -1.736482e-01 -9.848078e-01 -0.000000e+00
    outer loop
      vertex   -1.172023e+01 2.673254e+01 3.000000e+00
      vertex   -1.172023e+01 2.673254e+01 2.000000e+00
      vertex   -1.149933e+01 2.669359e+01 3.000000e+00
    endloop
  endfacet
  facet normal -2.708405e-01 -9.626242e-01 -0.000000e+00
    outer loop
      vertex   -1.149933e+01 2.669359e+01 3.000000e+00
      vertex   -1.149933e+01 2.669359e+01 2.000000e+00
      vertex   -1.128341e+01 2.663284e+01 3.000000e+00
    endloop
  endfacet
  facet normal -3.653410e-01 -9.308737e-01 -0.000000e+00
    outer loop
      vertex   -1.128341e+01 2.663284e+01 3.000000e+00
      vertex   -1.128341e+01 2.663284e+01 2.000000e+00
      vertex   -1.107460e+01 2.655089e+01 3.000000e+00
    endloop
  endfacet
  facet normal -4.562107e-01 -8.898718e-01 -0.000000e+00
    outer loop
      vertex   -1.107460e+01 2.655089e+01 3.000000e+00
      vertex   -1.107460e+01 2.655089e+01 2.000000e+00
      vertex   -1.087500e+01 2.644856e+01 3.000000e+00
    endloop
  endfacet
  facet normal -5.425463e-01 -8.400259e-01 -0.000000e+00
    outer loop
      vertex   -1.087500e+01 2.644856e+01 3.000000e+00
      vertex   -1.087500e+01 2.644856e+01 2.000000e+00
      vertex   -1.068658e+01 2.632686e+01 3.000000e+00
    endloop
  endfacet
  facet normal -6.234898e-01 -7.818315e-01 -0.000000e+00
    outer loop
      vertex   -1.068658e+01 2.632686e+01 3.000000e+00
      vertex   -1.068658e+01 2.632686e+01 2.000000e+00
      vertex   -1.051121e+01 2.618701e+01 3.000000e+00
    endloop
  endfacet
  facet normal -6.982368e-01 -7.158668e-01 -0.000000e+00
    outer loop
      vertex   -1.051121e+01 2.618701e+01 3.000000e+00
      vertex   -1.051121e+01 2.618701e+01 2.000000e+00
      vertex   -1.035063e+01 2.603039e+01 3.000000e+00
    endloop
  endfacet
  facet normal -7.660444e-01 -6.427876e-01 -0.000000e+00
    outer loop
      vertex   -1.035063e+01 2.603039e+01 3.000000e+00
      vertex   -1.035063e+01 2.603039e+01 2.000000e+00
      vertex   -1.020645e+01 2.585856e+01 3.000000e+00
    endloop
  endfacet
  facet normal -8.262388e-01 -5.633201e-01 -0.000000e+00
    outer loop
      vertex   -1.020645e+01 2.585856e+01 3.000000e+00
      vertex   -1.020645e+01 2.585856e+01 2.000000e+00
      vertex   -1.008010e+01 2.567323e+01 3.000000e+00
    endloop
  endfacet
  facet normal -8.782216e-01 -4.782540e-01 -0.000000e+00
    outer loop
      vertex   -1.008010e+01 2.567323e+01 3.000000e+00
      vertex   -1.008010e+01 2.567323e+01 2.000000e+00
      vertex   -9.972820e+00 2.547624e+01 3.000000e+00
    endloop
  endfacet
  facet normal -9.214762e-01 -3.884348e-01 -0.000000e+00
    outer loop
      vertex   -9.972820e+00 2.547624e+01 3.000000e+00
      vertex   -9.972820e+00 2.547624e+01 2.000000e+00
      vertex   -9.885692e+00 2.526955e+01 3.000000e+00
    endloop
  endfacet
  facet normal -9.555728e-01 -2.947552e-01 -0.000000e+00
    outer loop
      vertex   -9.885692e+00 2.526955e+01 3.000000e+00
      vertex   -9.885692e+00 2.526955e+01 2.000000e+00
      vertex   -9.819576e+00 2.505520e+01 3.000000e+00
    endloop
  endfacet
  facet normal -9.801725e-01 -1.981461e-01 -0.000000e+00
    outer loop
      vertex   -9.819576e+00 2.505520e+01 3.000000e+00
      vertex   -9.819576e+00 2.505520e+01 2.000000e+00
      vertex   -9.775131e+00 2.483535e+01 3.000000e+00
    endloop
  endfacet
  facet normal -9.950308e-01 -9.956785e-02 -0.000000e+00
    outer loop
      vertex   -9.775131e+00 2.483535e+01 3.000000e+00
      vertex   -9.775131e+00 2.483535e+01 2.000000e+00
      vertex   -9.752797e+00 2.461215e+01 3.000000e+00
    endloop
  endfacet
  facet normal -1.000000e+00 -0.000000e+00 -0.000000e+00
    outer loop
      vertex   -9.752797e+00 2.461215e+01 3.000000e+00
      vertex   -9.752797e+00 2.461215e+01 2.000000e+00
      vertex   -9.752797e+00 2.438785e+01 3.000000e+00
    endloop
  endfacet
  facet normal -9.950308e-01 9.956785e-02 0.000000e+00
    outer loop
      vertex   -9.752797e+00 2.438785e+01 3.000000e+00
      vertex   -9.752797e+00 2.438785e+01 2.000000e+00
      vertex   -9.775131e+00 2.416465e+01 3.000000e+00
    endloop
  endfacet
  facet normal -9.801725e-01 1.981461e-01 0.000000e+00
    outer loop
      vertex   -9.775131e+00 2.416465e+01 3.000000e+00
      vertex   -9.775131e+00 2.416465e+01 2.000000e+00
      vertex   -9.819576e+00 2.394480e+01 3.000000e+00
    endloop
  endfacet
  facet normal -9.555728e-01 2.947552e-01 0.000000e+00
    outer loop
      vertex   -9.819576e+00 2.394480e+01 3.000000e+00
      vertex   -9.819576e+00 2.394480e+01 2.000000e+00
      vertex   -9.885692e+00 2.373045e+01 3.000000e+00
    endloop
  endfacet
  facet normal -9.214762e-01 3.884348e-01 0.000000e+00
    outer loop
      vertex   -9.885692e+00 2.373045e+01 3.000000e+00
      vertex   -9.885692e+00 2.373045e+01 2.000000e+00
      vertex   -9.972820e+00 2.352376e+01 3.000000e+00
    endloop
  endfacet
  facet normal -8.782216e-01 4.782540e-01 0.000000e+00
    outer loop
      vertex   -9.972820e+00 2.352376e+01 3.000000e+00
      vertex   -9.972820e+00 2.352376e+01 2.000000e+00
      vertex   -1.008010e+01 2.332677e+01 3.000000e+00
    endloop
  endfacet
  facet normal -8.262388e-01 5.633201e-01 0.000000e+00
    outer loop
      vertex   -1.008010e+01 2.332677e+01 3.000000e+00
      vertex   -1.008010e+01 2.332677e+01 2.000000e+00
      vertex   -1.020645e+01 2.314144e+01 3.000000e+00
    endloop
  endfacet
  facet normal -7.660444e-01 6.427876e-01 0.000000e+00
    outer loop
      vertex   -1.020645e+01 2.314144e+01 3.000000e+00
      vertex   -1.020645e+01 2.314144e+01 2.000000e+00
      vertex   -1.035063e+01 2.296961e+01 3.000000e+00
    endloop
  endfacet
  facet normal -6.982368e-01 7.158668e-01 0.000000e+00
    outer loop
      vertex   -1.035063e+01 2.296961e+01 3.000000e+00
      vertex   -1.035063e+01 2.296961e+01 2.000000e+00
      vertex   -1.051121e+01 2.281299e+01 3.000000e+00
    endloop
  endfacet
  facet normal -6.234898e-01 7.818315e-01 0.000000e+00
    outer loop
      vertex   -1.051121e+01 2.281299e+01 3.000000e+00
      vertex   -1.051121e+01 2.281299e+01 2.000000e+00
      vertex   -1.068658e+01 2.267314e+01 3.000000e+00
    endloop
  endfacet
  facet normal -5.425463e-01 8.400259e-01 0.000000e+00
    outer loop
      vertex   -1.068658e+01 2.267314e+01 3.000000e+00
      vertex   -1.068658e+01 2.267314e+01 2.000000e+00
      vertex   -1.087500e+01 2.255144e+01 3.000000e+00
    endloop
  endfacet
  facet normal -4.562107e-01 8.898718e-01 0.000000e+00
    outer loop
      vertex   -1.087500e+01 2.255144e+01 3.000000e+00
      vertex   -1.087500e+01 2.255144e+01 2.000000e+00
      vertex   -1.107460e+01 2.244911e+01 3.000000e+00
    endloop
  endfacet
  facet normal -3.653410e-01 9.308737e-01 0.000000e+00
    outer loop
      vertex   -1.107460e+01 2.244911e+01 3.000000e+00
      vertex   -1.107460e+01 2.244911e+01 2.000000e+00
      vertex   -1.128341e+01 2.236716e+01 3.000000e+00
    endloop
  endfacet
  facet normal -2.708405e-01 9.626242e-01 0.000000e+00
    outer loop
      vertex   -1.128341e+01 2.236716e+01 3.000000e+00
      vertex   -1.128341e+01 2.236716e+01 2.000000e+00
      vertex   -1.149933e+01 2.230641e+01 3.000000e+00
    endloop
  endfacet
  facet normal -1.736482e-01 9.848078e-01 0.000000e+00
    outer loop
      vertex   -1.149933e+01 2.230641e+01 3.000000e+00
      vertex   -1.149933e+01 2.230641e+01 2.000000e+00
      vertex   -1.172023e+01 2.226746e+01 3.000000e+00
    endloop
  endfacet
  facet normal -7.473009e-02 9.972038e-01 0.000000e+00
    outer loop
      vertex   -1.172023e+01 2.226746e+01 3.000000e+00
      vertex   -1.172023e+01 2.226746e+01 2.000000e+00
      vertex   -1.194391e+01 2.225070e+01 3.000000e+00
    endloop
  endfacet
  facet normal 2.493069e-02 9.996892e-01 0.000000e+00
    outer loop
      vertex   -1.194391e+01 2.225070e+01 3.000000e+00
      vertex   -1.194391e+01 2.225070e+01 2.000000e+00
      vertex   -1.216814e+01 2.225629e+01 3.000000e+00
    endloop
  endfacet
  facet normal 1.243437e-01 9.922392e-01 0.000000e+00
    outer loop
      vertex   -1.216814e+01 2.225629e+01 3.000000e+00
      vertex   -1.216814e+01 2.225629e+01 2.000000e+00
      vertex   -1.239071e+01 2.228418e+01 3.000000e+00
    endloop
  endfacet
  facet normal 2.225209e-01 9.749279e-01 0.000000e+00
    outer loop
      vertex   -1.239071e+01 2.228418e+01 3.000000e+00
      vertex   -1.239071e+01 2.228418e+01 2.000000e+00
      vertex   -1.260939e+01 2.233410e+01 3.000000e+00
    endloop
  endfacet
  facet normal 3.184867e-01 9.479273e-01 0.000000e+00
    outer loop
      vertex   -1.260939e+01 2.233410e+01 3.000000e+00
      vertex   -1.260939e+01 2.233410e+01 2.000000e+00
      vertex   -1.282202e+01 2.240553e+01 3.000000e+00
    endloop
  endfacet
  facet normal 4.112871e-01 9.115059e-01 0.000000e+00
    outer loop
      vertex   -1.282202e+01 2.240553e+01 3.000000e+00
      vertex   -1.282202e+01 2.240553e+01 2.000000e+00
      vertex   -1.302647e+01 2.249779e+01 3.000000e+00
    endloop
  endfacet
  facet normal 5.000000e-01 8.660254e-01 0.000000e+00
    outer loop
      vertex   -1.302647e+01 2.249779e+01 3.000000e+00
      vertex   -1.302647e+01 2.249779e+01 2.000000e+00
      vertex   -1.322073e+01 2.260994e+01 3.000000e+00
    endloop
  endfacet
  facet normal 5.837437e-01 8.119380e-01 0.000000e+00
    outer loop
      vertex   -1.322073e+01 2.260994e+01 3.000000e+00
      vertex   -1.322073e+01 2.260994e+01 2.000000e+00
      vertex   -1.340285e+01 2.274088e+01 3.000000e+00
    endloop
  endfacet
  facet normal 6.616858e-01 7.497812e-01 0.000000e+00
    outer loop
      vertex   -1.340285e+01 2.274088e+01 3.000000e+00
      vertex   -1.340285e+01 2.274088e+01 2.000000e+00
      vertex   -1.357103e+01 2.288930e+01 3.000000e+00
    endloop
  endfacet
  facet normal 7.330519e-01 6.801727e-01 0.000000e+00
    outer loop
      vertex   -1.357103e+01 2.288930e+01 3.000000e+00
      vertex   -1.357103e+01 2.288930e+01 2.000000e+00
      vertex   -1.372360e+01 2.305373e+01 3.000000e+00
    endloop
  endfacet
  facet normal 7.971325e-01 6.038044e-01 0.000000e+00
    outer loop
      vertex   -1.372360e+01 2.305373e+01 3.000000e+00
      vertex   -1.372360e+01 2.305373e+01 2.000000e+00
      vertex   -1.385904e+01 2.323253e+01 3.000000e+00
    endloop
  endfacet
  facet normal 8.532909e-01 5.214352e-01 0.000000e+00
    outer loop
      vertex   -1.385904e+01 2.323253e+01 3.000000e+00
      vertex   -1.385904e+01 2.323253e+01 2.000000e+00
      vertex   -1.397600e+01 2.342393e+01 3.000000e+00
    endloop
  endfacet
  facet normal 9.009689e-01 4.338837e-01 0.000000e+00
    outer loop
      vertex   -1.397600e+01 2.342393e+01 3.000000e+00
      vertex   -1.397600e+01 2.342393e+01 2.000000e+00
      vertex   -1.407332e+01 2.362602e+01 3.000000e+00
    endloop
  endfacet
  facet normal 9.396926e-01 3.420201e-01 0.000000e+00
    outer loop
      vertex   -1.407332e+01 2.362602e+01 3.000000e+00
      vertex   -1.407332e+01 2.362602e+01 2.000000e+00
      vertex   -1.415004e+01 2.383680e+01 3.000000e+00
    endloop
  endfacet
  facet normal 9.690773e-01 2.467574e-01 0.000000e+00
    outer loop
      vertex   -1.415004e+01 2.383680e+01 3.000000e+00
      vertex   -1.415004e+01 2.383680e+01 2.000000e+00
      vertex   -1.420539e+01 2.405417e+01 3.000000e+00
    endloop
  endfacet
  facet normal 9.888308e-01 1.490423e-01 0.000000e+00
    outer loop
      vertex   -1.420539e+01 2.405417e+01 3.000000e+00
      vertex   -1.420539e+01 2.405417e+01 2.000000e+00
      vertex   -1.423882e+01 2.427597e+01 3.000000e+00
    endloop
  endfacet
  facet normal 9.987569e-01 4.984589e-02 0.000000e+00
    outer loop
      vertex   -1.423882e+01 2.427597e+01 3.000000e+00
      vertex   -1.423882e+01 2.427597e+01 2.000000e+00
      vertex   -1.425000e+01 2.450000e+01 3.000000e+00
    endloop
  endfacet
  facet normal 0.000000e+00 0.000000e+00 1.000000e+00
    outer loop
      vertex   -1.423882e+01 2.427597e+01 3.000000e+00
      vertex   -1.425000e+01 2.450000e+01 3.000000e+00
      vertex   -1.575000e+01 2.450000e+01 3.000000e+00
    endloop
  endfacet
  facet normal 0.000000e+00 0.000000e+00 1.000000e+00
    outer loop
      vertex   -1.420539e+01 2.405417e+01 3.000000e+00
      vertex   -1.575000e+01 2.450000e+01 3.000000e+00
      vertex   -1.415004e+01 2.383680e+01 3.000000e+00
    endloop
  endfacet
  facet normal 0.000000e+00 0.000000e+00 1.000000e+00
    outer loop
      vertex   -1.420539e+01 2.405417e+01 3.000000e+00
      vertex   -1.423882e+01 2.427597e+01 3.000000e+00
      vertex   -1.575000e+01 2.450000e+01 3.000000e+00
    endloop
  endfacet
  facet normal 0.000000e+00 -0.000000e+00 1.000000e+00
    outer loop
      vertex   -1.425000e+01 2.450000e+01 3.000000e+00
      vertex   -1.423882e+01 2.472403e+01 3.000000e+00
      vertex   -1.575000e+01 2.450000e+01 3.000000e+00
    endloop
  endfacet
  facet normal 0.000000e+00 0.000000e+00 1.000000e+00
    outer loop
      vertex   -1.575000e+01 2.450000e+01 3.000000e+00
      vertex   -1.423882e+01 2.472403e+01 3.000000e+00
      vertex   -1.420539e+01 2.494583e+01 3.000000e+00
    endloop
  endfacet
  facet normal -0.000000e+00 0.000000e+00 1.000000e+00
    outer loop
      vertex   -1.415004e+01 2.516320e+01 3.000000e+00
      vertex   -1.575000e+01 2.450000e+01 3.000000e+00
      vertex   -1.420539e+01 2.494583e+01 3.000000e+00
    endloop
  endfacet
  facet normal 0.000000e+00 -0.000000e+00 1.000000e+00
    outer loop
      vertex   -1.415004e+01 2.516320e+01 3.000000e+00
      vertex   -1.407332e+01 2.537398e+01 3.000000e+00
      vertex   -1.575000e+01 2.450000e+01 3.000000e+00
    endloop
  endfacet
  facet normal 0.000000e+00 -0.000000e+00 1.000000e+00
    outer loop
      vertex   -1.575000e+01 2.450000e+01 3.000000e+00
      vertex   -1.407332e+01 2.537398e+01 3.000000e+00
      vertex   -1.425000e+01 4.100000e+01 3.000000e+00
    endloop
  endfacet
  facet normal -0.000000e+00 0.000000e+00 1.000000e+00
    outer loop
      vertex   -1.425000e+01 4.100000e+01 3.000000e+00
      vertex   -1.407332e+01 2.537398e+01 3.000000e+00
      vertex   -1.397600e+01 2.557607e+01 3.000000e+00
    endloop
  endfacet
  facet normal 0.000000e+00 0.000000e+00 1.000000e+00
    outer loop
      vertex   -1.385904e+01 2.576747e+01 3.000000e+00
      vertex   -1.425000e+01 4.100000e+01 3.000000e+00
      vertex   -1.397600e+01 2.557607e+01 3.000000e+00
    endloop
  endfacet
  facet normal 0.000000e+00 -0.000000e+00 1.000000e+00
    outer loop
      vertex   -1.385904e+01 2.576747e+01 3.000000e+00
      vertex   -1.372360e+01 2.594627e+01 3.000000e+00
      vertex   -1.425000e+01 4.100000e+01 3.000000e+00
    endloop
  endfacet
  facet normal -0.000000e+00 0.000000e+00 1.000000e+00
    outer loop
      vertex   -1.425000e+01 4.100000e+01 3.000000e+00
      vertex   -1.372360e+01 2.594627e+01 3.000000e+00
      vertex   -1.357103e+01 2.611070e+01 3.000000e+00
    endloop
  endfacet
  facet normal 0.000000e+00 0.000000e+00 1.000000e+00
    outer loop
      vertex   -1.340285e+01 2.625912e+01 3.000000e+00
      vertex   -1.425000e+01 4.100000e+01 3.000000e+00
      vertex   -1.357103e+01 2.611070e+01 3.000000e+00
    endloop
  endfacet
  facet normal 0.000000e+00 -0.000000e+00 1.000000e+00
    outer loop
      vertex   -1.340285e+01 2.625912e+01 3.000000e+00
      vertex   -1.322073e+01 2.639006e+01 3.000000e+00
      vertex   -1.425000e+01 4.100000e+01 3.000000e+00
    endloop
  endfacet
  facet normal -0.000000e+00 0.000000e+00 1.000000e+00
    outer loop
      vertex   -1.425000e+01 4.100000e+01 3.000000e+00
      vertex   -1.322073e+01 2.639006e+01 3.000000e+00
      vertex   -1.302647e+01 2.650221e+01 3.000000e+00
    endloop
  endfacet
  facet normal 0.000000e+00 0.000000e+00 1.000000e+00
    outer loop
      vertex   -1.282202e+01 2.659447e+01 3.000000e+00
      vertex   -1.425000e+01 4.100000e+01 3.000000e+00
      vertex   -1.302647e+01 2.650221e+01 3.000000e+00
    endloop
  endfacet
  facet normal 0.000000e+00 -0.000000e+00 1.000000e+00
    outer loop
      vertex   -1.282202e+01 2.659447e+01 3.000000e+00
      vertex   -1.260939e+01 2.666590e+01 3.000000e+00
      vertex   -1.425000e+01 4.100000e+01 3.000000e+00
    endloop
  endfacet
  facet normal -0.000000e+00 0.000000e+00 1.000000e+00
    outer loop
      vertex   -1.425000e+01 4.100000e+01 3.000000e+00
      vertex   -1.260939e+01 2.666590e+01 3.000000e+00
      vertex   -1.239071e+01 2.671582e+01 3.000000e+00
    endloop
  endfacet
  facet normal 0.000000e+00 0.000000e+00 1.000000e+00
    outer loop
      vertex   -1.216814e+01 2.674371e+01 3.000000e+00
      vertex   -1.425000e+01 4.100000e+01 3.000000e+00
      vertex   -1.239071e+01 2.671582e+01 3.000000e+00
    endloop
  endfacet
  facet normal 0.000000e+00 -0.000000e+00 1.000000e+00
    outer loop
      vertex   -1.216814e+01 2.674371e+01 3.000000e+00
      vertex   -1.194391e+01 2.674930e+01 3.000000e+00
      vertex   -1.425000e+01 4.100000e+01 3.000000e+00
    endloop
  endfacet
  facet normal -0.000000e+00 0.000000e+00 1.000000e+00
    outer loop
      vertex   -1.425000e+01 4.100000e+01 3.000000e+00
      vertex   -1.194391e+01 2.674930e+01 3.000000e+00
      vertex   -9.750000e+00 4.100000e+01 3.000000e+00
    endloop
  endfacet
  facet normal 0.000000e+00 0.000000e+00 1.000000e+00
    outer loop
      vertex   -9.750000e+00 4.100000e+01 3.000000e+00
      vertex   -1.194391e+01 2.674930e+01 3.000000e+00
      vertex   -1.172023e+01 2.673254e+01 3.000000e+00
    endloop
  endfacet
  facet normal 0.000000e+00 -0.000000e+00 1.000000e+00
    outer loop
      vertex   -1.149933e+01 2.669359e+01 3.000000e+00
      vertex   -9.750000e+00 4.100000e+01 3.000000e+00
      vertex   -1.172023e+01 2.673254e+01 3.000000e+00
    endloop
  endfacet
  facet normal -0.000000e+00 0.000000e+00 1.000000e+00
    outer loop
      vertex   -1.149933e+01 2.669359e+01 3.000000e+00
      vertex   -1.128341e+01 2.663284e+01 3.000000e+00
      vertex   -9.750000e+00 4.100000e+01 3.000000e+00
    endloop
  endfacet
  facet normal 0.000000e+00 0.000000e+00 1.000000e+00
    outer loop
      vertex   -9.750000e+00 4.100000e+01 3.000000e+00
      vertex   -1.128341e+01 2.663284e+01 3.000000e+00
      vertex   -1.107460e+01 2.655089e+01 3.000000e+00
    endloop
  endfacet
  facet normal 0.000000e+00 -0.000000e+00 1.000000e+00
    outer loop
      vertex   -1.087500e+01 2.644856e+01 3.000000e+00
      vertex   -9.750000e+00 4.100000e+01 3.000000e+00
      vertex   -1.107460e+01 2.655089e+01 3.000000e+00
    endloop
  endfacet
  facet normal -0.000000e+00 0.000000e+00 1.000000e+00
    outer loop
      vertex   -1.087500e+01 2.644856e+01 3.000000e+00
      vertex   -1.068658e+01 2.632686e+01 3.000000e+00
      vertex   -9.750000e+00 4.100000e+01 3.000000e+00
    endloop
  endfacet
  facet normal 0.000000e+00 0.000000e+00 1.000000e+00
    outer loop
      vertex   -9.750000e+00 4.100000e+01 3.000000e+00
      vertex   -1.068658e+01 2.632686e+01 3.000000e+00
      vertex   -1.051121e+01 2.618701e+01 3.000000e+00
    endloop
  endfacet
  facet normal 0.000000e+00 -0.000000e+00 1.000000e+00
    outer loop
      vertex   -1.035063e+01 2.603039e+01 3.000000e+00
      vertex   -9.750000e+00 4.100000e+01 3.000000e+00
      vertex   -1.051121e+01 2.618701e+01 3.000000e+00
    endloop
  endfacet
  facet normal -0.000000e+00 0.000000e+00 1.000000e+00
    outer loop
      vertex   -1.035063e+01 2.603039e+01 3.000000e+00
      vertex   -1.020645e+01 2.585856e+01 3.000000e+00
      vertex   -9.750000e+00 4.100000e+01 3.000000e+00
    endloop
  endfacet
  facet normal 0.000000e+00 0.000000e+00 1.000000e+00
    outer loop
      vertex   -9.750000e+00 4.100000e+01 3.000000e+00
      vertex   -1.020645e+01 2.585856e+01 3.000000e+00
      vertex   -1.008010e+01 2.567323e+01 3.000000e+00
    endloop
  endfacet
  facet normal 0.000000e+00 -0.000000e+00 1.000000e+00
    outer loop
      vertex   -9.972820e+00 2.547624e+01 3.000000e+00
      vertex   -9.750000e+00 4.100000e+01 3.000000e+00
      vertex   -1.008010e+01 2.567323e+01 3.000000e+00
    endloop
  endfacet
  facet normal -0.000000e+00 0.000000e+00 1.000000e+00
    outer loop
      vertex   -9.972820e+00 2.547624e+01 3.000000e+00
      vertex   -9.885692e+00 2.526955e+01 3.000000e+00
      vertex   -9.750000e+00 4.100000e+01 3.000000e+00
    endloop
  endfacet
  facet normal 0.000000e+00 0.000000e+00 1.000000e+00
    outer loop
      vertex   -9.750000e+00 4.100000e+01 3.000000e+00
      vertex   -9.885692e+00 2.526955e+01 3.000000e+00
      vertex   -8.250000e+00 2.450000e+01 3.000000e+00
    endloop
  endfacet
  facet normal 0.000000e+00 0.000000e+00 1.000000e+00
    outer loop
      vertex   -8.250000e+00 2.450000e+01 3.000000e+00
      vertex   -9.885692e+00 2.526955e+01 3.000000e+00
      vertex   -9.819576e+00 2.505520e+01 3.000000e+00
    endloop
  endfacet
  facet normal -0.000000e+00 -0.000000e+00 1.000000e+00
    outer loop
      vertex   -9.775131e+00 2.483535e+01 3.000000e+00
      vertex   -8.250000e+00 2.450000e+01 3.000000e+00
      vertex   -9.819576e+00 2.505520e+01 3.000000e+00
    endloop
  endfacet
  facet normal 0.000000e+00 0.000000e+00 1.000000e+00
    outer loop
      vertex   -9.775131e+00 2.483535e+01 3.000000e+00
      vertex   -9.752797e+00 2.461215e+01 3.000000e+00
      vertex   -8.250000e+00 2.450000e+01 3.000000e+00
    endloop
  endfacet
  facet normal 0.000000e+00 0.000000e+00 1.000000e+00
    outer loop
      vertex   -8.250000e+00 2.450000e+01 3.000000e+00
      vertex   -9.752797e+00 2.461215e+01 3.000000e+00
      vertex   -9.752797e+00 2.438785e+01 3.000000e+00
    endloop
  endfacet
  facet normal 0.000000e+00 -0.000000e+00 1.000000e+00
    outer loop
      vertex   -9.775131e+00 2.416465e+01 3.000000e+00
      vertex   -8.250000e+00 2.450000e+01 3.000000e+00
      vertex   -9.752797e+00 2.438785e+01 3.000000e+00
    endloop
  endfacet
  facet normal -0.000000e+00 0.000000e+00 1.000000e+00
    outer loop
      vertex   -9.775131e+00 2.416465e+01 3.000000e+00
      vertex   -9.819576e+00 2.394480e+01 3.000000e+00
      vertex   -8.250000e+00 2.450000e+01 3.000000e+00
    endloop
  endfacet
  facet normal 0.000000e+00 0.000000e+00 1.000000e+00
    outer loop
      vertex   -8.250000e+00 2.450000e+01 3.000000e+00
      vertex   -9.819576e+00 2.394480e+01 3.000000e+00
      vertex   -9.885692e+00 2.373045e+01 3.000000e+00
    endloop
  endfacet
  facet normal 0.000000e+00 0.000000e+00 1.000000e+00
    outer loop
      vertex   -9.750000e+00 8.000000e+00 3.000000e+00
      vertex   -9.885692e+00 2.373045e+01 3.000000e+00
      vertex   -9.972820e+00 2.352376e+01 3.000000e+00
    endloop
  endfacet
  facet normal -0.000000e+00 -0.000000e+00 1.000000e+00
    outer loop
      vertex   -1.008010e+01 2.332677e+01 3.000000e+00
      vertex   -9.750000e+00 8.000000e+00 3.000000e+00
      vertex   -9.972820e+00 2.352376e+01 3.000000e+00
    endloop
  endfacet
  facet normal 0.000000e+00 0.000000e+00 1.000000e+00
    outer loop
      vertex   -1.008010e+01 2.332677e+01 3.000000e+00
      vertex   -1.020645e+01 2.314144e+01 3.000000e+00
      vertex   -9.750000e+00 8.000000e+00 3.000000e+00
    endloop
  endfacet
  facet normal 0.000000e+00 0.000000e+00 1.000000e+00
    outer loop
      vertex   -9.750000e+00 8.000000e+00 3.000000e+00
      vertex   -1.020645e+01 2.314144e+01 3.000000e+00
      vertex   -1.035063e+01 2.296961e+01 3.000000e+00
    endloop
  endfacet
  facet normal -0.000000e+00 -0.000000e+00 1.000000e+00
    outer loop
      vertex   -1.051121e+01 2.281299e+01 3.000000e+00
      vertex   -9.750000e+00 8.000000e+00 3.000000e+00
      vertex   -1.035063e+01 2.296961e+01 3.000000e+00
    endloop
  endfacet
  facet normal 0.000000e+00 0.000000e+00 1.000000e+00
    outer loop
      vertex   -1.051121e+01 2.281299e+01 3.000000e+00
      vertex   -1.068658e+01 2.267314e+01 3.000000e+00
      vertex   -9.750000e+00 8.000000e+00 3.000000e+00
    endloop
  endfacet
  facet normal 0.000000e+00 0.000000e+00 1.000000e+00
    outer loop
      vertex   -9.750000e+00 8.000000e+00 3.000000e+00
      vertex   -1.068658e+01 2.267314e+01 3.000000e+00
      vertex   -1.087500e+01 2.255144e+01 3.000000e+00
    endloop
  endfacet
  facet normal -0.000000e+00 -0.000000e+00 1.000000e+00
    outer loop
      vertex   -1.107460e+01 2.244911e+01 3.000000e+00
      vertex   -9.750000e+00 8.000000e+00 3.000000e+00
      vertex   -1.087500e+01 2.255144e+01 3.000000e+00
    endloop
  endfacet
  facet normal 0.000000e+00 0.000000e+00 1.000000e+00
    outer loop
      vertex   -1.107460e+01 2.244911e+01 3.000000e+00
      vertex   -1.128341e+01 2.236716e+01 3.000000e+00
      vertex   -9.750000e+00 8.000000e+00 3.000000e+00
    endloop
  endfacet
  facet normal 0.000000e+00 0.000000e+00 1.000000e+00
    outer loop
      vertex   -9.750000e+00 8.000000e+00 3.000000e+00
      vertex   -1.128341e+01 2.236716e+01 3.000000e+00
      vertex   -1.149933e+01 2.230641e+01 3.000000e+00
    endloop
  endfacet
  facet normal -0.000000e+00 -0.000000e+00 1.000000e+00
    outer loop
      vertex   -1.172023e+01 2.226746e+01 3.000000e+00
      vertex   -9.750000e+00 8.000000e+00 3.000000e+00
      vertex   -1.149933e+01 2.230641e+01 3.000000e+00
    endloop
  endfacet
  facet normal 0.000000e+00 0.000000e+00 1.000000e+00
    outer loop
      vertex   -1.172023e+01 2.226746e+01 3.000000e+00
      vertex   -1.194391e+01 2.225070e+01 3.000000e+00
      vertex   -9.750000e+00 8.000000e+00 3.000000e+00
    endloop
  endfacet
  facet normal 0.000000e+00 0.000000e+00 1.000000e+00
    outer loop
      vertex   -9.750000e+00 8.000000e+00 3.000000e+00
      vertex   -1.194391e+01 2.225070e+01 3.000000e+00
      vertex   -1.425000e+01 8.000000e+00 3.000000e+00
    endloop
  endfacet
  facet normal 0.000000e+00 -0.000000e+00 1.000000e+00
    outer loop
      vertex   -1.425000e+01 8.000000e+00 3.000000e+00
      vertex   -1.194391e+01 2.225070e+01 3.000000e+00
      vertex   -1.216814e+01 2.225629e+01 3.000000e+00
    endloop
  endfacet
  facet normal -0.000000e+00 0.000000e+00 1.000000e+00
    outer loop
      vertex   -1.239071e+01 2.228418e+01 3.000000e+00
      vertex   -1.425000e+01 8.000000e+00 3.000000e+00
      vertex   -1.216814e+01 2.225629e+01 3.000000e+00
    endloop
  endfacet
  facet normal 0.000000e+00 0.000000e+00 1.000000e+00
    outer loop
      vertex   -1.239071e+01 2.228418e+01 3.000000e+00
      vertex   -1.260939e+01 2.233410e+01 3.000000e+00
      vertex   -1.425000e+01 8.000000e+00 3.000000e+00
    endloop
  endfacet
  facet normal 0.000000e+00 -0.000000e+00 1.000000e+00
    outer loop
      vertex   -1.425000e+01 8.000000e+00 3.000000e+00
      vertex   -1.260939e+01 2.233410e+01 3.000000e+00
      vertex   -1.282202e+01 2.240553e+01 3.000000e+00
    endloop
  endfacet
  facet normal -0.000000e+00 0.000000e+00 1.000000e+00
    outer loop
      vertex   -1.302647e+01 2.249779e+01 3.000000e+00
      vertex   -1.425000e+01 8.000000e+00 3.000000e+00
      vertex   -1.282202e+01 2.240553e+01 3.000000e+00
    endloop
  endfacet
  facet normal 0.000000e+00 0.000000e+00 1.000000e+00
    outer loop
      vertex   -1.302647e+01 2.249779e+01 3.000000e+00
      vertex   -1.322073e+01 2.260994e+01 3.000000e+00
      vertex   -1.425000e+01 8.000000e+00 3.000000e+00
    endloop
  endfacet
  facet normal 0.000000e+00 -0.000000e+00 1.000000e+00
    outer loop
      vertex   -1.425000e+01 8.000000e+00 3.000000e+00
      vertex   -1.322073e+01 2.260994e+01 3.000000e+00
      vertex   -1.340285e+01 2.274088e+01 3.000000e+00
    endloop
  endfacet
  facet normal -0.000000e+00 0.000000e+00 1.000000e+00
    outer loop
      vertex   -1.357103e+01 2.288930e+01 3.000000e+00
      vertex   -1.425000e+01 8.000000e+00 3.000000e+00
      vertex   -1.340285e+01 2.274088e+01 3.000000e+00
    endloop
  endfacet
  facet normal 0.000000e+00 0.000000e+00 1.000000e+00
    outer loop
      vertex   -1.357103e+01 2.288930e+01 3.000000e+00
      vertex   -1.372360e+01 2.305373e+01 3.000000e+00
      vertex   -1.425000e+01 8.000000e+00 3.000000e+00
    endloop
  endfacet
  facet normal 0.000000e+00 -0.000000e+00 1.000000e+00
    outer loop
      vertex   -1.425000e+01 8.000000e+00 3.000000e+00
      vertex   -1.372360e+01 2.305373e+01 3.000000e+00
      vertex   -1.385904e+01 2.323253e+01 3.000000e+00
    endloop
  endfacet
  facet normal -0.000000e+00 0.000000e+00 1.000000e+00
    outer loop
      vertex   -1.397600e+01 2.342393e+01 3.000000e+00
      vertex   -1.425000e+01 8.000000e+00 3.000000e+00
      vertex   -1.385904e+01 2.323253e+01 3.000000e+00
    endloop
  endfacet
  facet normal 0.000000e+00 0.000000e+00 1.000000e+00
    outer loop
      vertex   -1.397600e+01 2.342393e+01 3.000000e+00
      vertex   -1.407332e+01 2.362602e+01 3.000000e+00
      vertex   -1.425000e+01 8.000000e+00 3.000000e+00
    endloop
  endfacet
  facet normal 0.000000e+00 -0.000000e+00 1.000000e+00
    outer loop
      vertex   -1.425000e+01 8.000000e+00 3.000000e+00
      vertex   -1.407332e+01 2.362602e+01 3.000000e+00
      vertex   -1.575000e+01 2.450000e+01 3.000000e+00
    endloop
  endfacet
  facet normal -0.000000e+00 -0.000000e+00 1.000000e+00
    outer loop
      vertex   -1.575000e+01 2.450000e+01 3.000000e+00
      vertex   -1.407332e+01 2.362602e+01 3.000000e+00
      vertex   -1.415004e+01 2.383680e+01 3.000000e+00
    endloop
  endfacet
  facet normal 0.000000e+00 0.000000e+00 1.000000e+00
    outer loop
      vertex   -8.250000e+00 2.450000e+01 3.000000e+00
      vertex   -9.885692e+00 2.373045e+01 3.000000e+00
      vertex   -9.750000e+00 8.000000e+00 3.000000e+00
    endloop
  endfacet
  facet normal 0.000000e+00 0.000000e+00 -1.000000e+00
    outer loop
      vertex   -5.250000e+00 5.000000e+00 0.000000e+00
      vertex   -1.875000e+01 5.000000e+00 0.000000e+00
      vertex   -5.250000e+00 4.400000e+01 0.000000e+00
    endloop
  endfacet
  facet normal -0.000000e+00 0.000000e+00 -1.000000e+00
    outer loop
      vertex   -5.250000e+00 4.400000e+01 0.000000e+00
      vertex   -1.875000e+01 5.000000e+00 0.000000e+00
      vertex   -1.875000e+01 4.400000e+01 0.000000e+00
    endloop
  endfacet
endsolid
